<svg version="1.1" viewBox="0.0 0.0 1052.0 651.0" fill="none" stroke="none" stroke-linecap="square" stroke-miterlimit="10" width="1052" height="651" xmlns:xlink="http://www.w3.org/1999/xlink" xmlns="http://www.w3.org/2000/svg"><path fill="#ffffff" d="M0 0L1052.0 0L1052.0 651.0L0 651.0L0 0Z" fill-rule="nonzero"/><path stroke="#333333" stroke-width="1.0" stroke-linecap="butt" d="M134.5 85.5L134.5 534.5" fill-rule="nonzero"/><path stroke="#cccccc" stroke-width="1.0" stroke-linecap="butt" d="M318.5 85.5L318.5 534.5" fill-rule="nonzero"/><path stroke="#cccccc" stroke-width="1.0" stroke-linecap="butt" d="M502.5 85.5L502.5 534.5" fill-rule="nonzero"/><path stroke="#cccccc" stroke-width="1.0" stroke-linecap="butt" d="M687.5 85.5L687.5 534.5" fill-rule="nonzero"/><path stroke="#cccccc" stroke-width="1.0" stroke-linecap="butt" d="M871.5 85.5L871.5 534.5" fill-rule="nonzero"/><path stroke="#cccccc" stroke-width="1.0" stroke-linecap="butt" d="M134.5 534.5L1019.5 534.5" fill-rule="nonzero"/><path stroke="#cccccc" stroke-width="1.0" stroke-linecap="butt" d="M134.5 422.5L1019.5 422.5" fill-rule="nonzero"/><path stroke="#cccccc" stroke-width="1.0" stroke-linecap="butt" d="M134.5 309.5L1019.5 309.5" fill-rule="nonzero"/><path stroke="#cccccc" stroke-width="1.0" stroke-linecap="butt" d="M134.5 197.5L1019.5 197.5" fill-rule="nonzero"/><path stroke="#cccccc" stroke-width="1.0" stroke-linecap="butt" d="M134.5 85.5L1019.5 85.5" fill-rule="nonzero"/><path stroke="#000000" stroke-width="1.0" stroke-linecap="butt" stroke-opacity="0.0" d="M134.5 497.5L1019.5 497.5" fill-rule="nonzero"/><path stroke="#000000" stroke-width="1.0" stroke-linecap="butt" stroke-opacity="0.0" d="M134.5 459.5L1019.5 459.5" fill-rule="nonzero"/><path stroke="#000000" stroke-width="1.0" stroke-linecap="butt" stroke-opacity="0.0" d="M134.5 384.5L1019.5 384.5" fill-rule="nonzero"/><path stroke="#000000" stroke-width="1.0" stroke-linecap="butt" stroke-opacity="0.0" d="M134.5 347.5L1019.5 347.5" fill-rule="nonzero"/><path stroke="#000000" stroke-width="1.0" stroke-linecap="butt" stroke-opacity="0.0" d="M134.5 272.5L1019.5 272.5" fill-rule="nonzero"/><path stroke="#000000" stroke-width="1.0" stroke-linecap="butt" stroke-opacity="0.0" d="M134.5 234.5L1019.5 234.5" fill-rule="nonzero"/><path stroke="#000000" stroke-width="1.0" stroke-linecap="butt" stroke-opacity="0.0" d="M134.5 160.5L1019.5 160.5" fill-rule="nonzero"/><path stroke="#000000" stroke-width="1.0" stroke-linecap="butt" stroke-opacity="0.0" d="M134.5 122.5L1019.5 122.5" fill-rule="nonzero"/><clipPath id="id_0"><path d="M134.55 85.25L1019.45 85.25L1019.45 534.45L134.55 534.45L134.55 85.25Z" clip-rule="nonzero"/></clipPath><path stroke="#4285f4" stroke-width="2.0" stroke-linecap="butt" clip-path="url(#id_0)" d="M196.77272 300.73862L258.99542 297.26495L321.21814 319.3177L383.44086 308.2769L445.66357 306.24933L507.8863 316.81274L570.109 312.18582L632.3317 306.49994L694.55444 318.3842L756.77716 328.05148L818.9999 331.37848L881.2226 328.00934L943.4453 332.74417L1005.668 337.7031" fill-rule="nonzero"/><path stroke="#ea4335" stroke-width="2.0" stroke-linecap="butt" clip-path="url(#id_0)" d="M196.77272 379.32434L258.99542 364.6625L321.21814 362.4274L383.44086 362.68066L445.66357 358.50723L507.8863 349.0907L570.109 350.26428L632.3317 345.38278L694.55444 355.20187L756.77716 347.36987L818.9999 351.41754L881.2226 346.6727L943.4453 347.9128L1005.668 349.73932" fill-rule="nonzero"/><path stroke="#fbbc04" stroke-width="4.0" stroke-linecap="butt" clip-path="url(#id_0)" d="M196.77272 391.81033L258.99542 380.0818L321.21814 397.39792L383.44086 377.19928L445.66357 375.19998L507.8863 361.59244L570.109 345.60217L632.3317 344.417L694.55444 348.54694L756.77716 343.58298L818.9999 349.4209L881.2226 344.19278L943.4453 340.33994L1005.668 340.3292" fill-rule="nonzero"/><path stroke="#34a853" stroke-width="2.0" stroke-linecap="butt" clip-path="url(#id_0)" d="M196.77272 210.00435L258.99542 180.22932L321.21814 195.93854L383.44086 176.54431L445.66357 160.6363L507.8863 156.04642L570.109 142.28189L632.3317 131.43155L694.55444 124.985695L756.77716 131.96223L818.9999 124.83699L881.2226 102.63338L943.4453 86.396996L1005.668 96.9108" fill-rule="nonzero"/><path fill="#4285f4" clip-path="url(#id_0)" d="M202.77272 300.73862C202.77272 304.0523 200.08643 306.73862 196.77272 306.73862C193.45901 306.73862 190.77272 304.0523 190.77272 300.73862C190.77272 297.4249 193.45901 294.73862 196.77272 294.73862C200.08643 294.73862 202.77272 297.4249 202.77272 300.73862Z" fill-rule="nonzero"/><path fill="#4285f4" clip-path="url(#id_0)" d="M264.99542 297.26495C264.99542 300.57867 262.30914 303.26495 258.99542 303.26495C255.68173 303.26495 252.99544 300.57867 252.99544 297.26495C252.99544 293.95126 255.68173 291.26495 258.99542 291.26495C262.30914 291.26495 264.99542 293.95126 264.99542 297.26495Z" fill-rule="nonzero"/><path fill="#4285f4" clip-path="url(#id_0)" d="M327.21814 319.3177C327.21814 322.63138 324.53186 325.3177 321.21814 325.3177C317.90445 325.3177 315.21814 322.63138 315.21814 319.3177C315.21814 316.00397 317.90445 313.3177 321.21814 313.3177C324.53186 313.3177 327.21814 316.00397 327.21814 319.3177Z" fill-rule="nonzero"/><path fill="#4285f4" clip-path="url(#id_0)" d="M389.44086 308.2769C389.44086 311.59058 386.75458 314.2769 383.44086 314.2769C380.12717 314.2769 377.44086 311.59058 377.44086 308.2769C377.44086 304.96317 380.12717 302.2769 383.44086 302.2769C386.75458 302.2769 389.44086 304.96317 389.44086 308.2769Z" fill-rule="nonzero"/><path fill="#4285f4" clip-path="url(#id_0)" d="M451.66357 306.24933C451.66357 309.56305 448.9773 312.24933 445.66357 312.24933C442.34988 312.24933 439.66357 309.56305 439.66357 306.24933C439.66357 302.93564 442.34988 300.24933 445.66357 300.24933C448.9773 300.24933 451.66357 302.93564 451.66357 306.24933Z" fill-rule="nonzero"/><path fill="#4285f4" clip-path="url(#id_0)" d="M513.8863 316.81274C513.8863 320.12643 511.2 322.81274 507.8863 322.81274C504.5726 322.81274 501.8863 320.12643 501.8863 316.81274C501.8863 313.49902 504.5726 310.81274 507.8863 310.81274C511.2 310.81274 513.8863 313.49902 513.8863 316.81274Z" fill-rule="nonzero"/><path fill="#4285f4" clip-path="url(#id_0)" d="M576.109 312.18582C576.109 315.4995 573.4227 318.18582 570.109 318.18582C566.7953 318.18582 564.109 315.4995 564.109 312.18582C564.109 308.8721 566.7953 306.18582 570.109 306.18582C573.4227 306.18582 576.109 308.8721 576.109 312.18582Z" fill-rule="nonzero"/><path fill="#4285f4" clip-path="url(#id_0)" d="M638.3317 306.49994C638.3317 309.81366 635.64545 312.49994 632.3317 312.49994C629.018 312.49994 626.3317 309.81366 626.3317 306.49994C626.3317 303.18622 629.018 300.49994 632.3317 300.49994C635.64545 300.49994 638.3317 303.18622 638.3317 306.49994Z" fill-rule="nonzero"/><path fill="#4285f4" clip-path="url(#id_0)" d="M700.55444 318.3842C700.55444 321.6979 697.86816 324.3842 694.55444 324.3842C691.2407 324.3842 688.55444 321.6979 688.55444 318.3842C688.55444 315.07047 691.2407 312.3842 694.55444 312.3842C697.86816 312.3842 700.55444 315.07047 700.55444 318.3842Z" fill-rule="nonzero"/><path fill="#4285f4" clip-path="url(#id_0)" d="M762.77716 328.05148C762.77716 331.3652 760.0909 334.05148 756.77716 334.05148C753.46344 334.05148 750.77716 331.3652 750.77716 328.05148C750.77716 324.7378 753.46344 322.05148 756.77716 322.05148C760.0909 322.05148 762.77716 324.7378 762.77716 328.05148Z" fill-rule="nonzero"/><path fill="#4285f4" clip-path="url(#id_0)" d="M824.9999 331.37848C824.9999 334.6922 822.3136 337.37848 818.9999 337.37848C815.68616 337.37848 812.9999 334.6922 812.9999 331.37848C812.9999 328.0648 815.68616 325.37848 818.9999 325.37848C822.3136 325.37848 824.9999 328.0648 824.9999 331.37848Z" fill-rule="nonzero"/><path fill="#4285f4" clip-path="url(#id_0)" d="M887.2226 328.00934C887.2226 331.32306 884.5363 334.00934 881.2226 334.00934C877.9089 334.00934 875.2226 331.32306 875.2226 328.00934C875.2226 324.69565 877.9089 322.00934 881.2226 322.00934C884.5363 322.00934 887.2226 324.69565 887.2226 328.00934Z" fill-rule="nonzero"/><path fill="#4285f4" clip-path="url(#id_0)" d="M949.4453 332.74417C949.4453 336.0579 946.75903 338.74417 943.4453 338.74417C940.1316 338.74417 937.4453 336.0579 937.4453 332.74417C937.4453 329.43048 940.1316 326.74417 943.4453 326.74417C946.75903 326.74417 949.4453 329.43048 949.4453 332.74417Z" fill-rule="nonzero"/><path fill="#4285f4" clip-path="url(#id_0)" d="M1011.668 337.7031C1011.668 341.0168 1008.98175 343.7031 1005.668 343.7031C1002.3543 343.7031 999.668 341.0168 999.668 337.7031C999.668 334.38937 1002.3543 331.7031 1005.668 331.7031C1008.98175 331.7031 1011.668 334.38937 1011.668 337.7031Z" fill-rule="nonzero"/><path fill="#ea4335" clip-path="url(#id_0)" d="M196.77272 373.32434L201.96887 382.32434L191.57657 382.32434Z" fill-rule="nonzero"/><path fill="#ea4335" clip-path="url(#id_0)" d="M258.99542 358.6625L264.1916 367.6625L253.79929 367.6625Z" fill-rule="nonzero"/><path fill="#ea4335" clip-path="url(#id_0)" d="M321.21814 356.4274L326.4143 365.4274L316.022 365.4274Z" fill-rule="nonzero"/><path fill="#ea4335" clip-path="url(#id_0)" d="M383.44086 356.68066L388.63702 365.68066L378.24472 365.68066Z" fill-rule="nonzero"/><path fill="#ea4335" clip-path="url(#id_0)" d="M445.66357 352.50723L450.85974 361.50723L440.46744 361.50723Z" fill-rule="nonzero"/><path fill="#ea4335" clip-path="url(#id_0)" d="M507.8863 343.0907L513.08246 352.0907L502.69016 352.0907Z" fill-rule="nonzero"/><path fill="#ea4335" clip-path="url(#id_0)" d="M570.109 344.26428L575.3052 353.26428L564.91284 353.26428Z" fill-rule="nonzero"/><path fill="#ea4335" clip-path="url(#id_0)" d="M632.3317 339.38278L637.5279 348.38278L627.13556 348.38278Z" fill-rule="nonzero"/><path fill="#ea4335" clip-path="url(#id_0)" d="M694.55444 349.20187L699.7506 358.20187L689.3583 358.20187Z" fill-rule="nonzero"/><path fill="#ea4335" clip-path="url(#id_0)" d="M756.77716 341.36987L761.9733 350.36987L751.581 350.36987Z" fill-rule="nonzero"/><path fill="#ea4335" clip-path="url(#id_0)" d="M818.9999 345.41754L824.19604 354.41754L813.8037 354.41754Z" fill-rule="nonzero"/><path fill="#ea4335" clip-path="url(#id_0)" d="M881.2226 340.6727L886.41876 349.6727L876.0264 349.6727Z" fill-rule="nonzero"/><path fill="#ea4335" clip-path="url(#id_0)" d="M943.4453 341.9128L948.6415 350.9128L938.24915 350.9128Z" fill-rule="nonzero"/><path fill="#ea4335" clip-path="url(#id_0)" d="M1005.668 343.73932L1010.8642 352.73932L1000.47186 352.73932Z" fill-rule="nonzero"/><path fill="#fbbc04" clip-path="url(#id_0)" d="M191.11586 386.15347L202.42957 386.15347L202.42957 397.4672L191.11586 397.4672Z" fill-rule="nonzero"/><path fill="#fbbc04" clip-path="url(#id_0)" d="M253.33858 374.42493L264.65228 374.42493L264.65228 385.73865L253.33858 385.73865Z" fill-rule="nonzero"/><path fill="#fbbc04" clip-path="url(#id_0)" d="M315.5613 391.74106L326.875 391.74106L326.875 403.05478L315.5613 403.05478Z" fill-rule="nonzero"/><path fill="#fbbc04" clip-path="url(#id_0)" d="M377.78403 371.54242L389.09772 371.54242L389.09772 382.85614L377.78403 382.85614Z" fill-rule="nonzero"/><path fill="#fbbc04" clip-path="url(#id_0)" d="M440.00674 369.54312L451.32043 369.54312L451.32043 380.8568L440.00674 380.8568Z" fill-rule="nonzero"/><path fill="#fbbc04" clip-path="url(#id_0)" d="M502.22946 355.93558L513.54315 355.93558L513.54315 367.2493L502.22946 367.2493Z" fill-rule="nonzero"/><path fill="#fbbc04" clip-path="url(#id_0)" d="M564.45215 339.94534L575.76587 339.94534L575.76587 351.25903L564.45215 351.25903Z" fill-rule="nonzero"/><path fill="#fbbc04" clip-path="url(#id_0)" d="M626.67487 338.76016L637.9886 338.76016L637.9886 350.07385L626.67487 350.07385Z" fill-rule="nonzero"/><path fill="#fbbc04" clip-path="url(#id_0)" d="M688.8976 342.89008L700.2113 342.89008L700.2113 354.2038L688.8976 354.2038Z" fill-rule="nonzero"/><path fill="#fbbc04" clip-path="url(#id_0)" d="M751.1203 337.92612L762.434 337.92612L762.434 349.23984L751.1203 349.23984Z" fill-rule="nonzero"/><path fill="#fbbc04" clip-path="url(#id_0)" d="M813.343 343.76404L824.65674 343.76404L824.65674 355.07773L813.343 355.07773Z" fill-rule="nonzero"/><path fill="#fbbc04" clip-path="url(#id_0)" d="M875.56573 338.53592L886.87946 338.53592L886.87946 349.84964L875.56573 349.84964Z" fill-rule="nonzero"/><path fill="#fbbc04" clip-path="url(#id_0)" d="M937.78845 334.6831L949.1022 334.6831L949.1022 345.9968L937.78845 345.9968Z" fill-rule="nonzero"/><path fill="#fbbc04" clip-path="url(#id_0)" d="M1000.01117 334.67233L1011.3249 334.67233L1011.3249 345.98602L1000.01117 345.98602Z" fill-rule="nonzero"/><path fill="#34a853" clip-path="url(#id_0)" d="M196.77272 204.00435L198.1198 208.15024L202.47905 208.15024L198.95235 210.71254L200.29942 214.85844L196.77272 212.29614L193.246 214.85844L194.5931 210.71254L191.06638 208.15024L195.42563 208.15024Z" fill-rule="nonzero"/><path fill="#34a853" clip-path="url(#id_0)" d="M258.99542 174.22932L260.34253 178.37523L264.70178 178.37523L261.17505 180.93753L262.52216 185.08342L258.99542 182.52112L255.46872 185.08342L256.8158 180.93753L253.2891 178.37523L257.64835 178.37523Z" fill-rule="nonzero"/><path fill="#34a853" clip-path="url(#id_0)" d="M321.21814 189.93854L322.56525 194.08443L326.9245 194.08443L323.39777 196.64673L324.74487 200.79263L321.21814 198.23033L317.69144 200.79263L319.0385 196.64673L315.5118 194.08443L319.87106 194.08443Z" fill-rule="nonzero"/><path fill="#34a853" clip-path="url(#id_0)" d="M383.44086 170.54431L384.78796 174.69022L389.14722 174.69022L385.62048 177.25252L386.9676 181.39842L383.44086 178.83612L379.91415 181.39842L381.26123 177.25252L377.73453 174.69022L382.09378 174.69022Z" fill-rule="nonzero"/><path fill="#34a853" clip-path="url(#id_0)" d="M445.66357 154.6363L447.01068 158.7822L451.36993 158.7822L447.8432 161.34451L449.1903 165.4904L445.66357 162.9281L442.13687 165.4904L443.48395 161.34451L439.95724 158.7822L444.3165 158.7822Z" fill-rule="nonzero"/><path fill="#34a853" clip-path="url(#id_0)" d="M507.8863 150.04642L509.2334 154.1923L513.59265 154.1923L510.06592 156.75462L511.41302 160.90051L507.8863 158.33821L504.3596 160.90051L505.70667 156.75462L502.17996 154.1923L506.5392 154.1923Z" fill-rule="nonzero"/><path fill="#34a853" clip-path="url(#id_0)" d="M570.109 136.28189L571.4561 140.42778L575.81537 140.42778L572.28864 142.9901L573.63574 147.13599L570.109 144.57368L566.58234 147.13599L567.9294 142.9901L564.4027 140.42778L568.76196 140.42778Z" fill-rule="nonzero"/><path fill="#34a853" clip-path="url(#id_0)" d="M632.3317 125.43156L633.67883 129.57745L638.0381 129.57745L634.51135 132.13976L635.85846 136.28566L632.3317 133.72336L628.80505 136.28566L630.1521 132.13976L626.6254 129.57745L630.9847 129.57745Z" fill-rule="nonzero"/><path fill="#34a853" clip-path="url(#id_0)" d="M694.55444 118.985695L695.90155 123.13159L700.2608 123.13159L696.7341 125.6939L698.0812 129.8398L694.55444 127.27749L691.0278 129.8398L692.3748 125.6939L688.84814 123.13159L693.2074 123.13159Z" fill-rule="nonzero"/><path fill="#34a853" clip-path="url(#id_0)" d="M756.77716 125.96223L758.12427 130.10812L762.4835 130.10812L758.9568 132.67043L760.3039 136.81633L756.77716 134.25403L753.2505 136.81633L754.59753 132.67043L751.07086 130.10812L755.4301 130.10812Z" fill-rule="nonzero"/><path fill="#34a853" clip-path="url(#id_0)" d="M818.9999 118.83699L820.347 122.98289L824.70624 122.98289L821.1795 125.54519L822.5266 129.69109L818.9999 127.128784L815.4732 129.69109L816.82025 125.54519L813.2936 122.98289L817.65283 122.98289Z" fill-rule="nonzero"/><path fill="#34a853" clip-path="url(#id_0)" d="M881.2226 96.63338L882.5697 100.77928L886.92896 100.77928L883.4022 103.34158L884.7493 107.48748L881.2226 104.92518L877.6959 107.48748L879.04297 103.34158L875.5163 100.77928L879.87555 100.77928Z" fill-rule="nonzero"/><path fill="#34a853" clip-path="url(#id_0)" d="M943.4453 80.396996L944.7924 84.5429L949.1517 84.5429L945.62494 87.1052L946.97205 91.2511L943.4453 88.6888L939.91864 91.2511L941.2657 87.1052L937.739 84.5429L942.09827 84.5429Z" fill-rule="nonzero"/><path fill="#34a853" clip-path="url(#id_0)" d="M1005.668 90.9108L1007.01514 95.056694L1011.3744 95.056694L1007.84766 97.618996L1009.19476 101.7649L1005.668 99.20259L1002.14136 101.7649L1003.4884 97.618996L999.96173 95.056694L1004.321 95.056694Z" fill-rule="nonzero"/><path fill="#000000" d="M498.96875 612.45L505.5625 595.2625L508.01562 595.2625L515.0469 612.45L512.4531 612.45L510.45312 607.2469L503.26562 607.2469L501.375 612.45L498.96875 612.45ZM503.92188 605.3875L509.75 605.3875L507.95312 600.6375Q507.14062 598.46564 506.73438 597.075Q506.40625 598.73126 505.8125 600.35626L503.92188 605.3875ZM516.2031 613.48126L518.25 613.79376Q518.375 614.73126 518.96875 615.16876Q519.75 615.7625 521.1094 615.7625Q522.5781 615.7625 523.375 615.16876Q524.1719 614.59064 524.4531 613.52814Q524.6094 612.8875 524.59375 610.825Q523.21875 612.45 521.15625 612.45Q518.59375 612.45 517.1875 610.60626Q515.78125 608.7469 515.78125 606.15314Q515.78125 604.3719 516.4219 602.8719Q517.0625 601.35626 518.28125 600.54376Q519.5156 599.71564 521.1719 599.71564Q523.375 599.71564 524.7969 601.4969L524.7969 599.9969L526.75 599.9969L526.75 610.7625Q526.75 613.66876 526.15625 614.8719Q525.5625 616.09064 524.28125 616.79376Q523.0 617.4969 521.125 617.4969Q518.8906 617.4969 517.5156 616.4969Q516.15625 615.4969 516.2031 613.48126ZM517.9375 605.9969Q517.9375 608.45 518.90625 609.575Q519.8906 610.7 521.3594 610.7Q522.8125 610.7 523.7969 609.59064Q524.78125 608.46564 524.78125 606.075Q524.78125 603.79376 523.7656 602.6375Q522.75 601.46564 521.3125 601.46564Q519.90625 601.46564 518.9219 602.60626Q517.9375 603.7469 517.9375 605.9969ZM538.1094 608.4344L540.28125 608.71564Q539.7656 610.6219 538.375 611.6844Q536.9844 612.73126 534.8125 612.73126Q532.0781 612.73126 530.46875 611.0594Q528.875 609.3719 528.875 606.325Q528.875 603.1844 530.4844 601.45Q532.1094 599.71564 534.6875 599.71564Q537.1875 599.71564 538.7656 601.41876Q540.3594 603.1219 540.3594 606.2Q540.3594 606.3875 540.34375 606.7625L531.0625 606.7625Q531.1719 608.8094 532.21875 609.90314Q533.2656 610.9969 534.8281 610.9969Q535.9844 610.9969 536.7969 610.3875Q537.625 609.77814 538.1094 608.4344ZM531.1719 605.02814L538.125 605.02814Q537.9844 603.46564 537.3281 602.66876Q536.3281 601.45 534.71875 601.45Q533.2656 601.45 532.2656 602.4344Q531.28125 603.40314 531.1719 605.02814ZM549.0781 606.9344L551.21875 606.7469Q551.375 608.02814 551.9219 608.85626Q552.4844 609.6844 553.65625 610.2Q554.8281 610.7 556.2969 610.7Q557.59375 610.7 558.59375 610.325Q559.59375 609.9344 560.0781 609.2625Q560.5625 608.575 560.5625 607.77814Q560.5625 606.98126 560.09375 606.3719Q559.625 605.7625 558.5469 605.35626Q557.8594 605.09064 555.4844 604.52814Q553.125 603.95 552.1719 603.45Q550.9375 602.8094 550.3281 601.85626Q549.7344 600.8875 549.7344 599.71564Q549.7344 598.40314 550.46875 597.27814Q551.21875 596.15314 552.625 595.575Q554.0469 594.98126 555.78125 594.98126Q557.6875 594.98126 559.1406 595.59064Q560.6094 596.2 561.3906 597.40314Q562.1875 598.59064 562.2344 600.10626L560.0625 600.27814Q559.8906 598.6375 558.875 597.8094Q557.8594 596.98126 555.875 596.98126Q553.8125 596.98126 552.8594 597.7469Q551.9219 598.4969 551.9219 599.5594Q551.9219 600.48126 552.59375 601.075Q553.25 601.6844 556.0156 602.3094Q558.7969 602.9344 559.8281 603.40314Q561.3281 604.09064 562.03125 605.15314Q562.75 606.21564 562.75 607.59064Q562.75 608.96564 561.96875 610.1844Q561.1875 611.3875 559.71875 612.075Q558.25 612.7469 556.40625 612.7469Q554.0781 612.7469 552.5 612.075Q550.9219 611.3875 550.0156 610.02814Q549.125 608.65314 549.0781 606.9344ZM574.1094 608.4344L576.28125 608.71564Q575.7656 610.6219 574.375 611.6844Q572.9844 612.73126 570.8125 612.73126Q568.0781 612.73126 566.46875 611.0594Q564.875 609.3719 564.875 606.325Q564.875 603.1844 566.4844 601.45Q568.1094 599.71564 570.6875 599.71564Q573.1875 599.71564 574.7656 601.41876Q576.3594 603.1219 576.3594 606.2Q576.3594 606.3875 576.34375 606.7625L567.0625 606.7625Q567.1719 608.8094 568.21875 609.90314Q569.2656 610.9969 570.8281 610.9969Q571.9844 610.9969 572.7969 610.3875Q573.625 609.77814 574.1094 608.4344ZM567.1719 605.02814L574.125 605.02814Q573.9844 603.46564 573.3281 602.66876Q572.3281 601.45 570.71875 601.45Q569.2656 601.45 568.2656 602.4344Q567.28125 603.40314 567.1719 605.02814ZM578.53125 612.45L578.53125 595.2625L580.6406 595.2625L580.6406 612.45L578.53125 612.45ZM592.1094 608.4344L594.28125 608.71564Q593.7656 610.6219 592.375 611.6844Q590.9844 612.73126 588.8125 612.73126Q586.0781 612.73126 584.46875 611.0594Q582.875 609.3719 582.875 606.325Q582.875 603.1844 584.4844 601.45Q586.1094 599.71564 588.6875 599.71564Q591.1875 599.71564 592.7656 601.41876Q594.3594 603.1219 594.3594 606.2Q594.3594 606.3875 594.34375 606.7625L585.0625 606.7625Q585.1719 608.8094 586.21875 609.90314Q587.2656 610.9969 588.8281 610.9969Q589.9844 610.9969 590.7969 610.3875Q591.625 609.77814 592.1094 608.4344ZM585.1719 605.02814L592.125 605.02814Q591.9844 603.46564 591.3281 602.66876Q590.3281 601.45 588.71875 601.45Q587.2656 601.45 586.2656 602.4344Q585.28125 603.40314 585.1719 605.02814ZM604.7031 607.8875L606.78125 608.15314Q606.4375 610.3094 605.03125 611.52814Q603.6406 612.73126 601.59375 612.73126Q599.0469 612.73126 597.4844 611.0594Q595.9375 609.3875 595.9375 606.27814Q595.9375 604.2625 596.6094 602.7469Q597.28125 601.23126 598.6406 600.48126Q600.0 599.71564 601.6094 599.71564Q603.6406 599.71564 604.9219 600.7469Q606.21875 601.77814 606.5781 603.65314L604.53125 603.98126Q604.2344 602.71564 603.4844 602.09064Q602.75 601.45 601.6875 601.45Q600.09375 601.45 599.09375 602.60626Q598.1094 603.7469 598.1094 606.21564Q598.1094 608.71564 599.0625 609.85626Q600.03125 610.9969 601.5781 610.9969Q602.8125 610.9969 603.6406 610.23126Q604.4844 609.46564 604.7031 607.8875ZM613.1875 610.5594L613.5 612.41876Q612.6094 612.6219 611.90625 612.6219Q610.75 612.6219 610.1094 612.2625Q609.4844 611.8875 609.21875 611.29376Q608.96875 610.7 608.96875 608.8094L608.96875 601.6375L607.4219 601.6375L607.4219 599.9969L608.96875 599.9969L608.96875 596.91876L611.0625 595.65314L611.0625 599.9969L613.1875 599.9969L613.1875 601.6375L611.0625 601.6375L611.0625 608.91876Q611.0625 609.825 611.1719 610.09064Q611.2969 610.34064 611.5469 610.4969Q611.7969 610.6375 612.2656 610.6375Q612.6094 610.6375 613.1875 610.5594ZM615.59375 597.7L615.59375 595.2625L617.7031 595.2625L617.7031 597.7L615.59375 597.7ZM615.59375 612.45L615.59375 599.9969L617.7031 599.9969L617.7031 612.45L615.59375 612.45ZM624.0469 612.45L619.3125 599.9969L621.53125 599.9969L624.2031 607.45Q624.6406 608.66876 625.0 609.96564Q625.28125 608.98126 625.78125 607.59064L628.5469 599.9969L630.71875 599.9969L626.0156 612.45L624.0469 612.45ZM632.59375 597.7L632.59375 595.2625L634.7031 595.2625L634.7031 597.7L632.59375 597.7ZM632.59375 612.45L632.59375 599.9969L634.7031 599.9969L634.7031 612.45L632.59375 612.45ZM642.1875 610.5594L642.5 612.41876Q641.6094 612.6219 640.90625 612.6219Q639.75 612.6219 639.1094 612.2625Q638.4844 611.8875 638.21875 611.29376Q637.96875 610.7 637.96875 608.8094L637.96875 601.6375L636.4219 601.6375L636.4219 599.9969L637.96875 599.9969L637.96875 596.91876L640.0625 595.65314L640.0625 599.9969L642.1875 599.9969L642.1875 601.6375L640.0625 601.6375L640.0625 608.91876Q640.0625 609.825 640.1719 610.09064Q640.2969 610.34064 640.5469 610.4969Q640.7969 610.6375 641.2656 610.6375Q641.6094 610.6375 642.1875 610.5594ZM644.4844 617.2469L644.25 615.2625Q644.9531 615.45 645.46875 615.45Q646.1719 615.45 646.59375 615.21564Q647.0156 614.98126 647.28125 614.5594Q647.4844 614.2469 647.9219 612.9969Q647.9844 612.8094 648.1094 612.48126L643.3906 599.9969L645.65625 599.9969L648.25 607.21564Q648.75 608.575 649.15625 610.09064Q649.5156 608.6375 650.0156 607.2625L652.6875 599.9969L654.7969 599.9969L650.0625 612.66876Q649.2969 614.71564 648.875 615.48126Q648.3125 616.52814 647.5781 617.0125Q646.8594 617.4969 645.84375 617.4969Q645.2344 617.4969 644.4844 617.2469Z" fill-rule="nonzero"/><path fill="#000000" d="M54.55001 386.95938L37.36251 386.95938L37.36251 379.35Q37.36251 377.05313 37.83126 375.86563Q38.30001 374.6625 39.471886 373.94376Q40.64376 373.225 42.05001 373.225Q43.878136 373.225 45.14376 374.4125Q46.39376 375.6 46.73751 378.06876Q47.159386 377.1625 47.58126 376.69376Q48.503136 375.69376 49.878136 374.80313L54.55001 371.81876L54.55001 374.67813L50.971886 376.95938Q49.42501 377.94376 48.61251 378.6Q47.784386 379.24063 47.45626 379.75626Q47.128136 380.25626 47.003136 380.7875Q46.92501 381.17813 46.92501 382.05313L46.92501 384.69376L54.55001 384.69376L54.55001 386.95938ZM44.95626 384.69376L44.95626 379.80313Q44.95626 378.24063 44.628136 377.36563Q44.30001 376.49063 43.596886 376.0375Q42.89376 375.56876 42.05001 375.56876Q40.83126 375.56876 40.05001 376.45938Q39.26876 377.33438 39.26876 379.25626L39.26876 384.69376L44.95626 384.69376ZM50.534386 361.74063L50.815636 359.56876Q52.721886 360.08438 53.784386 361.475Q54.83126 362.86563 54.83126 365.0375Q54.83126 367.77188 53.159386 369.38126Q51.471886 370.975 48.42501 370.975Q45.284386 370.975 43.55001 369.36563Q41.815636 367.74063 41.815636 365.1625Q41.815636 362.6625 43.51876 361.08438Q45.221886 359.49063 48.30001 359.49063Q48.48751 359.49063 48.86251 359.50626L48.86251 368.7875Q50.909386 368.67813 52.003136 367.63126Q53.096886 366.58438 53.096886 365.02188Q53.096886 363.86563 52.48751 363.05313Q51.878136 362.225 50.534386 361.74063ZM47.128136 368.67813L47.128136 361.725Q45.565636 361.86563 44.76876 362.52188Q43.55001 363.52188 43.55001 365.13126Q43.55001 366.58438 44.534386 367.58438Q45.503136 368.56876 47.128136 368.67813ZM54.55001 357.31876L37.36251 357.31876L37.36251 355.20938L54.55001 355.20938L54.55001 357.31876ZM53.01876 344.14688Q54.003136 345.31876 54.42501 346.4125Q54.83126 347.49063 54.83126 348.725Q54.83126 350.77188 53.83126 351.88126Q52.83126 352.975 51.26876 352.975Q50.346886 352.975 49.596886 352.56876Q48.846886 352.14688 48.39376 351.475Q47.92501 350.80313 47.690636 349.95938Q47.534386 349.33438 47.378136 348.08438Q47.065636 345.52188 46.64376 344.31876Q46.221886 344.30313 46.096886 344.30313Q44.815636 344.30313 44.284386 344.9125Q43.565636 345.70938 43.565636 347.30313Q43.565636 348.80313 44.096886 349.50626Q44.61251 350.20938 45.940636 350.55313L45.659386 352.61563Q44.33126 352.33438 43.51876 351.69376Q42.70626 351.05313 42.26876 349.83438Q41.815636 348.61563 41.815636 347.00626Q41.815636 345.4125 42.190636 344.4125Q42.565636 343.4125 43.14376 342.94376Q43.70626 342.475 44.58126 342.2875Q45.11251 342.19376 46.51876 342.19376L49.33126 342.19376Q52.26876 342.19376 53.05001 342.05313Q53.83126 341.9125 54.55001 341.52188L54.55001 343.725Q53.89376 344.05313 53.01876 344.14688ZM48.30001 344.31876Q48.76876 345.475 49.096886 347.77188Q49.284386 349.06876 49.51876 349.61563Q49.753136 350.14688 50.20626 350.44376Q50.659386 350.725 51.20626 350.725Q52.05001 350.725 52.61251 350.1Q53.17501 349.45938 53.17501 348.225Q53.17501 347.00626 52.64376 346.05313Q52.11251 345.1 51.190636 344.6625Q50.471886 344.31876 49.08126 344.31876L48.30001 344.31876ZM52.659386 334.6625L54.51876 334.35Q54.721886 335.24063 54.721886 335.94376Q54.721886 337.1 54.36251 337.74063Q53.98751 338.36563 53.39376 338.63126Q52.80001 338.88126 50.909386 338.88126L43.73751 338.88126L43.73751 340.42813L42.096886 340.42813L42.096886 338.88126L39.01876 338.88126L37.753136 336.7875L42.096886 336.7875L42.096886 334.6625L43.73751 334.6625L43.73751 336.7875L51.01876 336.7875Q51.92501 336.7875 52.190636 336.67813Q52.440636 336.55313 52.596886 336.30313Q52.73751 336.05313 52.73751 335.58438Q52.73751 335.24063 52.659386 334.6625ZM39.80001 332.25626L37.36251 332.25626L37.36251 330.14688L39.80001 330.14688L39.80001 332.25626ZM54.55001 332.25626L42.096886 332.25626L42.096886 330.14688L54.55001 330.14688L54.55001 332.25626ZM54.55001 323.80313L42.096886 328.5375L42.096886 326.31876L49.55001 323.64688Q50.76876 323.20938 52.065636 322.85Q51.08126 322.56876 49.690636 322.06876L42.096886 319.30313L42.096886 317.13126L54.55001 321.83438L54.55001 323.80313ZM50.534386 306.74063L50.815636 304.56876Q52.721886 305.08438 53.784386 306.475Q54.83126 307.86563 54.83126 310.0375Q54.83126 312.77188 53.159386 314.38126Q51.471886 315.975 48.42501 315.975Q45.284386 315.975 43.55001 314.36563Q41.815636 312.74063 41.815636 310.1625Q41.815636 307.6625 43.51876 306.08438Q45.221886 304.49063 48.30001 304.49063Q48.48751 304.49063 48.86251 304.50626L48.86251 313.7875Q50.909386 313.67813 52.003136 312.63126Q53.096886 311.58438 53.096886 310.02188Q53.096886 308.86563 52.48751 308.05313Q51.878136 307.225 50.534386 306.74063ZM47.128136 313.67813L47.128136 306.725Q45.565636 306.86563 44.76876 307.52188Q43.55001 308.52188 43.55001 310.13126Q43.55001 311.58438 44.534386 312.58438Q45.503136 313.56876 47.128136 313.67813ZM54.55001 294.94376L37.36251 294.94376L37.36251 282.52188L39.39376 282.52188L39.39376 292.67813L44.659386 292.67813L44.659386 283.17813L46.67501 283.17813L46.67501 292.67813L52.51876 292.67813L52.51876 282.13126L54.55001 282.13126L54.55001 294.94376ZM54.55001 279.2875L42.096886 279.2875L42.096886 277.39688L43.98751 277.39688Q42.659386 276.6625 42.23751 276.05313Q41.815636 275.42813 41.815636 274.69376Q41.815636 273.63126 42.503136 272.52188L44.45626 273.25626Q44.003136 274.02188 44.003136 274.80313Q44.003136 275.49063 44.42501 276.05313Q44.83126 276.6 45.565636 276.83438Q46.690636 277.17813 48.034386 277.17813L54.55001 277.17813L54.55001 279.2875ZM54.55001 271.2875L42.096886 271.2875L42.096886 269.39688L43.98751 269.39688Q42.659386 268.6625 42.23751 268.05313Q41.815636 267.42813 41.815636 266.69376Q41.815636 265.63126 42.503136 264.52188L44.45626 265.25626Q44.003136 266.02188 44.003136 266.80313Q44.003136 267.49063 44.42501 268.05313Q44.83126 268.6 45.565636 268.83438Q46.690636 269.17813 48.034386 269.17813L54.55001 269.17813L54.55001 271.2875ZM48.33126 264.05313Q44.86251 264.05313 43.20626 262.13126Q41.815636 260.52188 41.815636 258.20938Q41.815636 255.64688 43.503136 254.02188Q45.190636 252.39688 48.14376 252.39688Q50.55001 252.39688 51.92501 253.11563Q53.30001 253.83438 54.065636 255.20938Q54.83126 256.58438 54.83126 258.20938Q54.83126 260.83438 53.159386 262.44376Q51.471886 264.05313 48.33126 264.05313ZM48.33126 261.88126Q50.721886 261.88126 51.909386 260.85Q53.096886 259.80313 53.096886 258.20938Q53.096886 256.64688 51.909386 255.6Q50.70626 254.55313 48.253136 254.55313Q45.940636 254.55313 44.753136 255.61563Q43.565636 256.6625 43.565636 258.20938Q43.565636 259.80313 44.753136 260.85Q45.940636 261.88126 48.33126 261.88126ZM54.55001 250.2875L42.096886 250.2875L42.096886 248.39688L43.98751 248.39688Q42.659386 247.6625 42.23751 247.05313Q41.815636 246.42813 41.815636 245.69376Q41.815636 244.63126 42.503136 243.52188L44.45626 244.25626Q44.003136 245.02188 44.003136 245.80313Q44.003136 246.49063 44.42501 247.05313Q44.83126 247.6 45.565636 247.83438Q46.690636 248.17813 48.034386 248.17813L54.55001 248.17813L54.55001 250.2875Z" fill-rule="nonzero"/><path fill="#000000" d="M104.1125 530.98126L104.1125 529.96564L109.675 529.96564L109.675 530.79376Q108.8625 531.66876 108.05 533.1219Q107.25313 534.5594 106.81563 536.09064Q106.4875 537.16876 106.40938 538.45L105.31563 538.45Q105.33125 537.4344 105.70625 535.9969Q106.09688 534.5594 106.8 533.23126Q107.51875 531.90314 108.33125 530.98126L104.1125 530.98126ZM111.05 536.2L112.15938 536.10626Q112.28438 536.91876 112.72188 537.325Q113.175 537.73126 113.81563 537.73126Q114.56563 537.73126 115.09688 537.15314Q115.62813 536.575 115.62813 535.6375Q115.62813 534.73126 115.1125 534.21564Q114.6125 533.6844 113.78438 533.6844Q113.28438 533.6844 112.8625 533.91876Q112.45625 534.15314 112.22188 534.5125L111.2375 534.3875L112.06563 529.98126L116.34688 529.98126L116.34688 530.98126L112.90938 530.98126L112.45625 533.29376Q113.22188 532.7469 114.06563 532.7469Q115.19063 532.7469 115.95625 533.52814Q116.7375 534.3094 116.7375 535.54376Q116.7375 536.7 116.06563 537.5594Q115.2375 538.59064 113.81563 538.59064Q112.64375 538.59064 111.89375 537.9344Q111.15938 537.27814 111.05 536.2ZM118.25313 531.91876Q118.25313 530.9969 118.70625 530.35626Q119.175 529.71564 120.05 529.71564Q120.8625 529.71564 121.39375 530.29376Q121.925 530.8719 121.925 531.98126Q121.925 533.075 121.37813 533.66876Q120.84688 534.2469 120.06563 534.2469Q119.28438 534.2469 118.76875 533.66876Q118.25313 533.09064 118.25313 531.91876ZM120.08125 530.4344Q119.69063 530.4344 119.425 530.77814Q119.175 531.1219 119.175 532.02814Q119.175 532.85626 119.425 533.2Q119.69063 533.52814 120.08125 533.52814Q120.4875 533.52814 120.7375 533.1844Q121.00313 532.84064 121.00313 531.95Q121.00313 531.10626 120.7375 530.77814Q120.47188 530.4344 120.08125 530.4344ZM120.08125 538.7625L124.78438 529.71564L125.64375 529.71564L120.95625 538.7625L120.08125 538.7625ZM123.8 536.4344Q123.8 535.5125 124.25313 534.8719Q124.72188 534.23126 125.6125 534.23126Q126.425 534.23126 126.95625 534.8094Q127.4875 535.3719 127.4875 536.4969Q127.4875 537.59064 126.94063 538.1844Q126.40938 538.7625 125.6125 538.7625Q124.84688 538.7625 124.31563 538.1844Q123.8 537.60626 123.8 536.4344ZM125.64375 534.95Q125.2375 534.95 124.97188 535.29376Q124.72188 535.6375 124.72188 536.54376Q124.72188 537.35626 124.9875 537.7Q125.25313 538.04376 125.64375 538.04376Q126.03438 538.04376 126.3 537.7Q126.56563 537.35626 126.56563 536.45Q126.56563 535.6219 126.3 535.29376Q126.03438 534.95 125.64375 534.95Z" fill-rule="nonzero"/><path fill="#000000" d="M105.675 421.49374Q105.01875 421.24374 104.69063 420.80624Q104.37813 420.35312 104.37813 419.74374Q104.37813 418.80624 105.05 418.16562Q105.7375 417.525 106.84688 417.525Q107.97188 417.525 108.65938 418.18124Q109.34688 418.8375 109.34688 419.775Q109.34688 420.36874 109.03438 420.80624Q108.72188 421.24374 108.08125 421.49374Q108.87813 421.74374 109.28438 422.32187Q109.69063 422.9 109.69063 423.69687Q109.69063 424.79062 108.90938 425.54062Q108.14375 426.29062 106.8625 426.29062Q105.59688 426.29062 104.81563 425.54062Q104.03438 424.79062 104.03438 423.66562Q104.03438 422.82187 104.45625 422.25937Q104.89375 421.69687 105.675 421.49374ZM105.45625 419.69687Q105.45625 420.30624 105.84688 420.69687Q106.25313 421.0875 106.87813 421.0875Q107.4875 421.0875 107.87813 420.7125Q108.26875 420.32187 108.26875 419.75937Q108.26875 419.18124 107.8625 418.79062Q107.45625 418.38437 106.8625 418.38437Q106.25313 418.38437 105.84688 418.775Q105.45625 419.16562 105.45625 419.69687ZM105.12813 423.66562Q105.12813 424.11874 105.33125 424.54062Q105.55 424.9625 105.97188 425.19687Q106.39375 425.43124 106.87813 425.43124Q107.62813 425.43124 108.1125 424.94687Q108.6125 424.4625 108.6125 423.7125Q108.6125 422.94687 108.1125 422.44687Q107.6125 421.94687 106.84688 421.94687Q106.09688 421.94687 105.6125 422.44687Q105.12813 422.93124 105.12813 423.66562ZM112.675 421.49374Q112.01875 421.24374 111.69063 420.80624Q111.37813 420.35312 111.37813 419.74374Q111.37813 418.80624 112.05 418.16562Q112.7375 417.525 113.84688 417.525Q114.97188 417.525 115.65938 418.18124Q116.34688 418.8375 116.34688 419.775Q116.34688 420.36874 116.03438 420.80624Q115.72188 421.24374 115.08125 421.49374Q115.87813 421.74374 116.28438 422.32187Q116.69063 422.9 116.69063 423.69687Q116.69063 424.79062 115.90938 425.54062Q115.14375 426.29062 113.8625 426.29062Q112.59688 426.29062 111.81563 425.54062Q111.03438 424.79062 111.03438 423.66562Q111.03438 422.82187 111.45625 422.25937Q111.89375 421.69687 112.675 421.49374ZM112.45625 419.69687Q112.45625 420.30624 112.84688 420.69687Q113.25313 421.0875 113.87813 421.0875Q114.4875 421.0875 114.87813 420.7125Q115.26875 420.32187 115.26875 419.75937Q115.26875 419.18124 114.8625 418.79062Q114.45625 418.38437 113.8625 418.38437Q113.25313 418.38437 112.84688 418.775Q112.45625 419.16562 112.45625 419.69687ZM112.12813 423.66562Q112.12813 424.11874 112.33125 424.54062Q112.55 424.9625 112.97188 425.19687Q113.39375 425.43124 113.87813 425.43124Q114.62813 425.43124 115.1125 424.94687Q115.6125 424.4625 115.6125 423.7125Q115.6125 422.94687 115.1125 422.44687Q114.6125 421.94687 113.84688 421.94687Q113.09688 421.94687 112.6125 422.44687Q112.12813 422.93124 112.12813 423.66562ZM118.25313 419.61874Q118.25313 418.69687 118.70625 418.05624Q119.175 417.41562 120.05 417.41562Q120.8625 417.41562 121.39375 417.99374Q121.925 418.57187 121.925 419.68124Q121.925 420.775 121.37813 421.36874Q120.84688 421.94687 120.06563 421.94687Q119.28438 421.94687 118.76875 421.36874Q118.25313 420.79062 118.25313 419.61874ZM120.08125 418.13437Q119.69063 418.13437 119.425 418.47812Q119.175 418.82187 119.175 419.72812Q119.175 420.55624 119.425 420.9Q119.69063 421.22812 120.08125 421.22812Q120.4875 421.22812 120.7375 420.88437Q121.00313 420.54062 121.00313 419.65Q121.00313 418.80624 120.7375 418.47812Q120.47188 418.13437 120.08125 418.13437ZM120.08125 426.4625L124.78438 417.41562L125.64375 417.41562L120.95625 426.4625L120.08125 426.4625ZM123.8 424.13437Q123.8 423.2125 124.25313 422.57187Q124.72188 421.93124 125.6125 421.93124Q126.425 421.93124 126.95625 422.50937Q127.4875 423.07187 127.4875 424.19687Q127.4875 425.29062 126.94063 425.88437Q126.40938 426.4625 125.6125 426.4625Q124.84688 426.4625 124.31563 425.88437Q123.8 425.30624 123.8 424.13437ZM125.64375 422.65Q125.2375 422.65 124.97188 422.99374Q124.72188 423.3375 124.72188 424.24374Q124.72188 425.05624 124.9875 425.4Q125.25313 425.74374 125.64375 425.74374Q126.03438 425.74374 126.3 425.4Q126.56563 425.05624 126.56563 424.15Q126.56563 423.32187 126.3 422.99374Q126.03438 422.65 125.64375 422.65Z" fill-rule="nonzero"/><path fill="#000000" d="M101.01875 313.85L99.97188 313.85L99.97188 307.13126Q99.58125 307.49063 98.95625 307.86563Q98.34688 308.225 97.8625 308.39688L97.8625 307.38126Q98.7375 306.95938 99.39375 306.38126Q100.06563 305.7875 100.34688 305.225L101.01875 305.225L101.01875 313.85ZM104.05 309.61563Q104.05 308.08438 104.3625 307.1625Q104.675 306.225 105.28438 305.725Q105.90938 305.225 106.84688 305.225Q107.53438 305.225 108.05 305.50626Q108.58125 305.7875 108.925 306.31876Q109.26875 306.83438 109.45625 307.58438Q109.64375 308.33438 109.64375 309.61563Q109.64375 311.13126 109.33125 312.05313Q109.03438 312.975 108.40938 313.49063Q107.8 313.99063 106.84688 313.99063Q105.6125 313.99063 104.89375 313.1Q104.05 312.0375 104.05 309.61563ZM105.12813 309.61563Q105.12813 311.725 105.62813 312.42813Q106.12813 313.13126 106.84688 313.13126Q107.58125 313.13126 108.06563 312.42813Q108.56563 311.725 108.56563 309.61563Q108.56563 307.49063 108.06563 306.80313Q107.58125 306.1 106.83125 306.1Q106.1125 306.1 105.675 306.70938Q105.12813 307.49063 105.12813 309.61563ZM111.05 309.61563Q111.05 308.08438 111.3625 307.1625Q111.675 306.225 112.28438 305.725Q112.90938 305.225 113.84688 305.225Q114.53438 305.225 115.05 305.50626Q115.58125 305.7875 115.925 306.31876Q116.26875 306.83438 116.45625 307.58438Q116.64375 308.33438 116.64375 309.61563Q116.64375 311.13126 116.33125 312.05313Q116.03438 312.975 115.40938 313.49063Q114.8 313.99063 113.84688 313.99063Q112.6125 313.99063 111.89375 313.1Q111.05 312.0375 111.05 309.61563ZM112.12813 309.61563Q112.12813 311.725 112.62813 312.42813Q113.12813 313.13126 113.84688 313.13126Q114.58125 313.13126 115.06563 312.42813Q115.56563 311.725 115.56563 309.61563Q115.56563 307.49063 115.06563 306.80313Q114.58125 306.1 113.83125 306.1Q113.1125 306.1 112.675 306.70938Q112.12813 307.49063 112.12813 309.61563ZM118.25313 307.31876Q118.25313 306.39688 118.70625 305.75626Q119.175 305.11563 120.05 305.11563Q120.8625 305.11563 121.39375 305.69376Q121.925 306.27188 121.925 307.38126Q121.925 308.475 121.37813 309.06876Q120.84688 309.64688 120.06563 309.64688Q119.28438 309.64688 118.76875 309.06876Q118.25313 308.49063 118.25313 307.31876ZM120.08125 305.83438Q119.69063 305.83438 119.425 306.17813Q119.175 306.52188 119.175 307.42813Q119.175 308.25626 119.425 308.6Q119.69063 308.92813 120.08125 308.92813Q120.4875 308.92813 120.7375 308.58438Q121.00313 308.24063 121.00313 307.35Q121.00313 306.50626 120.7375 306.17813Q120.47188 305.83438 120.08125 305.83438ZM120.08125 314.1625L124.78438 305.11563L125.64375 305.11563L120.95625 314.1625L120.08125 314.1625ZM123.8 311.83438Q123.8 310.9125 124.25313 310.27188Q124.72188 309.63126 125.6125 309.63126Q126.425 309.63126 126.95625 310.20938Q127.4875 310.77188 127.4875 311.89688Q127.4875 312.99063 126.94063 313.58438Q126.40938 314.1625 125.6125 314.1625Q124.84688 314.1625 124.31563 313.58438Q123.8 313.00626 123.8 311.83438ZM125.64375 310.35Q125.2375 310.35 124.97188 310.69376Q124.72188 311.0375 124.72188 311.94376Q124.72188 312.75626 124.9875 313.1Q125.25313 313.44376 125.64375 313.44376Q126.03438 313.44376 126.3 313.1Q126.56563 312.75626 126.56563 311.85Q126.56563 311.02188 126.3 310.69376Q126.03438 310.35 125.64375 310.35Z" fill-rule="nonzero"/><path fill="#000000" d="M101.01875 201.55L99.97188 201.55L99.97188 194.83125Q99.58125 195.19063 98.95625 195.56563Q98.34688 195.925 97.8625 196.09688L97.8625 195.08125Q98.7375 194.65938 99.39375 194.08125Q100.06563 193.4875 100.34688 192.925L101.01875 192.925L101.01875 201.55ZM108.01875 201.55L106.97188 201.55L106.97188 194.83125Q106.58125 195.19063 105.95625 195.56563Q105.34688 195.925 104.8625 196.09688L104.8625 195.08125Q105.7375 194.65938 106.39375 194.08125Q107.06563 193.4875 107.34688 192.925L108.01875 192.925L108.01875 201.55ZM111.05 199.28438L112.1125 199.14375Q112.28438 200.03438 112.72188 200.44063Q113.15938 200.83125 113.78438 200.83125Q114.53438 200.83125 115.05 200.31563Q115.56563 199.8 115.56563 199.03438Q115.56563 198.31563 115.08125 197.84688Q114.6125 197.3625 113.87813 197.3625Q113.58125 197.3625 113.12813 197.4875L113.25313 196.55Q113.3625 196.56563 113.425 196.56563Q114.09688 196.56563 114.62813 196.22188Q115.175 195.8625 115.175 195.12813Q115.175 194.55 114.78438 194.175Q114.39375 193.78438 113.76875 193.78438Q113.15938 193.78438 112.7375 194.175Q112.33125 194.56563 112.22188 195.33125L111.15938 195.14375Q111.34688 194.09688 112.03438 193.51875Q112.72188 192.925 113.7375 192.925Q114.44063 192.925 115.03438 193.2375Q115.62813 193.53438 115.94063 194.05Q116.25313 194.56563 116.25313 195.15938Q116.25313 195.70625 115.95625 196.175Q115.65938 196.62813 115.08125 196.89375Q115.83125 197.06563 116.25313 197.62813Q116.675 198.175 116.675 199.01875Q116.675 200.14375 115.84688 200.925Q115.03438 201.70625 113.78438 201.70625Q112.65938 201.70625 111.90938 201.03438Q111.15938 200.34688 111.05 199.28438ZM118.25313 195.01875Q118.25313 194.09688 118.70625 193.45625Q119.175 192.81563 120.05 192.81563Q120.8625 192.81563 121.39375 193.39375Q121.925 193.97188 121.925 195.08125Q121.925 196.175 121.37813 196.76875Q120.84688 197.34688 120.06563 197.34688Q119.28438 197.34688 118.76875 196.76875Q118.25313 196.19063 118.25313 195.01875ZM120.08125 193.53438Q119.69063 193.53438 119.425 193.87813Q119.175 194.22188 119.175 195.12813Q119.175 195.95625 119.425 196.3Q119.69063 196.62813 120.08125 196.62813Q120.4875 196.62813 120.7375 196.28438Q121.00313 195.94063 121.00313 195.05Q121.00313 194.20625 120.7375 193.87813Q120.47188 193.53438 120.08125 193.53438ZM120.08125 201.8625L124.78438 192.81563L125.64375 192.81563L120.95625 201.8625L120.08125 201.8625ZM123.8 199.53438Q123.8 198.6125 124.25313 197.97188Q124.72188 197.33125 125.6125 197.33125Q126.425 197.33125 126.95625 197.90938Q127.4875 198.47188 127.4875 199.59688Q127.4875 200.69063 126.94063 201.28438Q126.40938 201.8625 125.6125 201.8625Q124.84688 201.8625 124.31563 201.28438Q123.8 200.70625 123.8 199.53438ZM125.64375 198.05Q125.2375 198.05 124.97188 198.39375Q124.72188 198.7375 124.72188 199.64375Q124.72188 200.45625 124.9875 200.8Q125.25313 201.14375 125.64375 201.14375Q126.03438 201.14375 126.3 200.8Q126.56563 200.45625 126.56563 199.55Q126.56563 198.72188 126.3 198.39375Q126.03438 198.05 125.64375 198.05Z" fill-rule="nonzero"/><path fill="#000000" d="M101.01875 89.25L99.97188 89.25L99.97188 82.53125Q99.58125 82.890625 98.95625 83.265625Q98.34688 83.625 97.8625 83.796875L97.8625 82.78125Q98.7375 82.359375 99.39375 81.78125Q100.06563 81.1875 100.34688 80.625L101.01875 80.625L101.01875 89.25ZM109.59688 88.234375L109.59688 89.25L103.90938 89.25Q103.90938 88.875 104.03438 88.515625Q104.25313 87.9375 104.72188 87.375Q105.20625 86.8125 106.1125 86.078125Q107.51875 84.921875 108.00313 84.25Q108.50313 83.578125 108.50313 82.984375Q108.50313 82.359375 108.05 81.9375Q107.59688 81.5 106.87813 81.5Q106.1125 81.5 105.65938 81.953125Q105.20625 82.40625 105.19063 83.21875L104.1125 83.109375Q104.22188 81.890625 104.94063 81.265625Q105.675 80.625 106.90938 80.625Q108.14375 80.625 108.8625 81.3125Q109.58125 82.0 109.58125 83.015625Q109.58125 83.53125 109.3625 84.03125Q109.15938 84.515625 108.65938 85.078125Q108.175 85.625 107.05 86.578125Q106.09688 87.375 105.81563 87.671875Q105.55 87.953125 105.37813 88.234375L109.59688 88.234375ZM111.05 87.0L112.15938 86.90625Q112.28438 87.71875 112.72188 88.125Q113.175 88.53125 113.81563 88.53125Q114.56563 88.53125 115.09688 87.953125Q115.62813 87.375 115.62813 86.4375Q115.62813 85.53125 115.1125 85.015625Q114.6125 84.484375 113.78438 84.484375Q113.28438 84.484375 112.8625 84.71875Q112.45625 84.953125 112.22188 85.3125L111.2375 85.1875L112.06563 80.78125L116.34688 80.78125L116.34688 81.78125L112.90938 81.78125L112.45625 84.09375Q113.22188 83.546875 114.06563 83.546875Q115.19063 83.546875 115.95625 84.328125Q116.7375 85.109375 116.7375 86.34375Q116.7375 87.5 116.06563 88.359375Q115.2375 89.390625 113.81563 89.390625Q112.64375 89.390625 111.89375 88.734375Q111.15938 88.078125 111.05 87.0ZM118.25313 82.71875Q118.25313 81.796875 118.70625 81.15625Q119.175 80.515625 120.05 80.515625Q120.8625 80.515625 121.39375 81.09375Q121.925 81.671875 121.925 82.78125Q121.925 83.875 121.37813 84.46875Q120.84688 85.046875 120.06563 85.046875Q119.28438 85.046875 118.76875 84.46875Q118.25313 83.890625 118.25313 82.71875ZM120.08125 81.234375Q119.69063 81.234375 119.425 81.578125Q119.175 81.921875 119.175 82.828125Q119.175 83.65625 119.425 84.0Q119.69063 84.328125 120.08125 84.328125Q120.4875 84.328125 120.7375 83.984375Q121.00313 83.640625 121.00313 82.75Q121.00313 81.90625 120.7375 81.578125Q120.47188 81.234375 120.08125 81.234375ZM120.08125 89.5625L124.78438 80.515625L125.64375 80.515625L120.95625 89.5625L120.08125 89.5625ZM123.8 87.234375Q123.8 86.3125 124.25313 85.671875Q124.72188 85.03125 125.6125 85.03125Q126.425 85.03125 126.95625 85.609375Q127.4875 86.171875 127.4875 87.296875Q127.4875 88.390625 126.94063 88.984375Q126.40938 89.5625 125.6125 89.5625Q124.84688 89.5625 124.31563 88.984375Q123.8 88.40625 123.8 87.234375ZM125.64375 85.75Q125.2375 85.75 124.97188 86.09375Q124.72188 86.4375 124.72188 87.34375Q124.72188 88.15625 124.9875 88.5Q125.25313 88.84375 125.64375 88.84375Q126.03438 88.84375 126.3 88.5Q126.56563 88.15625 126.56563 87.25Q126.56563 86.421875 126.3 86.09375Q126.03438 85.75 125.64375 85.75Z" fill-rule="nonzero"/><path fill="#000000" d="M126.05 547.21564Q126.05 545.6844 126.3625 544.7625Q126.675 543.825 127.28438 543.325Q127.90938 542.825 128.84688 542.825Q129.53438 542.825 130.05 543.10626Q130.58125 543.3875 130.925 543.91876Q131.26875 544.4344 131.45625 545.1844Q131.64375 545.9344 131.64375 547.21564Q131.64375 548.73126 131.33125 549.65314Q131.03438 550.575 130.40938 551.09064Q129.8 551.59064 128.84688 551.59064Q127.6125 551.59064 126.89375 550.7Q126.05 549.6375 126.05 547.21564ZM127.12813 547.21564Q127.12813 549.325 127.62813 550.02814Q128.12813 550.73126 128.84688 550.73126Q129.58125 550.73126 130.06563 550.02814Q130.56563 549.325 130.56563 547.21564Q130.56563 545.09064 130.06563 544.40314Q129.58125 543.7 128.83125 543.7Q128.1125 543.7 127.675 544.3094Q127.12813 545.09064 127.12813 547.21564ZM133.25313 544.91876Q133.25313 543.9969 133.70625 543.35626Q134.175 542.71564 135.05 542.71564Q135.8625 542.71564 136.39375 543.29376Q136.925 543.8719 136.925 544.98126Q136.925 546.075 136.37813 546.66876Q135.84688 547.2469 135.06563 547.2469Q134.28438 547.2469 133.76875 546.66876Q133.25313 546.09064 133.25313 544.91876ZM135.08125 543.4344Q134.69063 543.4344 134.425 543.77814Q134.175 544.1219 134.175 545.02814Q134.175 545.85626 134.425 546.2Q134.69063 546.52814 135.08125 546.52814Q135.4875 546.52814 135.7375 546.1844Q136.00313 545.84064 136.00313 544.95Q136.00313 544.10626 135.7375 543.77814Q135.47188 543.4344 135.08125 543.4344ZM135.08125 551.7625L139.78438 542.71564L140.64375 542.71564L135.95625 551.7625L135.08125 551.7625ZM138.8 549.4344Q138.8 548.5125 139.25313 547.8719Q139.72188 547.23126 140.6125 547.23126Q141.425 547.23126 141.95625 547.8094Q142.4875 548.3719 142.4875 549.4969Q142.4875 550.59064 141.94063 551.1844Q141.40938 551.7625 140.6125 551.7625Q139.84688 551.7625 139.31563 551.1844Q138.8 550.60626 138.8 549.4344ZM140.64375 547.95Q140.2375 547.95 139.97188 548.29376Q139.72188 548.6375 139.72188 549.54376Q139.72188 550.35626 139.9875 550.7Q140.25313 551.04376 140.64375 551.04376Q141.03438 551.04376 141.3 550.7Q141.56563 550.35626 141.56563 549.45Q141.56563 548.6219 141.3 548.29376Q141.03438 547.95 140.64375 547.95Z" fill-rule="nonzero"/><path fill="#000000" d="M312.27612 550.4344L312.27612 551.45L306.58862 551.45Q306.58862 551.075 306.71362 550.71564Q306.93237 550.1375 307.40112 549.575Q307.8855 549.0125 308.79175 548.27814Q310.198 547.1219 310.68237 546.45Q311.18237 545.77814 311.18237 545.1844Q311.18237 544.5594 310.72925 544.1375Q310.27612 543.7 309.55737 543.7Q308.79175 543.7 308.33862 544.15314Q307.8855 544.60626 307.86987 545.41876L306.79175 545.3094Q306.90112 544.09064 307.61987 543.46564Q308.35425 542.825 309.58862 542.825Q310.823 542.825 311.54175 543.5125Q312.2605 544.2 312.2605 545.21564Q312.2605 545.73126 312.04175 546.23126Q311.83862 546.71564 311.33862 547.27814Q310.85425 547.825 309.72925 548.77814Q308.77612 549.575 308.49487 549.8719Q308.22925 550.15314 308.05737 550.4344L312.27612 550.4344ZM313.72925 547.21564Q313.72925 545.6844 314.04175 544.7625Q314.35425 543.825 314.96362 543.325Q315.58862 542.825 316.52612 542.825Q317.21362 542.825 317.72925 543.10626Q318.2605 543.3875 318.60425 543.91876Q318.948 544.4344 319.1355 545.1844Q319.323 545.9344 319.323 547.21564Q319.323 548.73126 319.0105 549.65314Q318.71362 550.575 318.08862 551.09064Q317.47925 551.59064 316.52612 551.59064Q315.29175 551.59064 314.573 550.7Q313.72925 549.6375 313.72925 547.21564ZM314.80737 547.21564Q314.80737 549.325 315.30737 550.02814Q315.80737 550.73126 316.52612 550.73126Q317.2605 550.73126 317.74487 550.02814Q318.24487 549.325 318.24487 547.21564Q318.24487 545.09064 317.74487 544.40314Q317.2605 543.7 316.5105 543.7Q315.79175 543.7 315.35425 544.3094Q314.80737 545.09064 314.80737 547.21564ZM320.93237 544.91876Q320.93237 543.9969 321.3855 543.35626Q321.85425 542.71564 322.72925 542.71564Q323.54175 542.71564 324.073 543.29376Q324.60425 543.8719 324.60425 544.98126Q324.60425 546.075 324.05737 546.66876Q323.52612 547.2469 322.74487 547.2469Q321.96362 547.2469 321.448 546.66876Q320.93237 546.09064 320.93237 544.91876ZM322.7605 543.4344Q322.36987 543.4344 322.10425 543.77814Q321.85425 544.1219 321.85425 545.02814Q321.85425 545.85626 322.10425 546.2Q322.36987 546.52814 322.7605 546.52814Q323.16675 546.52814 323.41675 546.1844Q323.68237 545.84064 323.68237 544.95Q323.68237 544.10626 323.41675 543.77814Q323.15112 543.4344 322.7605 543.4344ZM322.7605 551.7625L327.46362 542.71564L328.323 542.71564L323.6355 551.7625L322.7605 551.7625ZM326.47925 549.4344Q326.47925 548.5125 326.93237 547.8719Q327.40112 547.23126 328.29175 547.23126Q329.10425 547.23126 329.6355 547.8094Q330.16675 548.3719 330.16675 549.4969Q330.16675 550.59064 329.61987 551.1844Q329.08862 551.7625 328.29175 551.7625Q327.52612 551.7625 326.99487 551.1844Q326.47925 550.60626 326.47925 549.4344ZM328.323 547.95Q327.91675 547.95 327.65112 548.29376Q327.40112 548.6375 327.40112 549.54376Q327.40112 550.35626 327.66675 550.7Q327.93237 551.04376 328.323 551.04376Q328.71362 551.04376 328.97925 550.7Q329.24487 550.35626 329.24487 549.45Q329.24487 548.6219 328.97925 548.29376Q328.71362 547.95 328.323 547.95Z" fill-rule="nonzero"/><path fill="#000000" d="M494.28348 551.45L494.28348 549.3875L490.56473 549.3875L490.56473 548.41876L494.4866 542.85626L495.34598 542.85626L495.34598 548.41876L496.50223 548.41876L496.50223 549.3875L495.34598 549.3875L495.34598 551.45L494.28348 551.45ZM494.28348 548.41876L494.28348 544.5594L491.59598 548.41876L494.28348 548.41876ZM497.90848 547.21564Q497.90848 545.6844 498.22098 544.7625Q498.53348 543.825 499.14285 543.325Q499.76785 542.825 500.70535 542.825Q501.39285 542.825 501.90848 543.10626Q502.43973 543.3875 502.78348 543.91876Q503.12723 544.4344 503.31473 545.1844Q503.50223 545.9344 503.50223 547.21564Q503.50223 548.73126 503.18973 549.65314Q502.89285 550.575 502.26785 551.09064Q501.65848 551.59064 500.70535 551.59064Q499.47098 551.59064 498.75223 550.7Q497.90848 549.6375 497.90848 547.21564ZM498.9866 547.21564Q498.9866 549.325 499.4866 550.02814Q499.9866 550.73126 500.70535 550.73126Q501.43973 550.73126 501.9241 550.02814Q502.4241 549.325 502.4241 547.21564Q502.4241 545.09064 501.9241 544.40314Q501.43973 543.7 500.68973 543.7Q499.97098 543.7 499.53348 544.3094Q498.9866 545.09064 498.9866 547.21564ZM505.1116 544.91876Q505.1116 543.9969 505.56473 543.35626Q506.03348 542.71564 506.90848 542.71564Q507.72098 542.71564 508.25223 543.29376Q508.78348 543.8719 508.78348 544.98126Q508.78348 546.075 508.2366 546.66876Q507.70535 547.2469 506.9241 547.2469Q506.14285 547.2469 505.62723 546.66876Q505.1116 546.09064 505.1116 544.91876ZM506.93973 543.4344Q506.5491 543.4344 506.28348 543.77814Q506.03348 544.1219 506.03348 545.02814Q506.03348 545.85626 506.28348 546.2Q506.5491 546.52814 506.93973 546.52814Q507.34598 546.52814 507.59598 546.1844Q507.8616 545.84064 507.8616 544.95Q507.8616 544.10626 507.59598 543.77814Q507.33035 543.4344 506.93973 543.4344ZM506.93973 551.7625L511.64285 542.71564L512.5022 542.71564L507.81473 551.7625L506.93973 551.7625ZM510.65848 549.4344Q510.65848 548.5125 511.1116 547.8719Q511.58035 547.23126 512.47095 547.23126Q513.28345 547.23126 513.8147 547.8094Q514.34595 548.3719 514.34595 549.4969Q514.34595 550.59064 513.7991 551.1844Q513.2678 551.7625 512.47095 551.7625Q511.70535 551.7625 511.1741 551.1844Q510.65848 550.60626 510.65848 549.4344ZM512.5022 547.95Q512.09595 547.95 511.83035 548.29376Q511.58035 548.6375 511.58035 549.54376Q511.58035 550.35626 511.84598 550.7Q512.1116 551.04376 512.5022 551.04376Q512.8928 551.04376 513.15845 550.7Q513.4241 550.35626 513.4241 549.45Q513.4241 548.6219 513.15845 548.29376Q512.8928 547.95 512.5022 547.95Z" fill-rule="nonzero"/><path fill="#000000" d="M680.55646 544.96564L679.5096 545.04376Q679.36896 544.41876 679.11896 544.1375Q678.68146 543.6844 678.05646 543.6844Q677.55646 543.6844 677.16583 543.96564Q676.68146 544.34064 676.3846 545.04376Q676.10333 545.73126 676.0877 547.0125Q676.4627 546.4344 677.0096 546.15314Q677.5721 545.8719 678.18146 545.8719Q679.22833 545.8719 679.9627 546.65314Q680.7127 547.4344 680.7127 548.65314Q680.7127 549.46564 680.35333 550.16876Q680.0096 550.85626 679.4002 551.23126Q678.79083 551.59064 678.0252 551.59064Q676.6971 551.59064 675.86896 550.6219Q675.04083 549.65314 675.04083 547.4344Q675.04083 544.9344 675.9627 543.8094Q676.7596 542.825 678.11896 542.825Q679.1346 542.825 679.7752 543.40314Q680.43146 543.96564 680.55646 544.96564ZM676.2596 548.66876Q676.2596 549.21564 676.47833 549.71564Q676.7127 550.2 677.11896 550.46564Q677.54083 550.73126 678.0096 550.73126Q678.66583 550.73126 679.1502 550.2Q679.6346 549.65314 679.6346 548.73126Q679.6346 547.84064 679.1502 547.325Q678.68146 546.8094 677.9627 546.8094Q677.24396 546.8094 676.74396 547.325Q676.2596 547.84064 676.2596 548.66876ZM682.0877 547.21564Q682.0877 545.6844 682.4002 544.7625Q682.7127 543.825 683.3221 543.325Q683.9471 542.825 684.8846 542.825Q685.5721 542.825 686.0877 543.10626Q686.61896 543.3875 686.9627 543.91876Q687.30646 544.4344 687.49396 545.1844Q687.68146 545.9344 687.68146 547.21564Q687.68146 548.73126 687.36896 549.65314Q687.0721 550.575 686.4471 551.09064Q685.8377 551.59064 684.8846 551.59064Q683.6502 551.59064 682.93146 550.7Q682.0877 549.6375 682.0877 547.21564ZM683.16583 547.21564Q683.16583 549.325 683.66583 550.02814Q684.16583 550.73126 684.8846 550.73126Q685.61896 550.73126 686.10333 550.02814Q686.60333 549.325 686.60333 547.21564Q686.60333 545.09064 686.10333 544.40314Q685.61896 543.7 684.86896 543.7Q684.1502 543.7 683.7127 544.3094Q683.16583 545.09064 683.16583 547.21564ZM689.29083 544.91876Q689.29083 543.9969 689.74396 543.35626Q690.2127 542.71564 691.0877 542.71564Q691.9002 542.71564 692.43146 543.29376Q692.9627 543.8719 692.9627 544.98126Q692.9627 546.075 692.41583 546.66876Q691.8846 547.2469 691.10333 547.2469Q690.3221 547.2469 689.80646 546.66876Q689.29083 546.09064 689.29083 544.91876ZM691.11896 543.4344Q690.72833 543.4344 690.4627 543.77814Q690.2127 544.1219 690.2127 545.02814Q690.2127 545.85626 690.4627 546.2Q690.72833 546.52814 691.11896 546.52814Q691.5252 546.52814 691.7752 546.1844Q692.04083 545.84064 692.04083 544.95Q692.04083 544.10626 691.7752 543.77814Q691.5096 543.4344 691.11896 543.4344ZM691.11896 551.7625L695.8221 542.71564L696.68146 542.71564L691.99396 551.7625L691.11896 551.7625ZM694.8377 549.4344Q694.8377 548.5125 695.29083 547.8719Q695.7596 547.23126 696.6502 547.23126Q697.4627 547.23126 697.99396 547.8094Q698.5252 548.3719 698.5252 549.4969Q698.5252 550.59064 697.97833 551.1844Q697.4471 551.7625 696.6502 551.7625Q695.8846 551.7625 695.35333 551.1844Q694.8377 550.60626 694.8377 549.4344ZM696.68146 547.95Q696.2752 547.95 696.0096 548.29376Q695.7596 548.6375 695.7596 549.54376Q695.7596 550.35626 696.0252 550.7Q696.29083 551.04376 696.68146 551.04376Q697.0721 551.04376 697.3377 550.7Q697.60333 550.35626 697.60333 549.45Q697.60333 548.6219 697.3377 548.29376Q697.0721 547.95 696.68146 547.95Z" fill-rule="nonzero"/><path fill="#000000" d="M860.89197 546.79376Q860.2357 546.54376 859.9076 546.10626Q859.5951 545.65314 859.5951 545.04376Q859.5951 544.10626 860.26697 543.46564Q860.95447 542.825 862.06384 542.825Q863.18884 542.825 863.87634 543.48126Q864.56384 544.1375 864.56384 545.075Q864.56384 545.66876 864.25134 546.10626Q863.93884 546.54376 863.2982 546.79376Q864.0951 547.04376 864.50134 547.6219Q864.9076 548.2 864.9076 548.9969Q864.9076 550.09064 864.12634 550.84064Q863.3607 551.59064 862.07947 551.59064Q860.81384 551.59064 860.0326 550.84064Q859.25134 550.09064 859.25134 548.96564Q859.25134 548.1219 859.6732 547.5594Q860.1107 546.9969 860.89197 546.79376ZM860.6732 544.9969Q860.6732 545.60626 861.06384 545.9969Q861.4701 546.3875 862.0951 546.3875Q862.70447 546.3875 863.0951 546.0125Q863.4857 545.6219 863.4857 545.0594Q863.4857 544.48126 863.07947 544.09064Q862.6732 543.6844 862.07947 543.6844Q861.4701 543.6844 861.06384 544.075Q860.6732 544.46564 860.6732 544.9969ZM860.3451 548.96564Q860.3451 549.41876 860.5482 549.84064Q860.76697 550.2625 861.18884 550.4969Q861.6107 550.73126 862.0951 550.73126Q862.8451 550.73126 863.32947 550.2469Q863.82947 549.7625 863.82947 549.0125Q863.82947 548.2469 863.32947 547.7469Q862.82947 547.2469 862.06384 547.2469Q861.31384 547.2469 860.82947 547.7469Q860.3451 548.23126 860.3451 548.96564ZM866.26697 547.21564Q866.26697 545.6844 866.57947 544.7625Q866.89197 543.825 867.50134 543.325Q868.12634 542.825 869.06384 542.825Q869.75134 542.825 870.26697 543.10626Q870.7982 543.3875 871.14197 543.91876Q871.4857 544.4344 871.6732 545.1844Q871.8607 545.9344 871.8607 547.21564Q871.8607 548.73126 871.5482 549.65314Q871.25134 550.575 870.62634 551.09064Q870.01697 551.59064 869.06384 551.59064Q867.82947 551.59064 867.1107 550.7Q866.26697 549.6375 866.26697 547.21564ZM867.3451 547.21564Q867.3451 549.325 867.8451 550.02814Q868.3451 550.73126 869.06384 550.73126Q869.7982 550.73126 870.2826 550.02814Q870.7826 549.325 870.7826 547.21564Q870.7826 545.09064 870.2826 544.40314Q869.7982 543.7 869.0482 543.7Q868.32947 543.7 867.89197 544.3094Q867.3451 545.09064 867.3451 547.21564ZM873.4701 544.91876Q873.4701 543.9969 873.9232 543.35626Q874.39197 542.71564 875.26697 542.71564Q876.07947 542.71564 876.6107 543.29376Q877.14197 543.8719 877.14197 544.98126Q877.14197 546.075 876.5951 546.66876Q876.06384 547.2469 875.2826 547.2469Q874.50134 547.2469 873.9857 546.66876Q873.4701 546.09064 873.4701 544.91876ZM875.2982 543.4344Q874.9076 543.4344 874.64197 543.77814Q874.39197 544.1219 874.39197 545.02814Q874.39197 545.85626 874.64197 546.2Q874.9076 546.52814 875.2982 546.52814Q875.70447 546.52814 875.95447 546.1844Q876.2201 545.84064 876.2201 544.95Q876.2201 544.10626 875.95447 543.77814Q875.68884 543.4344 875.2982 543.4344ZM875.2982 551.7625L880.00134 542.71564L880.8607 542.71564L876.1732 551.7625L875.2982 551.7625ZM879.01697 549.4344Q879.01697 548.5125 879.4701 547.8719Q879.93884 547.23126 880.82947 547.23126Q881.64197 547.23126 882.1732 547.8094Q882.70447 548.3719 882.70447 549.4969Q882.70447 550.59064 882.1576 551.1844Q881.62634 551.7625 880.82947 551.7625Q880.06384 551.7625 879.5326 551.1844Q879.01697 550.60626 879.01697 549.4344ZM880.8607 547.95Q880.45447 547.95 880.18884 548.29376Q879.93884 548.6375 879.93884 549.54376Q879.93884 550.35626 880.20447 550.7Q880.4701 551.04376 880.8607 551.04376Q881.25134 551.04376 881.51697 550.7Q881.7826 550.35626 881.7826 549.45Q881.7826 548.6219 881.51697 548.29376Q881.25134 547.95 880.8607 547.95Z" fill-rule="nonzero"/><path fill="#4285f4" d="M274.5 44.55C274.5 47.86371 271.81372 50.55 268.5 50.55C265.18628 50.55 262.5 47.86371 262.5 44.55C262.5 41.23629 265.18628 38.55 268.5 38.55C271.81372 38.55 274.5 41.23629 274.5 44.55Z" fill-rule="nonzero"/><path fill="#1a1a1a" d="M284.07812 51.55L284.07812 37.2375L294.4375 37.2375L294.4375 38.925L285.98438 38.925L285.98438 43.3L293.89062 43.3L293.89062 44.9875L285.98438 44.9875L285.98438 49.8625L294.76562 49.8625L294.76562 51.55L284.07812 51.55ZM303.54688 51.55L303.54688 50.2375Q302.5625 51.784374 300.64062 51.784374Q299.40625 51.784374 298.35938 51.096874Q297.32812 50.409374 296.75 49.190624Q296.1875 47.971874 296.1875 46.378124Q296.1875 44.815624 296.70312 43.55Q297.21875 42.284374 298.25 41.6125Q299.29688 40.940624 300.5625 40.940624Q301.5 40.940624 302.23438 41.346874Q302.96875 41.7375 303.4375 42.3625L303.4375 37.2375L305.17188 37.2375L305.17188 51.55L303.54688 51.55ZM297.98438 46.378124Q297.98438 48.3625 298.82812 49.346874Q299.67188 50.33125 300.8125 50.33125Q301.96875 50.33125 302.76562 49.39375Q303.57812 48.45625 303.57812 46.51875Q303.57812 44.39375 302.75 43.39375Q301.9375 42.39375 300.73438 42.39375Q299.5625 42.39375 298.76562 43.3625Q297.98438 44.315624 297.98438 46.378124ZM314.60938 51.55L314.60938 50.01875Q313.40625 51.784374 311.32812 51.784374Q310.40625 51.784374 309.60938 51.440624Q308.8125 51.08125 308.42188 50.55Q308.04688 50.01875 307.89062 49.2375Q307.78125 48.721874 307.78125 47.596874L307.78125 41.175L309.53125 41.175L309.53125 46.925Q309.53125 48.3 309.64062 48.784374Q309.8125 49.471874 310.34375 49.878124Q310.89062 50.26875 311.67188 50.26875Q312.46875 50.26875 313.15625 49.8625Q313.85938 49.45625 314.14062 48.76875Q314.4375 48.065624 314.4375 46.7375L314.4375 41.175L316.1875 41.175L316.1875 51.55L314.60938 51.55ZM325.59375 47.753124L327.3125 47.971874Q327.03125 49.76875 325.85938 50.784374Q324.70312 51.784374 323.0 51.784374Q320.875 51.784374 319.57812 50.39375Q318.28125 49.003124 318.28125 46.409374Q318.28125 44.721874 318.82812 43.471874Q319.39062 42.20625 320.53125 41.58125Q321.67188 40.940624 323.01562 40.940624Q324.70312 40.940624 325.76562 41.8Q326.84375 42.659374 327.15625 44.221874L325.4375 44.4875Q325.20312 43.440624 324.57812 42.925Q323.95312 42.39375 323.07812 42.39375Q321.75 42.39375 320.92188 43.346874Q320.09375 44.3 320.09375 46.346874Q320.09375 48.440624 320.89062 49.39375Q321.6875 50.33125 322.98438 50.33125Q324.01562 50.33125 324.70312 49.70625Q325.40625 49.065624 325.59375 47.753124ZM335.59375 50.26875Q334.60938 51.096874 333.70312 51.440624Q332.79688 51.784374 331.76562 51.784374Q330.0625 51.784374 329.14062 50.95625Q328.21875 50.1125 328.21875 48.815624Q328.21875 48.05 328.5625 47.425Q328.92188 46.8 329.48438 46.425Q330.04688 46.034374 330.75 45.83125Q331.26562 45.70625 332.3125 45.565624Q334.4375 45.315624 335.4375 44.971874Q335.45312 44.6125 335.45312 44.503124Q335.45312 43.440624 334.95312 42.9875Q334.28125 42.39375 332.95312 42.39375Q331.70312 42.39375 331.10938 42.83125Q330.53125 43.26875 330.25 44.378124L328.53125 44.14375Q328.76562 43.034374 329.29688 42.3625Q329.82812 41.675 330.84375 41.315624Q331.85938 40.940624 333.20312 40.940624Q334.53125 40.940624 335.35938 41.253124Q336.1875 41.565624 336.57812 42.05Q336.96875 42.51875 337.125 43.2375Q337.21875 43.690624 337.21875 44.8625L337.21875 47.20625Q337.21875 49.659374 337.32812 50.315624Q337.4375 50.95625 337.78125 51.55L335.9375 51.55Q335.67188 51.003124 335.59375 50.26875ZM335.4375 46.346874Q334.48438 46.7375 332.5625 47.003124Q331.48438 47.159374 331.03125 47.3625Q330.59375 47.55 330.34375 47.925Q330.09375 48.3 330.09375 48.76875Q330.09375 49.471874 330.625 49.940624Q331.15625 50.409374 332.1875 50.409374Q333.20312 50.409374 333.98438 49.971874Q334.78125 49.51875 335.15625 48.753124Q335.4375 48.14375 335.4375 46.9875L335.4375 46.346874ZM343.65625 49.971874L343.90625 51.534374Q343.17188 51.690624 342.57812 51.690624Q341.625 51.690624 341.09375 51.39375Q340.57812 51.08125 340.35938 50.596874Q340.14062 50.096874 340.14062 48.51875L340.14062 42.55L338.85938 42.55L338.85938 41.175L340.14062 41.175L340.14062 38.6125L341.89062 37.55L341.89062 41.175L343.65625 41.175L343.65625 42.55L341.89062 42.55L341.89062 48.6125Q341.89062 49.3625 341.98438 49.58125Q342.07812 49.784374 342.28125 49.925Q342.5 50.05 342.89062 50.05Q343.17188 50.05 343.65625 49.971874ZM345.82812 39.253124L345.82812 37.2375L347.59375 37.2375L347.59375 39.253124L345.82812 39.253124ZM345.82812 51.55L345.82812 41.175L347.59375 41.175L347.59375 51.55L345.82812 51.55ZM349.17188 46.3625Q349.17188 43.4875 350.76562 42.096874Q352.10938 40.940624 354.03125 40.940624Q356.17188 40.940624 357.51562 42.346874Q358.875 43.753124 358.875 46.221874Q358.875 48.221874 358.28125 49.378124Q357.6875 50.51875 356.53125 51.159374Q355.39062 51.784374 354.03125 51.784374Q351.84375 51.784374 350.5 50.39375Q349.17188 48.9875 349.17188 46.3625ZM350.96875 46.3625Q350.96875 48.3625 351.82812 49.346874Q352.70312 50.33125 354.03125 50.33125Q355.34375 50.33125 356.20312 49.346874Q357.07812 48.346874 357.07812 46.3Q357.07812 44.378124 356.20312 43.39375Q355.32812 42.39375 354.03125 42.39375Q352.70312 42.39375 351.82812 43.39375Q350.96875 44.378124 350.96875 46.3625ZM360.8125 51.55L360.8125 41.175L362.40625 41.175L362.40625 42.659374Q363.54688 40.940624 365.70312 40.940624Q366.64062 40.940624 367.42188 41.284374Q368.21875 41.6125 368.60938 42.159374Q369.0 42.70625 369.15625 43.45625Q369.25 43.95625 369.25 45.175L369.25 51.55L367.48438 51.55L367.48438 45.2375Q367.48438 44.159374 367.28125 43.628124Q367.07812 43.096874 366.54688 42.784374Q366.03125 42.471874 365.32812 42.471874Q364.20312 42.471874 363.39062 43.190624Q362.57812 43.89375 362.57812 45.878124L362.57812 51.55L360.8125 51.55ZM375.6875 51.55L375.6875 38.925L370.96875 38.925L370.96875 37.2375L382.3125 37.2375L382.3125 38.925L377.57812 38.925L377.57812 51.55L375.6875 51.55ZM390.59375 50.26875Q389.60938 51.096874 388.70312 51.440624Q387.79688 51.784374 386.76562 51.784374Q385.0625 51.784374 384.14062 50.95625Q383.21875 50.1125 383.21875 48.815624Q383.21875 48.05 383.5625 47.425Q383.92188 46.8 384.48438 46.425Q385.04688 46.034374 385.75 45.83125Q386.26562 45.70625 387.3125 45.565624Q389.4375 45.315624 390.4375 44.971874Q390.45312 44.6125 390.45312 44.503124Q390.45312 43.440624 389.95312 42.9875Q389.28125 42.39375 387.95312 42.39375Q386.70312 42.39375 386.10938 42.83125Q385.53125 43.26875 385.25 44.378124L383.53125 44.14375Q383.76562 43.034374 384.29688 42.3625Q384.82812 41.675 385.84375 41.315624Q386.85938 40.940624 388.20312 40.940624Q389.53125 40.940624 390.35938 41.253124Q391.1875 41.565624 391.57812 42.05Q391.96875 42.51875 392.125 43.2375Q392.21875 43.690624 392.21875 44.8625L392.21875 47.20625Q392.21875 49.659374 392.32812 50.315624Q392.4375 50.95625 392.78125 51.55L390.9375 51.55Q390.67188 51.003124 390.59375 50.26875ZM390.4375 46.346874Q389.48438 46.7375 387.5625 47.003124Q386.48438 47.159374 386.03125 47.3625Q385.59375 47.55 385.34375 47.925Q385.09375 48.3 385.09375 48.76875Q385.09375 49.471874 385.625 49.940624Q386.15625 50.409374 387.1875 50.409374Q388.20312 50.409374 388.98438 49.971874Q389.78125 49.51875 390.15625 48.753124Q390.4375 48.14375 390.4375 46.9875L390.4375 46.346874ZM396.4375 51.55L394.8125 51.55L394.8125 37.2375L396.5625 37.2375L396.5625 42.346874Q397.6875 40.940624 399.40625 40.940624Q400.35938 40.940624 401.21875 41.33125Q402.07812 41.721874 402.625 42.425Q403.17188 43.1125 403.48438 44.096874Q403.79688 45.08125 403.79688 46.20625Q403.79688 48.878124 402.48438 50.33125Q401.17188 51.784374 399.32812 51.784374Q397.48438 51.784374 396.4375 50.253124L396.4375 51.55ZM396.42188 46.284374Q396.42188 48.14375 396.92188 48.9875Q397.76562 50.33125 399.17188 50.33125Q400.32812 50.33125 401.15625 49.33125Q402.0 48.33125 402.0 46.346874Q402.0 44.315624 401.1875 43.3625Q400.39062 42.39375 399.25 42.39375Q398.09375 42.39375 397.25 43.39375Q396.42188 44.39375 396.42188 46.284374ZM405.78125 51.55L405.78125 37.2375L407.53125 37.2375L407.53125 51.55L405.78125 51.55ZM416.92188 48.20625L418.73438 48.440624Q418.3125 50.01875 417.14062 50.909374Q415.98438 51.784374 414.17188 51.784374Q411.90625 51.784374 410.5625 50.39375Q409.23438 48.9875 409.23438 46.45625Q409.23438 43.83125 410.57812 42.39375Q411.92188 40.940624 414.07812 40.940624Q416.15625 40.940624 417.46875 42.3625Q418.79688 43.76875 418.79688 46.346874Q418.79688 46.503124 418.78125 46.815624L411.04688 46.815624Q411.14062 48.51875 412.01562 49.425Q412.89062 50.33125 414.1875 50.33125Q415.15625 50.33125 415.82812 49.83125Q416.51562 49.315624 416.92188 48.20625ZM411.14062 45.3625L416.9375 45.3625Q416.82812 44.065624 416.28125 43.409374Q415.4375 42.39375 414.09375 42.39375Q412.89062 42.39375 412.0625 43.20625Q411.23438 44.003124 411.14062 45.3625Z" fill-rule="nonzero"/><path fill="#ea4335" d="M441.5 38.55L446.69617 47.55L436.30383 47.55Z" fill-rule="nonzero"/><path fill="#1a1a1a" d="M457.07812 51.55L457.07812 37.2375L463.42188 37.2375Q465.32812 37.2375 466.32812 37.628124Q467.32812 38.003124 467.92188 38.9875Q468.51562 39.95625 468.51562 41.14375Q468.51562 42.659374 467.53125 43.70625Q466.54688 44.753124 464.48438 45.034374Q465.23438 45.39375 465.625 45.753124Q466.45312 46.503124 467.20312 47.659374L469.6875 51.55L467.3125 51.55L465.40625 48.565624Q464.57812 47.284374 464.04688 46.596874Q463.51562 45.909374 463.07812 45.64375Q462.65625 45.3625 462.21875 45.253124Q461.89062 45.190624 461.17188 45.190624L458.96875 45.190624L458.96875 51.55L457.07812 51.55ZM458.96875 43.55L463.04688 43.55Q464.34375 43.55 465.0625 43.284374Q465.79688 43.01875 466.17188 42.425Q466.5625 41.83125 466.5625 41.14375Q466.5625 40.128124 465.82812 39.471874Q465.09375 38.815624 463.5 38.815624L458.96875 38.815624L458.96875 43.55ZM477.59375 50.26875Q476.60938 51.096874 475.70312 51.440624Q474.79688 51.784374 473.76562 51.784374Q472.0625 51.784374 471.14062 50.95625Q470.21875 50.1125 470.21875 48.815624Q470.21875 48.05 470.5625 47.425Q470.92188 46.8 471.48438 46.425Q472.04688 46.034374 472.75 45.83125Q473.26562 45.70625 474.3125 45.565624Q476.4375 45.315624 477.4375 44.971874Q477.45312 44.6125 477.45312 44.503124Q477.45312 43.440624 476.95312 42.9875Q476.28125 42.39375 474.95312 42.39375Q473.70312 42.39375 473.10938 42.83125Q472.53125 43.26875 472.25 44.378124L470.53125 44.14375Q470.76562 43.034374 471.29688 42.3625Q471.82812 41.675 472.84375 41.315624Q473.85938 40.940624 475.20312 40.940624Q476.53125 40.940624 477.35938 41.253124Q478.1875 41.565624 478.57812 42.05Q478.96875 42.51875 479.125 43.2375Q479.21875 43.690624 479.21875 44.8625L479.21875 47.20625Q479.21875 49.659374 479.32812 50.315624Q479.4375 50.95625 479.78125 51.55L477.9375 51.55Q477.67188 51.003124 477.59375 50.26875ZM477.4375 46.346874Q476.48438 46.7375 474.5625 47.003124Q473.48438 47.159374 473.03125 47.3625Q472.59375 47.55 472.34375 47.925Q472.09375 48.3 472.09375 48.76875Q472.09375 49.471874 472.625 49.940624Q473.15625 50.409374 474.1875 50.409374Q475.20312 50.409374 475.98438 49.971874Q476.78125 49.51875 477.15625 48.753124Q477.4375 48.14375 477.4375 46.9875L477.4375 46.346874ZM488.59375 47.753124L490.3125 47.971874Q490.03125 49.76875 488.85938 50.784374Q487.70312 51.784374 486.0 51.784374Q483.875 51.784374 482.57812 50.39375Q481.28125 49.003124 481.28125 46.409374Q481.28125 44.721874 481.82812 43.471874Q482.39062 42.20625 483.53125 41.58125Q484.67188 40.940624 486.01562 40.940624Q487.70312 40.940624 488.76562 41.8Q489.84375 42.659374 490.15625 44.221874L488.4375 44.4875Q488.20312 43.440624 487.57812 42.925Q486.95312 42.39375 486.07812 42.39375Q484.75 42.39375 483.92188 43.346874Q483.09375 44.3 483.09375 46.346874Q483.09375 48.440624 483.89062 49.39375Q484.6875 50.33125 485.98438 50.33125Q487.01562 50.33125 487.70312 49.70625Q488.40625 49.065624 488.59375 47.753124ZM498.92188 48.20625L500.73438 48.440624Q500.3125 50.01875 499.14062 50.909374Q497.98438 51.784374 496.17188 51.784374Q493.90625 51.784374 492.5625 50.39375Q491.23438 48.9875 491.23438 46.45625Q491.23438 43.83125 492.57812 42.39375Q493.92188 40.940624 496.07812 40.940624Q498.15625 40.940624 499.46875 42.3625Q500.79688 43.76875 500.79688 46.346874Q500.79688 46.503124 500.78125 46.815624L493.04688 46.815624Q493.14062 48.51875 494.01562 49.425Q494.89062 50.33125 496.1875 50.33125Q497.15625 50.33125 497.82812 49.83125Q498.51562 49.315624 498.92188 48.20625ZM493.14062 45.3625L498.9375 45.3625Q498.82812 44.065624 498.28125 43.409374Q497.4375 42.39375 496.09375 42.39375Q494.89062 42.39375 494.0625 43.20625Q493.23438 44.003124 493.14062 45.3625ZM506.6875 51.55L506.6875 38.925L501.96875 38.925L501.96875 37.2375L513.3125 37.2375L513.3125 38.925L508.57812 38.925L508.57812 51.55L506.6875 51.55ZM521.59375 50.26875Q520.6094 51.096874 519.7031 51.440624Q518.7969 51.784374 517.7656 51.784374Q516.0625 51.784374 515.1406 50.95625Q514.21875 50.1125 514.21875 48.815624Q514.21875 48.05 514.5625 47.425Q514.9219 46.8 515.4844 46.425Q516.0469 46.034374 516.75 45.83125Q517.2656 45.70625 518.3125 45.565624Q520.4375 45.315624 521.4375 44.971874Q521.4531 44.6125 521.4531 44.503124Q521.4531 43.440624 520.9531 42.9875Q520.28125 42.39375 518.9531 42.39375Q517.7031 42.39375 517.1094 42.83125Q516.53125 43.26875 516.25 44.378124L514.53125 44.14375Q514.7656 43.034374 515.2969 42.3625Q515.8281 41.675 516.84375 41.315624Q517.8594 40.940624 519.2031 40.940624Q520.53125 40.940624 521.3594 41.253124Q522.1875 41.565624 522.5781 42.05Q522.96875 42.51875 523.125 43.2375Q523.21875 43.690624 523.21875 44.8625L523.21875 47.20625Q523.21875 49.659374 523.3281 50.315624Q523.4375 50.95625 523.78125 51.55L521.9375 51.55Q521.6719 51.003124 521.59375 50.26875ZM521.4375 46.346874Q520.4844 46.7375 518.5625 47.003124Q517.4844 47.159374 517.03125 47.3625Q516.59375 47.55 516.34375 47.925Q516.09375 48.3 516.09375 48.76875Q516.09375 49.471874 516.625 49.940624Q517.15625 50.409374 518.1875 50.409374Q519.2031 50.409374 519.9844 49.971874Q520.78125 49.51875 521.15625 48.753124Q521.4375 48.14375 521.4375 46.9875L521.4375 46.346874ZM527.4375 51.55L525.8125 51.55L525.8125 37.2375L527.5625 37.2375L527.5625 42.346874Q528.6875 40.940624 530.40625 40.940624Q531.3594 40.940624 532.21875 41.33125Q533.0781 41.721874 533.625 42.425Q534.1719 43.1125 534.4844 44.096874Q534.7969 45.08125 534.7969 46.20625Q534.7969 48.878124 533.4844 50.33125Q532.1719 51.784374 530.3281 51.784374Q528.4844 51.784374 527.4375 50.253124L527.4375 51.55ZM527.4219 46.284374Q527.4219 48.14375 527.9219 48.9875Q528.7656 50.33125 530.1719 50.33125Q531.3281 50.33125 532.15625 49.33125Q533.0 48.33125 533.0 46.346874Q533.0 44.315624 532.1875 43.3625Q531.3906 42.39375 530.25 42.39375Q529.09375 42.39375 528.25 43.39375Q527.4219 44.39375 527.4219 46.284374ZM536.78125 51.55L536.78125 37.2375L538.53125 37.2375L538.53125 51.55L536.78125 51.55ZM547.9219 48.20625L549.7344 48.440624Q549.3125 50.01875 548.1406 50.909374Q546.9844 51.784374 545.1719 51.784374Q542.90625 51.784374 541.5625 50.39375Q540.2344 48.9875 540.2344 46.45625Q540.2344 43.83125 541.5781 42.39375Q542.9219 40.940624 545.0781 40.940624Q547.15625 40.940624 548.46875 42.3625Q549.7969 43.76875 549.7969 46.346874Q549.7969 46.503124 549.78125 46.815624L542.0469 46.815624Q542.1406 48.51875 543.0156 49.425Q543.8906 50.33125 545.1875 50.33125Q546.15625 50.33125 546.8281 49.83125Q547.5156 49.315624 547.9219 48.20625ZM542.1406 45.3625L547.9375 45.3625Q547.8281 44.065624 547.28125 43.409374Q546.4375 42.39375 545.09375 42.39375Q543.8906 42.39375 543.0625 43.20625Q542.2344 44.003124 542.1406 45.3625Z" fill-rule="nonzero"/><path fill="#fbbc04" d="M568.2574 40.307358L576.7426 40.307358L576.7426 48.79264L568.2574 48.79264Z" fill-rule="nonzero"/><path fill="#1a1a1a" d="M586.46875 51.55L591.96875 37.2375L594.0156 37.2375L599.875 51.55L597.71875 51.55L596.0469 47.20625L590.0625 47.20625L588.4844 51.55L586.46875 51.55ZM590.6094 45.675L595.4531 45.675L593.96875 41.70625Q593.28125 39.89375 592.9531 38.7375Q592.6719 40.1125 592.1719 41.471874L590.6094 45.675ZM600.5 52.409374L602.2031 52.659374Q602.3125 53.45625 602.7969 53.815624Q603.4531 54.3 604.59375 54.3Q605.8125 54.3 606.46875 53.815624Q607.1406 53.33125 607.375 52.45625Q607.5156 51.909374 607.5 50.190624Q606.34375 51.55 604.625 51.55Q602.4844 51.55 601.3125 50.003124Q600.1406 48.45625 600.1406 46.3Q600.1406 44.815624 600.6719 43.565624Q601.21875 42.315624 602.2344 41.628124Q603.2656 40.940624 604.6406 40.940624Q606.46875 40.940624 607.6719 42.425L607.6719 41.175L609.28125 41.175L609.28125 50.14375Q609.28125 52.565624 608.78125 53.565624Q608.2969 54.58125 607.21875 55.159374Q606.15625 55.753124 604.59375 55.753124Q602.75 55.753124 601.59375 54.925Q600.4531 54.096874 600.5 52.409374ZM601.9531 46.175Q601.9531 48.221874 602.7656 49.159374Q603.5781 50.096874 604.7969 50.096874Q606.0 50.096874 606.8125 49.159374Q607.6406 48.221874 607.6406 46.2375Q607.6406 44.33125 606.7969 43.3625Q605.9531 42.39375 604.7656 42.39375Q603.59375 42.39375 602.7656 43.346874Q601.9531 44.3 601.9531 46.175ZM618.9219 48.20625L620.7344 48.440624Q620.3125 50.01875 619.1406 50.909374Q617.9844 51.784374 616.1719 51.784374Q613.90625 51.784374 612.5625 50.39375Q611.2344 48.9875 611.2344 46.45625Q611.2344 43.83125 612.5781 42.39375Q613.9219 40.940624 616.0781 40.940624Q618.15625 40.940624 619.46875 42.3625Q620.7969 43.76875 620.7969 46.346874Q620.7969 46.503124 620.78125 46.815624L613.0469 46.815624Q613.1406 48.51875 614.0156 49.425Q614.8906 50.33125 616.1875 50.33125Q617.15625 50.33125 617.8281 49.83125Q618.5156 49.315624 618.9219 48.20625ZM613.1406 45.3625L618.9375 45.3625Q618.8281 44.065624 618.28125 43.409374Q617.4375 42.39375 616.09375 42.39375Q614.8906 42.39375 614.0625 43.20625Q613.2344 44.003124 613.1406 45.3625ZM626.6875 51.55L626.6875 38.925L621.96875 38.925L621.96875 37.2375L633.3125 37.2375L633.3125 38.925L628.5781 38.925L628.5781 51.55L626.6875 51.55ZM641.59375 50.26875Q640.6094 51.096874 639.7031 51.440624Q638.7969 51.784374 637.7656 51.784374Q636.0625 51.784374 635.1406 50.95625Q634.21875 50.1125 634.21875 48.815624Q634.21875 48.05 634.5625 47.425Q634.9219 46.8 635.4844 46.425Q636.0469 46.034374 636.75 45.83125Q637.2656 45.70625 638.3125 45.565624Q640.4375 45.315624 641.4375 44.971874Q641.4531 44.6125 641.4531 44.503124Q641.4531 43.440624 640.9531 42.9875Q640.28125 42.39375 638.9531 42.39375Q637.7031 42.39375 637.1094 42.83125Q636.53125 43.26875 636.25 44.378124L634.53125 44.14375Q634.7656 43.034374 635.2969 42.3625Q635.8281 41.675 636.84375 41.315624Q637.8594 40.940624 639.2031 40.940624Q640.53125 40.940624 641.3594 41.253124Q642.1875 41.565624 642.5781 42.05Q642.96875 42.51875 643.125 43.2375Q643.21875 43.690624 643.21875 44.8625L643.21875 47.20625Q643.21875 49.659374 643.3281 50.315624Q643.4375 50.95625 643.78125 51.55L641.9375 51.55Q641.6719 51.003124 641.59375 50.26875ZM641.4375 46.346874Q640.4844 46.7375 638.5625 47.003124Q637.4844 47.159374 637.03125 47.3625Q636.59375 47.55 636.34375 47.925Q636.09375 48.3 636.09375 48.76875Q636.09375 49.471874 636.625 49.940624Q637.15625 50.409374 638.1875 50.409374Q639.2031 50.409374 639.9844 49.971874Q640.78125 49.51875 641.15625 48.753124Q641.4375 48.14375 641.4375 46.9875L641.4375 46.346874ZM647.4375 51.55L645.8125 51.55L645.8125 37.2375L647.5625 37.2375L647.5625 42.346874Q648.6875 40.940624 650.40625 40.940624Q651.3594 40.940624 652.21875 41.33125Q653.0781 41.721874 653.625 42.425Q654.1719 43.1125 654.4844 44.096874Q654.7969 45.08125 654.7969 46.20625Q654.7969 48.878124 653.4844 50.33125Q652.1719 51.784374 650.3281 51.784374Q648.4844 51.784374 647.4375 50.253124L647.4375 51.55ZM647.4219 46.284374Q647.4219 48.14375 647.9219 48.9875Q648.7656 50.33125 650.1719 50.33125Q651.3281 50.33125 652.15625 49.33125Q653.0 48.33125 653.0 46.346874Q653.0 44.315624 652.1875 43.3625Q651.3906 42.39375 650.25 42.39375Q649.09375 42.39375 648.25 43.39375Q647.4219 44.39375 647.4219 46.284374ZM656.78125 51.55L656.78125 37.2375L658.53125 37.2375L658.53125 51.55L656.78125 51.55ZM667.9219 48.20625L669.7344 48.440624Q669.3125 50.01875 668.1406 50.909374Q666.9844 51.784374 665.1719 51.784374Q662.90625 51.784374 661.5625 50.39375Q660.2344 48.9875 660.2344 46.45625Q660.2344 43.83125 661.5781 42.39375Q662.9219 40.940624 665.0781 40.940624Q667.15625 40.940624 668.46875 42.3625Q669.7969 43.76875 669.7969 46.346874Q669.7969 46.503124 669.78125 46.815624L662.0469 46.815624Q662.1406 48.51875 663.0156 49.425Q663.8906 50.33125 665.1875 50.33125Q666.15625 50.33125 666.8281 49.83125Q667.5156 49.315624 667.9219 48.20625ZM662.1406 45.3625L667.9375 45.3625Q667.8281 44.065624 667.28125 43.409374Q666.4375 42.39375 665.09375 42.39375Q663.8906 42.39375 663.0625 43.20625Q662.2344 44.003124 662.1406 45.3625Z" fill-rule="nonzero"/><path fill="#34a853" d="M692.5 38.55L693.8471 42.695896L698.20636 42.695896L694.6796 45.258205L696.02673 49.404102L692.5 46.841797L688.97327 49.404102L690.3204 45.258205L686.79364 42.695896L691.1529 42.695896Z" fill-rule="nonzero"/><path fill="#1a1a1a" d="M707.40625 46.95625L709.1875 46.8Q709.3125 47.8625 709.7656 48.55Q710.2344 49.2375 711.2031 49.675Q712.1875 50.096874 713.4219 50.096874Q714.5 50.096874 715.3281 49.784374Q716.15625 49.45625 716.5625 48.89375Q716.96875 48.33125 716.96875 47.659374Q716.96875 46.9875 716.5781 46.4875Q716.1875 45.9875 715.2969 45.64375Q714.71875 45.409374 712.7344 44.940624Q710.7656 44.471874 709.9844 44.05Q708.9531 43.51875 708.4531 42.721874Q707.9531 41.925 707.9531 40.940624Q707.9531 39.846874 708.5625 38.909374Q709.1719 37.971874 710.3594 37.4875Q711.5469 36.9875 712.9844 36.9875Q714.5781 36.9875 715.7969 37.503124Q717.0156 38.01875 717.65625 39.01875Q718.3125 40.003124 718.3594 41.26875L716.5469 41.409374Q716.40625 40.05 715.5625 39.3625Q714.71875 38.659374 713.0625 38.659374Q711.34375 38.659374 710.5469 39.3Q709.7656 39.925 709.7656 40.8Q709.7656 41.58125 710.3281 42.08125Q710.875 42.58125 713.1875 43.096874Q715.5 43.6125 716.3594 44.003124Q717.6094 44.58125 718.2031 45.471874Q718.7969 46.346874 718.7969 47.503124Q718.7969 48.64375 718.1406 49.659374Q717.4844 50.675 716.25 51.2375Q715.03125 51.8 713.5 51.8Q711.5625 51.8 710.25 51.2375Q708.9375 50.659374 708.1875 49.51875Q707.4375 48.378124 707.40625 46.95625ZM727.9219 48.20625L729.7344 48.440624Q729.3125 50.01875 728.1406 50.909374Q726.9844 51.784374 725.1719 51.784374Q722.90625 51.784374 721.5625 50.39375Q720.2344 48.9875 720.2344 46.45625Q720.2344 43.83125 721.5781 42.39375Q722.9219 40.940624 725.0781 40.940624Q727.15625 40.940624 728.46875 42.3625Q729.7969 43.76875 729.7969 46.346874Q729.7969 46.503124 729.78125 46.815624L722.0469 46.815624Q722.1406 48.51875 723.0156 49.425Q723.8906 50.33125 725.1875 50.33125Q726.15625 50.33125 726.8281 49.83125Q727.5156 49.315624 727.9219 48.20625ZM722.1406 45.3625L727.9375 45.3625Q727.8281 44.065624 727.28125 43.409374Q726.4375 42.39375 725.09375 42.39375Q723.8906 42.39375 723.0625 43.20625Q722.2344 44.003124 722.1406 45.3625ZM730.6406 51.55L734.4375 46.159374L730.9375 41.175L733.125 41.175L734.71875 43.6125Q735.1719 44.3 735.4375 44.76875Q735.875 44.128124 736.2344 43.628124L737.9844 41.175L740.0781 41.175L736.5 46.065624L740.3594 51.55L738.2031 51.55L736.0625 48.33125L735.5 47.45625L732.78125 51.55L730.6406 51.55ZM745.6875 51.55L745.6875 38.925L740.96875 38.925L740.96875 37.2375L752.3125 37.2375L752.3125 38.925L747.5781 38.925L747.5781 51.55L745.6875 51.55ZM760.59375 50.26875Q759.6094 51.096874 758.7031 51.440624Q757.7969 51.784374 756.7656 51.784374Q755.0625 51.784374 754.1406 50.95625Q753.21875 50.1125 753.21875 48.815624Q753.21875 48.05 753.5625 47.425Q753.9219 46.8 754.4844 46.425Q755.0469 46.034374 755.75 45.83125Q756.2656 45.70625 757.3125 45.565624Q759.4375 45.315624 760.4375 44.971874Q760.4531 44.6125 760.4531 44.503124Q760.4531 43.440624 759.9531 42.9875Q759.28125 42.39375 757.9531 42.39375Q756.7031 42.39375 756.1094 42.83125Q755.53125 43.26875 755.25 44.378124L753.53125 44.14375Q753.7656 43.034374 754.2969 42.3625Q754.8281 41.675 755.84375 41.315624Q756.8594 40.940624 758.2031 40.940624Q759.53125 40.940624 760.3594 41.253124Q761.1875 41.565624 761.5781 42.05Q761.96875 42.51875 762.125 43.2375Q762.21875 43.690624 762.21875 44.8625L762.21875 47.20625Q762.21875 49.659374 762.3281 50.315624Q762.4375 50.95625 762.78125 51.55L760.9375 51.55Q760.6719 51.003124 760.59375 50.26875ZM760.4375 46.346874Q759.4844 46.7375 757.5625 47.003124Q756.4844 47.159374 756.03125 47.3625Q755.59375 47.55 755.34375 47.925Q755.09375 48.3 755.09375 48.76875Q755.09375 49.471874 755.625 49.940624Q756.15625 50.409374 757.1875 50.409374Q758.2031 50.409374 758.9844 49.971874Q759.78125 49.51875 760.15625 48.753124Q760.4375 48.14375 760.4375 46.9875L760.4375 46.346874ZM766.4375 51.55L764.8125 51.55L764.8125 37.2375L766.5625 37.2375L766.5625 42.346874Q767.6875 40.940624 769.40625 40.940624Q770.3594 40.940624 771.21875 41.33125Q772.0781 41.721874 772.625 42.425Q773.1719 43.1125 773.4844 44.096874Q773.7969 45.08125 773.7969 46.20625Q773.7969 48.878124 772.4844 50.33125Q771.1719 51.784374 769.3281 51.784374Q767.4844 51.784374 766.4375 50.253124L766.4375 51.55ZM766.4219 46.284374Q766.4219 48.14375 766.9219 48.9875Q767.7656 50.33125 769.1719 50.33125Q770.3281 50.33125 771.15625 49.33125Q772.0 48.33125 772.0 46.346874Q772.0 44.315624 771.1875 43.3625Q770.3906 42.39375 769.25 42.39375Q768.09375 42.39375 767.25 43.39375Q766.4219 44.39375 766.4219 46.284374ZM775.78125 51.55L775.78125 37.2375L777.53125 37.2375L777.53125 51.55L775.78125 51.55ZM786.9219 48.20625L788.7344 48.440624Q788.3125 50.01875 787.1406 50.909374Q785.9844 51.784374 784.1719 51.784374Q781.90625 51.784374 780.5625 50.39375Q779.2344 48.9875 779.2344 46.45625Q779.2344 43.83125 780.5781 42.39375Q781.9219 40.940624 784.0781 40.940624Q786.15625 40.940624 787.46875 42.3625Q788.7969 43.76875 788.7969 46.346874Q788.7969 46.503124 788.78125 46.815624L781.0469 46.815624Q781.1406 48.51875 782.0156 49.425Q782.8906 50.33125 784.1875 50.33125Q785.15625 50.33125 785.8281 49.83125Q786.5156 49.315624 786.9219 48.20625ZM781.1406 45.3625L786.9375 45.3625Q786.8281 44.065624 786.28125 43.409374Q785.4375 42.39375 784.09375 42.39375Q782.8906 42.39375 782.0625 43.20625Q781.2344 44.003124 781.1406 45.3625Z" fill-rule="nonzero"/></svg>