<svg version="1.1" viewBox="0.0 0.0 1052.0 651.0" fill="none" stroke="none" stroke-linecap="square" stroke-miterlimit="10" width="1052" height="651" xmlns:xlink="http://www.w3.org/1999/xlink" xmlns="http://www.w3.org/2000/svg"><path fill="#ffffff" d="M0 0L1052.0 0L1052.0 651.0L0 651.0L0 0Z" fill-rule="nonzero"/><path stroke="#333333" stroke-width="1.0" stroke-linecap="butt" d="M126.5 85.5L126.5 534.5" fill-rule="nonzero"/><path stroke="#cccccc" stroke-width="1.0" stroke-linecap="butt" d="M312.5 85.5L312.5 534.5" fill-rule="nonzero"/><path stroke="#cccccc" stroke-width="1.0" stroke-linecap="butt" d="M498.5 85.5L498.5 534.5" fill-rule="nonzero"/><path stroke="#cccccc" stroke-width="1.0" stroke-linecap="butt" d="M684.5 85.5L684.5 534.5" fill-rule="nonzero"/><path stroke="#cccccc" stroke-width="1.0" stroke-linecap="butt" d="M870.5 85.5L870.5 534.5" fill-rule="nonzero"/><path stroke="#cccccc" stroke-width="1.0" stroke-linecap="butt" d="M126.5 534.5L1019.5 534.5" fill-rule="nonzero"/><path stroke="#cccccc" stroke-width="1.0" stroke-linecap="butt" d="M126.5 422.5L1019.5 422.5" fill-rule="nonzero"/><path stroke="#cccccc" stroke-width="1.0" stroke-linecap="butt" d="M126.5 309.5L1019.5 309.5" fill-rule="nonzero"/><path stroke="#cccccc" stroke-width="1.0" stroke-linecap="butt" d="M126.5 197.5L1019.5 197.5" fill-rule="nonzero"/><path stroke="#cccccc" stroke-width="1.0" stroke-linecap="butt" d="M126.5 85.5L1019.5 85.5" fill-rule="nonzero"/><path stroke="#000000" stroke-width="1.0" stroke-linecap="butt" stroke-opacity="0.0" d="M126.5 497.5L1019.5 497.5" fill-rule="nonzero"/><path stroke="#000000" stroke-width="1.0" stroke-linecap="butt" stroke-opacity="0.0" d="M126.5 459.5L1019.5 459.5" fill-rule="nonzero"/><path stroke="#000000" stroke-width="1.0" stroke-linecap="butt" stroke-opacity="0.0" d="M126.5 384.5L1019.5 384.5" fill-rule="nonzero"/><path stroke="#000000" stroke-width="1.0" stroke-linecap="butt" stroke-opacity="0.0" d="M126.5 347.5L1019.5 347.5" fill-rule="nonzero"/><path stroke="#000000" stroke-width="1.0" stroke-linecap="butt" stroke-opacity="0.0" d="M126.5 272.5L1019.5 272.5" fill-rule="nonzero"/><path stroke="#000000" stroke-width="1.0" stroke-linecap="butt" stroke-opacity="0.0" d="M126.5 234.5L1019.5 234.5" fill-rule="nonzero"/><path stroke="#000000" stroke-width="1.0" stroke-linecap="butt" stroke-opacity="0.0" d="M126.5 160.5L1019.5 160.5" fill-rule="nonzero"/><path stroke="#000000" stroke-width="1.0" stroke-linecap="butt" stroke-opacity="0.0" d="M126.5 122.5L1019.5 122.5" fill-rule="nonzero"/><clipPath id="id_0"><path d="M126.55 85.25L1019.45 85.25L1019.45 534.45L126.55 534.45L126.55 85.25Z" clip-rule="nonzero"/></clipPath><path stroke="#4285f4" stroke-width="2.0" stroke-linecap="butt" clip-path="url(#id_0)" d="M189.34401 300.73862L252.13802 297.26495L314.93204 319.3177L377.72604 308.2769L440.52005 306.24933L503.31406 316.81274L566.10803 312.18582L628.90204 306.49994L691.6961 318.3842L754.4901 328.05148L817.2841 331.37848L880.0781 328.00934L942.87213 332.74417L1005.66614 337.7031" fill-rule="nonzero"/><path stroke="#ea4335" stroke-width="2.0" stroke-linecap="butt" clip-path="url(#id_0)" d="M189.34401 379.32434L252.13802 364.6625L314.93204 362.4274L377.72604 362.68066L440.52005 358.50723L503.31406 349.0907L566.10803 350.26428L628.90204 345.38278L691.6961 355.20187L754.4901 347.36987L817.2841 351.41754L880.0781 346.6727L942.87213 347.9128L1005.66614 349.73932" fill-rule="nonzero"/><path stroke="#fbbc04" stroke-width="4.0" stroke-linecap="butt" clip-path="url(#id_0)" d="M189.34401 391.81033L252.13802 380.0818L314.93204 397.39792L377.72604 377.19928L440.52005 375.19998L503.31406 361.59244L566.10803 345.60217L628.90204 344.417L691.6961 348.54694L754.4901 343.58298L817.2841 349.4209L880.0781 344.19278L942.87213 340.33994L1005.66614 340.3292" fill-rule="nonzero"/><path stroke="#34a853" stroke-width="2.0" stroke-linecap="butt" clip-path="url(#id_0)" d="M189.34401 210.00435L252.13802 180.22932L314.93204 195.93854L377.72604 176.54431L440.52005 160.6363L503.31406 156.04642L566.10803 142.28189L628.90204 131.43155L691.6961 124.985695L754.4901 131.96223L817.2841 124.83699L880.0781 102.63338L942.87213 86.396996L1005.66614 96.9108" fill-rule="nonzero"/><path fill="#4285f4" clip-path="url(#id_0)" d="M195.34401 300.73862C195.34401 304.0523 192.65771 306.73862 189.34401 306.73862C186.0303 306.73862 183.34401 304.0523 183.34401 300.73862C183.34401 297.4249 186.0303 294.73862 189.34401 294.73862C192.65771 294.73862 195.34401 297.4249 195.34401 300.73862Z" fill-rule="nonzero"/><path fill="#4285f4" clip-path="url(#id_0)" d="M258.13803 297.26495C258.13803 300.57867 255.45172 303.26495 252.13802 303.26495C248.82431 303.26495 246.13802 300.57867 246.13802 297.26495C246.13802 293.95126 248.82431 291.26495 252.13802 291.26495C255.45172 291.26495 258.13803 293.95126 258.13803 297.26495Z" fill-rule="nonzero"/><path fill="#4285f4" clip-path="url(#id_0)" d="M320.93204 319.3177C320.93204 322.63138 318.24573 325.3177 314.93204 325.3177C311.61832 325.3177 308.93204 322.63138 308.93204 319.3177C308.93204 316.00397 311.61832 313.3177 314.93204 313.3177C318.24573 313.3177 320.93204 316.00397 320.93204 319.3177Z" fill-rule="nonzero"/><path fill="#4285f4" clip-path="url(#id_0)" d="M383.72604 308.2769C383.72604 311.59058 381.03973 314.2769 377.72604 314.2769C374.41232 314.2769 371.72604 311.59058 371.72604 308.2769C371.72604 304.96317 374.41232 302.2769 377.72604 302.2769C381.03973 302.2769 383.72604 304.96317 383.72604 308.2769Z" fill-rule="nonzero"/><path fill="#4285f4" clip-path="url(#id_0)" d="M446.52005 306.24933C446.52005 309.56305 443.83374 312.24933 440.52005 312.24933C437.20633 312.24933 434.52005 309.56305 434.52005 306.24933C434.52005 302.93564 437.20633 300.24933 440.52005 300.24933C443.83374 300.24933 446.52005 302.93564 446.52005 306.24933Z" fill-rule="nonzero"/><path fill="#4285f4" clip-path="url(#id_0)" d="M509.31406 316.81274C509.31406 320.12643 506.62775 322.81274 503.31406 322.81274C500.00034 322.81274 497.31406 320.12643 497.31406 316.81274C497.31406 313.49902 500.00034 310.81274 503.31406 310.81274C506.62775 310.81274 509.31406 313.49902 509.31406 316.81274Z" fill-rule="nonzero"/><path fill="#4285f4" clip-path="url(#id_0)" d="M572.10803 312.18582C572.10803 315.4995 569.42175 318.18582 566.10803 318.18582C562.7944 318.18582 560.10803 315.4995 560.10803 312.18582C560.10803 308.8721 562.7944 306.18582 566.10803 306.18582C569.42175 306.18582 572.10803 308.8721 572.10803 312.18582Z" fill-rule="nonzero"/><path fill="#4285f4" clip-path="url(#id_0)" d="M634.90204 306.49994C634.90204 309.81366 632.21576 312.49994 628.90204 312.49994C625.5884 312.49994 622.90204 309.81366 622.90204 306.49994C622.90204 303.18622 625.5884 300.49994 628.90204 300.49994C632.21576 300.49994 634.90204 303.18622 634.90204 306.49994Z" fill-rule="nonzero"/><path fill="#4285f4" clip-path="url(#id_0)" d="M697.6961 318.3842C697.6961 321.6979 695.00977 324.3842 691.6961 324.3842C688.3824 324.3842 685.6961 321.6979 685.6961 318.3842C685.6961 315.07047 688.3824 312.3842 691.6961 312.3842C695.00977 312.3842 697.6961 315.07047 697.6961 318.3842Z" fill-rule="nonzero"/><path fill="#4285f4" clip-path="url(#id_0)" d="M760.4901 328.05148C760.4901 331.3652 757.8038 334.05148 754.4901 334.05148C751.1764 334.05148 748.4901 331.3652 748.4901 328.05148C748.4901 324.7378 751.1764 322.05148 754.4901 322.05148C757.8038 322.05148 760.4901 324.7378 760.4901 328.05148Z" fill-rule="nonzero"/><path fill="#4285f4" clip-path="url(#id_0)" d="M823.2841 331.37848C823.2841 334.6922 820.5978 337.37848 817.2841 337.37848C813.9704 337.37848 811.2841 334.6922 811.2841 331.37848C811.2841 328.0648 813.9704 325.37848 817.2841 325.37848C820.5978 325.37848 823.2841 328.0648 823.2841 331.37848Z" fill-rule="nonzero"/><path fill="#4285f4" clip-path="url(#id_0)" d="M886.0781 328.00934C886.0781 331.32306 883.3918 334.00934 880.0781 334.00934C876.7644 334.00934 874.0781 331.32306 874.0781 328.00934C874.0781 324.69565 876.7644 322.00934 880.0781 322.00934C883.3918 322.00934 886.0781 324.69565 886.0781 328.00934Z" fill-rule="nonzero"/><path fill="#4285f4" clip-path="url(#id_0)" d="M948.87213 332.74417C948.87213 336.0579 946.1858 338.74417 942.87213 338.74417C939.5584 338.74417 936.87213 336.0579 936.87213 332.74417C936.87213 329.43048 939.5584 326.74417 942.87213 326.74417C946.1858 326.74417 948.87213 329.43048 948.87213 332.74417Z" fill-rule="nonzero"/><path fill="#4285f4" clip-path="url(#id_0)" d="M1011.66614 337.7031C1011.66614 341.0168 1008.97986 343.7031 1005.66614 343.7031C1002.3524 343.7031 999.66614 341.0168 999.66614 337.7031C999.66614 334.38937 1002.3524 331.7031 1005.66614 331.7031C1008.97986 331.7031 1011.66614 334.38937 1011.66614 337.7031Z" fill-rule="nonzero"/><path fill="#ea4335" clip-path="url(#id_0)" d="M189.34401 373.32434L194.54016 382.32434L184.14786 382.32434Z" fill-rule="nonzero"/><path fill="#ea4335" clip-path="url(#id_0)" d="M252.13802 358.6625L257.33417 367.6625L246.94186 367.6625Z" fill-rule="nonzero"/><path fill="#ea4335" clip-path="url(#id_0)" d="M314.93204 356.4274L320.12817 365.4274L309.73587 365.4274Z" fill-rule="nonzero"/><path fill="#ea4335" clip-path="url(#id_0)" d="M377.72604 356.68066L382.92218 365.68066L372.52988 365.68066Z" fill-rule="nonzero"/><path fill="#ea4335" clip-path="url(#id_0)" d="M440.52005 352.50723L445.7162 361.50723L435.32388 361.50723Z" fill-rule="nonzero"/><path fill="#ea4335" clip-path="url(#id_0)" d="M503.31406 343.0907L508.5102 352.0907L498.1179 352.0907Z" fill-rule="nonzero"/><path fill="#ea4335" clip-path="url(#id_0)" d="M566.10803 344.26428L571.3042 353.26428L560.9119 353.26428Z" fill-rule="nonzero"/><path fill="#ea4335" clip-path="url(#id_0)" d="M628.90204 339.38278L634.0982 348.38278L623.70593 348.38278Z" fill-rule="nonzero"/><path fill="#ea4335" clip-path="url(#id_0)" d="M691.6961 349.20187L696.8922 358.20187L686.49994 358.20187Z" fill-rule="nonzero"/><path fill="#ea4335" clip-path="url(#id_0)" d="M754.4901 341.36987L759.6862 350.36987L749.29395 350.36987Z" fill-rule="nonzero"/><path fill="#ea4335" clip-path="url(#id_0)" d="M817.2841 345.41754L822.4802 354.41754L812.08795 354.41754Z" fill-rule="nonzero"/><path fill="#ea4335" clip-path="url(#id_0)" d="M880.0781 340.6727L885.27423 349.6727L874.88196 349.6727Z" fill-rule="nonzero"/><path fill="#ea4335" clip-path="url(#id_0)" d="M942.87213 341.9128L948.06824 350.9128L937.67596 350.9128Z" fill-rule="nonzero"/><path fill="#ea4335" clip-path="url(#id_0)" d="M1005.66614 343.73932L1010.86224 352.73932L1000.47 352.73932Z" fill-rule="nonzero"/><path fill="#fbbc04" clip-path="url(#id_0)" d="M183.68715 386.15347L195.00087 386.15347L195.00087 397.4672L183.68715 397.4672Z" fill-rule="nonzero"/><path fill="#fbbc04" clip-path="url(#id_0)" d="M246.48116 374.42493L257.79486 374.42493L257.79486 385.73865L246.48116 385.73865Z" fill-rule="nonzero"/><path fill="#fbbc04" clip-path="url(#id_0)" d="M309.27518 391.74106L320.58887 391.74106L320.58887 403.05478L309.27518 403.05478Z" fill-rule="nonzero"/><path fill="#fbbc04" clip-path="url(#id_0)" d="M372.06918 371.54242L383.38287 371.54242L383.38287 382.85614L372.06918 382.85614Z" fill-rule="nonzero"/><path fill="#fbbc04" clip-path="url(#id_0)" d="M434.8632 369.54312L446.1769 369.54312L446.1769 380.8568L434.8632 380.8568Z" fill-rule="nonzero"/><path fill="#fbbc04" clip-path="url(#id_0)" d="M497.6572 355.93558L508.97092 355.93558L508.97092 367.2493L497.6572 367.2493Z" fill-rule="nonzero"/><path fill="#fbbc04" clip-path="url(#id_0)" d="M560.45123 339.94534L571.7649 339.94534L571.7649 351.25903L560.45123 351.25903Z" fill-rule="nonzero"/><path fill="#fbbc04" clip-path="url(#id_0)" d="M623.24524 338.76016L634.5589 338.76016L634.5589 350.07385L623.24524 350.07385Z" fill-rule="nonzero"/><path fill="#fbbc04" clip-path="url(#id_0)" d="M686.03925 342.89008L697.3529 342.89008L697.3529 354.2038L686.03925 354.2038Z" fill-rule="nonzero"/><path fill="#fbbc04" clip-path="url(#id_0)" d="M748.83325 337.92612L760.1469 337.92612L760.1469 349.23984L748.83325 349.23984Z" fill-rule="nonzero"/><path fill="#fbbc04" clip-path="url(#id_0)" d="M811.62726 343.76404L822.941 343.76404L822.941 355.07773L811.62726 355.07773Z" fill-rule="nonzero"/><path fill="#fbbc04" clip-path="url(#id_0)" d="M874.42126 338.53592L885.735 338.53592L885.735 349.84964L874.42126 349.84964Z" fill-rule="nonzero"/><path fill="#fbbc04" clip-path="url(#id_0)" d="M937.2153 334.6831L948.529 334.6831L948.529 345.9968L937.2153 345.9968Z" fill-rule="nonzero"/><path fill="#fbbc04" clip-path="url(#id_0)" d="M1000.0093 334.67233L1011.323 334.67233L1011.323 345.98602L1000.0093 345.98602Z" fill-rule="nonzero"/><path fill="#34a853" clip-path="url(#id_0)" d="M189.34401 204.00435L190.69109 208.15024L195.05035 208.15024L191.52364 210.71254L192.87073 214.85844L189.34401 212.29614L185.81729 214.85844L187.16438 210.71254L183.63766 208.15024L187.99692 208.15024Z" fill-rule="nonzero"/><path fill="#34a853" clip-path="url(#id_0)" d="M252.13802 174.22932L253.4851 178.37523L257.84436 178.37523L254.31764 180.93753L255.66473 185.08342L252.13802 182.52112L248.61131 185.08342L249.95839 180.93753L246.43167 178.37523L250.79094 178.37523Z" fill-rule="nonzero"/><path fill="#34a853" clip-path="url(#id_0)" d="M314.93204 189.93854L316.2791 194.08443L320.63837 194.08443L317.11166 196.64673L318.45874 200.79263L314.93204 198.23033L311.4053 200.79263L312.7524 196.64673L309.22568 194.08443L313.58493 194.08443Z" fill-rule="nonzero"/><path fill="#34a853" clip-path="url(#id_0)" d="M377.72604 170.54431L379.07312 174.69022L383.43237 174.69022L379.90567 177.25252L381.25275 181.39842L377.72604 178.83612L374.1993 181.39842L375.54642 177.25252L372.01968 174.69022L376.37894 174.69022Z" fill-rule="nonzero"/><path fill="#34a853" clip-path="url(#id_0)" d="M440.52005 154.6363L441.86713 158.7822L446.22638 158.7822L442.69968 161.34451L444.04675 165.4904L440.52005 162.9281L436.99332 165.4904L438.34042 161.34451L434.8137 158.7822L439.17297 158.7822Z" fill-rule="nonzero"/><path fill="#34a853" clip-path="url(#id_0)" d="M503.31406 150.04642L504.66113 154.1923L509.0204 154.1923L505.49368 156.75462L506.84076 160.90051L503.31406 158.33821L499.78735 160.90051L501.13443 156.75462L497.60773 154.1923L501.96698 154.1923Z" fill-rule="nonzero"/><path fill="#34a853" clip-path="url(#id_0)" d="M566.10803 136.28189L567.45514 140.42778L571.8144 140.42778L568.28766 142.9901L569.63477 147.13599L566.10803 144.57368L562.58136 147.13599L563.9284 142.9901L560.40173 140.42778L564.761 140.42778Z" fill-rule="nonzero"/><path fill="#34a853" clip-path="url(#id_0)" d="M628.90204 125.43156L630.24915 129.57745L634.6084 129.57745L631.0817 132.13976L632.4288 136.28566L628.90204 133.72336L625.37537 136.28566L626.7224 132.13976L623.19574 129.57745L627.555 129.57745Z" fill-rule="nonzero"/><path fill="#34a853" clip-path="url(#id_0)" d="M691.6961 118.985695L693.04315 123.13159L697.4024 123.13159L693.87573 125.6939L695.2228 129.8398L691.6961 127.27749L688.1694 129.8398L689.5165 125.6939L685.98975 123.13159L690.349 123.13159Z" fill-rule="nonzero"/><path fill="#34a853" clip-path="url(#id_0)" d="M754.4901 125.96223L755.83716 130.10812L760.1964 130.10812L756.66974 132.67043L758.0168 136.81633L754.4901 134.25403L750.9634 136.81633L752.3105 132.67043L748.78375 130.10812L753.143 130.10812Z" fill-rule="nonzero"/><path fill="#34a853" clip-path="url(#id_0)" d="M817.2841 118.83699L818.63116 122.98289L822.9904 122.98289L819.46375 125.54519L820.8108 129.69109L817.2841 127.128784L813.7574 129.69109L815.1045 125.54519L811.57776 122.98289L815.937 122.98289Z" fill-rule="nonzero"/><path fill="#34a853" clip-path="url(#id_0)" d="M880.0781 96.63338L881.4252 100.77928L885.7844 100.77928L882.25775 103.34158L883.6048 107.48748L880.0781 104.92518L876.5514 107.48748L877.8985 103.34158L874.37177 100.77928L878.731 100.77928Z" fill-rule="nonzero"/><path fill="#34a853" clip-path="url(#id_0)" d="M942.87213 80.396996L944.2192 84.5429L948.5784 84.5429L945.05176 87.1052L946.3988 91.2511L942.87213 88.6888L939.3454 91.2511L940.6925 87.1052L937.1658 84.5429L941.525 84.5429Z" fill-rule="nonzero"/><path fill="#34a853" clip-path="url(#id_0)" d="M1005.66614 90.9108L1007.0132 95.056694L1011.37244 95.056694L1007.84576 97.618996L1009.1928 101.7649L1005.66614 99.20259L1002.1394 101.7649L1003.4865 97.618996L999.9598 95.056694L1004.31903 95.056694Z" fill-rule="nonzero"/><path fill="#000000" d="M494.96875 612.45L501.5625 595.2625L504.01562 595.2625L511.04688 612.45L508.45312 612.45L506.45312 607.2469L499.26562 607.2469L497.375 612.45L494.96875 612.45ZM499.92188 605.3875L505.75 605.3875L503.95312 600.6375Q503.14062 598.46564 502.73438 597.075Q502.40625 598.73126 501.8125 600.35626L499.92188 605.3875ZM512.2031 613.48126L514.25 613.79376Q514.375 614.73126 514.96875 615.16876Q515.75 615.7625 517.1094 615.7625Q518.5781 615.7625 519.375 615.16876Q520.1719 614.59064 520.4531 613.52814Q520.6094 612.8875 520.59375 610.825Q519.21875 612.45 517.15625 612.45Q514.59375 612.45 513.1875 610.60626Q511.78125 608.7469 511.78125 606.15314Q511.78125 604.3719 512.4219 602.8719Q513.0625 601.35626 514.28125 600.54376Q515.5156 599.71564 517.1719 599.71564Q519.375 599.71564 520.7969 601.4969L520.7969 599.9969L522.75 599.9969L522.75 610.7625Q522.75 613.66876 522.15625 614.8719Q521.5625 616.09064 520.28125 616.79376Q519.0 617.4969 517.125 617.4969Q514.8906 617.4969 513.5156 616.4969Q512.15625 615.4969 512.2031 613.48126ZM513.9375 605.9969Q513.9375 608.45 514.90625 609.575Q515.8906 610.7 517.3594 610.7Q518.8125 610.7 519.7969 609.59064Q520.78125 608.46564 520.78125 606.075Q520.78125 603.79376 519.7656 602.6375Q518.75 601.46564 517.3125 601.46564Q515.90625 601.46564 514.9219 602.60626Q513.9375 603.7469 513.9375 605.9969ZM534.1094 608.4344L536.28125 608.71564Q535.7656 610.6219 534.375 611.6844Q532.9844 612.73126 530.8125 612.73126Q528.0781 612.73126 526.46875 611.0594Q524.875 609.3719 524.875 606.325Q524.875 603.1844 526.4844 601.45Q528.1094 599.71564 530.6875 599.71564Q533.1875 599.71564 534.7656 601.41876Q536.3594 603.1219 536.3594 606.2Q536.3594 606.3875 536.34375 606.7625L527.0625 606.7625Q527.1719 608.8094 528.21875 609.90314Q529.2656 610.9969 530.8281 610.9969Q531.9844 610.9969 532.7969 610.3875Q533.625 609.77814 534.1094 608.4344ZM527.1719 605.02814L534.125 605.02814Q533.9844 603.46564 533.3281 602.66876Q532.3281 601.45 530.71875 601.45Q529.2656 601.45 528.2656 602.4344Q527.28125 603.40314 527.1719 605.02814ZM545.0781 606.9344L547.21875 606.7469Q547.375 608.02814 547.9219 608.85626Q548.4844 609.6844 549.65625 610.2Q550.8281 610.7 552.2969 610.7Q553.59375 610.7 554.59375 610.325Q555.59375 609.9344 556.0781 609.2625Q556.5625 608.575 556.5625 607.77814Q556.5625 606.98126 556.09375 606.3719Q555.625 605.7625 554.5469 605.35626Q553.8594 605.09064 551.4844 604.52814Q549.125 603.95 548.1719 603.45Q546.9375 602.8094 546.3281 601.85626Q545.7344 600.8875 545.7344 599.71564Q545.7344 598.40314 546.46875 597.27814Q547.21875 596.15314 548.625 595.575Q550.0469 594.98126 551.78125 594.98126Q553.6875 594.98126 555.1406 595.59064Q556.6094 596.2 557.3906 597.40314Q558.1875 598.59064 558.2344 600.10626L556.0625 600.27814Q555.8906 598.6375 554.875 597.8094Q553.8594 596.98126 551.875 596.98126Q549.8125 596.98126 548.8594 597.7469Q547.9219 598.4969 547.9219 599.5594Q547.9219 600.48126 548.59375 601.075Q549.25 601.6844 552.0156 602.3094Q554.7969 602.9344 555.8281 603.40314Q557.3281 604.09064 558.03125 605.15314Q558.75 606.21564 558.75 607.59064Q558.75 608.96564 557.96875 610.1844Q557.1875 611.3875 555.71875 612.075Q554.25 612.7469 552.40625 612.7469Q550.0781 612.7469 548.5 612.075Q546.9219 611.3875 546.0156 610.02814Q545.125 608.65314 545.0781 606.9344ZM570.1094 608.4344L572.28125 608.71564Q571.7656 610.6219 570.375 611.6844Q568.9844 612.73126 566.8125 612.73126Q564.0781 612.73126 562.46875 611.0594Q560.875 609.3719 560.875 606.325Q560.875 603.1844 562.4844 601.45Q564.1094 599.71564 566.6875 599.71564Q569.1875 599.71564 570.7656 601.41876Q572.3594 603.1219 572.3594 606.2Q572.3594 606.3875 572.34375 606.7625L563.0625 606.7625Q563.1719 608.8094 564.21875 609.90314Q565.2656 610.9969 566.8281 610.9969Q567.9844 610.9969 568.7969 610.3875Q569.625 609.77814 570.1094 608.4344ZM563.1719 605.02814L570.125 605.02814Q569.9844 603.46564 569.3281 602.66876Q568.3281 601.45 566.71875 601.45Q565.2656 601.45 564.2656 602.4344Q563.28125 603.40314 563.1719 605.02814ZM574.53125 612.45L574.53125 595.2625L576.6406 595.2625L576.6406 612.45L574.53125 612.45ZM588.1094 608.4344L590.28125 608.71564Q589.7656 610.6219 588.375 611.6844Q586.9844 612.73126 584.8125 612.73126Q582.0781 612.73126 580.46875 611.0594Q578.875 609.3719 578.875 606.325Q578.875 603.1844 580.4844 601.45Q582.1094 599.71564 584.6875 599.71564Q587.1875 599.71564 588.7656 601.41876Q590.3594 603.1219 590.3594 606.2Q590.3594 606.3875 590.34375 606.7625L581.0625 606.7625Q581.1719 608.8094 582.21875 609.90314Q583.2656 610.9969 584.8281 610.9969Q585.9844 610.9969 586.7969 610.3875Q587.625 609.77814 588.1094 608.4344ZM581.1719 605.02814L588.125 605.02814Q587.9844 603.46564 587.3281 602.66876Q586.3281 601.45 584.71875 601.45Q583.2656 601.45 582.2656 602.4344Q581.28125 603.40314 581.1719 605.02814ZM600.7031 607.8875L602.78125 608.15314Q602.4375 610.3094 601.03125 611.52814Q599.6406 612.73126 597.59375 612.73126Q595.0469 612.73126 593.4844 611.0594Q591.9375 609.3875 591.9375 606.27814Q591.9375 604.2625 592.6094 602.7469Q593.28125 601.23126 594.6406 600.48126Q596.0 599.71564 597.6094 599.71564Q599.6406 599.71564 600.9219 600.7469Q602.21875 601.77814 602.5781 603.65314L600.53125 603.98126Q600.2344 602.71564 599.4844 602.09064Q598.75 601.45 597.6875 601.45Q596.09375 601.45 595.09375 602.60626Q594.1094 603.7469 594.1094 606.21564Q594.1094 608.71564 595.0625 609.85626Q596.03125 610.9969 597.5781 610.9969Q598.8125 610.9969 599.6406 610.23126Q600.4844 609.46564 600.7031 607.8875ZM609.1875 610.5594L609.5 612.41876Q608.6094 612.6219 607.90625 612.6219Q606.75 612.6219 606.1094 612.2625Q605.4844 611.8875 605.21875 611.29376Q604.96875 610.7 604.96875 608.8094L604.96875 601.6375L603.4219 601.6375L603.4219 599.9969L604.96875 599.9969L604.96875 596.91876L607.0625 595.65314L607.0625 599.9969L609.1875 599.9969L609.1875 601.6375L607.0625 601.6375L607.0625 608.91876Q607.0625 609.825 607.1719 610.09064Q607.2969 610.34064 607.5469 610.4969Q607.7969 610.6375 608.2656 610.6375Q608.6094 610.6375 609.1875 610.5594ZM611.59375 597.7L611.59375 595.2625L613.7031 595.2625L613.7031 597.7L611.59375 597.7ZM611.59375 612.45L611.59375 599.9969L613.7031 599.9969L613.7031 612.45L611.59375 612.45ZM620.0469 612.45L615.3125 599.9969L617.53125 599.9969L620.2031 607.45Q620.6406 608.66876 621.0 609.96564Q621.28125 608.98126 621.78125 607.59064L624.5469 599.9969L626.71875 599.9969L622.0156 612.45L620.0469 612.45ZM628.59375 597.7L628.59375 595.2625L630.7031 595.2625L630.7031 597.7L628.59375 597.7ZM628.59375 612.45L628.59375 599.9969L630.7031 599.9969L630.7031 612.45L628.59375 612.45ZM638.1875 610.5594L638.5 612.41876Q637.6094 612.6219 636.90625 612.6219Q635.75 612.6219 635.1094 612.2625Q634.4844 611.8875 634.21875 611.29376Q633.96875 610.7 633.96875 608.8094L633.96875 601.6375L632.4219 601.6375L632.4219 599.9969L633.96875 599.9969L633.96875 596.91876L636.0625 595.65314L636.0625 599.9969L638.1875 599.9969L638.1875 601.6375L636.0625 601.6375L636.0625 608.91876Q636.0625 609.825 636.1719 610.09064Q636.2969 610.34064 636.5469 610.4969Q636.7969 610.6375 637.2656 610.6375Q637.6094 610.6375 638.1875 610.5594ZM640.4844 617.2469L640.25 615.2625Q640.9531 615.45 641.46875 615.45Q642.1719 615.45 642.59375 615.21564Q643.0156 614.98126 643.28125 614.5594Q643.4844 614.2469 643.9219 612.9969Q643.9844 612.8094 644.1094 612.48126L639.3906 599.9969L641.65625 599.9969L644.25 607.21564Q644.75 608.575 645.15625 610.09064Q645.5156 608.6375 646.0156 607.2625L648.6875 599.9969L650.7969 599.9969L646.0625 612.66876Q645.2969 614.71564 644.875 615.48126Q644.3125 616.52814 643.5781 617.0125Q642.8594 617.4969 641.84375 617.4969Q641.2344 617.4969 640.4844 617.2469Z" fill-rule="nonzero"/><path fill="#000000" d="M54.55001 386.95938L37.36251 386.95938L37.36251 379.35Q37.36251 377.05313 37.83126 375.86563Q38.30001 374.6625 39.471886 373.94376Q40.64376 373.225 42.05001 373.225Q43.878136 373.225 45.14376 374.4125Q46.39376 375.6 46.73751 378.06876Q47.159386 377.1625 47.58126 376.69376Q48.503136 375.69376 49.878136 374.80313L54.55001 371.81876L54.55001 374.67813L50.971886 376.95938Q49.42501 377.94376 48.61251 378.6Q47.784386 379.24063 47.45626 379.75626Q47.128136 380.25626 47.003136 380.7875Q46.92501 381.17813 46.92501 382.05313L46.92501 384.69376L54.55001 384.69376L54.55001 386.95938ZM44.95626 384.69376L44.95626 379.80313Q44.95626 378.24063 44.628136 377.36563Q44.30001 376.49063 43.596886 376.0375Q42.89376 375.56876 42.05001 375.56876Q40.83126 375.56876 40.05001 376.45938Q39.26876 377.33438 39.26876 379.25626L39.26876 384.69376L44.95626 384.69376ZM50.534386 361.74063L50.815636 359.56876Q52.721886 360.08438 53.784386 361.475Q54.83126 362.86563 54.83126 365.0375Q54.83126 367.77188 53.159386 369.38126Q51.471886 370.975 48.42501 370.975Q45.284386 370.975 43.55001 369.36563Q41.815636 367.74063 41.815636 365.1625Q41.815636 362.6625 43.51876 361.08438Q45.221886 359.49063 48.30001 359.49063Q48.48751 359.49063 48.86251 359.50626L48.86251 368.7875Q50.909386 368.67813 52.003136 367.63126Q53.096886 366.58438 53.096886 365.02188Q53.096886 363.86563 52.48751 363.05313Q51.878136 362.225 50.534386 361.74063ZM47.128136 368.67813L47.128136 361.725Q45.565636 361.86563 44.76876 362.52188Q43.55001 363.52188 43.55001 365.13126Q43.55001 366.58438 44.534386 367.58438Q45.503136 368.56876 47.128136 368.67813ZM54.55001 357.31876L37.36251 357.31876L37.36251 355.20938L54.55001 355.20938L54.55001 357.31876ZM53.01876 344.14688Q54.003136 345.31876 54.42501 346.4125Q54.83126 347.49063 54.83126 348.725Q54.83126 350.77188 53.83126 351.88126Q52.83126 352.975 51.26876 352.975Q50.346886 352.975 49.596886 352.56876Q48.846886 352.14688 48.39376 351.475Q47.92501 350.80313 47.690636 349.95938Q47.534386 349.33438 47.378136 348.08438Q47.065636 345.52188 46.64376 344.31876Q46.221886 344.30313 46.096886 344.30313Q44.815636 344.30313 44.284386 344.9125Q43.565636 345.70938 43.565636 347.30313Q43.565636 348.80313 44.096886 349.50626Q44.61251 350.20938 45.940636 350.55313L45.659386 352.61563Q44.33126 352.33438 43.51876 351.69376Q42.70626 351.05313 42.26876 349.83438Q41.815636 348.61563 41.815636 347.00626Q41.815636 345.4125 42.190636 344.4125Q42.565636 343.4125 43.14376 342.94376Q43.70626 342.475 44.58126 342.2875Q45.11251 342.19376 46.51876 342.19376L49.33126 342.19376Q52.26876 342.19376 53.05001 342.05313Q53.83126 341.9125 54.55001 341.52188L54.55001 343.725Q53.89376 344.05313 53.01876 344.14688ZM48.30001 344.31876Q48.76876 345.475 49.096886 347.77188Q49.284386 349.06876 49.51876 349.61563Q49.753136 350.14688 50.20626 350.44376Q50.659386 350.725 51.20626 350.725Q52.05001 350.725 52.61251 350.1Q53.17501 349.45938 53.17501 348.225Q53.17501 347.00626 52.64376 346.05313Q52.11251 345.1 51.190636 344.6625Q50.471886 344.31876 49.08126 344.31876L48.30001 344.31876ZM52.659386 334.6625L54.51876 334.35Q54.721886 335.24063 54.721886 335.94376Q54.721886 337.1 54.36251 337.74063Q53.98751 338.36563 53.39376 338.63126Q52.80001 338.88126 50.909386 338.88126L43.73751 338.88126L43.73751 340.42813L42.096886 340.42813L42.096886 338.88126L39.01876 338.88126L37.753136 336.7875L42.096886 336.7875L42.096886 334.6625L43.73751 334.6625L43.73751 336.7875L51.01876 336.7875Q51.92501 336.7875 52.190636 336.67813Q52.440636 336.55313 52.596886 336.30313Q52.73751 336.05313 52.73751 335.58438Q52.73751 335.24063 52.659386 334.6625ZM39.80001 332.25626L37.36251 332.25626L37.36251 330.14688L39.80001 330.14688L39.80001 332.25626ZM54.55001 332.25626L42.096886 332.25626L42.096886 330.14688L54.55001 330.14688L54.55001 332.25626ZM54.55001 323.80313L42.096886 328.5375L42.096886 326.31876L49.55001 323.64688Q50.76876 323.20938 52.065636 322.85Q51.08126 322.56876 49.690636 322.06876L42.096886 319.30313L42.096886 317.13126L54.55001 321.83438L54.55001 323.80313ZM50.534386 306.74063L50.815636 304.56876Q52.721886 305.08438 53.784386 306.475Q54.83126 307.86563 54.83126 310.0375Q54.83126 312.77188 53.159386 314.38126Q51.471886 315.975 48.42501 315.975Q45.284386 315.975 43.55001 314.36563Q41.815636 312.74063 41.815636 310.1625Q41.815636 307.6625 43.51876 306.08438Q45.221886 304.49063 48.30001 304.49063Q48.48751 304.49063 48.86251 304.50626L48.86251 313.7875Q50.909386 313.67813 52.003136 312.63126Q53.096886 311.58438 53.096886 310.02188Q53.096886 308.86563 52.48751 308.05313Q51.878136 307.225 50.534386 306.74063ZM47.128136 313.67813L47.128136 306.725Q45.565636 306.86563 44.76876 307.52188Q43.55001 308.52188 43.55001 310.13126Q43.55001 311.58438 44.534386 312.58438Q45.503136 313.56876 47.128136 313.67813ZM54.55001 294.94376L37.36251 294.94376L37.36251 282.52188L39.39376 282.52188L39.39376 292.67813L44.659386 292.67813L44.659386 283.17813L46.67501 283.17813L46.67501 292.67813L52.51876 292.67813L52.51876 282.13126L54.55001 282.13126L54.55001 294.94376ZM54.55001 279.2875L42.096886 279.2875L42.096886 277.39688L43.98751 277.39688Q42.659386 276.6625 42.23751 276.05313Q41.815636 275.42813 41.815636 274.69376Q41.815636 273.63126 42.503136 272.52188L44.45626 273.25626Q44.003136 274.02188 44.003136 274.80313Q44.003136 275.49063 44.42501 276.05313Q44.83126 276.6 45.565636 276.83438Q46.690636 277.17813 48.034386 277.17813L54.55001 277.17813L54.55001 279.2875ZM54.55001 271.2875L42.096886 271.2875L42.096886 269.39688L43.98751 269.39688Q42.659386 268.6625 42.23751 268.05313Q41.815636 267.42813 41.815636 266.69376Q41.815636 265.63126 42.503136 264.52188L44.45626 265.25626Q44.003136 266.02188 44.003136 266.80313Q44.003136 267.49063 44.42501 268.05313Q44.83126 268.6 45.565636 268.83438Q46.690636 269.17813 48.034386 269.17813L54.55001 269.17813L54.55001 271.2875ZM48.33126 264.05313Q44.86251 264.05313 43.20626 262.13126Q41.815636 260.52188 41.815636 258.20938Q41.815636 255.64688 43.503136 254.02188Q45.190636 252.39688 48.14376 252.39688Q50.55001 252.39688 51.92501 253.11563Q53.30001 253.83438 54.065636 255.20938Q54.83126 256.58438 54.83126 258.20938Q54.83126 260.83438 53.159386 262.44376Q51.471886 264.05313 48.33126 264.05313ZM48.33126 261.88126Q50.721886 261.88126 51.909386 260.85Q53.096886 259.80313 53.096886 258.20938Q53.096886 256.64688 51.909386 255.6Q50.70626 254.55313 48.253136 254.55313Q45.940636 254.55313 44.753136 255.61563Q43.565636 256.6625 43.565636 258.20938Q43.565636 259.80313 44.753136 260.85Q45.940636 261.88126 48.33126 261.88126ZM54.55001 250.2875L42.096886 250.2875L42.096886 248.39688L43.98751 248.39688Q42.659386 247.6625 42.23751 247.05313Q41.815636 246.42813 41.815636 245.69376Q41.815636 244.63126 42.503136 243.52188L44.45626 244.25626Q44.003136 245.02188 44.003136 245.80313Q44.003136 246.49063 44.42501 247.05313Q44.83126 247.6 45.565636 247.83438Q46.690636 248.17813 48.034386 248.17813L54.55001 248.17813L54.55001 250.2875Z" fill-rule="nonzero"/><path fill="#000000" d="M97.05 534.21564Q97.05 532.6844 97.3625 531.7625Q97.675 530.825 98.28438 530.325Q98.90938 529.825 99.84688 529.825Q100.53438 529.825 101.05 530.10626Q101.58125 530.3875 101.925 530.91876Q102.26875 531.4344 102.45625 532.1844Q102.64375 532.9344 102.64375 534.21564Q102.64375 535.73126 102.33125 536.65314Q102.03438 537.575 101.40938 538.09064Q100.8 538.59064 99.84688 538.59064Q98.6125 538.59064 97.89375 537.7Q97.05 536.6375 97.05 534.21564ZM98.12813 534.21564Q98.12813 536.325 98.62813 537.02814Q99.12813 537.73126 99.84688 537.73126Q100.58125 537.73126 101.06563 537.02814Q101.56563 536.325 101.56563 534.21564Q101.56563 532.09064 101.06563 531.40314Q100.58125 530.7 99.83125 530.7Q99.1125 530.7 98.675 531.3094Q98.12813 532.09064 98.12813 534.21564ZM104.64375 538.45L104.64375 537.2469L105.84688 537.2469L105.84688 538.45L104.64375 538.45ZM107.1125 530.98126L107.1125 529.96564L112.675 529.96564L112.675 530.79376Q111.8625 531.66876 111.05 533.1219Q110.25313 534.5594 109.81563 536.09064Q109.4875 537.16876 109.40938 538.45L108.31563 538.45Q108.33125 537.4344 108.70625 535.9969Q109.09688 534.5594 109.8 533.23126Q110.51875 531.90314 111.33125 530.98126L107.1125 530.98126ZM114.05 536.2L115.15938 536.10626Q115.28438 536.91876 115.72188 537.325Q116.175 537.73126 116.81563 537.73126Q117.56563 537.73126 118.09688 537.15314Q118.62813 536.575 118.62813 535.6375Q118.62813 534.73126 118.1125 534.21564Q117.6125 533.6844 116.78438 533.6844Q116.28438 533.6844 115.8625 533.91876Q115.45625 534.15314 115.22188 534.5125L114.2375 534.3875L115.06563 529.98126L119.34688 529.98126L119.34688 530.98126L115.90938 530.98126L115.45625 533.29376Q116.22188 532.7469 117.06563 532.7469Q118.19063 532.7469 118.95625 533.52814Q119.7375 534.3094 119.7375 535.54376Q119.7375 536.7 119.06563 537.5594Q118.2375 538.59064 116.81563 538.59064Q115.64375 538.59064 114.89375 537.9344Q114.15938 537.27814 114.05 536.2Z" fill-rule="nonzero"/><path fill="#000000" d="M97.05 421.91562Q97.05 420.38437 97.3625 419.4625Q97.675 418.525 98.28438 418.025Q98.90938 417.525 99.84688 417.525Q100.53438 417.525 101.05 417.80624Q101.58125 418.0875 101.925 418.61874Q102.26875 419.13437 102.45625 419.88437Q102.64375 420.63437 102.64375 421.91562Q102.64375 423.43124 102.33125 424.35312Q102.03438 425.275 101.40938 425.79062Q100.8 426.29062 99.84688 426.29062Q98.6125 426.29062 97.89375 425.4Q97.05 424.3375 97.05 421.91562ZM98.12813 421.91562Q98.12813 424.025 98.62813 424.72812Q99.12813 425.43124 99.84688 425.43124Q100.58125 425.43124 101.06563 424.72812Q101.56563 424.025 101.56563 421.91562Q101.56563 419.79062 101.06563 419.10312Q100.58125 418.4 99.83125 418.4Q99.1125 418.4 98.675 419.00937Q98.12813 419.79062 98.12813 421.91562ZM104.64375 426.15L104.64375 424.94687L105.84688 424.94687L105.84688 426.15L104.64375 426.15ZM108.675 421.49374Q108.01875 421.24374 107.69063 420.80624Q107.37813 420.35312 107.37813 419.74374Q107.37813 418.80624 108.05 418.16562Q108.7375 417.525 109.84688 417.525Q110.97188 417.525 111.65938 418.18124Q112.34688 418.8375 112.34688 419.775Q112.34688 420.36874 112.03438 420.80624Q111.72188 421.24374 111.08125 421.49374Q111.87813 421.74374 112.28438 422.32187Q112.69063 422.9 112.69063 423.69687Q112.69063 424.79062 111.90938 425.54062Q111.14375 426.29062 109.8625 426.29062Q108.59688 426.29062 107.81563 425.54062Q107.03438 424.79062 107.03438 423.66562Q107.03438 422.82187 107.45625 422.25937Q107.89375 421.69687 108.675 421.49374ZM108.45625 419.69687Q108.45625 420.30624 108.84688 420.69687Q109.25313 421.0875 109.87813 421.0875Q110.4875 421.0875 110.87813 420.7125Q111.26875 420.32187 111.26875 419.75937Q111.26875 419.18124 110.8625 418.79062Q110.45625 418.38437 109.8625 418.38437Q109.25313 418.38437 108.84688 418.775Q108.45625 419.16562 108.45625 419.69687ZM108.12813 423.66562Q108.12813 424.11874 108.33125 424.54062Q108.55 424.9625 108.97188 425.19687Q109.39375 425.43124 109.87813 425.43124Q110.62813 425.43124 111.1125 424.94687Q111.6125 424.4625 111.6125 423.7125Q111.6125 422.94687 111.1125 422.44687Q110.6125 421.94687 109.84688 421.94687Q109.09688 421.94687 108.6125 422.44687Q108.12813 422.93124 108.12813 423.66562ZM115.675 421.49374Q115.01875 421.24374 114.69063 420.80624Q114.37813 420.35312 114.37813 419.74374Q114.37813 418.80624 115.05 418.16562Q115.7375 417.525 116.84688 417.525Q117.97188 417.525 118.65938 418.18124Q119.34688 418.8375 119.34688 419.775Q119.34688 420.36874 119.03438 420.80624Q118.72188 421.24374 118.08125 421.49374Q118.87813 421.74374 119.28438 422.32187Q119.69063 422.9 119.69063 423.69687Q119.69063 424.79062 118.90938 425.54062Q118.14375 426.29062 116.8625 426.29062Q115.59688 426.29062 114.81563 425.54062Q114.03438 424.79062 114.03438 423.66562Q114.03438 422.82187 114.45625 422.25937Q114.89375 421.69687 115.675 421.49374ZM115.45625 419.69687Q115.45625 420.30624 115.84688 420.69687Q116.25313 421.0875 116.87813 421.0875Q117.4875 421.0875 117.87813 420.7125Q118.26875 420.32187 118.26875 419.75937Q118.26875 419.18124 117.8625 418.79062Q117.45625 418.38437 116.8625 418.38437Q116.25313 418.38437 115.84688 418.775Q115.45625 419.16562 115.45625 419.69687ZM115.12813 423.66562Q115.12813 424.11874 115.33125 424.54062Q115.55 424.9625 115.97188 425.19687Q116.39375 425.43124 116.87813 425.43124Q117.62813 425.43124 118.1125 424.94687Q118.6125 424.4625 118.6125 423.7125Q118.6125 422.94687 118.1125 422.44687Q117.6125 421.94687 116.84688 421.94687Q116.09688 421.94687 115.6125 422.44687Q115.12813 422.93124 115.12813 423.66562Z" fill-rule="nonzero"/><path fill="#000000" d="M101.01875 313.85L99.97188 313.85L99.97188 307.13126Q99.58125 307.49063 98.95625 307.86563Q98.34688 308.225 97.8625 308.39688L97.8625 307.38126Q98.7375 306.95938 99.39375 306.38126Q100.06563 305.7875 100.34688 305.225L101.01875 305.225L101.01875 313.85ZM104.64375 313.85L104.64375 312.64688L105.84688 312.64688L105.84688 313.85L104.64375 313.85ZM107.05 309.61563Q107.05 308.08438 107.3625 307.1625Q107.675 306.225 108.28438 305.725Q108.90938 305.225 109.84688 305.225Q110.53438 305.225 111.05 305.50626Q111.58125 305.7875 111.925 306.31876Q112.26875 306.83438 112.45625 307.58438Q112.64375 308.33438 112.64375 309.61563Q112.64375 311.13126 112.33125 312.05313Q112.03438 312.975 111.40938 313.49063Q110.8 313.99063 109.84688 313.99063Q108.6125 313.99063 107.89375 313.1Q107.05 312.0375 107.05 309.61563ZM108.12813 309.61563Q108.12813 311.725 108.62813 312.42813Q109.12813 313.13126 109.84688 313.13126Q110.58125 313.13126 111.06563 312.42813Q111.56563 311.725 111.56563 309.61563Q111.56563 307.49063 111.06563 306.80313Q110.58125 306.1 109.83125 306.1Q109.1125 306.1 108.675 306.70938Q108.12813 307.49063 108.12813 309.61563ZM114.05 309.61563Q114.05 308.08438 114.3625 307.1625Q114.675 306.225 115.28438 305.725Q115.90938 305.225 116.84688 305.225Q117.53438 305.225 118.05 305.50626Q118.58125 305.7875 118.925 306.31876Q119.26875 306.83438 119.45625 307.58438Q119.64375 308.33438 119.64375 309.61563Q119.64375 311.13126 119.33125 312.05313Q119.03438 312.975 118.40938 313.49063Q117.8 313.99063 116.84688 313.99063Q115.6125 313.99063 114.89375 313.1Q114.05 312.0375 114.05 309.61563ZM115.12813 309.61563Q115.12813 311.725 115.62813 312.42813Q116.12813 313.13126 116.84688 313.13126Q117.58125 313.13126 118.06563 312.42813Q118.56563 311.725 118.56563 309.61563Q118.56563 307.49063 118.06563 306.80313Q117.58125 306.1 116.83125 306.1Q116.1125 306.1 115.675 306.70938Q115.12813 307.49063 115.12813 309.61563Z" fill-rule="nonzero"/><path fill="#000000" d="M101.01875 201.55L99.97188 201.55L99.97188 194.83125Q99.58125 195.19063 98.95625 195.56563Q98.34688 195.925 97.8625 196.09688L97.8625 195.08125Q98.7375 194.65938 99.39375 194.08125Q100.06563 193.4875 100.34688 192.925L101.01875 192.925L101.01875 201.55ZM104.64375 201.55L104.64375 200.34688L105.84688 200.34688L105.84688 201.55L104.64375 201.55ZM111.01875 201.55L109.97188 201.55L109.97188 194.83125Q109.58125 195.19063 108.95625 195.56563Q108.34688 195.925 107.8625 196.09688L107.8625 195.08125Q108.7375 194.65938 109.39375 194.08125Q110.06563 193.4875 110.34688 192.925L111.01875 192.925L111.01875 201.55ZM114.05 199.28438L115.1125 199.14375Q115.28438 200.03438 115.72188 200.44063Q116.15938 200.83125 116.78438 200.83125Q117.53438 200.83125 118.05 200.31563Q118.56563 199.8 118.56563 199.03438Q118.56563 198.31563 118.08125 197.84688Q117.6125 197.3625 116.87813 197.3625Q116.58125 197.3625 116.12813 197.4875L116.25313 196.55Q116.3625 196.56563 116.425 196.56563Q117.09688 196.56563 117.62813 196.22188Q118.175 195.8625 118.175 195.12813Q118.175 194.55 117.78438 194.175Q117.39375 193.78438 116.76875 193.78438Q116.15938 193.78438 115.7375 194.175Q115.33125 194.56563 115.22188 195.33125L114.15938 195.14375Q114.34688 194.09688 115.03438 193.51875Q115.72188 192.925 116.7375 192.925Q117.44063 192.925 118.03438 193.2375Q118.62813 193.53438 118.94063 194.05Q119.25313 194.56563 119.25313 195.15938Q119.25313 195.70625 118.95625 196.175Q118.65938 196.62813 118.08125 196.89375Q118.83125 197.06563 119.25313 197.62813Q119.675 198.175 119.675 199.01875Q119.675 200.14375 118.84688 200.925Q118.03438 201.70625 116.78438 201.70625Q115.65938 201.70625 114.90938 201.03438Q114.15938 200.34688 114.05 199.28438Z" fill-rule="nonzero"/><path fill="#000000" d="M101.01875 89.25L99.97188 89.25L99.97188 82.53125Q99.58125 82.890625 98.95625 83.265625Q98.34688 83.625 97.8625 83.796875L97.8625 82.78125Q98.7375 82.359375 99.39375 81.78125Q100.06563 81.1875 100.34688 80.625L101.01875 80.625L101.01875 89.25ZM104.64375 89.25L104.64375 88.046875L105.84688 88.046875L105.84688 89.25L104.64375 89.25ZM112.59688 88.234375L112.59688 89.25L106.90938 89.25Q106.90938 88.875 107.03438 88.515625Q107.25313 87.9375 107.72188 87.375Q108.20625 86.8125 109.1125 86.078125Q110.51875 84.921875 111.00313 84.25Q111.50313 83.578125 111.50313 82.984375Q111.50313 82.359375 111.05 81.9375Q110.59688 81.5 109.87813 81.5Q109.1125 81.5 108.65938 81.953125Q108.20625 82.40625 108.19063 83.21875L107.1125 83.109375Q107.22188 81.890625 107.94063 81.265625Q108.675 80.625 109.90938 80.625Q111.14375 80.625 111.8625 81.3125Q112.58125 82.0 112.58125 83.015625Q112.58125 83.53125 112.3625 84.03125Q112.15938 84.515625 111.65938 85.078125Q111.175 85.625 110.05 86.578125Q109.09688 87.375 108.81563 87.671875Q108.55 87.953125 108.37813 88.234375L112.59688 88.234375ZM114.05 87.0L115.15938 86.90625Q115.28438 87.71875 115.72188 88.125Q116.175 88.53125 116.81563 88.53125Q117.56563 88.53125 118.09688 87.953125Q118.62813 87.375 118.62813 86.4375Q118.62813 85.53125 118.1125 85.015625Q117.6125 84.484375 116.78438 84.484375Q116.28438 84.484375 115.8625 84.71875Q115.45625 84.953125 115.22188 85.3125L114.2375 85.1875L115.06563 80.78125L119.34688 80.78125L119.34688 81.78125L115.90938 81.78125L115.45625 84.09375Q116.22188 83.546875 117.06563 83.546875Q118.19063 83.546875 118.95625 84.328125Q119.7375 85.109375 119.7375 86.34375Q119.7375 87.5 119.06563 88.359375Q118.2375 89.390625 116.81563 89.390625Q115.64375 89.390625 114.89375 88.734375Q114.15938 88.078125 114.05 87.0Z" fill-rule="nonzero"/><path fill="#000000" d="M118.55 547.21564Q118.55 545.6844 118.8625 544.7625Q119.175 543.825 119.78438 543.325Q120.40938 542.825 121.34688 542.825Q122.03438 542.825 122.55 543.10626Q123.08125 543.3875 123.425 543.91876Q123.76875 544.4344 123.95625 545.1844Q124.14375 545.9344 124.14375 547.21564Q124.14375 548.73126 123.83125 549.65314Q123.53438 550.575 122.90938 551.09064Q122.3 551.59064 121.34688 551.59064Q120.1125 551.59064 119.39375 550.7Q118.55 549.6375 118.55 547.21564ZM119.62813 547.21564Q119.62813 549.325 120.12813 550.02814Q120.62813 550.73126 121.34688 550.73126Q122.08125 550.73126 122.56563 550.02814Q123.06563 549.325 123.06563 547.21564Q123.06563 545.09064 122.56563 544.40314Q122.08125 543.7 121.33125 543.7Q120.6125 543.7 120.175 544.3094Q119.62813 545.09064 119.62813 547.21564ZM126.14375 551.45L126.14375 550.2469L127.34688 550.2469L127.34688 551.45L126.14375 551.45ZM128.55 547.21564Q128.55 545.6844 128.8625 544.7625Q129.175 543.825 129.78438 543.325Q130.40938 542.825 131.34688 542.825Q132.03438 542.825 132.55 543.10626Q133.08125 543.3875 133.425 543.91876Q133.76875 544.4344 133.95625 545.1844Q134.14375 545.9344 134.14375 547.21564Q134.14375 548.73126 133.83125 549.65314Q133.53438 550.575 132.90938 551.09064Q132.3 551.59064 131.34688 551.59064Q130.1125 551.59064 129.39375 550.7Q128.55 549.6375 128.55 547.21564ZM129.62813 547.21564Q129.62813 549.325 130.12813 550.02814Q130.62813 550.73126 131.34688 550.73126Q132.08125 550.73126 132.56563 550.02814Q133.06563 549.325 133.06563 547.21564Q133.06563 545.09064 132.56563 544.40314Q132.08125 543.7 131.33125 543.7Q130.6125 543.7 130.175 544.3094Q129.62813 545.09064 129.62813 547.21564Z" fill-rule="nonzero"/><path fill="#000000" d="M304.42026 547.21564Q304.42026 545.6844 304.73276 544.7625Q305.04526 543.825 305.65463 543.325Q306.27963 542.825 307.21713 542.825Q307.90463 542.825 308.42026 543.10626Q308.9515 543.3875 309.29526 543.91876Q309.639 544.4344 309.8265 545.1844Q310.014 545.9344 310.014 547.21564Q310.014 548.73126 309.7015 549.65314Q309.40463 550.575 308.77963 551.09064Q308.17026 551.59064 307.21713 551.59064Q305.98276 551.59064 305.264 550.7Q304.42026 549.6375 304.42026 547.21564ZM305.49838 547.21564Q305.49838 549.325 305.99838 550.02814Q306.49838 550.73126 307.21713 550.73126Q307.9515 550.73126 308.43588 550.02814Q308.93588 549.325 308.93588 547.21564Q308.93588 545.09064 308.43588 544.40314Q307.9515 543.7 307.2015 543.7Q306.48276 543.7 306.04526 544.3094Q305.49838 545.09064 305.49838 547.21564ZM312.014 551.45L312.014 550.2469L313.21713 550.2469L313.21713 551.45L312.014 551.45ZM319.96713 550.4344L319.96713 551.45L314.27963 551.45Q314.27963 551.075 314.40463 550.71564Q314.62338 550.1375 315.09213 549.575Q315.5765 549.0125 316.48276 548.27814Q317.889 547.1219 318.37338 546.45Q318.87338 545.77814 318.87338 545.1844Q318.87338 544.5594 318.42026 544.1375Q317.96713 543.7 317.24838 543.7Q316.48276 543.7 316.02963 544.15314Q315.5765 544.60626 315.56088 545.41876L314.48276 545.3094Q314.59213 544.09064 315.31088 543.46564Q316.04526 542.825 317.27963 542.825Q318.514 542.825 319.23276 543.5125Q319.9515 544.2 319.9515 545.21564Q319.9515 545.73126 319.73276 546.23126Q319.52963 546.71564 319.02963 547.27814Q318.54526 547.825 317.42026 548.77814Q316.46713 549.575 316.18588 549.8719Q315.92026 550.15314 315.74838 550.4344L319.96713 550.4344Z" fill-rule="nonzero"/><path fill="#000000" d="M490.29053 547.21564Q490.29053 545.6844 490.60303 544.7625Q490.91553 543.825 491.5249 543.325Q492.1499 542.825 493.0874 542.825Q493.7749 542.825 494.29053 543.10626Q494.82178 543.3875 495.16553 543.91876Q495.50928 544.4344 495.69678 545.1844Q495.88428 545.9344 495.88428 547.21564Q495.88428 548.73126 495.57178 549.65314Q495.2749 550.575 494.6499 551.09064Q494.04053 551.59064 493.0874 551.59064Q491.85303 551.59064 491.13428 550.7Q490.29053 549.6375 490.29053 547.21564ZM491.36865 547.21564Q491.36865 549.325 491.86865 550.02814Q492.36865 550.73126 493.0874 550.73126Q493.82178 550.73126 494.30615 550.02814Q494.80615 549.325 494.80615 547.21564Q494.80615 545.09064 494.30615 544.40314Q493.82178 543.7 493.07178 543.7Q492.35303 543.7 491.91553 544.3094Q491.36865 545.09064 491.36865 547.21564ZM497.88428 551.45L497.88428 550.2469L499.0874 550.2469L499.0874 551.45L497.88428 551.45ZM503.66553 551.45L503.66553 549.3875L499.94678 549.3875L499.94678 548.41876L503.86865 542.85626L504.72803 542.85626L504.72803 548.41876L505.88428 548.41876L505.88428 549.3875L504.72803 549.3875L504.72803 551.45L503.66553 551.45ZM503.66553 548.41876L503.66553 544.5594L500.97803 548.41876L503.66553 548.41876Z" fill-rule="nonzero"/><path fill="#000000" d="M676.16077 547.21564Q676.16077 545.6844 676.47327 544.7625Q676.78577 543.825 677.39514 543.325Q678.02014 542.825 678.95764 542.825Q679.64514 542.825 680.16077 543.10626Q680.692 543.3875 681.03577 543.91876Q681.3795 544.4344 681.567 545.1844Q681.7545 545.9344 681.7545 547.21564Q681.7545 548.73126 681.442 549.65314Q681.14514 550.575 680.52014 551.09064Q679.91077 551.59064 678.95764 551.59064Q677.72327 551.59064 677.0045 550.7Q676.16077 549.6375 676.16077 547.21564ZM677.2389 547.21564Q677.2389 549.325 677.7389 550.02814Q678.2389 550.73126 678.95764 550.73126Q679.692 550.73126 680.1764 550.02814Q680.6764 549.325 680.6764 547.21564Q680.6764 545.09064 680.1764 544.40314Q679.692 543.7 678.942 543.7Q678.22327 543.7 677.78577 544.3094Q677.2389 545.09064 677.2389 547.21564ZM683.7545 551.45L683.7545 550.2469L684.95764 550.2469L684.95764 551.45L683.7545 551.45ZM691.6295 544.96564L690.58264 545.04376Q690.442 544.41876 690.192 544.1375Q689.7545 543.6844 689.1295 543.6844Q688.6295 543.6844 688.2389 543.96564Q687.7545 544.34064 687.45764 545.04376Q687.1764 545.73126 687.16077 547.0125Q687.53577 546.4344 688.08264 546.15314Q688.64514 545.8719 689.2545 545.8719Q690.3014 545.8719 691.03577 546.65314Q691.78577 547.4344 691.78577 548.65314Q691.78577 549.46564 691.4264 550.16876Q691.08264 550.85626 690.47327 551.23126Q689.8639 551.59064 689.09827 551.59064Q687.77014 551.59064 686.942 550.6219Q686.1139 549.65314 686.1139 547.4344Q686.1139 544.9344 687.03577 543.8094Q687.83264 542.825 689.192 542.825Q690.20764 542.825 690.84827 543.40314Q691.5045 543.96564 691.6295 544.96564ZM687.33264 548.66876Q687.33264 549.21564 687.5514 549.71564Q687.78577 550.2 688.192 550.46564Q688.6139 550.73126 689.08264 550.73126Q689.7389 550.73126 690.22327 550.2Q690.70764 549.65314 690.70764 548.73126Q690.70764 547.84064 690.22327 547.325Q689.7545 546.8094 689.03577 546.8094Q688.317 546.8094 687.817 547.325Q687.33264 547.84064 687.33264 548.66876Z" fill-rule="nonzero"/><path fill="#000000" d="M862.03107 547.21564Q862.03107 545.6844 862.34357 544.7625Q862.65607 543.825 863.26544 543.325Q863.89044 542.825 864.82794 542.825Q865.51544 542.825 866.03107 543.10626Q866.5623 543.3875 866.90607 543.91876Q867.2498 544.4344 867.4373 545.1844Q867.6248 545.9344 867.6248 547.21564Q867.6248 548.73126 867.3123 549.65314Q867.01544 550.575 866.39044 551.09064Q865.78107 551.59064 864.82794 551.59064Q863.59357 551.59064 862.8748 550.7Q862.03107 549.6375 862.03107 547.21564ZM863.1092 547.21564Q863.1092 549.325 863.6092 550.02814Q864.1092 550.73126 864.82794 550.73126Q865.5623 550.73126 866.0467 550.02814Q866.5467 549.325 866.5467 547.21564Q866.5467 545.09064 866.0467 544.40314Q865.5623 543.7 864.8123 543.7Q864.09357 543.7 863.65607 544.3094Q863.1092 545.09064 863.1092 547.21564ZM869.6248 551.45L869.6248 550.2469L870.82794 550.2469L870.82794 551.45L869.6248 551.45ZM873.65607 546.79376Q872.9998 546.54376 872.6717 546.10626Q872.3592 545.65314 872.3592 545.04376Q872.3592 544.10626 873.03107 543.46564Q873.71857 542.825 874.82794 542.825Q875.95294 542.825 876.64044 543.48126Q877.32794 544.1375 877.32794 545.075Q877.32794 545.66876 877.01544 546.10626Q876.70294 546.54376 876.0623 546.79376Q876.8592 547.04376 877.26544 547.6219Q877.6717 548.2 877.6717 548.9969Q877.6717 550.09064 876.89044 550.84064Q876.1248 551.59064 874.84357 551.59064Q873.57794 551.59064 872.7967 550.84064Q872.01544 550.09064 872.01544 548.96564Q872.01544 548.1219 872.4373 547.5594Q872.8748 546.9969 873.65607 546.79376ZM873.4373 544.9969Q873.4373 545.60626 873.82794 545.9969Q874.2342 546.3875 874.8592 546.3875Q875.46857 546.3875 875.8592 546.0125Q876.2498 545.6219 876.2498 545.0594Q876.2498 544.48126 875.84357 544.09064Q875.4373 543.6844 874.84357 543.6844Q874.2342 543.6844 873.82794 544.075Q873.4373 544.46564 873.4373 544.9969ZM873.1092 548.96564Q873.1092 549.41876 873.3123 549.84064Q873.53107 550.2625 873.95294 550.4969Q874.3748 550.73126 874.8592 550.73126Q875.6092 550.73126 876.09357 550.2469Q876.59357 549.7625 876.59357 549.0125Q876.59357 548.2469 876.09357 547.7469Q875.59357 547.2469 874.82794 547.2469Q874.07794 547.2469 873.59357 547.7469Q873.1092 548.23126 873.1092 548.96564Z" fill-rule="nonzero"/><path fill="#4285f4" d="M274.5 44.55C274.5 47.86371 271.81372 50.55 268.5 50.55C265.18628 50.55 262.5 47.86371 262.5 44.55C262.5 41.23629 265.18628 38.55 268.5 38.55C271.81372 38.55 274.5 41.23629 274.5 44.55Z" fill-rule="nonzero"/><path fill="#1a1a1a" d="M284.07812 51.55L284.07812 37.2375L294.4375 37.2375L294.4375 38.925L285.98438 38.925L285.98438 43.3L293.89062 43.3L293.89062 44.9875L285.98438 44.9875L285.98438 49.8625L294.76562 49.8625L294.76562 51.55L284.07812 51.55ZM303.54688 51.55L303.54688 50.2375Q302.5625 51.784374 300.64062 51.784374Q299.40625 51.784374 298.35938 51.096874Q297.32812 50.409374 296.75 49.190624Q296.1875 47.971874 296.1875 46.378124Q296.1875 44.815624 296.70312 43.55Q297.21875 42.284374 298.25 41.6125Q299.29688 40.940624 300.5625 40.940624Q301.5 40.940624 302.23438 41.346874Q302.96875 41.7375 303.4375 42.3625L303.4375 37.2375L305.17188 37.2375L305.17188 51.55L303.54688 51.55ZM297.98438 46.378124Q297.98438 48.3625 298.82812 49.346874Q299.67188 50.33125 300.8125 50.33125Q301.96875 50.33125 302.76562 49.39375Q303.57812 48.45625 303.57812 46.51875Q303.57812 44.39375 302.75 43.39375Q301.9375 42.39375 300.73438 42.39375Q299.5625 42.39375 298.76562 43.3625Q297.98438 44.315624 297.98438 46.378124ZM314.60938 51.55L314.60938 50.01875Q313.40625 51.784374 311.32812 51.784374Q310.40625 51.784374 309.60938 51.440624Q308.8125 51.08125 308.42188 50.55Q308.04688 50.01875 307.89062 49.2375Q307.78125 48.721874 307.78125 47.596874L307.78125 41.175L309.53125 41.175L309.53125 46.925Q309.53125 48.3 309.64062 48.784374Q309.8125 49.471874 310.34375 49.878124Q310.89062 50.26875 311.67188 50.26875Q312.46875 50.26875 313.15625 49.8625Q313.85938 49.45625 314.14062 48.76875Q314.4375 48.065624 314.4375 46.7375L314.4375 41.175L316.1875 41.175L316.1875 51.55L314.60938 51.55ZM325.59375 47.753124L327.3125 47.971874Q327.03125 49.76875 325.85938 50.784374Q324.70312 51.784374 323.0 51.784374Q320.875 51.784374 319.57812 50.39375Q318.28125 49.003124 318.28125 46.409374Q318.28125 44.721874 318.82812 43.471874Q319.39062 42.20625 320.53125 41.58125Q321.67188 40.940624 323.01562 40.940624Q324.70312 40.940624 325.76562 41.8Q326.84375 42.659374 327.15625 44.221874L325.4375 44.4875Q325.20312 43.440624 324.57812 42.925Q323.95312 42.39375 323.07812 42.39375Q321.75 42.39375 320.92188 43.346874Q320.09375 44.3 320.09375 46.346874Q320.09375 48.440624 320.89062 49.39375Q321.6875 50.33125 322.98438 50.33125Q324.01562 50.33125 324.70312 49.70625Q325.40625 49.065624 325.59375 47.753124ZM335.59375 50.26875Q334.60938 51.096874 333.70312 51.440624Q332.79688 51.784374 331.76562 51.784374Q330.0625 51.784374 329.14062 50.95625Q328.21875 50.1125 328.21875 48.815624Q328.21875 48.05 328.5625 47.425Q328.92188 46.8 329.48438 46.425Q330.04688 46.034374 330.75 45.83125Q331.26562 45.70625 332.3125 45.565624Q334.4375 45.315624 335.4375 44.971874Q335.45312 44.6125 335.45312 44.503124Q335.45312 43.440624 334.95312 42.9875Q334.28125 42.39375 332.95312 42.39375Q331.70312 42.39375 331.10938 42.83125Q330.53125 43.26875 330.25 44.378124L328.53125 44.14375Q328.76562 43.034374 329.29688 42.3625Q329.82812 41.675 330.84375 41.315624Q331.85938 40.940624 333.20312 40.940624Q334.53125 40.940624 335.35938 41.253124Q336.1875 41.565624 336.57812 42.05Q336.96875 42.51875 337.125 43.2375Q337.21875 43.690624 337.21875 44.8625L337.21875 47.20625Q337.21875 49.659374 337.32812 50.315624Q337.4375 50.95625 337.78125 51.55L335.9375 51.55Q335.67188 51.003124 335.59375 50.26875ZM335.4375 46.346874Q334.48438 46.7375 332.5625 47.003124Q331.48438 47.159374 331.03125 47.3625Q330.59375 47.55 330.34375 47.925Q330.09375 48.3 330.09375 48.76875Q330.09375 49.471874 330.625 49.940624Q331.15625 50.409374 332.1875 50.409374Q333.20312 50.409374 333.98438 49.971874Q334.78125 49.51875 335.15625 48.753124Q335.4375 48.14375 335.4375 46.9875L335.4375 46.346874ZM343.65625 49.971874L343.90625 51.534374Q343.17188 51.690624 342.57812 51.690624Q341.625 51.690624 341.09375 51.39375Q340.57812 51.08125 340.35938 50.596874Q340.14062 50.096874 340.14062 48.51875L340.14062 42.55L338.85938 42.55L338.85938 41.175L340.14062 41.175L340.14062 38.6125L341.89062 37.55L341.89062 41.175L343.65625 41.175L343.65625 42.55L341.89062 42.55L341.89062 48.6125Q341.89062 49.3625 341.98438 49.58125Q342.07812 49.784374 342.28125 49.925Q342.5 50.05 342.89062 50.05Q343.17188 50.05 343.65625 49.971874ZM345.82812 39.253124L345.82812 37.2375L347.59375 37.2375L347.59375 39.253124L345.82812 39.253124ZM345.82812 51.55L345.82812 41.175L347.59375 41.175L347.59375 51.55L345.82812 51.55ZM349.17188 46.3625Q349.17188 43.4875 350.76562 42.096874Q352.10938 40.940624 354.03125 40.940624Q356.17188 40.940624 357.51562 42.346874Q358.875 43.753124 358.875 46.221874Q358.875 48.221874 358.28125 49.378124Q357.6875 50.51875 356.53125 51.159374Q355.39062 51.784374 354.03125 51.784374Q351.84375 51.784374 350.5 50.39375Q349.17188 48.9875 349.17188 46.3625ZM350.96875 46.3625Q350.96875 48.3625 351.82812 49.346874Q352.70312 50.33125 354.03125 50.33125Q355.34375 50.33125 356.20312 49.346874Q357.07812 48.346874 357.07812 46.3Q357.07812 44.378124 356.20312 43.39375Q355.32812 42.39375 354.03125 42.39375Q352.70312 42.39375 351.82812 43.39375Q350.96875 44.378124 350.96875 46.3625ZM360.8125 51.55L360.8125 41.175L362.40625 41.175L362.40625 42.659374Q363.54688 40.940624 365.70312 40.940624Q366.64062 40.940624 367.42188 41.284374Q368.21875 41.6125 368.60938 42.159374Q369.0 42.70625 369.15625 43.45625Q369.25 43.95625 369.25 45.175L369.25 51.55L367.48438 51.55L367.48438 45.2375Q367.48438 44.159374 367.28125 43.628124Q367.07812 43.096874 366.54688 42.784374Q366.03125 42.471874 365.32812 42.471874Q364.20312 42.471874 363.39062 43.190624Q362.57812 43.89375 362.57812 45.878124L362.57812 51.55L360.8125 51.55ZM375.6875 51.55L375.6875 38.925L370.96875 38.925L370.96875 37.2375L382.3125 37.2375L382.3125 38.925L377.57812 38.925L377.57812 51.55L375.6875 51.55ZM390.59375 50.26875Q389.60938 51.096874 388.70312 51.440624Q387.79688 51.784374 386.76562 51.784374Q385.0625 51.784374 384.14062 50.95625Q383.21875 50.1125 383.21875 48.815624Q383.21875 48.05 383.5625 47.425Q383.92188 46.8 384.48438 46.425Q385.04688 46.034374 385.75 45.83125Q386.26562 45.70625 387.3125 45.565624Q389.4375 45.315624 390.4375 44.971874Q390.45312 44.6125 390.45312 44.503124Q390.45312 43.440624 389.95312 42.9875Q389.28125 42.39375 387.95312 42.39375Q386.70312 42.39375 386.10938 42.83125Q385.53125 43.26875 385.25 44.378124L383.53125 44.14375Q383.76562 43.034374 384.29688 42.3625Q384.82812 41.675 385.84375 41.315624Q386.85938 40.940624 388.20312 40.940624Q389.53125 40.940624 390.35938 41.253124Q391.1875 41.565624 391.57812 42.05Q391.96875 42.51875 392.125 43.2375Q392.21875 43.690624 392.21875 44.8625L392.21875 47.20625Q392.21875 49.659374 392.32812 50.315624Q392.4375 50.95625 392.78125 51.55L390.9375 51.55Q390.67188 51.003124 390.59375 50.26875ZM390.4375 46.346874Q389.48438 46.7375 387.5625 47.003124Q386.48438 47.159374 386.03125 47.3625Q385.59375 47.55 385.34375 47.925Q385.09375 48.3 385.09375 48.76875Q385.09375 49.471874 385.625 49.940624Q386.15625 50.409374 387.1875 50.409374Q388.20312 50.409374 388.98438 49.971874Q389.78125 49.51875 390.15625 48.753124Q390.4375 48.14375 390.4375 46.9875L390.4375 46.346874ZM396.4375 51.55L394.8125 51.55L394.8125 37.2375L396.5625 37.2375L396.5625 42.346874Q397.6875 40.940624 399.40625 40.940624Q400.35938 40.940624 401.21875 41.33125Q402.07812 41.721874 402.625 42.425Q403.17188 43.1125 403.48438 44.096874Q403.79688 45.08125 403.79688 46.20625Q403.79688 48.878124 402.48438 50.33125Q401.17188 51.784374 399.32812 51.784374Q397.48438 51.784374 396.4375 50.253124L396.4375 51.55ZM396.42188 46.284374Q396.42188 48.14375 396.92188 48.9875Q397.76562 50.33125 399.17188 50.33125Q400.32812 50.33125 401.15625 49.33125Q402.0 48.33125 402.0 46.346874Q402.0 44.315624 401.1875 43.3625Q400.39062 42.39375 399.25 42.39375Q398.09375 42.39375 397.25 43.39375Q396.42188 44.39375 396.42188 46.284374ZM405.78125 51.55L405.78125 37.2375L407.53125 37.2375L407.53125 51.55L405.78125 51.55ZM416.92188 48.20625L418.73438 48.440624Q418.3125 50.01875 417.14062 50.909374Q415.98438 51.784374 414.17188 51.784374Q411.90625 51.784374 410.5625 50.39375Q409.23438 48.9875 409.23438 46.45625Q409.23438 43.83125 410.57812 42.39375Q411.92188 40.940624 414.07812 40.940624Q416.15625 40.940624 417.46875 42.3625Q418.79688 43.76875 418.79688 46.346874Q418.79688 46.503124 418.78125 46.815624L411.04688 46.815624Q411.14062 48.51875 412.01562 49.425Q412.89062 50.33125 414.1875 50.33125Q415.15625 50.33125 415.82812 49.83125Q416.51562 49.315624 416.92188 48.20625ZM411.14062 45.3625L416.9375 45.3625Q416.82812 44.065624 416.28125 43.409374Q415.4375 42.39375 414.09375 42.39375Q412.89062 42.39375 412.0625 43.20625Q411.23438 44.003124 411.14062 45.3625Z" fill-rule="nonzero"/><path fill="#ea4335" d="M441.5 38.55L446.69617 47.55L436.30383 47.55Z" fill-rule="nonzero"/><path fill="#1a1a1a" d="M457.07812 51.55L457.07812 37.2375L463.42188 37.2375Q465.32812 37.2375 466.32812 37.628124Q467.32812 38.003124 467.92188 38.9875Q468.51562 39.95625 468.51562 41.14375Q468.51562 42.659374 467.53125 43.70625Q466.54688 44.753124 464.48438 45.034374Q465.23438 45.39375 465.625 45.753124Q466.45312 46.503124 467.20312 47.659374L469.6875 51.55L467.3125 51.55L465.40625 48.565624Q464.57812 47.284374 464.04688 46.596874Q463.51562 45.909374 463.07812 45.64375Q462.65625 45.3625 462.21875 45.253124Q461.89062 45.190624 461.17188 45.190624L458.96875 45.190624L458.96875 51.55L457.07812 51.55ZM458.96875 43.55L463.04688 43.55Q464.34375 43.55 465.0625 43.284374Q465.79688 43.01875 466.17188 42.425Q466.5625 41.83125 466.5625 41.14375Q466.5625 40.128124 465.82812 39.471874Q465.09375 38.815624 463.5 38.815624L458.96875 38.815624L458.96875 43.55ZM477.59375 50.26875Q476.60938 51.096874 475.70312 51.440624Q474.79688 51.784374 473.76562 51.784374Q472.0625 51.784374 471.14062 50.95625Q470.21875 50.1125 470.21875 48.815624Q470.21875 48.05 470.5625 47.425Q470.92188 46.8 471.48438 46.425Q472.04688 46.034374 472.75 45.83125Q473.26562 45.70625 474.3125 45.565624Q476.4375 45.315624 477.4375 44.971874Q477.45312 44.6125 477.45312 44.503124Q477.45312 43.440624 476.95312 42.9875Q476.28125 42.39375 474.95312 42.39375Q473.70312 42.39375 473.10938 42.83125Q472.53125 43.26875 472.25 44.378124L470.53125 44.14375Q470.76562 43.034374 471.29688 42.3625Q471.82812 41.675 472.84375 41.315624Q473.85938 40.940624 475.20312 40.940624Q476.53125 40.940624 477.35938 41.253124Q478.1875 41.565624 478.57812 42.05Q478.96875 42.51875 479.125 43.2375Q479.21875 43.690624 479.21875 44.8625L479.21875 47.20625Q479.21875 49.659374 479.32812 50.315624Q479.4375 50.95625 479.78125 51.55L477.9375 51.55Q477.67188 51.003124 477.59375 50.26875ZM477.4375 46.346874Q476.48438 46.7375 474.5625 47.003124Q473.48438 47.159374 473.03125 47.3625Q472.59375 47.55 472.34375 47.925Q472.09375 48.3 472.09375 48.76875Q472.09375 49.471874 472.625 49.940624Q473.15625 50.409374 474.1875 50.409374Q475.20312 50.409374 475.98438 49.971874Q476.78125 49.51875 477.15625 48.753124Q477.4375 48.14375 477.4375 46.9875L477.4375 46.346874ZM488.59375 47.753124L490.3125 47.971874Q490.03125 49.76875 488.85938 50.784374Q487.70312 51.784374 486.0 51.784374Q483.875 51.784374 482.57812 50.39375Q481.28125 49.003124 481.28125 46.409374Q481.28125 44.721874 481.82812 43.471874Q482.39062 42.20625 483.53125 41.58125Q484.67188 40.940624 486.01562 40.940624Q487.70312 40.940624 488.76562 41.8Q489.84375 42.659374 490.15625 44.221874L488.4375 44.4875Q488.20312 43.440624 487.57812 42.925Q486.95312 42.39375 486.07812 42.39375Q484.75 42.39375 483.92188 43.346874Q483.09375 44.3 483.09375 46.346874Q483.09375 48.440624 483.89062 49.39375Q484.6875 50.33125 485.98438 50.33125Q487.01562 50.33125 487.70312 49.70625Q488.40625 49.065624 488.59375 47.753124ZM498.92188 48.20625L500.73438 48.440624Q500.3125 50.01875 499.14062 50.909374Q497.98438 51.784374 496.17188 51.784374Q493.90625 51.784374 492.5625 50.39375Q491.23438 48.9875 491.23438 46.45625Q491.23438 43.83125 492.57812 42.39375Q493.92188 40.940624 496.07812 40.940624Q498.15625 40.940624 499.46875 42.3625Q500.79688 43.76875 500.79688 46.346874Q500.79688 46.503124 500.78125 46.815624L493.04688 46.815624Q493.14062 48.51875 494.01562 49.425Q494.89062 50.33125 496.1875 50.33125Q497.15625 50.33125 497.82812 49.83125Q498.51562 49.315624 498.92188 48.20625ZM493.14062 45.3625L498.9375 45.3625Q498.82812 44.065624 498.28125 43.409374Q497.4375 42.39375 496.09375 42.39375Q494.89062 42.39375 494.0625 43.20625Q493.23438 44.003124 493.14062 45.3625ZM506.6875 51.55L506.6875 38.925L501.96875 38.925L501.96875 37.2375L513.3125 37.2375L513.3125 38.925L508.57812 38.925L508.57812 51.55L506.6875 51.55ZM521.59375 50.26875Q520.6094 51.096874 519.7031 51.440624Q518.7969 51.784374 517.7656 51.784374Q516.0625 51.784374 515.1406 50.95625Q514.21875 50.1125 514.21875 48.815624Q514.21875 48.05 514.5625 47.425Q514.9219 46.8 515.4844 46.425Q516.0469 46.034374 516.75 45.83125Q517.2656 45.70625 518.3125 45.565624Q520.4375 45.315624 521.4375 44.971874Q521.4531 44.6125 521.4531 44.503124Q521.4531 43.440624 520.9531 42.9875Q520.28125 42.39375 518.9531 42.39375Q517.7031 42.39375 517.1094 42.83125Q516.53125 43.26875 516.25 44.378124L514.53125 44.14375Q514.7656 43.034374 515.2969 42.3625Q515.8281 41.675 516.84375 41.315624Q517.8594 40.940624 519.2031 40.940624Q520.53125 40.940624 521.3594 41.253124Q522.1875 41.565624 522.5781 42.05Q522.96875 42.51875 523.125 43.2375Q523.21875 43.690624 523.21875 44.8625L523.21875 47.20625Q523.21875 49.659374 523.3281 50.315624Q523.4375 50.95625 523.78125 51.55L521.9375 51.55Q521.6719 51.003124 521.59375 50.26875ZM521.4375 46.346874Q520.4844 46.7375 518.5625 47.003124Q517.4844 47.159374 517.03125 47.3625Q516.59375 47.55 516.34375 47.925Q516.09375 48.3 516.09375 48.76875Q516.09375 49.471874 516.625 49.940624Q517.15625 50.409374 518.1875 50.409374Q519.2031 50.409374 519.9844 49.971874Q520.78125 49.51875 521.15625 48.753124Q521.4375 48.14375 521.4375 46.9875L521.4375 46.346874ZM527.4375 51.55L525.8125 51.55L525.8125 37.2375L527.5625 37.2375L527.5625 42.346874Q528.6875 40.940624 530.40625 40.940624Q531.3594 40.940624 532.21875 41.33125Q533.0781 41.721874 533.625 42.425Q534.1719 43.1125 534.4844 44.096874Q534.7969 45.08125 534.7969 46.20625Q534.7969 48.878124 533.4844 50.33125Q532.1719 51.784374 530.3281 51.784374Q528.4844 51.784374 527.4375 50.253124L527.4375 51.55ZM527.4219 46.284374Q527.4219 48.14375 527.9219 48.9875Q528.7656 50.33125 530.1719 50.33125Q531.3281 50.33125 532.15625 49.33125Q533.0 48.33125 533.0 46.346874Q533.0 44.315624 532.1875 43.3625Q531.3906 42.39375 530.25 42.39375Q529.09375 42.39375 528.25 43.39375Q527.4219 44.39375 527.4219 46.284374ZM536.78125 51.55L536.78125 37.2375L538.53125 37.2375L538.53125 51.55L536.78125 51.55ZM547.9219 48.20625L549.7344 48.440624Q549.3125 50.01875 548.1406 50.909374Q546.9844 51.784374 545.1719 51.784374Q542.90625 51.784374 541.5625 50.39375Q540.2344 48.9875 540.2344 46.45625Q540.2344 43.83125 541.5781 42.39375Q542.9219 40.940624 545.0781 40.940624Q547.15625 40.940624 548.46875 42.3625Q549.7969 43.76875 549.7969 46.346874Q549.7969 46.503124 549.78125 46.815624L542.0469 46.815624Q542.1406 48.51875 543.0156 49.425Q543.8906 50.33125 545.1875 50.33125Q546.15625 50.33125 546.8281 49.83125Q547.5156 49.315624 547.9219 48.20625ZM542.1406 45.3625L547.9375 45.3625Q547.8281 44.065624 547.28125 43.409374Q546.4375 42.39375 545.09375 42.39375Q543.8906 42.39375 543.0625 43.20625Q542.2344 44.003124 542.1406 45.3625Z" fill-rule="nonzero"/><path fill="#fbbc04" d="M568.2574 40.307358L576.7426 40.307358L576.7426 48.79264L568.2574 48.79264Z" fill-rule="nonzero"/><path fill="#1a1a1a" d="M586.46875 51.55L591.96875 37.2375L594.0156 37.2375L599.875 51.55L597.71875 51.55L596.0469 47.20625L590.0625 47.20625L588.4844 51.55L586.46875 51.55ZM590.6094 45.675L595.4531 45.675L593.96875 41.70625Q593.28125 39.89375 592.9531 38.7375Q592.6719 40.1125 592.1719 41.471874L590.6094 45.675ZM600.5 52.409374L602.2031 52.659374Q602.3125 53.45625 602.7969 53.815624Q603.4531 54.3 604.59375 54.3Q605.8125 54.3 606.46875 53.815624Q607.1406 53.33125 607.375 52.45625Q607.5156 51.909374 607.5 50.190624Q606.34375 51.55 604.625 51.55Q602.4844 51.55 601.3125 50.003124Q600.1406 48.45625 600.1406 46.3Q600.1406 44.815624 600.6719 43.565624Q601.21875 42.315624 602.2344 41.628124Q603.2656 40.940624 604.6406 40.940624Q606.46875 40.940624 607.6719 42.425L607.6719 41.175L609.28125 41.175L609.28125 50.14375Q609.28125 52.565624 608.78125 53.565624Q608.2969 54.58125 607.21875 55.159374Q606.15625 55.753124 604.59375 55.753124Q602.75 55.753124 601.59375 54.925Q600.4531 54.096874 600.5 52.409374ZM601.9531 46.175Q601.9531 48.221874 602.7656 49.159374Q603.5781 50.096874 604.7969 50.096874Q606.0 50.096874 606.8125 49.159374Q607.6406 48.221874 607.6406 46.2375Q607.6406 44.33125 606.7969 43.3625Q605.9531 42.39375 604.7656 42.39375Q603.59375 42.39375 602.7656 43.346874Q601.9531 44.3 601.9531 46.175ZM618.9219 48.20625L620.7344 48.440624Q620.3125 50.01875 619.1406 50.909374Q617.9844 51.784374 616.1719 51.784374Q613.90625 51.784374 612.5625 50.39375Q611.2344 48.9875 611.2344 46.45625Q611.2344 43.83125 612.5781 42.39375Q613.9219 40.940624 616.0781 40.940624Q618.15625 40.940624 619.46875 42.3625Q620.7969 43.76875 620.7969 46.346874Q620.7969 46.503124 620.78125 46.815624L613.0469 46.815624Q613.1406 48.51875 614.0156 49.425Q614.8906 50.33125 616.1875 50.33125Q617.15625 50.33125 617.8281 49.83125Q618.5156 49.315624 618.9219 48.20625ZM613.1406 45.3625L618.9375 45.3625Q618.8281 44.065624 618.28125 43.409374Q617.4375 42.39375 616.09375 42.39375Q614.8906 42.39375 614.0625 43.20625Q613.2344 44.003124 613.1406 45.3625ZM626.6875 51.55L626.6875 38.925L621.96875 38.925L621.96875 37.2375L633.3125 37.2375L633.3125 38.925L628.5781 38.925L628.5781 51.55L626.6875 51.55ZM641.59375 50.26875Q640.6094 51.096874 639.7031 51.440624Q638.7969 51.784374 637.7656 51.784374Q636.0625 51.784374 635.1406 50.95625Q634.21875 50.1125 634.21875 48.815624Q634.21875 48.05 634.5625 47.425Q634.9219 46.8 635.4844 46.425Q636.0469 46.034374 636.75 45.83125Q637.2656 45.70625 638.3125 45.565624Q640.4375 45.315624 641.4375 44.971874Q641.4531 44.6125 641.4531 44.503124Q641.4531 43.440624 640.9531 42.9875Q640.28125 42.39375 638.9531 42.39375Q637.7031 42.39375 637.1094 42.83125Q636.53125 43.26875 636.25 44.378124L634.53125 44.14375Q634.7656 43.034374 635.2969 42.3625Q635.8281 41.675 636.84375 41.315624Q637.8594 40.940624 639.2031 40.940624Q640.53125 40.940624 641.3594 41.253124Q642.1875 41.565624 642.5781 42.05Q642.96875 42.51875 643.125 43.2375Q643.21875 43.690624 643.21875 44.8625L643.21875 47.20625Q643.21875 49.659374 643.3281 50.315624Q643.4375 50.95625 643.78125 51.55L641.9375 51.55Q641.6719 51.003124 641.59375 50.26875ZM641.4375 46.346874Q640.4844 46.7375 638.5625 47.003124Q637.4844 47.159374 637.03125 47.3625Q636.59375 47.55 636.34375 47.925Q636.09375 48.3 636.09375 48.76875Q636.09375 49.471874 636.625 49.940624Q637.15625 50.409374 638.1875 50.409374Q639.2031 50.409374 639.9844 49.971874Q640.78125 49.51875 641.15625 48.753124Q641.4375 48.14375 641.4375 46.9875L641.4375 46.346874ZM647.4375 51.55L645.8125 51.55L645.8125 37.2375L647.5625 37.2375L647.5625 42.346874Q648.6875 40.940624 650.40625 40.940624Q651.3594 40.940624 652.21875 41.33125Q653.0781 41.721874 653.625 42.425Q654.1719 43.1125 654.4844 44.096874Q654.7969 45.08125 654.7969 46.20625Q654.7969 48.878124 653.4844 50.33125Q652.1719 51.784374 650.3281 51.784374Q648.4844 51.784374 647.4375 50.253124L647.4375 51.55ZM647.4219 46.284374Q647.4219 48.14375 647.9219 48.9875Q648.7656 50.33125 650.1719 50.33125Q651.3281 50.33125 652.15625 49.33125Q653.0 48.33125 653.0 46.346874Q653.0 44.315624 652.1875 43.3625Q651.3906 42.39375 650.25 42.39375Q649.09375 42.39375 648.25 43.39375Q647.4219 44.39375 647.4219 46.284374ZM656.78125 51.55L656.78125 37.2375L658.53125 37.2375L658.53125 51.55L656.78125 51.55ZM667.9219 48.20625L669.7344 48.440624Q669.3125 50.01875 668.1406 50.909374Q666.9844 51.784374 665.1719 51.784374Q662.90625 51.784374 661.5625 50.39375Q660.2344 48.9875 660.2344 46.45625Q660.2344 43.83125 661.5781 42.39375Q662.9219 40.940624 665.0781 40.940624Q667.15625 40.940624 668.46875 42.3625Q669.7969 43.76875 669.7969 46.346874Q669.7969 46.503124 669.78125 46.815624L662.0469 46.815624Q662.1406 48.51875 663.0156 49.425Q663.8906 50.33125 665.1875 50.33125Q666.15625 50.33125 666.8281 49.83125Q667.5156 49.315624 667.9219 48.20625ZM662.1406 45.3625L667.9375 45.3625Q667.8281 44.065624 667.28125 43.409374Q666.4375 42.39375 665.09375 42.39375Q663.8906 42.39375 663.0625 43.20625Q662.2344 44.003124 662.1406 45.3625Z" fill-rule="nonzero"/><path fill="#34a853" d="M692.5 38.55L693.8471 42.695896L698.20636 42.695896L694.6796 45.258205L696.02673 49.404102L692.5 46.841797L688.97327 49.404102L690.3204 45.258205L686.79364 42.695896L691.1529 42.695896Z" fill-rule="nonzero"/><path fill="#1a1a1a" d="M707.40625 46.95625L709.1875 46.8Q709.3125 47.8625 709.7656 48.55Q710.2344 49.2375 711.2031 49.675Q712.1875 50.096874 713.4219 50.096874Q714.5 50.096874 715.3281 49.784374Q716.15625 49.45625 716.5625 48.89375Q716.96875 48.33125 716.96875 47.659374Q716.96875 46.9875 716.5781 46.4875Q716.1875 45.9875 715.2969 45.64375Q714.71875 45.409374 712.7344 44.940624Q710.7656 44.471874 709.9844 44.05Q708.9531 43.51875 708.4531 42.721874Q707.9531 41.925 707.9531 40.940624Q707.9531 39.846874 708.5625 38.909374Q709.1719 37.971874 710.3594 37.4875Q711.5469 36.9875 712.9844 36.9875Q714.5781 36.9875 715.7969 37.503124Q717.0156 38.01875 717.65625 39.01875Q718.3125 40.003124 718.3594 41.26875L716.5469 41.409374Q716.40625 40.05 715.5625 39.3625Q714.71875 38.659374 713.0625 38.659374Q711.34375 38.659374 710.5469 39.3Q709.7656 39.925 709.7656 40.8Q709.7656 41.58125 710.3281 42.08125Q710.875 42.58125 713.1875 43.096874Q715.5 43.6125 716.3594 44.003124Q717.6094 44.58125 718.2031 45.471874Q718.7969 46.346874 718.7969 47.503124Q718.7969 48.64375 718.1406 49.659374Q717.4844 50.675 716.25 51.2375Q715.03125 51.8 713.5 51.8Q711.5625 51.8 710.25 51.2375Q708.9375 50.659374 708.1875 49.51875Q707.4375 48.378124 707.40625 46.95625ZM727.9219 48.20625L729.7344 48.440624Q729.3125 50.01875 728.1406 50.909374Q726.9844 51.784374 725.1719 51.784374Q722.90625 51.784374 721.5625 50.39375Q720.2344 48.9875 720.2344 46.45625Q720.2344 43.83125 721.5781 42.39375Q722.9219 40.940624 725.0781 40.940624Q727.15625 40.940624 728.46875 42.3625Q729.7969 43.76875 729.7969 46.346874Q729.7969 46.503124 729.78125 46.815624L722.0469 46.815624Q722.1406 48.51875 723.0156 49.425Q723.8906 50.33125 725.1875 50.33125Q726.15625 50.33125 726.8281 49.83125Q727.5156 49.315624 727.9219 48.20625ZM722.1406 45.3625L727.9375 45.3625Q727.8281 44.065624 727.28125 43.409374Q726.4375 42.39375 725.09375 42.39375Q723.8906 42.39375 723.0625 43.20625Q722.2344 44.003124 722.1406 45.3625ZM730.6406 51.55L734.4375 46.159374L730.9375 41.175L733.125 41.175L734.71875 43.6125Q735.1719 44.3 735.4375 44.76875Q735.875 44.128124 736.2344 43.628124L737.9844 41.175L740.0781 41.175L736.5 46.065624L740.3594 51.55L738.2031 51.55L736.0625 48.33125L735.5 47.45625L732.78125 51.55L730.6406 51.55ZM745.6875 51.55L745.6875 38.925L740.96875 38.925L740.96875 37.2375L752.3125 37.2375L752.3125 38.925L747.5781 38.925L747.5781 51.55L745.6875 51.55ZM760.59375 50.26875Q759.6094 51.096874 758.7031 51.440624Q757.7969 51.784374 756.7656 51.784374Q755.0625 51.784374 754.1406 50.95625Q753.21875 50.1125 753.21875 48.815624Q753.21875 48.05 753.5625 47.425Q753.9219 46.8 754.4844 46.425Q755.0469 46.034374 755.75 45.83125Q756.2656 45.70625 757.3125 45.565624Q759.4375 45.315624 760.4375 44.971874Q760.4531 44.6125 760.4531 44.503124Q760.4531 43.440624 759.9531 42.9875Q759.28125 42.39375 757.9531 42.39375Q756.7031 42.39375 756.1094 42.83125Q755.53125 43.26875 755.25 44.378124L753.53125 44.14375Q753.7656 43.034374 754.2969 42.3625Q754.8281 41.675 755.84375 41.315624Q756.8594 40.940624 758.2031 40.940624Q759.53125 40.940624 760.3594 41.253124Q761.1875 41.565624 761.5781 42.05Q761.96875 42.51875 762.125 43.2375Q762.21875 43.690624 762.21875 44.8625L762.21875 47.20625Q762.21875 49.659374 762.3281 50.315624Q762.4375 50.95625 762.78125 51.55L760.9375 51.55Q760.6719 51.003124 760.59375 50.26875ZM760.4375 46.346874Q759.4844 46.7375 757.5625 47.003124Q756.4844 47.159374 756.03125 47.3625Q755.59375 47.55 755.34375 47.925Q755.09375 48.3 755.09375 48.76875Q755.09375 49.471874 755.625 49.940624Q756.15625 50.409374 757.1875 50.409374Q758.2031 50.409374 758.9844 49.971874Q759.78125 49.51875 760.15625 48.753124Q760.4375 48.14375 760.4375 46.9875L760.4375 46.346874ZM766.4375 51.55L764.8125 51.55L764.8125 37.2375L766.5625 37.2375L766.5625 42.346874Q767.6875 40.940624 769.40625 40.940624Q770.3594 40.940624 771.21875 41.33125Q772.0781 41.721874 772.625 42.425Q773.1719 43.1125 773.4844 44.096874Q773.7969 45.08125 773.7969 46.20625Q773.7969 48.878124 772.4844 50.33125Q771.1719 51.784374 769.3281 51.784374Q767.4844 51.784374 766.4375 50.253124L766.4375 51.55ZM766.4219 46.284374Q766.4219 48.14375 766.9219 48.9875Q767.7656 50.33125 769.1719 50.33125Q770.3281 50.33125 771.15625 49.33125Q772.0 48.33125 772.0 46.346874Q772.0 44.315624 771.1875 43.3625Q770.3906 42.39375 769.25 42.39375Q768.09375 42.39375 767.25 43.39375Q766.4219 44.39375 766.4219 46.284374ZM775.78125 51.55L775.78125 37.2375L777.53125 37.2375L777.53125 51.55L775.78125 51.55ZM786.9219 48.20625L788.7344 48.440624Q788.3125 50.01875 787.1406 50.909374Q785.9844 51.784374 784.1719 51.784374Q781.90625 51.784374 780.5625 50.39375Q779.2344 48.9875 779.2344 46.45625Q779.2344 43.83125 780.5781 42.39375Q781.9219 40.940624 784.0781 40.940624Q786.15625 40.940624 787.46875 42.3625Q788.7969 43.76875 788.7969 46.346874Q788.7969 46.503124 788.78125 46.815624L781.0469 46.815624Q781.1406 48.51875 782.0156 49.425Q782.8906 50.33125 784.1875 50.33125Q785.15625 50.33125 785.8281 49.83125Q786.5156 49.315624 786.9219 48.20625ZM781.1406 45.3625L786.9375 45.3625Q786.8281 44.065624 786.28125 43.409374Q785.4375 42.39375 784.09375 42.39375Q782.8906 42.39375 782.0625 43.20625Q781.2344 44.003124 781.1406 45.3625Z" fill-rule="nonzero"/></svg>