<svg version="1.1" viewBox="0.0 0.0 1052.0 651.0" fill="none" stroke="none" stroke-linecap="square" stroke-miterlimit="10" width="1052" height="651" xmlns:xlink="http://www.w3.org/1999/xlink" xmlns="http://www.w3.org/2000/svg"><path fill="#ffffff" d="M0 0L1052.0 0L1052.0 651.0L0 651.0L0 0Z" fill-rule="nonzero"/><path stroke="#333333" stroke-width="1.0" stroke-linecap="butt" d="M126.5 85.5L126.5 534.5" fill-rule="nonzero"/><path stroke="#cccccc" stroke-width="1.0" stroke-linecap="butt" d="M346.5 85.5L346.5 534.5" fill-rule="nonzero"/><path stroke="#cccccc" stroke-width="1.0" stroke-linecap="butt" d="M566.5 85.5L566.5 534.5" fill-rule="nonzero"/><path stroke="#cccccc" stroke-width="1.0" stroke-linecap="butt" d="M785.5 85.5L785.5 534.5" fill-rule="nonzero"/><path stroke="#cccccc" stroke-width="1.0" stroke-linecap="butt" d="M1005.5 85.5L1005.5 534.5" fill-rule="nonzero"/><path stroke="#cccccc" stroke-width="1.0" stroke-linecap="butt" d="M126.5 534.5L1019.5 534.5" fill-rule="nonzero"/><path stroke="#cccccc" stroke-width="1.0" stroke-linecap="butt" d="M126.5 422.5L1019.5 422.5" fill-rule="nonzero"/><path stroke="#cccccc" stroke-width="1.0" stroke-linecap="butt" d="M126.5 309.5L1019.5 309.5" fill-rule="nonzero"/><path stroke="#cccccc" stroke-width="1.0" stroke-linecap="butt" d="M126.5 197.5L1019.5 197.5" fill-rule="nonzero"/><path stroke="#cccccc" stroke-width="1.0" stroke-linecap="butt" d="M126.5 85.5L1019.5 85.5" fill-rule="nonzero"/><path stroke="#000000" stroke-width="1.0" stroke-linecap="butt" stroke-opacity="0.0" d="M126.5 497.5L1019.5 497.5" fill-rule="nonzero"/><path stroke="#000000" stroke-width="1.0" stroke-linecap="butt" stroke-opacity="0.0" d="M126.5 459.5L1019.5 459.5" fill-rule="nonzero"/><path stroke="#000000" stroke-width="1.0" stroke-linecap="butt" stroke-opacity="0.0" d="M126.5 384.5L1019.5 384.5" fill-rule="nonzero"/><path stroke="#000000" stroke-width="1.0" stroke-linecap="butt" stroke-opacity="0.0" d="M126.5 347.5L1019.5 347.5" fill-rule="nonzero"/><path stroke="#000000" stroke-width="1.0" stroke-linecap="butt" stroke-opacity="0.0" d="M126.5 272.5L1019.5 272.5" fill-rule="nonzero"/><path stroke="#000000" stroke-width="1.0" stroke-linecap="butt" stroke-opacity="0.0" d="M126.5 234.5L1019.5 234.5" fill-rule="nonzero"/><path stroke="#000000" stroke-width="1.0" stroke-linecap="butt" stroke-opacity="0.0" d="M126.5 160.5L1019.5 160.5" fill-rule="nonzero"/><path stroke="#000000" stroke-width="1.0" stroke-linecap="butt" stroke-opacity="0.0" d="M126.5 122.5L1019.5 122.5" fill-rule="nonzero"/><clipPath id="id_0"><path d="M126.55 85.25L1019.45 85.25L1019.45 534.45L126.55 534.45L126.55 85.25Z" clip-rule="nonzero"/></clipPath><path stroke="#4285f4" stroke-width="4.0" stroke-linecap="butt" clip-path="url(#id_0)" d="M181.49475 445.41605L236.43951 439.1568L291.38428 443.20413L346.32904 438.33728L401.27377 429.94794L456.21854 434.20297L511.1633 430.34827L566.10803 422.50107L621.0528 413.96362L675.99756 403.42938L730.9423 383.98813L785.8871 378.0861L840.83185 354.35034L895.7766 327.6297L950.7214 286.4812L1005.66614 190.0161" fill-rule="nonzero"/><path stroke="#ea4335" stroke-width="2.0" stroke-linecap="butt" clip-path="url(#id_0)" d="M181.49475 418.9258L236.43951 422.08325L291.38428 429.50076L346.32904 429.6757L401.27377 434.25308L456.21854 437.78424L511.1633 441.01895L566.10803 443.0513L621.0528 443.96365L675.99756 445.40857L730.9423 446.4981L785.8871 449.74933L840.83185 451.4808L895.7766 458.71817L950.7214 459.81912L1005.66614 464.48053" fill-rule="nonzero"/><path stroke="#fbbc04" stroke-width="2.0" stroke-linecap="butt" clip-path="url(#id_0)" d="M181.49475 416.03735L236.43951 413.63547L291.38428 421.431L346.32904 426.71002L401.27377 431.955L456.21854 436.69406L511.1633 438.2029L566.10803 442.10077L621.0528 446.43124L675.99756 452.0954L730.9423 454.64078L785.8871 464.28156L840.83185 469.75693L895.7766 479.42963L950.7214 489.92572L1005.66614 515.7814" fill-rule="nonzero"/><path stroke="#34a853" stroke-width="2.0" stroke-linecap="butt" clip-path="url(#id_0)" d="M181.49475 356.5959L236.43951 350.57996L291.38428 350.3257L346.32904 346.02148L401.27377 344.03165L456.21854 339.64368L511.1633 339.39523L566.10803 334.4239L621.0528 334.4619L675.99756 333.39456L730.9423 315.16714L785.8871 325.976L840.83185 318.0161L895.7766 319.41235L950.7214 307.0434L1005.66614 296.0574" fill-rule="nonzero"/><path fill="#4285f4" clip-path="url(#id_0)" d="M189.49475 445.41605C189.49475 449.83432 185.91304 453.41605 181.49475 453.41605C177.07648 453.41605 173.49475 449.83432 173.49475 445.41605C173.49475 440.99777 177.07648 437.41605 181.49475 437.41605C185.91304 437.41605 189.49475 440.99777 189.49475 445.41605Z" fill-rule="nonzero"/><path fill="#4285f4" clip-path="url(#id_0)" d="M244.43951 439.1568C244.43951 443.57507 240.85779 447.1568 236.43951 447.1568C232.02124 447.1568 228.43951 443.57507 228.43951 439.1568C228.43951 434.73853 232.02124 431.1568 236.43951 431.1568C240.85779 431.1568 244.43951 434.73853 244.43951 439.1568Z" fill-rule="nonzero"/><path fill="#4285f4" clip-path="url(#id_0)" d="M299.38428 443.20413C299.38428 447.6224 295.80255 451.20413 291.38428 451.20413C286.966 451.20413 283.38428 447.6224 283.38428 443.20413C283.38428 438.78586 286.966 435.20413 291.38428 435.20413C295.80255 435.20413 299.38428 438.78586 299.38428 443.20413Z" fill-rule="nonzero"/><path fill="#4285f4" clip-path="url(#id_0)" d="M354.32904 438.33728C354.32904 442.75555 350.7473 446.33728 346.32904 446.33728C341.91077 446.33728 338.32904 442.75555 338.32904 438.33728C338.32904 433.919 341.91077 430.33728 346.32904 430.33728C350.7473 430.33728 354.32904 433.919 354.32904 438.33728Z" fill-rule="nonzero"/><path fill="#4285f4" clip-path="url(#id_0)" d="M409.27377 429.94794C409.27377 434.3662 405.69208 437.94794 401.27377 437.94794C396.8555 437.94794 393.27377 434.3662 393.27377 429.94794C393.27377 425.52966 396.8555 421.94794 401.27377 421.94794C405.69208 421.94794 409.27377 425.52966 409.27377 429.94794Z" fill-rule="nonzero"/><path fill="#4285f4" clip-path="url(#id_0)" d="M464.21854 434.20297C464.21854 438.62125 460.6368 442.20297 456.21854 442.20297C451.80026 442.20297 448.21854 438.62125 448.21854 434.20297C448.21854 429.7847 451.80026 426.20297 456.21854 426.20297C460.6368 426.20297 464.21854 429.7847 464.21854 434.20297Z" fill-rule="nonzero"/><path fill="#4285f4" clip-path="url(#id_0)" d="M519.1633 430.34827C519.1633 434.76654 515.5816 438.34827 511.1633 438.34827C506.74503 438.34827 503.1633 434.76654 503.1633 430.34827C503.1633 425.93 506.74503 422.34827 511.1633 422.34827C515.5816 422.34827 519.1633 425.93 519.1633 430.34827Z" fill-rule="nonzero"/><path fill="#4285f4" clip-path="url(#id_0)" d="M574.10803 422.50107C574.10803 426.91934 570.52637 430.50107 566.10803 430.50107C561.68976 430.50107 558.10803 426.91934 558.10803 422.50107C558.10803 418.08276 561.68976 414.50107 566.10803 414.50107C570.52637 414.50107 574.10803 418.08276 574.10803 422.50107Z" fill-rule="nonzero"/><path fill="#4285f4" clip-path="url(#id_0)" d="M629.0528 413.96362C629.0528 418.3819 625.47107 421.96362 621.0528 421.96362C616.6345 421.96362 613.0528 418.3819 613.0528 413.96362C613.0528 409.54535 616.6345 405.96362 621.0528 405.96362C625.47107 405.96362 629.0528 409.54535 629.0528 413.96362Z" fill-rule="nonzero"/><path fill="#4285f4" clip-path="url(#id_0)" d="M683.99756 403.42938C683.99756 407.84766 680.41583 411.42938 675.99756 411.42938C671.5793 411.42938 667.99756 407.84766 667.99756 403.42938C667.99756 399.0111 671.5793 395.42938 675.99756 395.42938C680.41583 395.42938 683.99756 399.0111 683.99756 403.42938Z" fill-rule="nonzero"/><path fill="#4285f4" clip-path="url(#id_0)" d="M738.9423 383.98813C738.9423 388.4064 735.3606 391.98813 730.9423 391.98813C726.52405 391.98813 722.9423 388.4064 722.9423 383.98813C722.9423 379.56982 726.52405 375.98813 730.9423 375.98813C735.3606 375.98813 738.9423 379.56982 738.9423 383.98813Z" fill-rule="nonzero"/><path fill="#4285f4" clip-path="url(#id_0)" d="M793.8871 378.0861C793.8871 382.50436 790.30536 386.0861 785.8871 386.0861C781.4688 386.0861 777.8871 382.50436 777.8871 378.0861C777.8871 373.66782 781.4688 370.0861 785.8871 370.0861C790.30536 370.0861 793.8871 373.66782 793.8871 378.0861Z" fill-rule="nonzero"/><path fill="#4285f4" clip-path="url(#id_0)" d="M848.83185 354.35034C848.83185 358.76862 845.2501 362.35034 840.83185 362.35034C836.4136 362.35034 832.83185 358.76862 832.83185 354.35034C832.83185 349.93207 836.4136 346.35034 840.83185 346.35034C845.2501 346.35034 848.83185 349.93207 848.83185 354.35034Z" fill-rule="nonzero"/><path fill="#4285f4" clip-path="url(#id_0)" d="M903.7766 327.6297C903.7766 332.04797 900.1949 335.6297 895.7766 335.6297C891.35834 335.6297 887.7766 332.04797 887.7766 327.6297C887.7766 323.21143 891.35834 319.6297 895.7766 319.6297C900.1949 319.6297 903.7766 323.21143 903.7766 327.6297Z" fill-rule="nonzero"/><path fill="#4285f4" clip-path="url(#id_0)" d="M958.7214 286.4812C958.7214 290.89948 955.13965 294.4812 950.7214 294.4812C946.3031 294.4812 942.7214 290.89948 942.7214 286.4812C942.7214 282.06293 946.3031 278.4812 950.7214 278.4812C955.13965 278.4812 958.7214 282.06293 958.7214 286.4812Z" fill-rule="nonzero"/><path fill="#4285f4" clip-path="url(#id_0)" d="M1013.66614 190.0161C1013.66614 194.43439 1010.0844 198.0161 1005.66614 198.0161C1001.24786 198.0161 997.66614 194.43439 997.66614 190.0161C997.66614 185.59782 1001.24786 182.0161 1005.66614 182.0161C1010.0844 182.0161 1013.66614 185.59782 1013.66614 190.0161Z" fill-rule="nonzero"/><path fill="#ea4335" clip-path="url(#id_0)" d="M181.49475 412.9258L186.6909 421.9258L176.2986 421.9258Z" fill-rule="nonzero"/><path fill="#ea4335" clip-path="url(#id_0)" d="M236.43951 416.08325L241.63567 425.08325L231.24336 425.08325Z" fill-rule="nonzero"/><path fill="#ea4335" clip-path="url(#id_0)" d="M291.38428 423.50076L296.5804 432.50076L286.1881 432.50076Z" fill-rule="nonzero"/><path fill="#ea4335" clip-path="url(#id_0)" d="M346.32904 423.6757L351.52518 432.6757L341.13287 432.6757Z" fill-rule="nonzero"/><path fill="#ea4335" clip-path="url(#id_0)" d="M401.27377 428.25308L406.46994 437.25308L396.07764 437.25308Z" fill-rule="nonzero"/><path fill="#ea4335" clip-path="url(#id_0)" d="M456.21854 431.78424L461.4147 440.78424L451.0224 440.78424Z" fill-rule="nonzero"/><path fill="#ea4335" clip-path="url(#id_0)" d="M511.1633 435.01895L516.35944 444.01895L505.96716 444.01895Z" fill-rule="nonzero"/><path fill="#ea4335" clip-path="url(#id_0)" d="M566.10803 437.0513L571.3042 446.0513L560.9119 446.0513Z" fill-rule="nonzero"/><path fill="#ea4335" clip-path="url(#id_0)" d="M621.0528 437.96365L626.24896 446.96365L615.8567 446.96365Z" fill-rule="nonzero"/><path fill="#ea4335" clip-path="url(#id_0)" d="M675.99756 439.40857L681.1937 448.40857L670.80145 448.40857Z" fill-rule="nonzero"/><path fill="#ea4335" clip-path="url(#id_0)" d="M730.9423 440.4981L736.1385 449.4981L725.74615 449.4981Z" fill-rule="nonzero"/><path fill="#ea4335" clip-path="url(#id_0)" d="M785.8871 443.74933L791.08325 452.74933L780.6909 452.74933Z" fill-rule="nonzero"/><path fill="#ea4335" clip-path="url(#id_0)" d="M840.83185 445.4808L846.028 454.4808L835.6357 454.4808Z" fill-rule="nonzero"/><path fill="#ea4335" clip-path="url(#id_0)" d="M895.7766 452.71817L900.9728 461.71817L890.58044 461.71817Z" fill-rule="nonzero"/><path fill="#ea4335" clip-path="url(#id_0)" d="M950.7214 453.81912L955.91754 462.81912L945.5252 462.81912Z" fill-rule="nonzero"/><path fill="#ea4335" clip-path="url(#id_0)" d="M1005.66614 458.48053L1010.86224 467.48053L1000.47 467.48053Z" fill-rule="nonzero"/><path fill="#fbbc04" clip-path="url(#id_0)" d="M177.25212 411.7947L185.7374 411.7947L185.7374 420.28L177.25212 420.28Z" fill-rule="nonzero"/><path fill="#fbbc04" clip-path="url(#id_0)" d="M232.19687 409.39282L240.68216 409.39282L240.68216 417.8781L232.19687 417.8781Z" fill-rule="nonzero"/><path fill="#fbbc04" clip-path="url(#id_0)" d="M287.14163 417.18835L295.62692 417.18835L295.62692 425.67365L287.14163 425.67365Z" fill-rule="nonzero"/><path fill="#fbbc04" clip-path="url(#id_0)" d="M342.0864 422.46738L350.5717 422.46738L350.5717 430.95267L342.0864 430.95267Z" fill-rule="nonzero"/><path fill="#fbbc04" clip-path="url(#id_0)" d="M397.03116 427.71234L405.51642 427.71234L405.51642 436.19763L397.03116 436.19763Z" fill-rule="nonzero"/><path fill="#fbbc04" clip-path="url(#id_0)" d="M451.9759 432.45142L460.46118 432.45142L460.46118 440.9367L451.9759 440.9367Z" fill-rule="nonzero"/><path fill="#fbbc04" clip-path="url(#id_0)" d="M506.92065 433.96027L515.40594 433.96027L515.40594 442.44553L506.92065 442.44553Z" fill-rule="nonzero"/><path fill="#fbbc04" clip-path="url(#id_0)" d="M561.8654 437.85812L570.3507 437.85812L570.3507 446.3434L561.8654 446.3434Z" fill-rule="nonzero"/><path fill="#fbbc04" clip-path="url(#id_0)" d="M616.8102 442.1886L625.2955 442.1886L625.2955 450.67386L616.8102 450.67386Z" fill-rule="nonzero"/><path fill="#fbbc04" clip-path="url(#id_0)" d="M671.75494 447.85275L680.24023 447.85275L680.24023 456.33804L671.75494 456.33804Z" fill-rule="nonzero"/><path fill="#fbbc04" clip-path="url(#id_0)" d="M726.6997 450.39816L735.185 450.39816L735.185 458.88342L726.6997 458.88342Z" fill-rule="nonzero"/><path fill="#fbbc04" clip-path="url(#id_0)" d="M781.6445 460.0389L790.12976 460.0389L790.12976 468.5242L781.6445 468.5242Z" fill-rule="nonzero"/><path fill="#fbbc04" clip-path="url(#id_0)" d="M836.58923 465.51428L845.07446 465.51428L845.07446 473.99954L836.58923 473.99954Z" fill-rule="nonzero"/><path fill="#fbbc04" clip-path="url(#id_0)" d="M891.53394 475.18698L900.0192 475.18698L900.0192 483.67227L891.53394 483.67227Z" fill-rule="nonzero"/><path fill="#fbbc04" clip-path="url(#id_0)" d="M946.4787 485.68307L954.964 485.68307L954.964 494.16837L946.4787 494.16837Z" fill-rule="nonzero"/><path fill="#fbbc04" clip-path="url(#id_0)" d="M1001.42346 511.53873L1009.90875 511.53873L1009.90875 520.02405L1001.42346 520.02405Z" fill-rule="nonzero"/><path fill="#34a853" clip-path="url(#id_0)" d="M181.49475 350.5959L182.84184 354.74176L187.2011 354.74176L183.6744 357.30408L185.02147 361.44998L181.49475 358.88766L177.96805 361.44998L179.31512 357.30408L175.78842 354.74176L180.14767 354.74176Z" fill-rule="nonzero"/><path fill="#34a853" clip-path="url(#id_0)" d="M236.43951 344.57996L237.7866 348.72583L242.14586 348.72583L238.61914 351.28815L239.96623 355.43405L236.43951 352.87173L232.9128 355.43405L234.25989 351.28815L230.73317 348.72583L235.09244 348.72583Z" fill-rule="nonzero"/><path fill="#34a853" clip-path="url(#id_0)" d="M291.38428 344.3257L292.73135 348.47162L297.0906 348.47162L293.5639 351.0339L294.91098 355.1798L291.38428 352.6175L287.85757 355.1798L289.20465 351.0339L285.67795 348.47162L290.0372 348.47162Z" fill-rule="nonzero"/><path fill="#34a853" clip-path="url(#id_0)" d="M346.32904 340.02148L347.67612 344.1674L352.03537 344.1674L348.50867 346.72968L349.85574 350.87558L346.32904 348.31326L342.8023 350.87558L344.1494 346.72968L340.62268 344.1674L344.98193 344.1674Z" fill-rule="nonzero"/><path fill="#34a853" clip-path="url(#id_0)" d="M401.27377 338.03165L402.62088 342.17755L406.98013 342.17755L403.45343 344.73987L404.8005 348.88577L401.27377 346.32346L397.74707 348.88577L399.09415 344.73987L395.56744 342.17755L399.9267 342.17755Z" fill-rule="nonzero"/><path fill="#34a853" clip-path="url(#id_0)" d="M456.21854 333.64368L457.56564 337.78958L461.9249 337.78958L458.39816 340.35187L459.74527 344.49777L456.21854 341.93546L452.69183 344.49777L454.0389 340.35187L450.5122 337.78958L454.87146 337.78958Z" fill-rule="nonzero"/><path fill="#34a853" clip-path="url(#id_0)" d="M511.1633 333.39523L512.5104 337.54114L516.8696 337.54114L513.34296 340.10342L514.69 344.24933L511.1633 341.68704L507.6366 344.24933L508.98367 340.10342L505.45697 337.54114L509.81622 337.54114Z" fill-rule="nonzero"/><path fill="#34a853" clip-path="url(#id_0)" d="M566.10803 328.4239L567.45514 332.5698L571.8144 332.5698L568.28766 335.1321L569.63477 339.27798L566.10803 336.7157L562.58136 339.27798L563.9284 335.1321L560.40173 332.5698L564.761 332.5698Z" fill-rule="nonzero"/><path fill="#34a853" clip-path="url(#id_0)" d="M621.0528 328.4619L622.3999 332.60782L626.75916 332.60782L623.2324 335.1701L624.5795 339.316L621.0528 336.7537L617.5261 339.316L618.87317 335.1701L615.3465 332.60782L619.70575 332.60782Z" fill-rule="nonzero"/><path fill="#34a853" clip-path="url(#id_0)" d="M675.99756 327.39456L677.34467 331.54047L681.7039 331.54047L678.1772 334.10275L679.5243 338.24866L675.99756 335.68634L672.4709 338.24866L673.81793 334.10275L670.29126 331.54047L674.6505 331.54047Z" fill-rule="nonzero"/><path fill="#34a853" clip-path="url(#id_0)" d="M730.9423 309.16714L732.2894 313.31305L736.6487 313.31305L733.12195 315.87537L734.46906 320.02124L730.9423 317.45895L727.41565 320.02124L728.7627 315.87537L725.236 313.31305L729.5953 313.31305Z" fill-rule="nonzero"/><path fill="#34a853" clip-path="url(#id_0)" d="M785.8871 319.976L787.2342 324.12192L791.59344 324.12192L788.0667 326.6842L789.4138 330.8301L785.8871 328.26782L782.36035 330.8301L783.70746 326.6842L780.1807 324.12192L784.54 324.12192Z" fill-rule="nonzero"/><path fill="#34a853" clip-path="url(#id_0)" d="M840.83185 312.0161L842.17896 316.16202L846.5382 316.16202L843.0115 318.72433L844.3586 322.8702L840.83185 320.30792L837.3051 322.8702L838.6522 318.72433L835.1255 316.16202L839.48474 316.16202Z" fill-rule="nonzero"/><path fill="#34a853" clip-path="url(#id_0)" d="M895.7766 313.41235L897.1237 317.55826L901.483 317.55826L897.95624 320.12057L899.30334 324.26648L895.7766 321.70416L892.2499 324.26648L893.597 320.12057L890.07025 317.55826L894.4295 317.55826Z" fill-rule="nonzero"/><path fill="#34a853" clip-path="url(#id_0)" d="M950.7214 301.0434L952.0684 305.1893L956.4277 305.1893L952.901 307.7516L954.24805 311.8975L950.7214 309.3352L947.19464 311.8975L948.54175 307.7516L945.015 305.1893L949.37427 305.1893Z" fill-rule="nonzero"/><path fill="#34a853" clip-path="url(#id_0)" d="M1005.66614 290.0574L1007.0132 294.2033L1011.37244 294.2033L1007.84576 296.7656L1009.1928 300.9115L1005.66614 298.34918L1002.1394 300.9115L1003.4865 296.7656L999.9598 294.2033L1004.31903 294.2033Z" fill-rule="nonzero"/><path fill="#000000" d="M465.40625 612.45L465.40625 595.2625L477.82812 595.2625L477.82812 597.29376L467.67188 597.29376L467.67188 602.5594L477.17188 602.5594L477.17188 604.575L467.67188 604.575L467.67188 610.41876L478.21875 610.41876L478.21875 612.45L465.40625 612.45ZM489.15625 612.45L489.15625 610.8719Q487.96875 612.73126 485.67188 612.73126Q484.1875 612.73126 482.9375 611.91876Q481.6875 611.09064 481.0 609.6219Q480.32812 608.15314 480.32812 606.23126Q480.32812 604.3719 480.9375 602.85626Q481.5625 601.34064 482.79688 600.52814Q484.04688 599.71564 485.57812 599.71564Q486.70312 599.71564 487.57812 600.2Q488.46875 600.66876 489.01562 601.4344L489.01562 595.2625L491.10938 595.2625L491.10938 612.45L489.15625 612.45ZM482.48438 606.23126Q482.48438 608.6219 483.48438 609.8094Q484.5 610.9969 485.875 610.9969Q487.26562 610.9969 488.21875 609.8719Q489.1875 608.73126 489.1875 606.41876Q489.1875 603.85626 488.20312 602.66876Q487.21875 601.46564 485.78125 601.46564Q484.375 601.46564 483.42188 602.6219Q482.48438 603.7625 482.48438 606.23126ZM502.23438 612.45L502.23438 610.6219Q500.78125 612.73126 498.29688 612.73126Q497.1875 612.73126 496.23438 612.3094Q495.28125 611.8875 494.8125 611.2469Q494.35938 610.60626 494.17188 609.6844Q494.03125 609.0594 494.03125 607.71564L494.03125 599.9969L496.14062 599.9969L496.14062 606.90314Q496.14062 608.5594 496.28125 609.1375Q496.46875 609.96564 497.10938 610.45Q497.76562 610.91876 498.71875 610.91876Q499.65625 610.91876 500.48438 610.4344Q501.32812 609.9344 501.67188 609.10626Q502.01562 608.2625 502.01562 606.66876L502.01562 599.9969L504.125 599.9969L504.125 612.45L502.23438 612.45ZM515.2031 607.8875L517.28125 608.15314Q516.9375 610.3094 515.53125 611.52814Q514.1406 612.73126 512.09375 612.73126Q509.54688 612.73126 507.98438 611.0594Q506.4375 609.3875 506.4375 606.27814Q506.4375 604.2625 507.10938 602.7469Q507.78125 601.23126 509.14062 600.48126Q510.5 599.71564 512.1094 599.71564Q514.1406 599.71564 515.4219 600.7469Q516.71875 601.77814 517.0781 603.65314L515.03125 603.98126Q514.7344 602.71564 513.9844 602.09064Q513.25 601.45 512.1875 601.45Q510.59375 601.45 509.59375 602.60626Q508.60938 603.7469 508.60938 606.21564Q508.60938 608.71564 509.5625 609.85626Q510.53125 610.9969 512.0781 610.9969Q513.3125 610.9969 514.1406 610.23126Q514.9844 609.46564 515.2031 607.8875ZM527.2031 610.91876Q526.03125 611.90314 524.9375 612.325Q523.8594 612.73126 522.625 612.73126Q520.5781 612.73126 519.46875 611.73126Q518.375 610.73126 518.375 609.16876Q518.375 608.2469 518.78125 607.4969Q519.2031 606.7469 519.875 606.29376Q520.5469 605.825 521.3906 605.59064Q522.0156 605.4344 523.2656 605.27814Q525.8281 604.96564 527.03125 604.54376Q527.0469 604.1219 527.0469 603.9969Q527.0469 602.71564 526.4375 602.1844Q525.6406 601.46564 524.0469 601.46564Q522.5469 601.46564 521.84375 601.9969Q521.1406 602.5125 520.7969 603.84064L518.7344 603.5594Q519.0156 602.23126 519.65625 601.41876Q520.2969 600.60626 521.5156 600.16876Q522.7344 599.71564 524.34375 599.71564Q525.9375 599.71564 526.9375 600.09064Q527.9375 600.46564 528.40625 601.04376Q528.875 601.60626 529.0625 602.48126Q529.15625 603.0125 529.15625 604.41876L529.15625 607.23126Q529.15625 610.16876 529.2969 610.95Q529.4375 611.73126 529.8281 612.45L527.625 612.45Q527.2969 611.79376 527.2031 610.91876ZM527.03125 606.2Q525.875 606.66876 523.5781 606.9969Q522.28125 607.1844 521.7344 607.41876Q521.2031 607.65314 520.90625 608.10626Q520.625 608.5594 520.625 609.10626Q520.625 609.95 521.25 610.5125Q521.8906 611.075 523.125 611.075Q524.34375 611.075 525.2969 610.54376Q526.25 610.0125 526.6875 609.09064Q527.03125 608.3719 527.03125 606.98126L527.03125 606.2ZM536.6875 610.5594L537.0 612.41876Q536.1094 612.6219 535.40625 612.6219Q534.25 612.6219 533.6094 612.2625Q532.9844 611.8875 532.71875 611.29376Q532.46875 610.7 532.46875 608.8094L532.46875 601.6375L530.9219 601.6375L530.9219 599.9969L532.46875 599.9969L532.46875 596.91876L534.5625 595.65314L534.5625 599.9969L536.6875 599.9969L536.6875 601.6375L534.5625 601.6375L534.5625 608.91876Q534.5625 609.825 534.6719 610.09064Q534.7969 610.34064 535.0469 610.4969Q535.2969 610.6375 535.7656 610.6375Q536.1094 610.6375 536.6875 610.5594ZM539.09375 597.7L539.09375 595.2625L541.2031 595.2625L541.2031 597.7L539.09375 597.7ZM539.09375 612.45L539.09375 599.9969L541.2031 599.9969L541.2031 612.45L539.09375 612.45ZM543.2969 606.23126Q543.2969 602.7625 545.21875 601.10626Q546.8281 599.71564 549.1406 599.71564Q551.7031 599.71564 553.3281 601.40314Q554.9531 603.09064 554.9531 606.04376Q554.9531 608.45 554.2344 609.825Q553.5156 611.2 552.1406 611.96564Q550.7656 612.73126 549.1406 612.73126Q546.5156 612.73126 544.90625 611.0594Q543.2969 609.3719 543.2969 606.23126ZM545.46875 606.23126Q545.46875 608.6219 546.5 609.8094Q547.5469 610.9969 549.1406 610.9969Q550.7031 610.9969 551.75 609.8094Q552.7969 608.60626 552.7969 606.15314Q552.7969 603.84064 551.7344 602.65314Q550.6875 601.46564 549.1406 601.46564Q547.5469 601.46564 546.5 602.65314Q545.46875 603.84064 545.46875 606.23126ZM557.0781 612.45L557.0781 599.9969L558.9844 599.9969L558.9844 601.77814Q560.3594 599.71564 562.9375 599.71564Q564.0625 599.71564 565.0 600.1219Q565.9531 600.52814 566.4219 601.1844Q566.8906 601.84064 567.0781 602.7469Q567.2031 603.325 567.2031 604.79376L567.2031 612.45L565.09375 612.45L565.09375 604.8719Q565.09375 603.59064 564.84375 602.95Q564.59375 602.3094 563.96875 601.9344Q563.34375 601.54376 562.5 601.54376Q561.15625 601.54376 560.1719 602.40314Q559.1875 603.2625 559.1875 605.65314L559.1875 612.45L557.0781 612.45ZM576.5781 606.9344L578.71875 606.7469Q578.875 608.02814 579.4219 608.85626Q579.9844 609.6844 581.15625 610.2Q582.3281 610.7 583.7969 610.7Q585.09375 610.7 586.09375 610.325Q587.09375 609.9344 587.5781 609.2625Q588.0625 608.575 588.0625 607.77814Q588.0625 606.98126 587.59375 606.3719Q587.125 605.7625 586.0469 605.35626Q585.3594 605.09064 582.9844 604.52814Q580.625 603.95 579.6719 603.45Q578.4375 602.8094 577.8281 601.85626Q577.2344 600.8875 577.2344 599.71564Q577.2344 598.40314 577.96875 597.27814Q578.71875 596.15314 580.125 595.575Q581.5469 594.98126 583.28125 594.98126Q585.1875 594.98126 586.6406 595.59064Q588.1094 596.2 588.8906 597.40314Q589.6875 598.59064 589.7344 600.10626L587.5625 600.27814Q587.3906 598.6375 586.375 597.8094Q585.3594 596.98126 583.375 596.98126Q581.3125 596.98126 580.3594 597.7469Q579.4219 598.4969 579.4219 599.5594Q579.4219 600.48126 580.09375 601.075Q580.75 601.6844 583.5156 602.3094Q586.2969 602.9344 587.3281 603.40314Q588.8281 604.09064 589.53125 605.15314Q590.25 606.21564 590.25 607.59064Q590.25 608.96564 589.46875 610.1844Q588.6875 611.3875 587.21875 612.075Q585.75 612.7469 583.90625 612.7469Q581.5781 612.7469 580.0 612.075Q578.4219 611.3875 577.5156 610.02814Q576.625 608.65314 576.5781 606.9344ZM601.6094 608.4344L603.78125 608.71564Q603.2656 610.6219 601.875 611.6844Q600.4844 612.73126 598.3125 612.73126Q595.5781 612.73126 593.96875 611.0594Q592.375 609.3719 592.375 606.325Q592.375 603.1844 593.9844 601.45Q595.6094 599.71564 598.1875 599.71564Q600.6875 599.71564 602.2656 601.41876Q603.8594 603.1219 603.8594 606.2Q603.8594 606.3875 603.84375 606.7625L594.5625 606.7625Q594.6719 608.8094 595.71875 609.90314Q596.7656 610.9969 598.3281 610.9969Q599.4844 610.9969 600.2969 610.3875Q601.125 609.77814 601.6094 608.4344ZM594.6719 605.02814L601.625 605.02814Q601.4844 603.46564 600.8281 602.66876Q599.8281 601.45 598.21875 601.45Q596.7656 601.45 595.7656 602.4344Q594.78125 603.40314 594.6719 605.02814ZM606.03125 612.45L606.03125 595.2625L608.1406 595.2625L608.1406 612.45L606.03125 612.45ZM619.6094 608.4344L621.78125 608.71564Q621.2656 610.6219 619.875 611.6844Q618.4844 612.73126 616.3125 612.73126Q613.5781 612.73126 611.96875 611.0594Q610.375 609.3719 610.375 606.325Q610.375 603.1844 611.9844 601.45Q613.6094 599.71564 616.1875 599.71564Q618.6875 599.71564 620.2656 601.41876Q621.8594 603.1219 621.8594 606.2Q621.8594 606.3875 621.84375 606.7625L612.5625 606.7625Q612.6719 608.8094 613.71875 609.90314Q614.7656 610.9969 616.3281 610.9969Q617.4844 610.9969 618.2969 610.3875Q619.125 609.77814 619.6094 608.4344ZM612.6719 605.02814L619.625 605.02814Q619.4844 603.46564 618.8281 602.66876Q617.8281 601.45 616.21875 601.45Q614.7656 601.45 613.7656 602.4344Q612.78125 603.40314 612.6719 605.02814ZM632.2031 607.8875L634.28125 608.15314Q633.9375 610.3094 632.53125 611.52814Q631.1406 612.73126 629.09375 612.73126Q626.5469 612.73126 624.9844 611.0594Q623.4375 609.3875 623.4375 606.27814Q623.4375 604.2625 624.1094 602.7469Q624.78125 601.23126 626.1406 600.48126Q627.5 599.71564 629.1094 599.71564Q631.1406 599.71564 632.4219 600.7469Q633.71875 601.77814 634.0781 603.65314L632.03125 603.98126Q631.7344 602.71564 630.9844 602.09064Q630.25 601.45 629.1875 601.45Q627.59375 601.45 626.59375 602.60626Q625.6094 603.7469 625.6094 606.21564Q625.6094 608.71564 626.5625 609.85626Q627.53125 610.9969 629.0781 610.9969Q630.3125 610.9969 631.1406 610.23126Q631.9844 609.46564 632.2031 607.8875ZM640.6875 610.5594L641.0 612.41876Q640.1094 612.6219 639.40625 612.6219Q638.25 612.6219 637.6094 612.2625Q636.9844 611.8875 636.71875 611.29376Q636.46875 610.7 636.46875 608.8094L636.46875 601.6375L634.9219 601.6375L634.9219 599.9969L636.46875 599.9969L636.46875 596.91876L638.5625 595.65314L638.5625 599.9969L640.6875 599.9969L640.6875 601.6375L638.5625 601.6375L638.5625 608.91876Q638.5625 609.825 638.6719 610.09064Q638.7969 610.34064 639.0469 610.4969Q639.2969 610.6375 639.7656 610.6375Q640.1094 610.6375 640.6875 610.5594ZM643.09375 597.7L643.09375 595.2625L645.2031 595.2625L645.2031 597.7L643.09375 597.7ZM643.09375 612.45L643.09375 599.9969L645.2031 599.9969L645.2031 612.45L643.09375 612.45ZM651.5469 612.45L646.8125 599.9969L649.03125 599.9969L651.7031 607.45Q652.1406 608.66876 652.5 609.96564Q652.78125 608.98126 653.28125 607.59064L656.0469 599.9969L658.21875 599.9969L653.5156 612.45L651.5469 612.45ZM660.09375 597.7L660.09375 595.2625L662.2031 595.2625L662.2031 597.7L660.09375 597.7ZM660.09375 612.45L660.09375 599.9969L662.2031 599.9969L662.2031 612.45L660.09375 612.45ZM669.6875 610.5594L670.0 612.41876Q669.1094 612.6219 668.40625 612.6219Q667.25 612.6219 666.6094 612.2625Q665.9844 611.8875 665.71875 611.29376Q665.46875 610.7 665.46875 608.8094L665.46875 601.6375L663.9219 601.6375L663.9219 599.9969L665.46875 599.9969L665.46875 596.91876L667.5625 595.65314L667.5625 599.9969L669.6875 599.9969L669.6875 601.6375L667.5625 601.6375L667.5625 608.91876Q667.5625 609.825 667.6719 610.09064Q667.7969 610.34064 668.0469 610.4969Q668.2969 610.6375 668.7656 610.6375Q669.1094 610.6375 669.6875 610.5594ZM671.9844 617.2469L671.75 615.2625Q672.4531 615.45 672.96875 615.45Q673.6719 615.45 674.09375 615.21564Q674.5156 614.98126 674.78125 614.5594Q674.9844 614.2469 675.4219 612.9969Q675.4844 612.8094 675.6094 612.48126L670.8906 599.9969L673.15625 599.9969L675.75 607.21564Q676.25 608.575 676.65625 610.09064Q677.0156 608.6375 677.5156 607.2625L680.1875 599.9969L682.2969 599.9969L677.5625 612.66876Q676.7969 614.71564 676.375 615.48126Q675.8125 616.52814 675.0781 617.0125Q674.3594 617.4969 673.34375 617.4969Q672.7344 617.4969 671.9844 617.2469Z" fill-rule="nonzero"/><path fill="#000000" d="M54.55001 386.95938L37.36251 386.95938L37.36251 379.35Q37.36251 377.05313 37.83126 375.86563Q38.30001 374.6625 39.471886 373.94376Q40.64376 373.225 42.05001 373.225Q43.878136 373.225 45.14376 374.4125Q46.39376 375.6 46.73751 378.06876Q47.159386 377.1625 47.58126 376.69376Q48.503136 375.69376 49.878136 374.80313L54.55001 371.81876L54.55001 374.67813L50.971886 376.95938Q49.42501 377.94376 48.61251 378.6Q47.784386 379.24063 47.45626 379.75626Q47.128136 380.25626 47.003136 380.7875Q46.92501 381.17813 46.92501 382.05313L46.92501 384.69376L54.55001 384.69376L54.55001 386.95938ZM44.95626 384.69376L44.95626 379.80313Q44.95626 378.24063 44.628136 377.36563Q44.30001 376.49063 43.596886 376.0375Q42.89376 375.56876 42.05001 375.56876Q40.83126 375.56876 40.05001 376.45938Q39.26876 377.33438 39.26876 379.25626L39.26876 384.69376L44.95626 384.69376ZM50.534386 361.74063L50.815636 359.56876Q52.721886 360.08438 53.784386 361.475Q54.83126 362.86563 54.83126 365.0375Q54.83126 367.77188 53.159386 369.38126Q51.471886 370.975 48.42501 370.975Q45.284386 370.975 43.55001 369.36563Q41.815636 367.74063 41.815636 365.1625Q41.815636 362.6625 43.51876 361.08438Q45.221886 359.49063 48.30001 359.49063Q48.48751 359.49063 48.86251 359.50626L48.86251 368.7875Q50.909386 368.67813 52.003136 367.63126Q53.096886 366.58438 53.096886 365.02188Q53.096886 363.86563 52.48751 363.05313Q51.878136 362.225 50.534386 361.74063ZM47.128136 368.67813L47.128136 361.725Q45.565636 361.86563 44.76876 362.52188Q43.55001 363.52188 43.55001 365.13126Q43.55001 366.58438 44.534386 367.58438Q45.503136 368.56876 47.128136 368.67813ZM54.55001 357.31876L37.36251 357.31876L37.36251 355.20938L54.55001 355.20938L54.55001 357.31876ZM53.01876 344.14688Q54.003136 345.31876 54.42501 346.4125Q54.83126 347.49063 54.83126 348.725Q54.83126 350.77188 53.83126 351.88126Q52.83126 352.975 51.26876 352.975Q50.346886 352.975 49.596886 352.56876Q48.846886 352.14688 48.39376 351.475Q47.92501 350.80313 47.690636 349.95938Q47.534386 349.33438 47.378136 348.08438Q47.065636 345.52188 46.64376 344.31876Q46.221886 344.30313 46.096886 344.30313Q44.815636 344.30313 44.284386 344.9125Q43.565636 345.70938 43.565636 347.30313Q43.565636 348.80313 44.096886 349.50626Q44.61251 350.20938 45.940636 350.55313L45.659386 352.61563Q44.33126 352.33438 43.51876 351.69376Q42.70626 351.05313 42.26876 349.83438Q41.815636 348.61563 41.815636 347.00626Q41.815636 345.4125 42.190636 344.4125Q42.565636 343.4125 43.14376 342.94376Q43.70626 342.475 44.58126 342.2875Q45.11251 342.19376 46.51876 342.19376L49.33126 342.19376Q52.26876 342.19376 53.05001 342.05313Q53.83126 341.9125 54.55001 341.52188L54.55001 343.725Q53.89376 344.05313 53.01876 344.14688ZM48.30001 344.31876Q48.76876 345.475 49.096886 347.77188Q49.284386 349.06876 49.51876 349.61563Q49.753136 350.14688 50.20626 350.44376Q50.659386 350.725 51.20626 350.725Q52.05001 350.725 52.61251 350.1Q53.17501 349.45938 53.17501 348.225Q53.17501 347.00626 52.64376 346.05313Q52.11251 345.1 51.190636 344.6625Q50.471886 344.31876 49.08126 344.31876L48.30001 344.31876ZM52.659386 334.6625L54.51876 334.35Q54.721886 335.24063 54.721886 335.94376Q54.721886 337.1 54.36251 337.74063Q53.98751 338.36563 53.39376 338.63126Q52.80001 338.88126 50.909386 338.88126L43.73751 338.88126L43.73751 340.42813L42.096886 340.42813L42.096886 338.88126L39.01876 338.88126L37.753136 336.7875L42.096886 336.7875L42.096886 334.6625L43.73751 334.6625L43.73751 336.7875L51.01876 336.7875Q51.92501 336.7875 52.190636 336.67813Q52.440636 336.55313 52.596886 336.30313Q52.73751 336.05313 52.73751 335.58438Q52.73751 335.24063 52.659386 334.6625ZM39.80001 332.25626L37.36251 332.25626L37.36251 330.14688L39.80001 330.14688L39.80001 332.25626ZM54.55001 332.25626L42.096886 332.25626L42.096886 330.14688L54.55001 330.14688L54.55001 332.25626ZM54.55001 323.80313L42.096886 328.5375L42.096886 326.31876L49.55001 323.64688Q50.76876 323.20938 52.065636 322.85Q51.08126 322.56876 49.690636 322.06876L42.096886 319.30313L42.096886 317.13126L54.55001 321.83438L54.55001 323.80313ZM50.534386 306.74063L50.815636 304.56876Q52.721886 305.08438 53.784386 306.475Q54.83126 307.86563 54.83126 310.0375Q54.83126 312.77188 53.159386 314.38126Q51.471886 315.975 48.42501 315.975Q45.284386 315.975 43.55001 314.36563Q41.815636 312.74063 41.815636 310.1625Q41.815636 307.6625 43.51876 306.08438Q45.221886 304.49063 48.30001 304.49063Q48.48751 304.49063 48.86251 304.50626L48.86251 313.7875Q50.909386 313.67813 52.003136 312.63126Q53.096886 311.58438 53.096886 310.02188Q53.096886 308.86563 52.48751 308.05313Q51.878136 307.225 50.534386 306.74063ZM47.128136 313.67813L47.128136 306.725Q45.565636 306.86563 44.76876 307.52188Q43.55001 308.52188 43.55001 310.13126Q43.55001 311.58438 44.534386 312.58438Q45.503136 313.56876 47.128136 313.67813ZM54.55001 294.94376L37.36251 294.94376L37.36251 282.52188L39.39376 282.52188L39.39376 292.67813L44.659386 292.67813L44.659386 283.17813L46.67501 283.17813L46.67501 292.67813L52.51876 292.67813L52.51876 282.13126L54.55001 282.13126L54.55001 294.94376ZM54.55001 279.2875L42.096886 279.2875L42.096886 277.39688L43.98751 277.39688Q42.659386 276.6625 42.23751 276.05313Q41.815636 275.42813 41.815636 274.69376Q41.815636 273.63126 42.503136 272.52188L44.45626 273.25626Q44.003136 274.02188 44.003136 274.80313Q44.003136 275.49063 44.42501 276.05313Q44.83126 276.6 45.565636 276.83438Q46.690636 277.17813 48.034386 277.17813L54.55001 277.17813L54.55001 279.2875ZM54.55001 271.2875L42.096886 271.2875L42.096886 269.39688L43.98751 269.39688Q42.659386 268.6625 42.23751 268.05313Q41.815636 267.42813 41.815636 266.69376Q41.815636 265.63126 42.503136 264.52188L44.45626 265.25626Q44.003136 266.02188 44.003136 266.80313Q44.003136 267.49063 44.42501 268.05313Q44.83126 268.6 45.565636 268.83438Q46.690636 269.17813 48.034386 269.17813L54.55001 269.17813L54.55001 271.2875ZM48.33126 264.05313Q44.86251 264.05313 43.20626 262.13126Q41.815636 260.52188 41.815636 258.20938Q41.815636 255.64688 43.503136 254.02188Q45.190636 252.39688 48.14376 252.39688Q50.55001 252.39688 51.92501 253.11563Q53.30001 253.83438 54.065636 255.20938Q54.83126 256.58438 54.83126 258.20938Q54.83126 260.83438 53.159386 262.44376Q51.471886 264.05313 48.33126 264.05313ZM48.33126 261.88126Q50.721886 261.88126 51.909386 260.85Q53.096886 259.80313 53.096886 258.20938Q53.096886 256.64688 51.909386 255.6Q50.70626 254.55313 48.253136 254.55313Q45.940636 254.55313 44.753136 255.61563Q43.565636 256.6625 43.565636 258.20938Q43.565636 259.80313 44.753136 260.85Q45.940636 261.88126 48.33126 261.88126ZM54.55001 250.2875L42.096886 250.2875L42.096886 248.39688L43.98751 248.39688Q42.659386 247.6625 42.23751 247.05313Q41.815636 246.42813 41.815636 245.69376Q41.815636 244.63126 42.503136 243.52188L44.45626 244.25626Q44.003136 245.02188 44.003136 245.80313Q44.003136 246.49063 44.42501 247.05313Q44.83126 247.6 45.565636 247.83438Q46.690636 248.17813 48.034386 248.17813L54.55001 248.17813L54.55001 250.2875Z" fill-rule="nonzero"/><path fill="#000000" d="M97.05 534.21564Q97.05 532.6844 97.3625 531.7625Q97.675 530.825 98.28438 530.325Q98.90938 529.825 99.84688 529.825Q100.53438 529.825 101.05 530.10626Q101.58125 530.3875 101.925 530.91876Q102.26875 531.4344 102.45625 532.1844Q102.64375 532.9344 102.64375 534.21564Q102.64375 535.73126 102.33125 536.65314Q102.03438 537.575 101.40938 538.09064Q100.8 538.59064 99.84688 538.59064Q98.6125 538.59064 97.89375 537.7Q97.05 536.6375 97.05 534.21564ZM98.12813 534.21564Q98.12813 536.325 98.62813 537.02814Q99.12813 537.73126 99.84688 537.73126Q100.58125 537.73126 101.06563 537.02814Q101.56563 536.325 101.56563 534.21564Q101.56563 532.09064 101.06563 531.40314Q100.58125 530.7 99.83125 530.7Q99.1125 530.7 98.675 531.3094Q98.12813 532.09064 98.12813 534.21564ZM104.64375 538.45L104.64375 537.2469L105.84688 537.2469L105.84688 538.45L104.64375 538.45ZM107.1125 530.98126L107.1125 529.96564L112.675 529.96564L112.675 530.79376Q111.8625 531.66876 111.05 533.1219Q110.25313 534.5594 109.81563 536.09064Q109.4875 537.16876 109.40938 538.45L108.31563 538.45Q108.33125 537.4344 108.70625 535.9969Q109.09688 534.5594 109.8 533.23126Q110.51875 531.90314 111.33125 530.98126L107.1125 530.98126ZM114.05 536.2L115.15938 536.10626Q115.28438 536.91876 115.72188 537.325Q116.175 537.73126 116.81563 537.73126Q117.56563 537.73126 118.09688 537.15314Q118.62813 536.575 118.62813 535.6375Q118.62813 534.73126 118.1125 534.21564Q117.6125 533.6844 116.78438 533.6844Q116.28438 533.6844 115.8625 533.91876Q115.45625 534.15314 115.22188 534.5125L114.2375 534.3875L115.06563 529.98126L119.34688 529.98126L119.34688 530.98126L115.90938 530.98126L115.45625 533.29376Q116.22188 532.7469 117.06563 532.7469Q118.19063 532.7469 118.95625 533.52814Q119.7375 534.3094 119.7375 535.54376Q119.7375 536.7 119.06563 537.5594Q118.2375 538.59064 116.81563 538.59064Q115.64375 538.59064 114.89375 537.9344Q114.15938 537.27814 114.05 536.2Z" fill-rule="nonzero"/><path fill="#000000" d="M101.01875 426.15L99.97188 426.15L99.97188 419.43124Q99.58125 419.79062 98.95625 420.16562Q98.34688 420.525 97.8625 420.69687L97.8625 419.68124Q98.7375 419.25937 99.39375 418.68124Q100.06563 418.0875 100.34688 417.525L101.01875 417.525L101.01875 426.15ZM104.64375 426.15L104.64375 424.94687L105.84688 424.94687L105.84688 426.15L104.64375 426.15ZM107.05 421.91562Q107.05 420.38437 107.3625 419.4625Q107.675 418.525 108.28438 418.025Q108.90938 417.525 109.84688 417.525Q110.53438 417.525 111.05 417.80624Q111.58125 418.0875 111.925 418.61874Q112.26875 419.13437 112.45625 419.88437Q112.64375 420.63437 112.64375 421.91562Q112.64375 423.43124 112.33125 424.35312Q112.03438 425.275 111.40938 425.79062Q110.8 426.29062 109.84688 426.29062Q108.6125 426.29062 107.89375 425.4Q107.05 424.3375 107.05 421.91562ZM108.12813 421.91562Q108.12813 424.025 108.62813 424.72812Q109.12813 425.43124 109.84688 425.43124Q110.58125 425.43124 111.06563 424.72812Q111.56563 424.025 111.56563 421.91562Q111.56563 419.79062 111.06563 419.10312Q110.58125 418.4 109.83125 418.4Q109.1125 418.4 108.675 419.00937Q108.12813 419.79062 108.12813 421.91562ZM114.05 421.91562Q114.05 420.38437 114.3625 419.4625Q114.675 418.525 115.28438 418.025Q115.90938 417.525 116.84688 417.525Q117.53438 417.525 118.05 417.80624Q118.58125 418.0875 118.925 418.61874Q119.26875 419.13437 119.45625 419.88437Q119.64375 420.63437 119.64375 421.91562Q119.64375 423.43124 119.33125 424.35312Q119.03438 425.275 118.40938 425.79062Q117.8 426.29062 116.84688 426.29062Q115.6125 426.29062 114.89375 425.4Q114.05 424.3375 114.05 421.91562ZM115.12813 421.91562Q115.12813 424.025 115.62813 424.72812Q116.12813 425.43124 116.84688 425.43124Q117.58125 425.43124 118.06563 424.72812Q118.56563 424.025 118.56563 421.91562Q118.56563 419.79062 118.06563 419.10312Q117.58125 418.4 116.83125 418.4Q116.1125 418.4 115.675 419.00937Q115.12813 419.79062 115.12813 421.91562Z" fill-rule="nonzero"/><path fill="#000000" d="M101.01875 313.85L99.97188 313.85L99.97188 307.13126Q99.58125 307.49063 98.95625 307.86563Q98.34688 308.225 97.8625 308.39688L97.8625 307.38126Q98.7375 306.95938 99.39375 306.38126Q100.06563 305.7875 100.34688 305.225L101.01875 305.225L101.01875 313.85ZM104.64375 313.85L104.64375 312.64688L105.84688 312.64688L105.84688 313.85L104.64375 313.85ZM112.59688 312.83438L112.59688 313.85L106.90938 313.85Q106.90938 313.475 107.03438 313.11563Q107.25313 312.5375 107.72188 311.975Q108.20625 311.4125 109.1125 310.67813Q110.51875 309.52188 111.00313 308.85Q111.50313 308.17813 111.50313 307.58438Q111.50313 306.95938 111.05 306.5375Q110.59688 306.1 109.87813 306.1Q109.1125 306.1 108.65938 306.55313Q108.20625 307.00626 108.19063 307.81876L107.1125 307.70938Q107.22188 306.49063 107.94063 305.86563Q108.675 305.225 109.90938 305.225Q111.14375 305.225 111.8625 305.9125Q112.58125 306.6 112.58125 307.61563Q112.58125 308.13126 112.3625 308.63126Q112.15938 309.11563 111.65938 309.67813Q111.175 310.225 110.05 311.17813Q109.09688 311.975 108.81563 312.27188Q108.55 312.55313 108.37813 312.83438L112.59688 312.83438ZM114.05 311.6L115.15938 311.50626Q115.28438 312.31876 115.72188 312.725Q116.175 313.13126 116.81563 313.13126Q117.56563 313.13126 118.09688 312.55313Q118.62813 311.975 118.62813 311.0375Q118.62813 310.13126 118.1125 309.61563Q117.6125 309.08438 116.78438 309.08438Q116.28438 309.08438 115.8625 309.31876Q115.45625 309.55313 115.22188 309.9125L114.2375 309.7875L115.06563 305.38126L119.34688 305.38126L119.34688 306.38126L115.90938 306.38126L115.45625 308.69376Q116.22188 308.14688 117.06563 308.14688Q118.19063 308.14688 118.95625 308.92813Q119.7375 309.70938 119.7375 310.94376Q119.7375 312.1 119.06563 312.95938Q118.2375 313.99063 116.81563 313.99063Q115.64375 313.99063 114.89375 313.33438Q114.15938 312.67813 114.05 311.6Z" fill-rule="nonzero"/><path fill="#000000" d="M101.01875 201.55L99.97188 201.55L99.97188 194.83125Q99.58125 195.19063 98.95625 195.56563Q98.34688 195.925 97.8625 196.09688L97.8625 195.08125Q98.7375 194.65938 99.39375 194.08125Q100.06563 193.4875 100.34688 192.925L101.01875 192.925L101.01875 201.55ZM104.64375 201.55L104.64375 200.34688L105.84688 200.34688L105.84688 201.55L104.64375 201.55ZM107.05 199.3L108.15938 199.20625Q108.28438 200.01875 108.72188 200.425Q109.175 200.83125 109.81563 200.83125Q110.56563 200.83125 111.09688 200.25313Q111.62813 199.675 111.62813 198.7375Q111.62813 197.83125 111.1125 197.31563Q110.6125 196.78438 109.78438 196.78438Q109.28438 196.78438 108.8625 197.01875Q108.45625 197.25313 108.22188 197.6125L107.2375 197.4875L108.06563 193.08125L112.34688 193.08125L112.34688 194.08125L108.90938 194.08125L108.45625 196.39375Q109.22188 195.84688 110.06563 195.84688Q111.19063 195.84688 111.95625 196.62813Q112.7375 197.40938 112.7375 198.64375Q112.7375 199.8 112.06563 200.65938Q111.2375 201.69063 109.81563 201.69063Q108.64375 201.69063 107.89375 201.03438Q107.15938 200.37813 107.05 199.3ZM114.05 197.31563Q114.05 195.78438 114.3625 194.8625Q114.675 193.925 115.28438 193.425Q115.90938 192.925 116.84688 192.925Q117.53438 192.925 118.05 193.20625Q118.58125 193.4875 118.925 194.01875Q119.26875 194.53438 119.45625 195.28438Q119.64375 196.03438 119.64375 197.31563Q119.64375 198.83125 119.33125 199.75313Q119.03438 200.675 118.40938 201.19063Q117.8 201.69063 116.84688 201.69063Q115.6125 201.69063 114.89375 200.8Q114.05 199.7375 114.05 197.31563ZM115.12813 197.31563Q115.12813 199.425 115.62813 200.12813Q116.12813 200.83125 116.84688 200.83125Q117.58125 200.83125 118.06563 200.12813Q118.56563 199.425 118.56563 197.31563Q118.56563 195.19063 118.06563 194.50313Q117.58125 193.8 116.83125 193.8Q116.1125 193.8 115.675 194.40938Q115.12813 195.19063 115.12813 197.31563Z" fill-rule="nonzero"/><path fill="#000000" d="M101.01875 89.25L99.97188 89.25L99.97188 82.53125Q99.58125 82.890625 98.95625 83.265625Q98.34688 83.625 97.8625 83.796875L97.8625 82.78125Q98.7375 82.359375 99.39375 81.78125Q100.06563 81.1875 100.34688 80.625L101.01875 80.625L101.01875 89.25ZM104.64375 89.25L104.64375 88.046875L105.84688 88.046875L105.84688 89.25L104.64375 89.25ZM107.1125 81.78125L107.1125 80.765625L112.675 80.765625L112.675 81.59375Q111.8625 82.46875 111.05 83.921875Q110.25313 85.359375 109.81563 86.890625Q109.4875 87.96875 109.40938 89.25L108.31563 89.25Q108.33125 88.234375 108.70625 86.796875Q109.09688 85.359375 109.8 84.03125Q110.51875 82.703125 111.33125 81.78125L107.1125 81.78125ZM114.05 87.0L115.15938 86.90625Q115.28438 87.71875 115.72188 88.125Q116.175 88.53125 116.81563 88.53125Q117.56563 88.53125 118.09688 87.953125Q118.62813 87.375 118.62813 86.4375Q118.62813 85.53125 118.1125 85.015625Q117.6125 84.484375 116.78438 84.484375Q116.28438 84.484375 115.8625 84.71875Q115.45625 84.953125 115.22188 85.3125L114.2375 85.1875L115.06563 80.78125L119.34688 80.78125L119.34688 81.78125L115.90938 81.78125L115.45625 84.09375Q116.22188 83.546875 117.06563 83.546875Q118.19063 83.546875 118.95625 84.328125Q119.7375 85.109375 119.7375 86.34375Q119.7375 87.5 119.06563 88.359375Q118.2375 89.390625 116.81563 89.390625Q115.64375 89.390625 114.89375 88.734375Q114.15938 88.078125 114.05 87.0Z" fill-rule="nonzero"/><path fill="#000000" d="M118.05 547.21564Q118.05 545.6844 118.3625 544.7625Q118.675 543.825 119.28438 543.325Q119.90938 542.825 120.84688 542.825Q121.53438 542.825 122.05 543.10626Q122.58125 543.3875 122.925 543.91876Q123.26875 544.4344 123.45625 545.1844Q123.64375 545.9344 123.64375 547.21564Q123.64375 548.73126 123.33125 549.65314Q123.03438 550.575 122.40938 551.09064Q121.8 551.59064 120.84688 551.59064Q119.6125 551.59064 118.89375 550.7Q118.05 549.6375 118.05 547.21564ZM119.12813 547.21564Q119.12813 549.325 119.62813 550.02814Q120.12813 550.73126 120.84688 550.73126Q121.58125 550.73126 122.06563 550.02814Q122.56563 549.325 122.56563 547.21564Q122.56563 545.09064 122.06563 544.40314Q121.58125 543.7 120.83125 543.7Q120.1125 543.7 119.675 544.3094Q119.12813 545.09064 119.12813 547.21564ZM125.25313 544.91876Q125.25313 543.9969 125.70625 543.35626Q126.175 542.71564 127.05 542.71564Q127.8625 542.71564 128.39375 543.29376Q128.925 543.8719 128.925 544.98126Q128.925 546.075 128.37813 546.66876Q127.84688 547.2469 127.06563 547.2469Q126.28438 547.2469 125.76875 546.66876Q125.25313 546.09064 125.25313 544.91876ZM127.08125 543.4344Q126.69063 543.4344 126.425 543.77814Q126.175 544.1219 126.175 545.02814Q126.175 545.85626 126.425 546.2Q126.69063 546.52814 127.08125 546.52814Q127.4875 546.52814 127.7375 546.1844Q128.00313 545.84064 128.00313 544.95Q128.00313 544.10626 127.7375 543.77814Q127.47188 543.4344 127.08125 543.4344ZM127.08125 551.7625L131.78438 542.71564L132.64375 542.71564L127.95625 551.7625L127.08125 551.7625ZM130.8 549.4344Q130.8 548.5125 131.25313 547.8719Q131.72188 547.23126 132.6125 547.23126Q133.425 547.23126 133.95625 547.8094Q134.4875 548.3719 134.4875 549.4969Q134.4875 550.59064 133.94063 551.1844Q133.40938 551.7625 132.6125 551.7625Q131.84688 551.7625 131.31563 551.1844Q130.8 550.60626 130.8 549.4344ZM132.64375 547.95Q132.2375 547.95 131.97188 548.29376Q131.72188 548.6375 131.72188 549.54376Q131.72188 550.35626 131.9875 550.7Q132.25313 551.04376 132.64375 551.04376Q133.03438 551.04376 133.3 550.7Q133.56563 550.35626 133.56563 549.45Q133.56563 548.6219 133.3 548.29376Q133.03438 547.95 132.64375 547.95Z" fill-rule="nonzero"/><path fill="#000000" d="M339.87592 550.4344L339.87592 551.45L334.18842 551.45Q334.18842 551.075 334.31342 550.71564Q334.53217 550.1375 335.00092 549.575Q335.4853 549.0125 336.39154 548.27814Q337.7978 547.1219 338.28217 546.45Q338.78217 545.77814 338.78217 545.1844Q338.78217 544.5594 338.32904 544.1375Q337.87592 543.7 337.15717 543.7Q336.39154 543.7 335.93842 544.15314Q335.4853 544.60626 335.46967 545.41876L334.39154 545.3094Q334.50092 544.09064 335.21967 543.46564Q335.95404 542.825 337.18842 542.825Q338.4228 542.825 339.14154 543.5125Q339.8603 544.2 339.8603 545.21564Q339.8603 545.73126 339.64154 546.23126Q339.43842 546.71564 338.93842 547.27814Q338.45404 547.825 337.32904 548.77814Q336.37592 549.575 336.09467 549.8719Q335.82904 550.15314 335.65717 550.4344L339.87592 550.4344ZM341.32904 549.2L342.43842 549.10626Q342.56342 549.91876 343.00092 550.325Q343.45404 550.73126 344.09467 550.73126Q344.84467 550.73126 345.37592 550.15314Q345.90717 549.575 345.90717 548.6375Q345.90717 547.73126 345.39154 547.21564Q344.89154 546.6844 344.06342 546.6844Q343.56342 546.6844 343.14154 546.91876Q342.7353 547.15314 342.50092 547.5125L341.51654 547.3875L342.34467 542.98126L346.62592 542.98126L346.62592 543.98126L343.18842 543.98126L342.7353 546.29376Q343.50092 545.7469 344.34467 545.7469Q345.46967 545.7469 346.2353 546.52814Q347.01654 547.3094 347.01654 548.54376Q347.01654 549.7 346.34467 550.5594Q345.51654 551.59064 344.09467 551.59064Q342.9228 551.59064 342.1728 550.9344Q341.43842 550.27814 341.32904 549.2ZM348.53217 544.91876Q348.53217 543.9969 348.9853 543.35626Q349.45404 542.71564 350.32904 542.71564Q351.14154 542.71564 351.6728 543.29376Q352.20404 543.8719 352.20404 544.98126Q352.20404 546.075 351.65717 546.66876Q351.12592 547.2469 350.34467 547.2469Q349.56342 547.2469 349.0478 546.66876Q348.53217 546.09064 348.53217 544.91876ZM350.3603 543.4344Q349.96967 543.4344 349.70404 543.77814Q349.45404 544.1219 349.45404 545.02814Q349.45404 545.85626 349.70404 546.2Q349.96967 546.52814 350.3603 546.52814Q350.76654 546.52814 351.01654 546.1844Q351.28217 545.84064 351.28217 544.95Q351.28217 544.10626 351.01654 543.77814Q350.75092 543.4344 350.3603 543.4344ZM350.3603 551.7625L355.06342 542.71564L355.9228 542.71564L351.2353 551.7625L350.3603 551.7625ZM354.07904 549.4344Q354.07904 548.5125 354.53217 547.8719Q355.00092 547.23126 355.89154 547.23126Q356.70404 547.23126 357.2353 547.8094Q357.76654 548.3719 357.76654 549.4969Q357.76654 550.59064 357.21967 551.1844Q356.68842 551.7625 355.89154 551.7625Q355.12592 551.7625 354.59467 551.1844Q354.07904 550.60626 354.07904 549.4344ZM355.9228 547.95Q355.51654 547.95 355.25092 548.29376Q355.00092 548.6375 355.00092 549.54376Q355.00092 550.35626 355.26654 550.7Q355.53217 551.04376 355.9228 551.04376Q356.31342 551.04376 356.57904 550.7Q356.84467 550.35626 356.84467 549.45Q356.84467 548.6219 356.57904 548.29376Q356.31342 547.95 355.9228 547.95Z" fill-rule="nonzero"/><path fill="#000000" d="M554.10803 549.2L555.2174 549.10626Q555.3424 549.91876 555.7799 550.325Q556.23303 550.73126 556.87366 550.73126Q557.62366 550.73126 558.1549 550.15314Q558.68616 549.575 558.68616 548.6375Q558.68616 547.73126 558.17053 547.21564Q557.67053 546.6844 556.8424 546.6844Q556.3424 546.6844 555.92053 546.91876Q555.5143 547.15314 555.2799 547.5125L554.29553 547.3875L555.12366 542.98126L559.4049 542.98126L559.4049 543.98126L555.9674 543.98126L555.5143 546.29376Q556.2799 545.7469 557.12366 545.7469Q558.24866 545.7469 559.0143 546.52814Q559.79553 547.3094 559.79553 548.54376Q559.79553 549.7 559.12366 550.5594Q558.29553 551.59064 556.87366 551.59064Q555.7018 551.59064 554.9518 550.9344Q554.2174 550.27814 554.10803 549.2ZM561.10803 547.21564Q561.10803 545.6844 561.42053 544.7625Q561.73303 543.825 562.3424 543.325Q562.9674 542.825 563.9049 542.825Q564.5924 542.825 565.10803 543.10626Q565.6393 543.3875 565.98303 543.91876Q566.3268 544.4344 566.5143 545.1844Q566.7018 545.9344 566.7018 547.21564Q566.7018 548.73126 566.3893 549.65314Q566.0924 550.575 565.4674 551.09064Q564.85803 551.59064 563.9049 551.59064Q562.67053 551.59064 561.9518 550.7Q561.10803 549.6375 561.10803 547.21564ZM562.18616 547.21564Q562.18616 549.325 562.68616 550.02814Q563.18616 550.73126 563.9049 550.73126Q564.6393 550.73126 565.12366 550.02814Q565.62366 549.325 565.62366 547.21564Q565.62366 545.09064 565.12366 544.40314Q564.6393 543.7 563.8893 543.7Q563.17053 543.7 562.73303 544.3094Q562.18616 545.09064 562.18616 547.21564ZM568.31116 544.91876Q568.31116 543.9969 568.7643 543.35626Q569.23303 542.71564 570.10803 542.71564Q570.92053 542.71564 571.4518 543.29376Q571.98303 543.8719 571.98303 544.98126Q571.98303 546.075 571.43616 546.66876Q570.9049 547.2469 570.12366 547.2469Q569.3424 547.2469 568.8268 546.66876Q568.31116 546.09064 568.31116 544.91876ZM570.1393 543.4344Q569.74866 543.4344 569.48303 543.77814Q569.23303 544.1219 569.23303 545.02814Q569.23303 545.85626 569.48303 546.2Q569.74866 546.52814 570.1393 546.52814Q570.54553 546.52814 570.79553 546.1844Q571.06116 545.84064 571.06116 544.95Q571.06116 544.10626 570.79553 543.77814Q570.5299 543.4344 570.1393 543.4344ZM570.1393 551.7625L574.8424 542.71564L575.7018 542.71564L571.0143 551.7625L570.1393 551.7625ZM573.85803 549.4344Q573.85803 548.5125 574.31116 547.8719Q574.7799 547.23126 575.67053 547.23126Q576.48303 547.23126 577.0143 547.8094Q577.54553 548.3719 577.54553 549.4969Q577.54553 550.59064 576.99866 551.1844Q576.4674 551.7625 575.67053 551.7625Q574.9049 551.7625 574.37366 551.1844Q573.85803 550.60626 573.85803 549.4344ZM575.7018 547.95Q575.29553 547.95 575.0299 548.29376Q574.7799 548.6375 574.7799 549.54376Q574.7799 550.35626 575.04553 550.7Q575.31116 551.04376 575.7018 551.04376Q576.0924 551.04376 576.35803 550.7Q576.62366 550.35626 576.62366 549.45Q576.62366 548.6219 576.35803 548.29376Q576.0924 547.95 575.7018 547.95Z" fill-rule="nonzero"/><path fill="#000000" d="M773.9496 543.98126L773.9496 542.96564L779.5121 542.96564L779.5121 543.79376Q778.6996 544.66876 777.8871 546.1219Q777.0902 547.5594 776.6527 549.09064Q776.3246 550.16876 776.24646 551.45L775.1527 551.45Q775.16833 550.4344 775.54333 548.9969Q775.93396 547.5594 776.6371 546.23126Q777.35583 544.90314 778.16833 543.98126L773.9496 543.98126ZM780.8871 549.2L781.99646 549.10626Q782.12146 549.91876 782.55896 550.325Q783.0121 550.73126 783.6527 550.73126Q784.4027 550.73126 784.93396 550.15314Q785.4652 549.575 785.4652 548.6375Q785.4652 547.73126 784.9496 547.21564Q784.4496 546.6844 783.62146 546.6844Q783.12146 546.6844 782.6996 546.91876Q782.29333 547.15314 782.05896 547.5125L781.0746 547.3875L781.9027 542.98126L786.18396 542.98126L786.18396 543.98126L782.74646 543.98126L782.29333 546.29376Q783.05896 545.7469 783.9027 545.7469Q785.0277 545.7469 785.79333 546.52814Q786.5746 547.3094 786.5746 548.54376Q786.5746 549.7 785.9027 550.5594Q785.0746 551.59064 783.6527 551.59064Q782.48083 551.59064 781.73083 550.9344Q780.99646 550.27814 780.8871 549.2ZM788.0902 544.91876Q788.0902 543.9969 788.54333 543.35626Q789.0121 542.71564 789.8871 542.71564Q790.6996 542.71564 791.23083 543.29376Q791.7621 543.8719 791.7621 544.98126Q791.7621 546.075 791.2152 546.66876Q790.68396 547.2469 789.9027 547.2469Q789.12146 547.2469 788.60583 546.66876Q788.0902 546.09064 788.0902 544.91876ZM789.91833 543.4344Q789.5277 543.4344 789.2621 543.77814Q789.0121 544.1219 789.0121 545.02814Q789.0121 545.85626 789.2621 546.2Q789.5277 546.52814 789.91833 546.52814Q790.3246 546.52814 790.5746 546.1844Q790.8402 545.84064 790.8402 544.95Q790.8402 544.10626 790.5746 543.77814Q790.30896 543.4344 789.91833 543.4344ZM789.91833 551.7625L794.62146 542.71564L795.48083 542.71564L790.79333 551.7625L789.91833 551.7625ZM793.6371 549.4344Q793.6371 548.5125 794.0902 547.8719Q794.55896 547.23126 795.4496 547.23126Q796.2621 547.23126 796.79333 547.8094Q797.3246 548.3719 797.3246 549.4969Q797.3246 550.59064 796.7777 551.1844Q796.24646 551.7625 795.4496 551.7625Q794.68396 551.7625 794.1527 551.1844Q793.6371 550.60626 793.6371 549.4344ZM795.48083 547.95Q795.0746 547.95 794.80896 548.29376Q794.55896 548.6375 794.55896 549.54376Q794.55896 550.35626 794.8246 550.7Q795.0902 551.04376 795.48083 551.04376Q795.87146 551.04376 796.1371 550.7Q796.4027 550.35626 796.4027 549.45Q796.4027 548.6219 796.1371 548.29376Q795.87146 547.95 795.48083 547.95Z" fill-rule="nonzero"/><path fill="#000000" d="M994.1349 551.45L993.088 551.45L993.088 544.73126Q992.6974 545.09064 992.0724 545.46564Q991.463 545.825 990.97864 545.9969L990.97864 544.98126Q991.85364 544.5594 992.5099 543.98126Q993.18176 543.3875 993.463 542.825L994.1349 542.825L994.1349 551.45ZM997.16614 547.21564Q997.16614 545.6844 997.47864 544.7625Q997.79114 543.825 998.4005 543.325Q999.0255 542.825 999.963 542.825Q1000.6505 542.825 1001.16614 543.10626Q1001.6974 543.3875 1002.04114 543.91876Q1002.3849 544.4344 1002.5724 545.1844Q1002.7599 545.9344 1002.7599 547.21564Q1002.7599 548.73126 1002.4474 549.65314Q1002.1505 550.575 1001.5255 551.09064Q1000.91614 551.59064 999.963 551.59064Q998.72864 551.59064 998.0099 550.7Q997.16614 549.6375 997.16614 547.21564ZM998.24426 547.21564Q998.24426 549.325 998.74426 550.02814Q999.24426 550.73126 999.963 550.73126Q1000.6974 550.73126 1001.18176 550.02814Q1001.68176 549.325 1001.68176 547.21564Q1001.68176 545.09064 1001.18176 544.40314Q1000.6974 543.7 999.9474 543.7Q999.22864 543.7 998.79114 544.3094Q998.24426 545.09064 998.24426 547.21564ZM1004.16614 547.21564Q1004.16614 545.6844 1004.47864 544.7625Q1004.79114 543.825 1005.4005 543.325Q1006.0255 542.825 1006.963 542.825Q1007.6505 542.825 1008.16614 543.10626Q1008.6974 543.3875 1009.04114 543.91876Q1009.3849 544.4344 1009.5724 545.1844Q1009.7599 545.9344 1009.7599 547.21564Q1009.7599 548.73126 1009.4474 549.65314Q1009.1505 550.575 1008.5255 551.09064Q1007.91614 551.59064 1006.963 551.59064Q1005.72864 551.59064 1005.0099 550.7Q1004.16614 549.6375 1004.16614 547.21564ZM1005.24426 547.21564Q1005.24426 549.325 1005.74426 550.02814Q1006.24426 550.73126 1006.963 550.73126Q1007.6974 550.73126 1008.18176 550.02814Q1008.68176 549.325 1008.68176 547.21564Q1008.68176 545.09064 1008.18176 544.40314Q1007.6974 543.7 1006.9474 543.7Q1006.22864 543.7 1005.79114 544.3094Q1005.24426 545.09064 1005.24426 547.21564ZM1011.36926 544.91876Q1011.36926 543.9969 1011.8224 543.35626Q1012.29114 542.71564 1013.16614 542.71564Q1013.97864 542.71564 1014.5099 543.29376Q1015.04114 543.8719 1015.04114 544.98126Q1015.04114 546.075 1014.49426 546.66876Q1013.963 547.2469 1013.18176 547.2469Q1012.4005 547.2469 1011.8849 546.66876Q1011.36926 546.09064 1011.36926 544.91876ZM1013.1974 543.4344Q1012.80676 543.4344 1012.54114 543.77814Q1012.29114 544.1219 1012.29114 545.02814Q1012.29114 545.85626 1012.54114 546.2Q1012.80676 546.52814 1013.1974 546.52814Q1013.60364 546.52814 1013.85364 546.1844Q1014.11926 545.84064 1014.11926 544.95Q1014.11926 544.10626 1013.85364 543.77814Q1013.588 543.4344 1013.1974 543.4344ZM1013.1974 551.7625L1017.9005 542.71564L1018.7599 542.71564L1014.0724 551.7625L1013.1974 551.7625ZM1016.91614 549.4344Q1016.91614 548.5125 1017.36926 547.8719Q1017.838 547.23126 1018.72864 547.23126Q1019.54114 547.23126 1020.0724 547.8094Q1020.60364 548.3719 1020.60364 549.4969Q1020.60364 550.59064 1020.05676 551.1844Q1019.5255 551.7625 1018.72864 551.7625Q1017.963 551.7625 1017.43176 551.1844Q1016.91614 550.60626 1016.91614 549.4344ZM1018.7599 547.95Q1018.35364 547.95 1018.088 548.29376Q1017.838 548.6375 1017.838 549.54376Q1017.838 550.35626 1018.10364 550.7Q1018.36926 551.04376 1018.7599 551.04376Q1019.1505 551.04376 1019.41614 550.7Q1019.68176 550.35626 1019.68176 549.45Q1019.68176 548.6219 1019.41614 548.29376Q1019.1505 547.95 1018.7599 547.95Z" fill-rule="nonzero"/><path fill="#4285f4" d="M274.5 44.55C274.5 47.86371 271.81372 50.55 268.5 50.55C265.18628 50.55 262.5 47.86371 262.5 44.55C262.5 41.23629 265.18628 38.55 268.5 38.55C271.81372 38.55 274.5 41.23629 274.5 44.55Z" fill-rule="nonzero"/><path fill="#1a1a1a" d="M284.07812 51.55L284.07812 37.2375L294.4375 37.2375L294.4375 38.925L285.98438 38.925L285.98438 43.3L293.89062 43.3L293.89062 44.9875L285.98438 44.9875L285.98438 49.8625L294.76562 49.8625L294.76562 51.55L284.07812 51.55ZM303.54688 51.55L303.54688 50.2375Q302.5625 51.784374 300.64062 51.784374Q299.40625 51.784374 298.35938 51.096874Q297.32812 50.409374 296.75 49.190624Q296.1875 47.971874 296.1875 46.378124Q296.1875 44.815624 296.70312 43.55Q297.21875 42.284374 298.25 41.6125Q299.29688 40.940624 300.5625 40.940624Q301.5 40.940624 302.23438 41.346874Q302.96875 41.7375 303.4375 42.3625L303.4375 37.2375L305.17188 37.2375L305.17188 51.55L303.54688 51.55ZM297.98438 46.378124Q297.98438 48.3625 298.82812 49.346874Q299.67188 50.33125 300.8125 50.33125Q301.96875 50.33125 302.76562 49.39375Q303.57812 48.45625 303.57812 46.51875Q303.57812 44.39375 302.75 43.39375Q301.9375 42.39375 300.73438 42.39375Q299.5625 42.39375 298.76562 43.3625Q297.98438 44.315624 297.98438 46.378124ZM314.60938 51.55L314.60938 50.01875Q313.40625 51.784374 311.32812 51.784374Q310.40625 51.784374 309.60938 51.440624Q308.8125 51.08125 308.42188 50.55Q308.04688 50.01875 307.89062 49.2375Q307.78125 48.721874 307.78125 47.596874L307.78125 41.175L309.53125 41.175L309.53125 46.925Q309.53125 48.3 309.64062 48.784374Q309.8125 49.471874 310.34375 49.878124Q310.89062 50.26875 311.67188 50.26875Q312.46875 50.26875 313.15625 49.8625Q313.85938 49.45625 314.14062 48.76875Q314.4375 48.065624 314.4375 46.7375L314.4375 41.175L316.1875 41.175L316.1875 51.55L314.60938 51.55ZM325.59375 47.753124L327.3125 47.971874Q327.03125 49.76875 325.85938 50.784374Q324.70312 51.784374 323.0 51.784374Q320.875 51.784374 319.57812 50.39375Q318.28125 49.003124 318.28125 46.409374Q318.28125 44.721874 318.82812 43.471874Q319.39062 42.20625 320.53125 41.58125Q321.67188 40.940624 323.01562 40.940624Q324.70312 40.940624 325.76562 41.8Q326.84375 42.659374 327.15625 44.221874L325.4375 44.4875Q325.20312 43.440624 324.57812 42.925Q323.95312 42.39375 323.07812 42.39375Q321.75 42.39375 320.92188 43.346874Q320.09375 44.3 320.09375 46.346874Q320.09375 48.440624 320.89062 49.39375Q321.6875 50.33125 322.98438 50.33125Q324.01562 50.33125 324.70312 49.70625Q325.40625 49.065624 325.59375 47.753124ZM335.59375 50.26875Q334.60938 51.096874 333.70312 51.440624Q332.79688 51.784374 331.76562 51.784374Q330.0625 51.784374 329.14062 50.95625Q328.21875 50.1125 328.21875 48.815624Q328.21875 48.05 328.5625 47.425Q328.92188 46.8 329.48438 46.425Q330.04688 46.034374 330.75 45.83125Q331.26562 45.70625 332.3125 45.565624Q334.4375 45.315624 335.4375 44.971874Q335.45312 44.6125 335.45312 44.503124Q335.45312 43.440624 334.95312 42.9875Q334.28125 42.39375 332.95312 42.39375Q331.70312 42.39375 331.10938 42.83125Q330.53125 43.26875 330.25 44.378124L328.53125 44.14375Q328.76562 43.034374 329.29688 42.3625Q329.82812 41.675 330.84375 41.315624Q331.85938 40.940624 333.20312 40.940624Q334.53125 40.940624 335.35938 41.253124Q336.1875 41.565624 336.57812 42.05Q336.96875 42.51875 337.125 43.2375Q337.21875 43.690624 337.21875 44.8625L337.21875 47.20625Q337.21875 49.659374 337.32812 50.315624Q337.4375 50.95625 337.78125 51.55L335.9375 51.55Q335.67188 51.003124 335.59375 50.26875ZM335.4375 46.346874Q334.48438 46.7375 332.5625 47.003124Q331.48438 47.159374 331.03125 47.3625Q330.59375 47.55 330.34375 47.925Q330.09375 48.3 330.09375 48.76875Q330.09375 49.471874 330.625 49.940624Q331.15625 50.409374 332.1875 50.409374Q333.20312 50.409374 333.98438 49.971874Q334.78125 49.51875 335.15625 48.753124Q335.4375 48.14375 335.4375 46.9875L335.4375 46.346874ZM343.65625 49.971874L343.90625 51.534374Q343.17188 51.690624 342.57812 51.690624Q341.625 51.690624 341.09375 51.39375Q340.57812 51.08125 340.35938 50.596874Q340.14062 50.096874 340.14062 48.51875L340.14062 42.55L338.85938 42.55L338.85938 41.175L340.14062 41.175L340.14062 38.6125L341.89062 37.55L341.89062 41.175L343.65625 41.175L343.65625 42.55L341.89062 42.55L341.89062 48.6125Q341.89062 49.3625 341.98438 49.58125Q342.07812 49.784374 342.28125 49.925Q342.5 50.05 342.89062 50.05Q343.17188 50.05 343.65625 49.971874ZM345.82812 39.253124L345.82812 37.2375L347.59375 37.2375L347.59375 39.253124L345.82812 39.253124ZM345.82812 51.55L345.82812 41.175L347.59375 41.175L347.59375 51.55L345.82812 51.55ZM349.17188 46.3625Q349.17188 43.4875 350.76562 42.096874Q352.10938 40.940624 354.03125 40.940624Q356.17188 40.940624 357.51562 42.346874Q358.875 43.753124 358.875 46.221874Q358.875 48.221874 358.28125 49.378124Q357.6875 50.51875 356.53125 51.159374Q355.39062 51.784374 354.03125 51.784374Q351.84375 51.784374 350.5 50.39375Q349.17188 48.9875 349.17188 46.3625ZM350.96875 46.3625Q350.96875 48.3625 351.82812 49.346874Q352.70312 50.33125 354.03125 50.33125Q355.34375 50.33125 356.20312 49.346874Q357.07812 48.346874 357.07812 46.3Q357.07812 44.378124 356.20312 43.39375Q355.32812 42.39375 354.03125 42.39375Q352.70312 42.39375 351.82812 43.39375Q350.96875 44.378124 350.96875 46.3625ZM360.8125 51.55L360.8125 41.175L362.40625 41.175L362.40625 42.659374Q363.54688 40.940624 365.70312 40.940624Q366.64062 40.940624 367.42188 41.284374Q368.21875 41.6125 368.60938 42.159374Q369.0 42.70625 369.15625 43.45625Q369.25 43.95625 369.25 45.175L369.25 51.55L367.48438 51.55L367.48438 45.2375Q367.48438 44.159374 367.28125 43.628124Q367.07812 43.096874 366.54688 42.784374Q366.03125 42.471874 365.32812 42.471874Q364.20312 42.471874 363.39062 43.190624Q362.57812 43.89375 362.57812 45.878124L362.57812 51.55L360.8125 51.55ZM375.6875 51.55L375.6875 38.925L370.96875 38.925L370.96875 37.2375L382.3125 37.2375L382.3125 38.925L377.57812 38.925L377.57812 51.55L375.6875 51.55ZM390.59375 50.26875Q389.60938 51.096874 388.70312 51.440624Q387.79688 51.784374 386.76562 51.784374Q385.0625 51.784374 384.14062 50.95625Q383.21875 50.1125 383.21875 48.815624Q383.21875 48.05 383.5625 47.425Q383.92188 46.8 384.48438 46.425Q385.04688 46.034374 385.75 45.83125Q386.26562 45.70625 387.3125 45.565624Q389.4375 45.315624 390.4375 44.971874Q390.45312 44.6125 390.45312 44.503124Q390.45312 43.440624 389.95312 42.9875Q389.28125 42.39375 387.95312 42.39375Q386.70312 42.39375 386.10938 42.83125Q385.53125 43.26875 385.25 44.378124L383.53125 44.14375Q383.76562 43.034374 384.29688 42.3625Q384.82812 41.675 385.84375 41.315624Q386.85938 40.940624 388.20312 40.940624Q389.53125 40.940624 390.35938 41.253124Q391.1875 41.565624 391.57812 42.05Q391.96875 42.51875 392.125 43.2375Q392.21875 43.690624 392.21875 44.8625L392.21875 47.20625Q392.21875 49.659374 392.32812 50.315624Q392.4375 50.95625 392.78125 51.55L390.9375 51.55Q390.67188 51.003124 390.59375 50.26875ZM390.4375 46.346874Q389.48438 46.7375 387.5625 47.003124Q386.48438 47.159374 386.03125 47.3625Q385.59375 47.55 385.34375 47.925Q385.09375 48.3 385.09375 48.76875Q385.09375 49.471874 385.625 49.940624Q386.15625 50.409374 387.1875 50.409374Q388.20312 50.409374 388.98438 49.971874Q389.78125 49.51875 390.15625 48.753124Q390.4375 48.14375 390.4375 46.9875L390.4375 46.346874ZM396.4375 51.55L394.8125 51.55L394.8125 37.2375L396.5625 37.2375L396.5625 42.346874Q397.6875 40.940624 399.40625 40.940624Q400.35938 40.940624 401.21875 41.33125Q402.07812 41.721874 402.625 42.425Q403.17188 43.1125 403.48438 44.096874Q403.79688 45.08125 403.79688 46.20625Q403.79688 48.878124 402.48438 50.33125Q401.17188 51.784374 399.32812 51.784374Q397.48438 51.784374 396.4375 50.253124L396.4375 51.55ZM396.42188 46.284374Q396.42188 48.14375 396.92188 48.9875Q397.76562 50.33125 399.17188 50.33125Q400.32812 50.33125 401.15625 49.33125Q402.0 48.33125 402.0 46.346874Q402.0 44.315624 401.1875 43.3625Q400.39062 42.39375 399.25 42.39375Q398.09375 42.39375 397.25 43.39375Q396.42188 44.39375 396.42188 46.284374ZM405.78125 51.55L405.78125 37.2375L407.53125 37.2375L407.53125 51.55L405.78125 51.55ZM416.92188 48.20625L418.73438 48.440624Q418.3125 50.01875 417.14062 50.909374Q415.98438 51.784374 414.17188 51.784374Q411.90625 51.784374 410.5625 50.39375Q409.23438 48.9875 409.23438 46.45625Q409.23438 43.83125 410.57812 42.39375Q411.92188 40.940624 414.07812 40.940624Q416.15625 40.940624 417.46875 42.3625Q418.79688 43.76875 418.79688 46.346874Q418.79688 46.503124 418.78125 46.815624L411.04688 46.815624Q411.14062 48.51875 412.01562 49.425Q412.89062 50.33125 414.1875 50.33125Q415.15625 50.33125 415.82812 49.83125Q416.51562 49.315624 416.92188 48.20625ZM411.14062 45.3625L416.9375 45.3625Q416.82812 44.065624 416.28125 43.409374Q415.4375 42.39375 414.09375 42.39375Q412.89062 42.39375 412.0625 43.20625Q411.23438 44.003124 411.14062 45.3625Z" fill-rule="nonzero"/><path fill="#ea4335" d="M441.5 38.55L446.69617 47.55L436.30383 47.55Z" fill-rule="nonzero"/><path fill="#1a1a1a" d="M457.07812 51.55L457.07812 37.2375L463.42188 37.2375Q465.32812 37.2375 466.32812 37.628124Q467.32812 38.003124 467.92188 38.9875Q468.51562 39.95625 468.51562 41.14375Q468.51562 42.659374 467.53125 43.70625Q466.54688 44.753124 464.48438 45.034374Q465.23438 45.39375 465.625 45.753124Q466.45312 46.503124 467.20312 47.659374L469.6875 51.55L467.3125 51.55L465.40625 48.565624Q464.57812 47.284374 464.04688 46.596874Q463.51562 45.909374 463.07812 45.64375Q462.65625 45.3625 462.21875 45.253124Q461.89062 45.190624 461.17188 45.190624L458.96875 45.190624L458.96875 51.55L457.07812 51.55ZM458.96875 43.55L463.04688 43.55Q464.34375 43.55 465.0625 43.284374Q465.79688 43.01875 466.17188 42.425Q466.5625 41.83125 466.5625 41.14375Q466.5625 40.128124 465.82812 39.471874Q465.09375 38.815624 463.5 38.815624L458.96875 38.815624L458.96875 43.55ZM477.59375 50.26875Q476.60938 51.096874 475.70312 51.440624Q474.79688 51.784374 473.76562 51.784374Q472.0625 51.784374 471.14062 50.95625Q470.21875 50.1125 470.21875 48.815624Q470.21875 48.05 470.5625 47.425Q470.92188 46.8 471.48438 46.425Q472.04688 46.034374 472.75 45.83125Q473.26562 45.70625 474.3125 45.565624Q476.4375 45.315624 477.4375 44.971874Q477.45312 44.6125 477.45312 44.503124Q477.45312 43.440624 476.95312 42.9875Q476.28125 42.39375 474.95312 42.39375Q473.70312 42.39375 473.10938 42.83125Q472.53125 43.26875 472.25 44.378124L470.53125 44.14375Q470.76562 43.034374 471.29688 42.3625Q471.82812 41.675 472.84375 41.315624Q473.85938 40.940624 475.20312 40.940624Q476.53125 40.940624 477.35938 41.253124Q478.1875 41.565624 478.57812 42.05Q478.96875 42.51875 479.125 43.2375Q479.21875 43.690624 479.21875 44.8625L479.21875 47.20625Q479.21875 49.659374 479.32812 50.315624Q479.4375 50.95625 479.78125 51.55L477.9375 51.55Q477.67188 51.003124 477.59375 50.26875ZM477.4375 46.346874Q476.48438 46.7375 474.5625 47.003124Q473.48438 47.159374 473.03125 47.3625Q472.59375 47.55 472.34375 47.925Q472.09375 48.3 472.09375 48.76875Q472.09375 49.471874 472.625 49.940624Q473.15625 50.409374 474.1875 50.409374Q475.20312 50.409374 475.98438 49.971874Q476.78125 49.51875 477.15625 48.753124Q477.4375 48.14375 477.4375 46.9875L477.4375 46.346874ZM488.59375 47.753124L490.3125 47.971874Q490.03125 49.76875 488.85938 50.784374Q487.70312 51.784374 486.0 51.784374Q483.875 51.784374 482.57812 50.39375Q481.28125 49.003124 481.28125 46.409374Q481.28125 44.721874 481.82812 43.471874Q482.39062 42.20625 483.53125 41.58125Q484.67188 40.940624 486.01562 40.940624Q487.70312 40.940624 488.76562 41.8Q489.84375 42.659374 490.15625 44.221874L488.4375 44.4875Q488.20312 43.440624 487.57812 42.925Q486.95312 42.39375 486.07812 42.39375Q484.75 42.39375 483.92188 43.346874Q483.09375 44.3 483.09375 46.346874Q483.09375 48.440624 483.89062 49.39375Q484.6875 50.33125 485.98438 50.33125Q487.01562 50.33125 487.70312 49.70625Q488.40625 49.065624 488.59375 47.753124ZM498.92188 48.20625L500.73438 48.440624Q500.3125 50.01875 499.14062 50.909374Q497.98438 51.784374 496.17188 51.784374Q493.90625 51.784374 492.5625 50.39375Q491.23438 48.9875 491.23438 46.45625Q491.23438 43.83125 492.57812 42.39375Q493.92188 40.940624 496.07812 40.940624Q498.15625 40.940624 499.46875 42.3625Q500.79688 43.76875 500.79688 46.346874Q500.79688 46.503124 500.78125 46.815624L493.04688 46.815624Q493.14062 48.51875 494.01562 49.425Q494.89062 50.33125 496.1875 50.33125Q497.15625 50.33125 497.82812 49.83125Q498.51562 49.315624 498.92188 48.20625ZM493.14062 45.3625L498.9375 45.3625Q498.82812 44.065624 498.28125 43.409374Q497.4375 42.39375 496.09375 42.39375Q494.89062 42.39375 494.0625 43.20625Q493.23438 44.003124 493.14062 45.3625ZM506.6875 51.55L506.6875 38.925L501.96875 38.925L501.96875 37.2375L513.3125 37.2375L513.3125 38.925L508.57812 38.925L508.57812 51.55L506.6875 51.55ZM521.59375 50.26875Q520.6094 51.096874 519.7031 51.440624Q518.7969 51.784374 517.7656 51.784374Q516.0625 51.784374 515.1406 50.95625Q514.21875 50.1125 514.21875 48.815624Q514.21875 48.05 514.5625 47.425Q514.9219 46.8 515.4844 46.425Q516.0469 46.034374 516.75 45.83125Q517.2656 45.70625 518.3125 45.565624Q520.4375 45.315624 521.4375 44.971874Q521.4531 44.6125 521.4531 44.503124Q521.4531 43.440624 520.9531 42.9875Q520.28125 42.39375 518.9531 42.39375Q517.7031 42.39375 517.1094 42.83125Q516.53125 43.26875 516.25 44.378124L514.53125 44.14375Q514.7656 43.034374 515.2969 42.3625Q515.8281 41.675 516.84375 41.315624Q517.8594 40.940624 519.2031 40.940624Q520.53125 40.940624 521.3594 41.253124Q522.1875 41.565624 522.5781 42.05Q522.96875 42.51875 523.125 43.2375Q523.21875 43.690624 523.21875 44.8625L523.21875 47.20625Q523.21875 49.659374 523.3281 50.315624Q523.4375 50.95625 523.78125 51.55L521.9375 51.55Q521.6719 51.003124 521.59375 50.26875ZM521.4375 46.346874Q520.4844 46.7375 518.5625 47.003124Q517.4844 47.159374 517.03125 47.3625Q516.59375 47.55 516.34375 47.925Q516.09375 48.3 516.09375 48.76875Q516.09375 49.471874 516.625 49.940624Q517.15625 50.409374 518.1875 50.409374Q519.2031 50.409374 519.9844 49.971874Q520.78125 49.51875 521.15625 48.753124Q521.4375 48.14375 521.4375 46.9875L521.4375 46.346874ZM527.4375 51.55L525.8125 51.55L525.8125 37.2375L527.5625 37.2375L527.5625 42.346874Q528.6875 40.940624 530.40625 40.940624Q531.3594 40.940624 532.21875 41.33125Q533.0781 41.721874 533.625 42.425Q534.1719 43.1125 534.4844 44.096874Q534.7969 45.08125 534.7969 46.20625Q534.7969 48.878124 533.4844 50.33125Q532.1719 51.784374 530.3281 51.784374Q528.4844 51.784374 527.4375 50.253124L527.4375 51.55ZM527.4219 46.284374Q527.4219 48.14375 527.9219 48.9875Q528.7656 50.33125 530.1719 50.33125Q531.3281 50.33125 532.15625 49.33125Q533.0 48.33125 533.0 46.346874Q533.0 44.315624 532.1875 43.3625Q531.3906 42.39375 530.25 42.39375Q529.09375 42.39375 528.25 43.39375Q527.4219 44.39375 527.4219 46.284374ZM536.78125 51.55L536.78125 37.2375L538.53125 37.2375L538.53125 51.55L536.78125 51.55ZM547.9219 48.20625L549.7344 48.440624Q549.3125 50.01875 548.1406 50.909374Q546.9844 51.784374 545.1719 51.784374Q542.90625 51.784374 541.5625 50.39375Q540.2344 48.9875 540.2344 46.45625Q540.2344 43.83125 541.5781 42.39375Q542.9219 40.940624 545.0781 40.940624Q547.15625 40.940624 548.46875 42.3625Q549.7969 43.76875 549.7969 46.346874Q549.7969 46.503124 549.78125 46.815624L542.0469 46.815624Q542.1406 48.51875 543.0156 49.425Q543.8906 50.33125 545.1875 50.33125Q546.15625 50.33125 546.8281 49.83125Q547.5156 49.315624 547.9219 48.20625ZM542.1406 45.3625L547.9375 45.3625Q547.8281 44.065624 547.28125 43.409374Q546.4375 42.39375 545.09375 42.39375Q543.8906 42.39375 543.0625 43.20625Q542.2344 44.003124 542.1406 45.3625Z" fill-rule="nonzero"/><path fill="#fbbc04" d="M568.2574 40.307358L576.7426 40.307358L576.7426 48.79264L568.2574 48.79264Z" fill-rule="nonzero"/><path fill="#1a1a1a" d="M586.46875 51.55L591.96875 37.2375L594.0156 37.2375L599.875 51.55L597.71875 51.55L596.0469 47.20625L590.0625 47.20625L588.4844 51.55L586.46875 51.55ZM590.6094 45.675L595.4531 45.675L593.96875 41.70625Q593.28125 39.89375 592.9531 38.7375Q592.6719 40.1125 592.1719 41.471874L590.6094 45.675ZM600.5 52.409374L602.2031 52.659374Q602.3125 53.45625 602.7969 53.815624Q603.4531 54.3 604.59375 54.3Q605.8125 54.3 606.46875 53.815624Q607.1406 53.33125 607.375 52.45625Q607.5156 51.909374 607.5 50.190624Q606.34375 51.55 604.625 51.55Q602.4844 51.55 601.3125 50.003124Q600.1406 48.45625 600.1406 46.3Q600.1406 44.815624 600.6719 43.565624Q601.21875 42.315624 602.2344 41.628124Q603.2656 40.940624 604.6406 40.940624Q606.46875 40.940624 607.6719 42.425L607.6719 41.175L609.28125 41.175L609.28125 50.14375Q609.28125 52.565624 608.78125 53.565624Q608.2969 54.58125 607.21875 55.159374Q606.15625 55.753124 604.59375 55.753124Q602.75 55.753124 601.59375 54.925Q600.4531 54.096874 600.5 52.409374ZM601.9531 46.175Q601.9531 48.221874 602.7656 49.159374Q603.5781 50.096874 604.7969 50.096874Q606.0 50.096874 606.8125 49.159374Q607.6406 48.221874 607.6406 46.2375Q607.6406 44.33125 606.7969 43.3625Q605.9531 42.39375 604.7656 42.39375Q603.59375 42.39375 602.7656 43.346874Q601.9531 44.3 601.9531 46.175ZM618.9219 48.20625L620.7344 48.440624Q620.3125 50.01875 619.1406 50.909374Q617.9844 51.784374 616.1719 51.784374Q613.90625 51.784374 612.5625 50.39375Q611.2344 48.9875 611.2344 46.45625Q611.2344 43.83125 612.5781 42.39375Q613.9219 40.940624 616.0781 40.940624Q618.15625 40.940624 619.46875 42.3625Q620.7969 43.76875 620.7969 46.346874Q620.7969 46.503124 620.78125 46.815624L613.0469 46.815624Q613.1406 48.51875 614.0156 49.425Q614.8906 50.33125 616.1875 50.33125Q617.15625 50.33125 617.8281 49.83125Q618.5156 49.315624 618.9219 48.20625ZM613.1406 45.3625L618.9375 45.3625Q618.8281 44.065624 618.28125 43.409374Q617.4375 42.39375 616.09375 42.39375Q614.8906 42.39375 614.0625 43.20625Q613.2344 44.003124 613.1406 45.3625ZM626.6875 51.55L626.6875 38.925L621.96875 38.925L621.96875 37.2375L633.3125 37.2375L633.3125 38.925L628.5781 38.925L628.5781 51.55L626.6875 51.55ZM641.59375 50.26875Q640.6094 51.096874 639.7031 51.440624Q638.7969 51.784374 637.7656 51.784374Q636.0625 51.784374 635.1406 50.95625Q634.21875 50.1125 634.21875 48.815624Q634.21875 48.05 634.5625 47.425Q634.9219 46.8 635.4844 46.425Q636.0469 46.034374 636.75 45.83125Q637.2656 45.70625 638.3125 45.565624Q640.4375 45.315624 641.4375 44.971874Q641.4531 44.6125 641.4531 44.503124Q641.4531 43.440624 640.9531 42.9875Q640.28125 42.39375 638.9531 42.39375Q637.7031 42.39375 637.1094 42.83125Q636.53125 43.26875 636.25 44.378124L634.53125 44.14375Q634.7656 43.034374 635.2969 42.3625Q635.8281 41.675 636.84375 41.315624Q637.8594 40.940624 639.2031 40.940624Q640.53125 40.940624 641.3594 41.253124Q642.1875 41.565624 642.5781 42.05Q642.96875 42.51875 643.125 43.2375Q643.21875 43.690624 643.21875 44.8625L643.21875 47.20625Q643.21875 49.659374 643.3281 50.315624Q643.4375 50.95625 643.78125 51.55L641.9375 51.55Q641.6719 51.003124 641.59375 50.26875ZM641.4375 46.346874Q640.4844 46.7375 638.5625 47.003124Q637.4844 47.159374 637.03125 47.3625Q636.59375 47.55 636.34375 47.925Q636.09375 48.3 636.09375 48.76875Q636.09375 49.471874 636.625 49.940624Q637.15625 50.409374 638.1875 50.409374Q639.2031 50.409374 639.9844 49.971874Q640.78125 49.51875 641.15625 48.753124Q641.4375 48.14375 641.4375 46.9875L641.4375 46.346874ZM647.4375 51.55L645.8125 51.55L645.8125 37.2375L647.5625 37.2375L647.5625 42.346874Q648.6875 40.940624 650.40625 40.940624Q651.3594 40.940624 652.21875 41.33125Q653.0781 41.721874 653.625 42.425Q654.1719 43.1125 654.4844 44.096874Q654.7969 45.08125 654.7969 46.20625Q654.7969 48.878124 653.4844 50.33125Q652.1719 51.784374 650.3281 51.784374Q648.4844 51.784374 647.4375 50.253124L647.4375 51.55ZM647.4219 46.284374Q647.4219 48.14375 647.9219 48.9875Q648.7656 50.33125 650.1719 50.33125Q651.3281 50.33125 652.15625 49.33125Q653.0 48.33125 653.0 46.346874Q653.0 44.315624 652.1875 43.3625Q651.3906 42.39375 650.25 42.39375Q649.09375 42.39375 648.25 43.39375Q647.4219 44.39375 647.4219 46.284374ZM656.78125 51.55L656.78125 37.2375L658.53125 37.2375L658.53125 51.55L656.78125 51.55ZM667.9219 48.20625L669.7344 48.440624Q669.3125 50.01875 668.1406 50.909374Q666.9844 51.784374 665.1719 51.784374Q662.90625 51.784374 661.5625 50.39375Q660.2344 48.9875 660.2344 46.45625Q660.2344 43.83125 661.5781 42.39375Q662.9219 40.940624 665.0781 40.940624Q667.15625 40.940624 668.46875 42.3625Q669.7969 43.76875 669.7969 46.346874Q669.7969 46.503124 669.78125 46.815624L662.0469 46.815624Q662.1406 48.51875 663.0156 49.425Q663.8906 50.33125 665.1875 50.33125Q666.15625 50.33125 666.8281 49.83125Q667.5156 49.315624 667.9219 48.20625ZM662.1406 45.3625L667.9375 45.3625Q667.8281 44.065624 667.28125 43.409374Q666.4375 42.39375 665.09375 42.39375Q663.8906 42.39375 663.0625 43.20625Q662.2344 44.003124 662.1406 45.3625Z" fill-rule="nonzero"/><path fill="#34a853" d="M692.5 38.55L693.8471 42.695896L698.20636 42.695896L694.6796 45.258205L696.02673 49.404102L692.5 46.841797L688.97327 49.404102L690.3204 45.258205L686.79364 42.695896L691.1529 42.695896Z" fill-rule="nonzero"/><path fill="#1a1a1a" d="M707.40625 46.95625L709.1875 46.8Q709.3125 47.8625 709.7656 48.55Q710.2344 49.2375 711.2031 49.675Q712.1875 50.096874 713.4219 50.096874Q714.5 50.096874 715.3281 49.784374Q716.15625 49.45625 716.5625 48.89375Q716.96875 48.33125 716.96875 47.659374Q716.96875 46.9875 716.5781 46.4875Q716.1875 45.9875 715.2969 45.64375Q714.71875 45.409374 712.7344 44.940624Q710.7656 44.471874 709.9844 44.05Q708.9531 43.51875 708.4531 42.721874Q707.9531 41.925 707.9531 40.940624Q707.9531 39.846874 708.5625 38.909374Q709.1719 37.971874 710.3594 37.4875Q711.5469 36.9875 712.9844 36.9875Q714.5781 36.9875 715.7969 37.503124Q717.0156 38.01875 717.65625 39.01875Q718.3125 40.003124 718.3594 41.26875L716.5469 41.409374Q716.40625 40.05 715.5625 39.3625Q714.71875 38.659374 713.0625 38.659374Q711.34375 38.659374 710.5469 39.3Q709.7656 39.925 709.7656 40.8Q709.7656 41.58125 710.3281 42.08125Q710.875 42.58125 713.1875 43.096874Q715.5 43.6125 716.3594 44.003124Q717.6094 44.58125 718.2031 45.471874Q718.7969 46.346874 718.7969 47.503124Q718.7969 48.64375 718.1406 49.659374Q717.4844 50.675 716.25 51.2375Q715.03125 51.8 713.5 51.8Q711.5625 51.8 710.25 51.2375Q708.9375 50.659374 708.1875 49.51875Q707.4375 48.378124 707.40625 46.95625ZM727.9219 48.20625L729.7344 48.440624Q729.3125 50.01875 728.1406 50.909374Q726.9844 51.784374 725.1719 51.784374Q722.90625 51.784374 721.5625 50.39375Q720.2344 48.9875 720.2344 46.45625Q720.2344 43.83125 721.5781 42.39375Q722.9219 40.940624 725.0781 40.940624Q727.15625 40.940624 728.46875 42.3625Q729.7969 43.76875 729.7969 46.346874Q729.7969 46.503124 729.78125 46.815624L722.0469 46.815624Q722.1406 48.51875 723.0156 49.425Q723.8906 50.33125 725.1875 50.33125Q726.15625 50.33125 726.8281 49.83125Q727.5156 49.315624 727.9219 48.20625ZM722.1406 45.3625L727.9375 45.3625Q727.8281 44.065624 727.28125 43.409374Q726.4375 42.39375 725.09375 42.39375Q723.8906 42.39375 723.0625 43.20625Q722.2344 44.003124 722.1406 45.3625ZM730.6406 51.55L734.4375 46.159374L730.9375 41.175L733.125 41.175L734.71875 43.6125Q735.1719 44.3 735.4375 44.76875Q735.875 44.128124 736.2344 43.628124L737.9844 41.175L740.0781 41.175L736.5 46.065624L740.3594 51.55L738.2031 51.55L736.0625 48.33125L735.5 47.45625L732.78125 51.55L730.6406 51.55ZM745.6875 51.55L745.6875 38.925L740.96875 38.925L740.96875 37.2375L752.3125 37.2375L752.3125 38.925L747.5781 38.925L747.5781 51.55L745.6875 51.55ZM760.59375 50.26875Q759.6094 51.096874 758.7031 51.440624Q757.7969 51.784374 756.7656 51.784374Q755.0625 51.784374 754.1406 50.95625Q753.21875 50.1125 753.21875 48.815624Q753.21875 48.05 753.5625 47.425Q753.9219 46.8 754.4844 46.425Q755.0469 46.034374 755.75 45.83125Q756.2656 45.70625 757.3125 45.565624Q759.4375 45.315624 760.4375 44.971874Q760.4531 44.6125 760.4531 44.503124Q760.4531 43.440624 759.9531 42.9875Q759.28125 42.39375 757.9531 42.39375Q756.7031 42.39375 756.1094 42.83125Q755.53125 43.26875 755.25 44.378124L753.53125 44.14375Q753.7656 43.034374 754.2969 42.3625Q754.8281 41.675 755.84375 41.315624Q756.8594 40.940624 758.2031 40.940624Q759.53125 40.940624 760.3594 41.253124Q761.1875 41.565624 761.5781 42.05Q761.96875 42.51875 762.125 43.2375Q762.21875 43.690624 762.21875 44.8625L762.21875 47.20625Q762.21875 49.659374 762.3281 50.315624Q762.4375 50.95625 762.78125 51.55L760.9375 51.55Q760.6719 51.003124 760.59375 50.26875ZM760.4375 46.346874Q759.4844 46.7375 757.5625 47.003124Q756.4844 47.159374 756.03125 47.3625Q755.59375 47.55 755.34375 47.925Q755.09375 48.3 755.09375 48.76875Q755.09375 49.471874 755.625 49.940624Q756.15625 50.409374 757.1875 50.409374Q758.2031 50.409374 758.9844 49.971874Q759.78125 49.51875 760.15625 48.753124Q760.4375 48.14375 760.4375 46.9875L760.4375 46.346874ZM766.4375 51.55L764.8125 51.55L764.8125 37.2375L766.5625 37.2375L766.5625 42.346874Q767.6875 40.940624 769.40625 40.940624Q770.3594 40.940624 771.21875 41.33125Q772.0781 41.721874 772.625 42.425Q773.1719 43.1125 773.4844 44.096874Q773.7969 45.08125 773.7969 46.20625Q773.7969 48.878124 772.4844 50.33125Q771.1719 51.784374 769.3281 51.784374Q767.4844 51.784374 766.4375 50.253124L766.4375 51.55ZM766.4219 46.284374Q766.4219 48.14375 766.9219 48.9875Q767.7656 50.33125 769.1719 50.33125Q770.3281 50.33125 771.15625 49.33125Q772.0 48.33125 772.0 46.346874Q772.0 44.315624 771.1875 43.3625Q770.3906 42.39375 769.25 42.39375Q768.09375 42.39375 767.25 43.39375Q766.4219 44.39375 766.4219 46.284374ZM775.78125 51.55L775.78125 37.2375L777.53125 37.2375L777.53125 51.55L775.78125 51.55ZM786.9219 48.20625L788.7344 48.440624Q788.3125 50.01875 787.1406 50.909374Q785.9844 51.784374 784.1719 51.784374Q781.90625 51.784374 780.5625 50.39375Q779.2344 48.9875 779.2344 46.45625Q779.2344 43.83125 780.5781 42.39375Q781.9219 40.940624 784.0781 40.940624Q786.15625 40.940624 787.46875 42.3625Q788.7969 43.76875 788.7969 46.346874Q788.7969 46.503124 788.78125 46.815624L781.0469 46.815624Q781.1406 48.51875 782.0156 49.425Q782.8906 50.33125 784.1875 50.33125Q785.15625 50.33125 785.8281 49.83125Q786.5156 49.315624 786.9219 48.20625ZM781.1406 45.3625L786.9375 45.3625Q786.8281 44.065624 786.28125 43.409374Q785.4375 42.39375 784.09375 42.39375Q782.8906 42.39375 782.0625 43.20625Q781.2344 44.003124 781.1406 45.3625Z" fill-rule="nonzero"/></svg>