<svg version="1.1" viewBox="0.0 0.0 1052.0 651.0" fill="none" stroke="none" stroke-linecap="square" stroke-miterlimit="10" width="1052" height="651" xmlns:xlink="http://www.w3.org/1999/xlink" xmlns="http://www.w3.org/2000/svg"><path fill="#ffffff" d="M0 0L1052.0 0L1052.0 651.0L0 651.0L0 0Z" fill-rule="nonzero"/><path stroke="#333333" stroke-width="1.0" stroke-linecap="butt" d="M134.5 85.5L134.5 534.5" fill-rule="nonzero"/><path stroke="#cccccc" stroke-width="1.0" stroke-linecap="butt" d="M352.5 85.5L352.5 534.5" fill-rule="nonzero"/><path stroke="#cccccc" stroke-width="1.0" stroke-linecap="butt" d="M570.5 85.5L570.5 534.5" fill-rule="nonzero"/><path stroke="#cccccc" stroke-width="1.0" stroke-linecap="butt" d="M787.5 85.5L787.5 534.5" fill-rule="nonzero"/><path stroke="#cccccc" stroke-width="1.0" stroke-linecap="butt" d="M1005.5 85.5L1005.5 534.5" fill-rule="nonzero"/><path stroke="#cccccc" stroke-width="1.0" stroke-linecap="butt" d="M134.5 534.5L1019.5 534.5" fill-rule="nonzero"/><path stroke="#cccccc" stroke-width="1.0" stroke-linecap="butt" d="M134.5 422.5L1019.5 422.5" fill-rule="nonzero"/><path stroke="#cccccc" stroke-width="1.0" stroke-linecap="butt" d="M134.5 309.5L1019.5 309.5" fill-rule="nonzero"/><path stroke="#cccccc" stroke-width="1.0" stroke-linecap="butt" d="M134.5 197.5L1019.5 197.5" fill-rule="nonzero"/><path stroke="#cccccc" stroke-width="1.0" stroke-linecap="butt" d="M134.5 85.5L1019.5 85.5" fill-rule="nonzero"/><path stroke="#000000" stroke-width="1.0" stroke-linecap="butt" stroke-opacity="0.0" d="M134.5 497.5L1019.5 497.5" fill-rule="nonzero"/><path stroke="#000000" stroke-width="1.0" stroke-linecap="butt" stroke-opacity="0.0" d="M134.5 459.5L1019.5 459.5" fill-rule="nonzero"/><path stroke="#000000" stroke-width="1.0" stroke-linecap="butt" stroke-opacity="0.0" d="M134.5 384.5L1019.5 384.5" fill-rule="nonzero"/><path stroke="#000000" stroke-width="1.0" stroke-linecap="butt" stroke-opacity="0.0" d="M134.5 347.5L1019.5 347.5" fill-rule="nonzero"/><path stroke="#000000" stroke-width="1.0" stroke-linecap="butt" stroke-opacity="0.0" d="M134.5 272.5L1019.5 272.5" fill-rule="nonzero"/><path stroke="#000000" stroke-width="1.0" stroke-linecap="butt" stroke-opacity="0.0" d="M134.5 234.5L1019.5 234.5" fill-rule="nonzero"/><path stroke="#000000" stroke-width="1.0" stroke-linecap="butt" stroke-opacity="0.0" d="M134.5 160.5L1019.5 160.5" fill-rule="nonzero"/><path stroke="#000000" stroke-width="1.0" stroke-linecap="butt" stroke-opacity="0.0" d="M134.5 122.5L1019.5 122.5" fill-rule="nonzero"/><clipPath id="id_0"><path d="M134.55 85.25L1019.45 85.25L1019.45 534.45L134.55 534.45L134.55 85.25Z" clip-rule="nonzero"/></clipPath><path stroke="#4285f4" stroke-width="2.0" stroke-linecap="butt" clip-path="url(#id_0)" d="M308.77362 223.04224L482.99722 277.09946L657.2208 302.86908L831.44446 341.41324L1005.668 373.4076" fill-rule="nonzero"/><path stroke="#ea4335" stroke-width="4.0" stroke-linecap="butt" clip-path="url(#id_0)" d="M308.77362 354.70114L482.99722 353.5029L657.2208 351.49402L831.44446 343.69092L1005.668 351.04657" fill-rule="nonzero"/><path stroke="#fbbc04" stroke-width="2.0" stroke-linecap="butt" clip-path="url(#id_0)" d="M308.77362 343.8537L482.99722 357.15634L657.2208 351.51703L831.44446 357.15884L1005.668 352.01312" fill-rule="nonzero"/><path stroke="#34a853" stroke-width="2.0" stroke-linecap="butt" clip-path="url(#id_0)" d="M308.77362 126.42678L482.99722 142.21188L657.2208 126.72439L831.44446 140.47441L1005.668 163.10619" fill-rule="nonzero"/><path fill="#4285f4" clip-path="url(#id_0)" d="M314.77362 223.04224C314.77362 226.35594 312.0873 229.04224 308.77362 229.04224C305.4599 229.04224 302.77362 226.35594 302.77362 223.04224C302.77362 219.72852 305.4599 217.04224 308.77362 217.04224C312.0873 217.04224 314.77362 219.72852 314.77362 223.04224Z" fill-rule="nonzero"/><path fill="#4285f4" clip-path="url(#id_0)" d="M488.99722 277.09946C488.99722 280.41318 486.3109 283.09946 482.99722 283.09946C479.6835 283.09946 476.99722 280.41318 476.99722 277.09946C476.99722 273.78574 479.6835 271.09946 482.99722 271.09946C486.3109 271.09946 488.99722 273.78574 488.99722 277.09946Z" fill-rule="nonzero"/><path fill="#4285f4" clip-path="url(#id_0)" d="M663.2208 302.86908C663.2208 306.18277 660.53455 308.86908 657.2208 308.86908C653.9071 308.86908 651.2208 306.18277 651.2208 302.86908C651.2208 299.55536 653.9071 296.86908 657.2208 296.86908C660.53455 296.86908 663.2208 299.55536 663.2208 302.86908Z" fill-rule="nonzero"/><path fill="#4285f4" clip-path="url(#id_0)" d="M837.44446 341.41324C837.44446 344.72696 834.7581 347.41324 831.44446 347.41324C828.13074 347.41324 825.44446 344.72696 825.44446 341.41324C825.44446 338.09952 828.13074 335.41324 831.44446 335.41324C834.7581 335.41324 837.44446 338.09952 837.44446 341.41324Z" fill-rule="nonzero"/><path fill="#4285f4" clip-path="url(#id_0)" d="M1011.668 373.4076C1011.668 376.7213 1008.98175 379.4076 1005.668 379.4076C1002.3543 379.4076 999.668 376.7213 999.668 373.4076C999.668 370.09387 1002.3543 367.4076 1005.668 367.4076C1008.98175 367.4076 1011.668 370.09387 1011.668 373.4076Z" fill-rule="nonzero"/><path fill="#ea4335" clip-path="url(#id_0)" d="M308.77362 346.70114L315.7018 358.70114L301.8454 358.70114Z" fill-rule="nonzero"/><path fill="#ea4335" clip-path="url(#id_0)" d="M482.99722 345.5029L489.9254 357.5029L476.069 357.5029Z" fill-rule="nonzero"/><path fill="#ea4335" clip-path="url(#id_0)" d="M657.2208 343.49402L664.14905 355.49402L650.2926 355.49402Z" fill-rule="nonzero"/><path fill="#ea4335" clip-path="url(#id_0)" d="M831.44446 335.69092L838.3726 347.69092L824.51624 347.69092Z" fill-rule="nonzero"/><path fill="#ea4335" clip-path="url(#id_0)" d="M1005.668 343.04657L1012.59625 355.04657L998.73987 355.04657Z" fill-rule="nonzero"/><path fill="#fbbc04" clip-path="url(#id_0)" d="M304.53098 339.61105L313.01624 339.61105L313.01624 348.09634L304.53098 348.09634Z" fill-rule="nonzero"/><path fill="#fbbc04" clip-path="url(#id_0)" d="M478.75458 352.9137L487.23987 352.9137L487.23987 361.399L478.75458 361.399Z" fill-rule="nonzero"/><path fill="#fbbc04" clip-path="url(#id_0)" d="M652.9782 347.27438L661.46344 347.27438L661.46344 355.75967L652.9782 355.75967Z" fill-rule="nonzero"/><path fill="#fbbc04" clip-path="url(#id_0)" d="M827.2018 352.9162L835.6871 352.9162L835.6871 361.4015L827.2018 361.4015Z" fill-rule="nonzero"/><path fill="#fbbc04" clip-path="url(#id_0)" d="M1001.4254 347.77048L1009.9107 347.77048L1009.9107 356.25577L1001.4254 356.25577Z" fill-rule="nonzero"/><path fill="#34a853" clip-path="url(#id_0)" d="M308.77362 120.42678L310.1207 124.572685L314.47995 124.572685L310.95325 127.13499L312.30032 131.28088L308.77362 128.71858L305.2469 131.28088L306.594 127.13499L303.06726 124.572685L307.4265 124.572685Z" fill-rule="nonzero"/><path fill="#34a853" clip-path="url(#id_0)" d="M482.99722 136.21188L484.3443 140.35777L488.70355 140.35777L485.17685 142.92007L486.52393 147.06598L482.99722 144.50368L479.47052 147.06598L480.8176 142.92007L477.2909 140.35777L481.65015 140.35777Z" fill-rule="nonzero"/><path fill="#34a853" clip-path="url(#id_0)" d="M657.2208 120.72439L658.56793 124.87029L662.9272 124.87029L659.40045 127.432594L660.74756 131.57849L657.2208 129.01619L653.6941 131.57849L655.0412 127.432594L651.51447 124.87029L655.8737 124.87029Z" fill-rule="nonzero"/><path fill="#34a853" clip-path="url(#id_0)" d="M831.44446 134.47441L832.7915 138.62032L837.15076 138.62032L833.6241 141.18262L834.9711 145.32852L831.44446 142.76622L827.9177 145.32852L829.26483 141.18262L825.7381 138.62032L830.09735 138.62032Z" fill-rule="nonzero"/><path fill="#34a853" clip-path="url(#id_0)" d="M1005.668 157.10619L1007.01514 161.25209L1011.3744 161.25209L1007.84766 163.81439L1009.19476 167.9603L1005.668 165.39798L1002.14136 167.9603L1003.4884 163.81439L999.96173 161.25209L1004.321 161.25209Z" fill-rule="nonzero"/><path fill="#000000" d="M494.39062 612.45L494.39062 595.2625L502.0 595.2625Q504.29688 595.2625 505.48438 595.73126Q506.6875 596.2 507.40625 597.3719Q508.125 598.54376 508.125 599.95Q508.125 601.77814 506.9375 603.04376Q505.75 604.29376 503.28125 604.6375Q504.1875 605.0594 504.65625 605.48126Q505.65625 606.40314 506.54688 607.77814L509.53125 612.45L506.67188 612.45L504.39062 608.8719Q503.40625 607.325 502.75 606.5125Q502.10938 605.6844 501.59375 605.35626Q501.09375 605.02814 500.5625 604.90314Q500.17188 604.825 499.29688 604.825L496.65625 604.825L496.65625 612.45L494.39062 612.45ZM496.65625 602.85626L501.54688 602.85626Q503.10938 602.85626 503.98438 602.52814Q504.85938 602.2 505.3125 601.4969Q505.78125 600.79376 505.78125 599.95Q505.78125 598.73126 504.89062 597.95Q504.01562 597.16876 502.09375 597.16876L496.65625 597.16876L496.65625 602.85626ZM519.2031 610.91876Q518.03125 611.90314 516.9375 612.325Q515.8594 612.73126 514.625 612.73126Q512.5781 612.73126 511.46875 611.73126Q510.375 610.73126 510.375 609.16876Q510.375 608.2469 510.78125 607.4969Q511.20312 606.7469 511.875 606.29376Q512.5469 605.825 513.3906 605.59064Q514.0156 605.4344 515.2656 605.27814Q517.8281 604.96564 519.03125 604.54376Q519.0469 604.1219 519.0469 603.9969Q519.0469 602.71564 518.4375 602.1844Q517.6406 601.46564 516.0469 601.46564Q514.5469 601.46564 513.84375 601.9969Q513.1406 602.5125 512.7969 603.84064L510.73438 603.5594Q511.01562 602.23126 511.65625 601.41876Q512.2969 600.60626 513.5156 600.16876Q514.7344 599.71564 516.34375 599.71564Q517.9375 599.71564 518.9375 600.09064Q519.9375 600.46564 520.40625 601.04376Q520.875 601.60626 521.0625 602.48126Q521.15625 603.0125 521.15625 604.41876L521.15625 607.23126Q521.15625 610.16876 521.2969 610.95Q521.4375 611.73126 521.8281 612.45L519.625 612.45Q519.2969 611.79376 519.2031 610.91876ZM519.03125 606.2Q517.875 606.66876 515.5781 606.9969Q514.28125 607.1844 513.7344 607.41876Q513.2031 607.65314 512.90625 608.10626Q512.625 608.5594 512.625 609.10626Q512.625 609.95 513.25 610.5125Q513.8906 611.075 515.125 611.075Q516.34375 611.075 517.2969 610.54376Q518.25 610.0125 518.6875 609.09064Q519.03125 608.3719 519.03125 606.98126L519.03125 606.2ZM532.2031 607.8875L534.28125 608.15314Q533.9375 610.3094 532.53125 611.52814Q531.1406 612.73126 529.09375 612.73126Q526.5469 612.73126 524.9844 611.0594Q523.4375 609.3875 523.4375 606.27814Q523.4375 604.2625 524.1094 602.7469Q524.78125 601.23126 526.1406 600.48126Q527.5 599.71564 529.1094 599.71564Q531.1406 599.71564 532.4219 600.7469Q533.71875 601.77814 534.0781 603.65314L532.03125 603.98126Q531.7344 602.71564 530.9844 602.09064Q530.25 601.45 529.1875 601.45Q527.59375 601.45 526.59375 602.60626Q525.6094 603.7469 525.6094 606.21564Q525.6094 608.71564 526.5625 609.85626Q527.53125 610.9969 529.0781 610.9969Q530.3125 610.9969 531.1406 610.23126Q531.9844 609.46564 532.2031 607.8875ZM544.6094 608.4344L546.78125 608.71564Q546.2656 610.6219 544.875 611.6844Q543.4844 612.73126 541.3125 612.73126Q538.5781 612.73126 536.96875 611.0594Q535.375 609.3719 535.375 606.325Q535.375 603.1844 536.9844 601.45Q538.6094 599.71564 541.1875 599.71564Q543.6875 599.71564 545.2656 601.41876Q546.8594 603.1219 546.8594 606.2Q546.8594 606.3875 546.84375 606.7625L537.5625 606.7625Q537.6719 608.8094 538.71875 609.90314Q539.7656 610.9969 541.3281 610.9969Q542.4844 610.9969 543.2969 610.3875Q544.125 609.77814 544.6094 608.4344ZM537.6719 605.02814L544.625 605.02814Q544.4844 603.46564 543.8281 602.66876Q542.8281 601.45 541.21875 601.45Q539.7656 601.45 538.7656 602.4344Q537.78125 603.40314 537.6719 605.02814ZM555.5781 606.9344L557.71875 606.7469Q557.875 608.02814 558.4219 608.85626Q558.9844 609.6844 560.15625 610.2Q561.3281 610.7 562.7969 610.7Q564.09375 610.7 565.09375 610.325Q566.09375 609.9344 566.5781 609.2625Q567.0625 608.575 567.0625 607.77814Q567.0625 606.98126 566.59375 606.3719Q566.125 605.7625 565.0469 605.35626Q564.3594 605.09064 561.9844 604.52814Q559.625 603.95 558.6719 603.45Q557.4375 602.8094 556.8281 601.85626Q556.2344 600.8875 556.2344 599.71564Q556.2344 598.40314 556.96875 597.27814Q557.71875 596.15314 559.125 595.575Q560.5469 594.98126 562.28125 594.98126Q564.1875 594.98126 565.6406 595.59064Q567.1094 596.2 567.8906 597.40314Q568.6875 598.59064 568.7344 600.10626L566.5625 600.27814Q566.3906 598.6375 565.375 597.8094Q564.3594 596.98126 562.375 596.98126Q560.3125 596.98126 559.3594 597.7469Q558.4219 598.4969 558.4219 599.5594Q558.4219 600.48126 559.09375 601.075Q559.75 601.6844 562.5156 602.3094Q565.2969 602.9344 566.3281 603.40314Q567.8281 604.09064 568.53125 605.15314Q569.25 606.21564 569.25 607.59064Q569.25 608.96564 568.46875 610.1844Q567.6875 611.3875 566.21875 612.075Q564.75 612.7469 562.90625 612.7469Q560.5781 612.7469 559.0 612.075Q557.4219 611.3875 556.5156 610.02814Q555.625 608.65314 555.5781 606.9344ZM580.6094 608.4344L582.78125 608.71564Q582.2656 610.6219 580.875 611.6844Q579.4844 612.73126 577.3125 612.73126Q574.5781 612.73126 572.96875 611.0594Q571.375 609.3719 571.375 606.325Q571.375 603.1844 572.9844 601.45Q574.6094 599.71564 577.1875 599.71564Q579.6875 599.71564 581.2656 601.41876Q582.8594 603.1219 582.8594 606.2Q582.8594 606.3875 582.84375 606.7625L573.5625 606.7625Q573.6719 608.8094 574.71875 609.90314Q575.7656 610.9969 577.3281 610.9969Q578.4844 610.9969 579.2969 610.3875Q580.125 609.77814 580.6094 608.4344ZM573.6719 605.02814L580.625 605.02814Q580.4844 603.46564 579.8281 602.66876Q578.8281 601.45 577.21875 601.45Q575.7656 601.45 574.7656 602.4344Q573.78125 603.40314 573.6719 605.02814ZM585.03125 612.45L585.03125 595.2625L587.1406 595.2625L587.1406 612.45L585.03125 612.45ZM598.6094 608.4344L600.78125 608.71564Q600.2656 610.6219 598.875 611.6844Q597.4844 612.73126 595.3125 612.73126Q592.5781 612.73126 590.96875 611.0594Q589.375 609.3719 589.375 606.325Q589.375 603.1844 590.9844 601.45Q592.6094 599.71564 595.1875 599.71564Q597.6875 599.71564 599.2656 601.41876Q600.8594 603.1219 600.8594 606.2Q600.8594 606.3875 600.84375 606.7625L591.5625 606.7625Q591.6719 608.8094 592.71875 609.90314Q593.7656 610.9969 595.3281 610.9969Q596.4844 610.9969 597.2969 610.3875Q598.125 609.77814 598.6094 608.4344ZM591.6719 605.02814L598.625 605.02814Q598.4844 603.46564 597.8281 602.66876Q596.8281 601.45 595.21875 601.45Q593.7656 601.45 592.7656 602.4344Q591.78125 603.40314 591.6719 605.02814ZM611.2031 607.8875L613.28125 608.15314Q612.9375 610.3094 611.53125 611.52814Q610.1406 612.73126 608.09375 612.73126Q605.5469 612.73126 603.9844 611.0594Q602.4375 609.3875 602.4375 606.27814Q602.4375 604.2625 603.1094 602.7469Q603.78125 601.23126 605.1406 600.48126Q606.5 599.71564 608.1094 599.71564Q610.1406 599.71564 611.4219 600.7469Q612.71875 601.77814 613.0781 603.65314L611.03125 603.98126Q610.7344 602.71564 609.9844 602.09064Q609.25 601.45 608.1875 601.45Q606.59375 601.45 605.59375 602.60626Q604.6094 603.7469 604.6094 606.21564Q604.6094 608.71564 605.5625 609.85626Q606.53125 610.9969 608.0781 610.9969Q609.3125 610.9969 610.1406 610.23126Q610.9844 609.46564 611.2031 607.8875ZM619.6875 610.5594L620.0 612.41876Q619.1094 612.6219 618.40625 612.6219Q617.25 612.6219 616.6094 612.2625Q615.9844 611.8875 615.71875 611.29376Q615.46875 610.7 615.46875 608.8094L615.46875 601.6375L613.9219 601.6375L613.9219 599.9969L615.46875 599.9969L615.46875 596.91876L617.5625 595.65314L617.5625 599.9969L619.6875 599.9969L619.6875 601.6375L617.5625 601.6375L617.5625 608.91876Q617.5625 609.825 617.6719 610.09064Q617.7969 610.34064 618.0469 610.4969Q618.2969 610.6375 618.7656 610.6375Q619.1094 610.6375 619.6875 610.5594ZM622.09375 597.7L622.09375 595.2625L624.2031 595.2625L624.2031 597.7L622.09375 597.7ZM622.09375 612.45L622.09375 599.9969L624.2031 599.9969L624.2031 612.45L622.09375 612.45ZM630.5469 612.45L625.8125 599.9969L628.03125 599.9969L630.7031 607.45Q631.1406 608.66876 631.5 609.96564Q631.78125 608.98126 632.28125 607.59064L635.0469 599.9969L637.21875 599.9969L632.5156 612.45L630.5469 612.45ZM639.09375 597.7L639.09375 595.2625L641.2031 595.2625L641.2031 597.7L639.09375 597.7ZM639.09375 612.45L639.09375 599.9969L641.2031 599.9969L641.2031 612.45L639.09375 612.45ZM648.6875 610.5594L649.0 612.41876Q648.1094 612.6219 647.40625 612.6219Q646.25 612.6219 645.6094 612.2625Q644.9844 611.8875 644.71875 611.29376Q644.46875 610.7 644.46875 608.8094L644.46875 601.6375L642.9219 601.6375L642.9219 599.9969L644.46875 599.9969L644.46875 596.91876L646.5625 595.65314L646.5625 599.9969L648.6875 599.9969L648.6875 601.6375L646.5625 601.6375L646.5625 608.91876Q646.5625 609.825 646.6719 610.09064Q646.7969 610.34064 647.0469 610.4969Q647.2969 610.6375 647.7656 610.6375Q648.1094 610.6375 648.6875 610.5594ZM650.9844 617.2469L650.75 615.2625Q651.4531 615.45 651.96875 615.45Q652.6719 615.45 653.09375 615.21564Q653.5156 614.98126 653.78125 614.5594Q653.9844 614.2469 654.4219 612.9969Q654.4844 612.8094 654.6094 612.48126L649.8906 599.9969L652.15625 599.9969L654.75 607.21564Q655.25 608.575 655.65625 610.09064Q656.0156 608.6375 656.5156 607.2625L659.1875 599.9969L661.2969 599.9969L656.5625 612.66876Q655.7969 614.71564 655.375 615.48126Q654.8125 616.52814 654.0781 617.0125Q653.3594 617.4969 652.34375 617.4969Q651.7344 617.4969 650.9844 617.2469Z" fill-rule="nonzero"/><path fill="#000000" d="M54.55001 386.95938L37.36251 386.95938L37.36251 379.35Q37.36251 377.05313 37.83126 375.86563Q38.30001 374.6625 39.471886 373.94376Q40.64376 373.225 42.05001 373.225Q43.878136 373.225 45.14376 374.4125Q46.39376 375.6 46.73751 378.06876Q47.159386 377.1625 47.58126 376.69376Q48.503136 375.69376 49.878136 374.80313L54.55001 371.81876L54.55001 374.67813L50.971886 376.95938Q49.42501 377.94376 48.61251 378.6Q47.784386 379.24063 47.45626 379.75626Q47.128136 380.25626 47.003136 380.7875Q46.92501 381.17813 46.92501 382.05313L46.92501 384.69376L54.55001 384.69376L54.55001 386.95938ZM44.95626 384.69376L44.95626 379.80313Q44.95626 378.24063 44.628136 377.36563Q44.30001 376.49063 43.596886 376.0375Q42.89376 375.56876 42.05001 375.56876Q40.83126 375.56876 40.05001 376.45938Q39.26876 377.33438 39.26876 379.25626L39.26876 384.69376L44.95626 384.69376ZM50.534386 361.74063L50.815636 359.56876Q52.721886 360.08438 53.784386 361.475Q54.83126 362.86563 54.83126 365.0375Q54.83126 367.77188 53.159386 369.38126Q51.471886 370.975 48.42501 370.975Q45.284386 370.975 43.55001 369.36563Q41.815636 367.74063 41.815636 365.1625Q41.815636 362.6625 43.51876 361.08438Q45.221886 359.49063 48.30001 359.49063Q48.48751 359.49063 48.86251 359.50626L48.86251 368.7875Q50.909386 368.67813 52.003136 367.63126Q53.096886 366.58438 53.096886 365.02188Q53.096886 363.86563 52.48751 363.05313Q51.878136 362.225 50.534386 361.74063ZM47.128136 368.67813L47.128136 361.725Q45.565636 361.86563 44.76876 362.52188Q43.55001 363.52188 43.55001 365.13126Q43.55001 366.58438 44.534386 367.58438Q45.503136 368.56876 47.128136 368.67813ZM54.55001 357.31876L37.36251 357.31876L37.36251 355.20938L54.55001 355.20938L54.55001 357.31876ZM53.01876 344.14688Q54.003136 345.31876 54.42501 346.4125Q54.83126 347.49063 54.83126 348.725Q54.83126 350.77188 53.83126 351.88126Q52.83126 352.975 51.26876 352.975Q50.346886 352.975 49.596886 352.56876Q48.846886 352.14688 48.39376 351.475Q47.92501 350.80313 47.690636 349.95938Q47.534386 349.33438 47.378136 348.08438Q47.065636 345.52188 46.64376 344.31876Q46.221886 344.30313 46.096886 344.30313Q44.815636 344.30313 44.284386 344.9125Q43.565636 345.70938 43.565636 347.30313Q43.565636 348.80313 44.096886 349.50626Q44.61251 350.20938 45.940636 350.55313L45.659386 352.61563Q44.33126 352.33438 43.51876 351.69376Q42.70626 351.05313 42.26876 349.83438Q41.815636 348.61563 41.815636 347.00626Q41.815636 345.4125 42.190636 344.4125Q42.565636 343.4125 43.14376 342.94376Q43.70626 342.475 44.58126 342.2875Q45.11251 342.19376 46.51876 342.19376L49.33126 342.19376Q52.26876 342.19376 53.05001 342.05313Q53.83126 341.9125 54.55001 341.52188L54.55001 343.725Q53.89376 344.05313 53.01876 344.14688ZM48.30001 344.31876Q48.76876 345.475 49.096886 347.77188Q49.284386 349.06876 49.51876 349.61563Q49.753136 350.14688 50.20626 350.44376Q50.659386 350.725 51.20626 350.725Q52.05001 350.725 52.61251 350.1Q53.17501 349.45938 53.17501 348.225Q53.17501 347.00626 52.64376 346.05313Q52.11251 345.1 51.190636 344.6625Q50.471886 344.31876 49.08126 344.31876L48.30001 344.31876ZM52.659386 334.6625L54.51876 334.35Q54.721886 335.24063 54.721886 335.94376Q54.721886 337.1 54.36251 337.74063Q53.98751 338.36563 53.39376 338.63126Q52.80001 338.88126 50.909386 338.88126L43.73751 338.88126L43.73751 340.42813L42.096886 340.42813L42.096886 338.88126L39.01876 338.88126L37.753136 336.7875L42.096886 336.7875L42.096886 334.6625L43.73751 334.6625L43.73751 336.7875L51.01876 336.7875Q51.92501 336.7875 52.190636 336.67813Q52.440636 336.55313 52.596886 336.30313Q52.73751 336.05313 52.73751 335.58438Q52.73751 335.24063 52.659386 334.6625ZM39.80001 332.25626L37.36251 332.25626L37.36251 330.14688L39.80001 330.14688L39.80001 332.25626ZM54.55001 332.25626L42.096886 332.25626L42.096886 330.14688L54.55001 330.14688L54.55001 332.25626ZM54.55001 323.80313L42.096886 328.5375L42.096886 326.31876L49.55001 323.64688Q50.76876 323.20938 52.065636 322.85Q51.08126 322.56876 49.690636 322.06876L42.096886 319.30313L42.096886 317.13126L54.55001 321.83438L54.55001 323.80313ZM50.534386 306.74063L50.815636 304.56876Q52.721886 305.08438 53.784386 306.475Q54.83126 307.86563 54.83126 310.0375Q54.83126 312.77188 53.159386 314.38126Q51.471886 315.975 48.42501 315.975Q45.284386 315.975 43.55001 314.36563Q41.815636 312.74063 41.815636 310.1625Q41.815636 307.6625 43.51876 306.08438Q45.221886 304.49063 48.30001 304.49063Q48.48751 304.49063 48.86251 304.50626L48.86251 313.7875Q50.909386 313.67813 52.003136 312.63126Q53.096886 311.58438 53.096886 310.02188Q53.096886 308.86563 52.48751 308.05313Q51.878136 307.225 50.534386 306.74063ZM47.128136 313.67813L47.128136 306.725Q45.565636 306.86563 44.76876 307.52188Q43.55001 308.52188 43.55001 310.13126Q43.55001 311.58438 44.534386 312.58438Q45.503136 313.56876 47.128136 313.67813ZM54.55001 294.94376L37.36251 294.94376L37.36251 282.52188L39.39376 282.52188L39.39376 292.67813L44.659386 292.67813L44.659386 283.17813L46.67501 283.17813L46.67501 292.67813L52.51876 292.67813L52.51876 282.13126L54.55001 282.13126L54.55001 294.94376ZM54.55001 279.2875L42.096886 279.2875L42.096886 277.39688L43.98751 277.39688Q42.659386 276.6625 42.23751 276.05313Q41.815636 275.42813 41.815636 274.69376Q41.815636 273.63126 42.503136 272.52188L44.45626 273.25626Q44.003136 274.02188 44.003136 274.80313Q44.003136 275.49063 44.42501 276.05313Q44.83126 276.6 45.565636 276.83438Q46.690636 277.17813 48.034386 277.17813L54.55001 277.17813L54.55001 279.2875ZM54.55001 271.2875L42.096886 271.2875L42.096886 269.39688L43.98751 269.39688Q42.659386 268.6625 42.23751 268.05313Q41.815636 267.42813 41.815636 266.69376Q41.815636 265.63126 42.503136 264.52188L44.45626 265.25626Q44.003136 266.02188 44.003136 266.80313Q44.003136 267.49063 44.42501 268.05313Q44.83126 268.6 45.565636 268.83438Q46.690636 269.17813 48.034386 269.17813L54.55001 269.17813L54.55001 271.2875ZM48.33126 264.05313Q44.86251 264.05313 43.20626 262.13126Q41.815636 260.52188 41.815636 258.20938Q41.815636 255.64688 43.503136 254.02188Q45.190636 252.39688 48.14376 252.39688Q50.55001 252.39688 51.92501 253.11563Q53.30001 253.83438 54.065636 255.20938Q54.83126 256.58438 54.83126 258.20938Q54.83126 260.83438 53.159386 262.44376Q51.471886 264.05313 48.33126 264.05313ZM48.33126 261.88126Q50.721886 261.88126 51.909386 260.85Q53.096886 259.80313 53.096886 258.20938Q53.096886 256.64688 51.909386 255.6Q50.70626 254.55313 48.253136 254.55313Q45.940636 254.55313 44.753136 255.61563Q43.565636 256.6625 43.565636 258.20938Q43.565636 259.80313 44.753136 260.85Q45.940636 261.88126 48.33126 261.88126ZM54.55001 250.2875L42.096886 250.2875L42.096886 248.39688L43.98751 248.39688Q42.659386 247.6625 42.23751 247.05313Q41.815636 246.42813 41.815636 245.69376Q41.815636 244.63126 42.503136 243.52188L44.45626 244.25626Q44.003136 245.02188 44.003136 245.80313Q44.003136 246.49063 44.42501 247.05313Q44.83126 247.6 45.565636 247.83438Q46.690636 248.17813 48.034386 248.17813L54.55001 248.17813L54.55001 250.2875Z" fill-rule="nonzero"/><path fill="#000000" d="M104.1125 530.98126L104.1125 529.96564L109.675 529.96564L109.675 530.79376Q108.8625 531.66876 108.05 533.1219Q107.25313 534.5594 106.81563 536.09064Q106.4875 537.16876 106.40938 538.45L105.31563 538.45Q105.33125 537.4344 105.70625 535.9969Q106.09688 534.5594 106.8 533.23126Q107.51875 531.90314 108.33125 530.98126L104.1125 530.98126ZM111.05 536.2L112.15938 536.10626Q112.28438 536.91876 112.72188 537.325Q113.175 537.73126 113.81563 537.73126Q114.56563 537.73126 115.09688 537.15314Q115.62813 536.575 115.62813 535.6375Q115.62813 534.73126 115.1125 534.21564Q114.6125 533.6844 113.78438 533.6844Q113.28438 533.6844 112.8625 533.91876Q112.45625 534.15314 112.22188 534.5125L111.2375 534.3875L112.06563 529.98126L116.34688 529.98126L116.34688 530.98126L112.90938 530.98126L112.45625 533.29376Q113.22188 532.7469 114.06563 532.7469Q115.19063 532.7469 115.95625 533.52814Q116.7375 534.3094 116.7375 535.54376Q116.7375 536.7 116.06563 537.5594Q115.2375 538.59064 113.81563 538.59064Q112.64375 538.59064 111.89375 537.9344Q111.15938 537.27814 111.05 536.2ZM118.25313 531.91876Q118.25313 530.9969 118.70625 530.35626Q119.175 529.71564 120.05 529.71564Q120.8625 529.71564 121.39375 530.29376Q121.925 530.8719 121.925 531.98126Q121.925 533.075 121.37813 533.66876Q120.84688 534.2469 120.06563 534.2469Q119.28438 534.2469 118.76875 533.66876Q118.25313 533.09064 118.25313 531.91876ZM120.08125 530.4344Q119.69063 530.4344 119.425 530.77814Q119.175 531.1219 119.175 532.02814Q119.175 532.85626 119.425 533.2Q119.69063 533.52814 120.08125 533.52814Q120.4875 533.52814 120.7375 533.1844Q121.00313 532.84064 121.00313 531.95Q121.00313 531.10626 120.7375 530.77814Q120.47188 530.4344 120.08125 530.4344ZM120.08125 538.7625L124.78438 529.71564L125.64375 529.71564L120.95625 538.7625L120.08125 538.7625ZM123.8 536.4344Q123.8 535.5125 124.25313 534.8719Q124.72188 534.23126 125.6125 534.23126Q126.425 534.23126 126.95625 534.8094Q127.4875 535.3719 127.4875 536.4969Q127.4875 537.59064 126.94063 538.1844Q126.40938 538.7625 125.6125 538.7625Q124.84688 538.7625 124.31563 538.1844Q123.8 537.60626 123.8 536.4344ZM125.64375 534.95Q125.2375 534.95 124.97188 535.29376Q124.72188 535.6375 124.72188 536.54376Q124.72188 537.35626 124.9875 537.7Q125.25313 538.04376 125.64375 538.04376Q126.03438 538.04376 126.3 537.7Q126.56563 537.35626 126.56563 536.45Q126.56563 535.6219 126.3 535.29376Q126.03438 534.95 125.64375 534.95Z" fill-rule="nonzero"/><path fill="#000000" d="M105.675 421.49374Q105.01875 421.24374 104.69063 420.80624Q104.37813 420.35312 104.37813 419.74374Q104.37813 418.80624 105.05 418.16562Q105.7375 417.525 106.84688 417.525Q107.97188 417.525 108.65938 418.18124Q109.34688 418.8375 109.34688 419.775Q109.34688 420.36874 109.03438 420.80624Q108.72188 421.24374 108.08125 421.49374Q108.87813 421.74374 109.28438 422.32187Q109.69063 422.9 109.69063 423.69687Q109.69063 424.79062 108.90938 425.54062Q108.14375 426.29062 106.8625 426.29062Q105.59688 426.29062 104.81563 425.54062Q104.03438 424.79062 104.03438 423.66562Q104.03438 422.82187 104.45625 422.25937Q104.89375 421.69687 105.675 421.49374ZM105.45625 419.69687Q105.45625 420.30624 105.84688 420.69687Q106.25313 421.0875 106.87813 421.0875Q107.4875 421.0875 107.87813 420.7125Q108.26875 420.32187 108.26875 419.75937Q108.26875 419.18124 107.8625 418.79062Q107.45625 418.38437 106.8625 418.38437Q106.25313 418.38437 105.84688 418.775Q105.45625 419.16562 105.45625 419.69687ZM105.12813 423.66562Q105.12813 424.11874 105.33125 424.54062Q105.55 424.9625 105.97188 425.19687Q106.39375 425.43124 106.87813 425.43124Q107.62813 425.43124 108.1125 424.94687Q108.6125 424.4625 108.6125 423.7125Q108.6125 422.94687 108.1125 422.44687Q107.6125 421.94687 106.84688 421.94687Q106.09688 421.94687 105.6125 422.44687Q105.12813 422.93124 105.12813 423.66562ZM112.675 421.49374Q112.01875 421.24374 111.69063 420.80624Q111.37813 420.35312 111.37813 419.74374Q111.37813 418.80624 112.05 418.16562Q112.7375 417.525 113.84688 417.525Q114.97188 417.525 115.65938 418.18124Q116.34688 418.8375 116.34688 419.775Q116.34688 420.36874 116.03438 420.80624Q115.72188 421.24374 115.08125 421.49374Q115.87813 421.74374 116.28438 422.32187Q116.69063 422.9 116.69063 423.69687Q116.69063 424.79062 115.90938 425.54062Q115.14375 426.29062 113.8625 426.29062Q112.59688 426.29062 111.81563 425.54062Q111.03438 424.79062 111.03438 423.66562Q111.03438 422.82187 111.45625 422.25937Q111.89375 421.69687 112.675 421.49374ZM112.45625 419.69687Q112.45625 420.30624 112.84688 420.69687Q113.25313 421.0875 113.87813 421.0875Q114.4875 421.0875 114.87813 420.7125Q115.26875 420.32187 115.26875 419.75937Q115.26875 419.18124 114.8625 418.79062Q114.45625 418.38437 113.8625 418.38437Q113.25313 418.38437 112.84688 418.775Q112.45625 419.16562 112.45625 419.69687ZM112.12813 423.66562Q112.12813 424.11874 112.33125 424.54062Q112.55 424.9625 112.97188 425.19687Q113.39375 425.43124 113.87813 425.43124Q114.62813 425.43124 115.1125 424.94687Q115.6125 424.4625 115.6125 423.7125Q115.6125 422.94687 115.1125 422.44687Q114.6125 421.94687 113.84688 421.94687Q113.09688 421.94687 112.6125 422.44687Q112.12813 422.93124 112.12813 423.66562ZM118.25313 419.61874Q118.25313 418.69687 118.70625 418.05624Q119.175 417.41562 120.05 417.41562Q120.8625 417.41562 121.39375 417.99374Q121.925 418.57187 121.925 419.68124Q121.925 420.775 121.37813 421.36874Q120.84688 421.94687 120.06563 421.94687Q119.28438 421.94687 118.76875 421.36874Q118.25313 420.79062 118.25313 419.61874ZM120.08125 418.13437Q119.69063 418.13437 119.425 418.47812Q119.175 418.82187 119.175 419.72812Q119.175 420.55624 119.425 420.9Q119.69063 421.22812 120.08125 421.22812Q120.4875 421.22812 120.7375 420.88437Q121.00313 420.54062 121.00313 419.65Q121.00313 418.80624 120.7375 418.47812Q120.47188 418.13437 120.08125 418.13437ZM120.08125 426.4625L124.78438 417.41562L125.64375 417.41562L120.95625 426.4625L120.08125 426.4625ZM123.8 424.13437Q123.8 423.2125 124.25313 422.57187Q124.72188 421.93124 125.6125 421.93124Q126.425 421.93124 126.95625 422.50937Q127.4875 423.07187 127.4875 424.19687Q127.4875 425.29062 126.94063 425.88437Q126.40938 426.4625 125.6125 426.4625Q124.84688 426.4625 124.31563 425.88437Q123.8 425.30624 123.8 424.13437ZM125.64375 422.65Q125.2375 422.65 124.97188 422.99374Q124.72188 423.3375 124.72188 424.24374Q124.72188 425.05624 124.9875 425.4Q125.25313 425.74374 125.64375 425.74374Q126.03438 425.74374 126.3 425.4Q126.56563 425.05624 126.56563 424.15Q126.56563 423.32187 126.3 422.99374Q126.03438 422.65 125.64375 422.65Z" fill-rule="nonzero"/><path fill="#000000" d="M101.01875 313.85L99.97188 313.85L99.97188 307.13126Q99.58125 307.49063 98.95625 307.86563Q98.34688 308.225 97.8625 308.39688L97.8625 307.38126Q98.7375 306.95938 99.39375 306.38126Q100.06563 305.7875 100.34688 305.225L101.01875 305.225L101.01875 313.85ZM104.05 309.61563Q104.05 308.08438 104.3625 307.1625Q104.675 306.225 105.28438 305.725Q105.90938 305.225 106.84688 305.225Q107.53438 305.225 108.05 305.50626Q108.58125 305.7875 108.925 306.31876Q109.26875 306.83438 109.45625 307.58438Q109.64375 308.33438 109.64375 309.61563Q109.64375 311.13126 109.33125 312.05313Q109.03438 312.975 108.40938 313.49063Q107.8 313.99063 106.84688 313.99063Q105.6125 313.99063 104.89375 313.1Q104.05 312.0375 104.05 309.61563ZM105.12813 309.61563Q105.12813 311.725 105.62813 312.42813Q106.12813 313.13126 106.84688 313.13126Q107.58125 313.13126 108.06563 312.42813Q108.56563 311.725 108.56563 309.61563Q108.56563 307.49063 108.06563 306.80313Q107.58125 306.1 106.83125 306.1Q106.1125 306.1 105.675 306.70938Q105.12813 307.49063 105.12813 309.61563ZM111.05 309.61563Q111.05 308.08438 111.3625 307.1625Q111.675 306.225 112.28438 305.725Q112.90938 305.225 113.84688 305.225Q114.53438 305.225 115.05 305.50626Q115.58125 305.7875 115.925 306.31876Q116.26875 306.83438 116.45625 307.58438Q116.64375 308.33438 116.64375 309.61563Q116.64375 311.13126 116.33125 312.05313Q116.03438 312.975 115.40938 313.49063Q114.8 313.99063 113.84688 313.99063Q112.6125 313.99063 111.89375 313.1Q111.05 312.0375 111.05 309.61563ZM112.12813 309.61563Q112.12813 311.725 112.62813 312.42813Q113.12813 313.13126 113.84688 313.13126Q114.58125 313.13126 115.06563 312.42813Q115.56563 311.725 115.56563 309.61563Q115.56563 307.49063 115.06563 306.80313Q114.58125 306.1 113.83125 306.1Q113.1125 306.1 112.675 306.70938Q112.12813 307.49063 112.12813 309.61563ZM118.25313 307.31876Q118.25313 306.39688 118.70625 305.75626Q119.175 305.11563 120.05 305.11563Q120.8625 305.11563 121.39375 305.69376Q121.925 306.27188 121.925 307.38126Q121.925 308.475 121.37813 309.06876Q120.84688 309.64688 120.06563 309.64688Q119.28438 309.64688 118.76875 309.06876Q118.25313 308.49063 118.25313 307.31876ZM120.08125 305.83438Q119.69063 305.83438 119.425 306.17813Q119.175 306.52188 119.175 307.42813Q119.175 308.25626 119.425 308.6Q119.69063 308.92813 120.08125 308.92813Q120.4875 308.92813 120.7375 308.58438Q121.00313 308.24063 121.00313 307.35Q121.00313 306.50626 120.7375 306.17813Q120.47188 305.83438 120.08125 305.83438ZM120.08125 314.1625L124.78438 305.11563L125.64375 305.11563L120.95625 314.1625L120.08125 314.1625ZM123.8 311.83438Q123.8 310.9125 124.25313 310.27188Q124.72188 309.63126 125.6125 309.63126Q126.425 309.63126 126.95625 310.20938Q127.4875 310.77188 127.4875 311.89688Q127.4875 312.99063 126.94063 313.58438Q126.40938 314.1625 125.6125 314.1625Q124.84688 314.1625 124.31563 313.58438Q123.8 313.00626 123.8 311.83438ZM125.64375 310.35Q125.2375 310.35 124.97188 310.69376Q124.72188 311.0375 124.72188 311.94376Q124.72188 312.75626 124.9875 313.1Q125.25313 313.44376 125.64375 313.44376Q126.03438 313.44376 126.3 313.1Q126.56563 312.75626 126.56563 311.85Q126.56563 311.02188 126.3 310.69376Q126.03438 310.35 125.64375 310.35Z" fill-rule="nonzero"/><path fill="#000000" d="M101.01875 201.55L99.97188 201.55L99.97188 194.83125Q99.58125 195.19063 98.95625 195.56563Q98.34688 195.925 97.8625 196.09688L97.8625 195.08125Q98.7375 194.65938 99.39375 194.08125Q100.06563 193.4875 100.34688 192.925L101.01875 192.925L101.01875 201.55ZM108.01875 201.55L106.97188 201.55L106.97188 194.83125Q106.58125 195.19063 105.95625 195.56563Q105.34688 195.925 104.8625 196.09688L104.8625 195.08125Q105.7375 194.65938 106.39375 194.08125Q107.06563 193.4875 107.34688 192.925L108.01875 192.925L108.01875 201.55ZM111.05 199.28438L112.1125 199.14375Q112.28438 200.03438 112.72188 200.44063Q113.15938 200.83125 113.78438 200.83125Q114.53438 200.83125 115.05 200.31563Q115.56563 199.8 115.56563 199.03438Q115.56563 198.31563 115.08125 197.84688Q114.6125 197.3625 113.87813 197.3625Q113.58125 197.3625 113.12813 197.4875L113.25313 196.55Q113.3625 196.56563 113.425 196.56563Q114.09688 196.56563 114.62813 196.22188Q115.175 195.8625 115.175 195.12813Q115.175 194.55 114.78438 194.175Q114.39375 193.78438 113.76875 193.78438Q113.15938 193.78438 112.7375 194.175Q112.33125 194.56563 112.22188 195.33125L111.15938 195.14375Q111.34688 194.09688 112.03438 193.51875Q112.72188 192.925 113.7375 192.925Q114.44063 192.925 115.03438 193.2375Q115.62813 193.53438 115.94063 194.05Q116.25313 194.56563 116.25313 195.15938Q116.25313 195.70625 115.95625 196.175Q115.65938 196.62813 115.08125 196.89375Q115.83125 197.06563 116.25313 197.62813Q116.675 198.175 116.675 199.01875Q116.675 200.14375 115.84688 200.925Q115.03438 201.70625 113.78438 201.70625Q112.65938 201.70625 111.90938 201.03438Q111.15938 200.34688 111.05 199.28438ZM118.25313 195.01875Q118.25313 194.09688 118.70625 193.45625Q119.175 192.81563 120.05 192.81563Q120.8625 192.81563 121.39375 193.39375Q121.925 193.97188 121.925 195.08125Q121.925 196.175 121.37813 196.76875Q120.84688 197.34688 120.06563 197.34688Q119.28438 197.34688 118.76875 196.76875Q118.25313 196.19063 118.25313 195.01875ZM120.08125 193.53438Q119.69063 193.53438 119.425 193.87813Q119.175 194.22188 119.175 195.12813Q119.175 195.95625 119.425 196.3Q119.69063 196.62813 120.08125 196.62813Q120.4875 196.62813 120.7375 196.28438Q121.00313 195.94063 121.00313 195.05Q121.00313 194.20625 120.7375 193.87813Q120.47188 193.53438 120.08125 193.53438ZM120.08125 201.8625L124.78438 192.81563L125.64375 192.81563L120.95625 201.8625L120.08125 201.8625ZM123.8 199.53438Q123.8 198.6125 124.25313 197.97188Q124.72188 197.33125 125.6125 197.33125Q126.425 197.33125 126.95625 197.90938Q127.4875 198.47188 127.4875 199.59688Q127.4875 200.69063 126.94063 201.28438Q126.40938 201.8625 125.6125 201.8625Q124.84688 201.8625 124.31563 201.28438Q123.8 200.70625 123.8 199.53438ZM125.64375 198.05Q125.2375 198.05 124.97188 198.39375Q124.72188 198.7375 124.72188 199.64375Q124.72188 200.45625 124.9875 200.8Q125.25313 201.14375 125.64375 201.14375Q126.03438 201.14375 126.3 200.8Q126.56563 200.45625 126.56563 199.55Q126.56563 198.72188 126.3 198.39375Q126.03438 198.05 125.64375 198.05Z" fill-rule="nonzero"/><path fill="#000000" d="M101.01875 89.25L99.97188 89.25L99.97188 82.53125Q99.58125 82.890625 98.95625 83.265625Q98.34688 83.625 97.8625 83.796875L97.8625 82.78125Q98.7375 82.359375 99.39375 81.78125Q100.06563 81.1875 100.34688 80.625L101.01875 80.625L101.01875 89.25ZM109.59688 88.234375L109.59688 89.25L103.90938 89.25Q103.90938 88.875 104.03438 88.515625Q104.25313 87.9375 104.72188 87.375Q105.20625 86.8125 106.1125 86.078125Q107.51875 84.921875 108.00313 84.25Q108.50313 83.578125 108.50313 82.984375Q108.50313 82.359375 108.05 81.9375Q107.59688 81.5 106.87813 81.5Q106.1125 81.5 105.65938 81.953125Q105.20625 82.40625 105.19063 83.21875L104.1125 83.109375Q104.22188 81.890625 104.94063 81.265625Q105.675 80.625 106.90938 80.625Q108.14375 80.625 108.8625 81.3125Q109.58125 82.0 109.58125 83.015625Q109.58125 83.53125 109.3625 84.03125Q109.15938 84.515625 108.65938 85.078125Q108.175 85.625 107.05 86.578125Q106.09688 87.375 105.81563 87.671875Q105.55 87.953125 105.37813 88.234375L109.59688 88.234375ZM111.05 87.0L112.15938 86.90625Q112.28438 87.71875 112.72188 88.125Q113.175 88.53125 113.81563 88.53125Q114.56563 88.53125 115.09688 87.953125Q115.62813 87.375 115.62813 86.4375Q115.62813 85.53125 115.1125 85.015625Q114.6125 84.484375 113.78438 84.484375Q113.28438 84.484375 112.8625 84.71875Q112.45625 84.953125 112.22188 85.3125L111.2375 85.1875L112.06563 80.78125L116.34688 80.78125L116.34688 81.78125L112.90938 81.78125L112.45625 84.09375Q113.22188 83.546875 114.06563 83.546875Q115.19063 83.546875 115.95625 84.328125Q116.7375 85.109375 116.7375 86.34375Q116.7375 87.5 116.06563 88.359375Q115.2375 89.390625 113.81563 89.390625Q112.64375 89.390625 111.89375 88.734375Q111.15938 88.078125 111.05 87.0ZM118.25313 82.71875Q118.25313 81.796875 118.70625 81.15625Q119.175 80.515625 120.05 80.515625Q120.8625 80.515625 121.39375 81.09375Q121.925 81.671875 121.925 82.78125Q121.925 83.875 121.37813 84.46875Q120.84688 85.046875 120.06563 85.046875Q119.28438 85.046875 118.76875 84.46875Q118.25313 83.890625 118.25313 82.71875ZM120.08125 81.234375Q119.69063 81.234375 119.425 81.578125Q119.175 81.921875 119.175 82.828125Q119.175 83.65625 119.425 84.0Q119.69063 84.328125 120.08125 84.328125Q120.4875 84.328125 120.7375 83.984375Q121.00313 83.640625 121.00313 82.75Q121.00313 81.90625 120.7375 81.578125Q120.47188 81.234375 120.08125 81.234375ZM120.08125 89.5625L124.78438 80.515625L125.64375 80.515625L120.95625 89.5625L120.08125 89.5625ZM123.8 87.234375Q123.8 86.3125 124.25313 85.671875Q124.72188 85.03125 125.6125 85.03125Q126.425 85.03125 126.95625 85.609375Q127.4875 86.171875 127.4875 87.296875Q127.4875 88.390625 126.94063 88.984375Q126.40938 89.5625 125.6125 89.5625Q124.84688 89.5625 124.31563 88.984375Q123.8 88.40625 123.8 87.234375ZM125.64375 85.75Q125.2375 85.75 124.97188 86.09375Q124.72188 86.4375 124.72188 87.34375Q124.72188 88.15625 124.9875 88.5Q125.25313 88.84375 125.64375 88.84375Q126.03438 88.84375 126.3 88.5Q126.56563 88.15625 126.56563 87.25Q126.56563 86.421875 126.3 86.09375Q126.03438 85.75 125.64375 85.75Z" fill-rule="nonzero"/><path fill="#000000" d="M126.05 547.21564Q126.05 545.6844 126.3625 544.7625Q126.675 543.825 127.28438 543.325Q127.90938 542.825 128.84688 542.825Q129.53438 542.825 130.05 543.10626Q130.58125 543.3875 130.925 543.91876Q131.26875 544.4344 131.45625 545.1844Q131.64375 545.9344 131.64375 547.21564Q131.64375 548.73126 131.33125 549.65314Q131.03438 550.575 130.40938 551.09064Q129.8 551.59064 128.84688 551.59064Q127.6125 551.59064 126.89375 550.7Q126.05 549.6375 126.05 547.21564ZM127.12813 547.21564Q127.12813 549.325 127.62813 550.02814Q128.12813 550.73126 128.84688 550.73126Q129.58125 550.73126 130.06563 550.02814Q130.56563 549.325 130.56563 547.21564Q130.56563 545.09064 130.06563 544.40314Q129.58125 543.7 128.83125 543.7Q128.1125 543.7 127.675 544.3094Q127.12813 545.09064 127.12813 547.21564ZM133.25313 544.91876Q133.25313 543.9969 133.70625 543.35626Q134.175 542.71564 135.05 542.71564Q135.8625 542.71564 136.39375 543.29376Q136.925 543.8719 136.925 544.98126Q136.925 546.075 136.37813 546.66876Q135.84688 547.2469 135.06563 547.2469Q134.28438 547.2469 133.76875 546.66876Q133.25313 546.09064 133.25313 544.91876ZM135.08125 543.4344Q134.69063 543.4344 134.425 543.77814Q134.175 544.1219 134.175 545.02814Q134.175 545.85626 134.425 546.2Q134.69063 546.52814 135.08125 546.52814Q135.4875 546.52814 135.7375 546.1844Q136.00313 545.84064 136.00313 544.95Q136.00313 544.10626 135.7375 543.77814Q135.47188 543.4344 135.08125 543.4344ZM135.08125 551.7625L139.78438 542.71564L140.64375 542.71564L135.95625 551.7625L135.08125 551.7625ZM138.8 549.4344Q138.8 548.5125 139.25313 547.8719Q139.72188 547.23126 140.6125 547.23126Q141.425 547.23126 141.95625 547.8094Q142.4875 548.3719 142.4875 549.4969Q142.4875 550.59064 141.94063 551.1844Q141.40938 551.7625 140.6125 551.7625Q139.84688 551.7625 139.31563 551.1844Q138.8 550.60626 138.8 549.4344ZM140.64375 547.95Q140.2375 547.95 139.97188 548.29376Q139.72188 548.6375 139.72188 549.54376Q139.72188 550.35626 139.9875 550.7Q140.25313 551.04376 140.64375 551.04376Q141.03438 551.04376 141.3 550.7Q141.56563 550.35626 141.56563 549.45Q141.56563 548.6219 141.3 548.29376Q141.03438 547.95 140.64375 547.95Z" fill-rule="nonzero"/><path fill="#000000" d="M345.87637 550.4344L345.87637 551.45L340.18887 551.45Q340.18887 551.075 340.31387 550.71564Q340.53262 550.1375 341.00137 549.575Q341.48575 549.0125 342.392 548.27814Q343.79825 547.1219 344.28262 546.45Q344.78262 545.77814 344.78262 545.1844Q344.78262 544.5594 344.3295 544.1375Q343.87637 543.7 343.15762 543.7Q342.392 543.7 341.93887 544.15314Q341.48575 544.60626 341.47012 545.41876L340.392 545.3094Q340.50137 544.09064 341.22012 543.46564Q341.9545 542.825 343.18887 542.825Q344.42325 542.825 345.142 543.5125Q345.86075 544.2 345.86075 545.21564Q345.86075 545.73126 345.642 546.23126Q345.43887 546.71564 344.93887 547.27814Q344.4545 547.825 343.3295 548.77814Q342.37637 549.575 342.09512 549.8719Q341.8295 550.15314 341.65762 550.4344L345.87637 550.4344ZM347.3295 549.2L348.43887 549.10626Q348.56387 549.91876 349.00137 550.325Q349.4545 550.73126 350.09512 550.73126Q350.84512 550.73126 351.37637 550.15314Q351.90762 549.575 351.90762 548.6375Q351.90762 547.73126 351.392 547.21564Q350.892 546.6844 350.06387 546.6844Q349.56387 546.6844 349.142 546.91876Q348.73575 547.15314 348.50137 547.5125L347.517 547.3875L348.34512 542.98126L352.62637 542.98126L352.62637 543.98126L349.18887 543.98126L348.73575 546.29376Q349.50137 545.7469 350.34512 545.7469Q351.47012 545.7469 352.23575 546.52814Q353.017 547.3094 353.017 548.54376Q353.017 549.7 352.34512 550.5594Q351.517 551.59064 350.09512 551.59064Q348.92325 551.59064 348.17325 550.9344Q347.43887 550.27814 347.3295 549.2ZM354.53262 544.91876Q354.53262 543.9969 354.98575 543.35626Q355.4545 542.71564 356.3295 542.71564Q357.142 542.71564 357.67325 543.29376Q358.2045 543.8719 358.2045 544.98126Q358.2045 546.075 357.65762 546.66876Q357.12637 547.2469 356.34512 547.2469Q355.56387 547.2469 355.04825 546.66876Q354.53262 546.09064 354.53262 544.91876ZM356.36075 543.4344Q355.97012 543.4344 355.7045 543.77814Q355.4545 544.1219 355.4545 545.02814Q355.4545 545.85626 355.7045 546.2Q355.97012 546.52814 356.36075 546.52814Q356.767 546.52814 357.017 546.1844Q357.28262 545.84064 357.28262 544.95Q357.28262 544.10626 357.017 543.77814Q356.75137 543.4344 356.36075 543.4344ZM356.36075 551.7625L361.06387 542.71564L361.92325 542.71564L357.23575 551.7625L356.36075 551.7625ZM360.0795 549.4344Q360.0795 548.5125 360.53262 547.8719Q361.00137 547.23126 361.892 547.23126Q362.7045 547.23126 363.23575 547.8094Q363.767 548.3719 363.767 549.4969Q363.767 550.59064 363.22012 551.1844Q362.68887 551.7625 361.892 551.7625Q361.12637 551.7625 360.59512 551.1844Q360.0795 550.60626 360.0795 549.4344ZM361.92325 547.95Q361.517 547.95 361.25137 548.29376Q361.00137 548.6375 361.00137 549.54376Q361.00137 550.35626 361.267 550.7Q361.53262 551.04376 361.92325 551.04376Q362.31387 551.04376 362.5795 550.7Q362.84512 550.35626 362.84512 549.45Q362.84512 548.6219 362.5795 548.29376Q362.31387 547.95 361.92325 547.95Z" fill-rule="nonzero"/><path fill="#000000" d="M558.109 549.2L559.2184 549.10626Q559.3434 549.91876 559.7809 550.325Q560.234 550.73126 560.87463 550.73126Q561.62463 550.73126 562.1559 550.15314Q562.68713 549.575 562.68713 548.6375Q562.68713 547.73126 562.1715 547.21564Q561.6715 546.6844 560.8434 546.6844Q560.3434 546.6844 559.9215 546.91876Q559.51526 547.15314 559.2809 547.5125L558.2965 547.3875L559.12463 542.98126L563.4059 542.98126L563.4059 543.98126L559.9684 543.98126L559.51526 546.29376Q560.2809 545.7469 561.12463 545.7469Q562.24963 545.7469 563.01526 546.52814Q563.7965 547.3094 563.7965 548.54376Q563.7965 549.7 563.12463 550.5594Q562.2965 551.59064 560.87463 551.59064Q559.70276 551.59064 558.95276 550.9344Q558.2184 550.27814 558.109 549.2ZM565.109 547.21564Q565.109 545.6844 565.4215 544.7625Q565.734 543.825 566.3434 543.325Q566.9684 542.825 567.9059 542.825Q568.5934 542.825 569.109 543.10626Q569.64026 543.3875 569.984 543.91876Q570.32776 544.4344 570.51526 545.1844Q570.70276 545.9344 570.70276 547.21564Q570.70276 548.73126 570.39026 549.65314Q570.0934 550.575 569.4684 551.09064Q568.859 551.59064 567.9059 551.59064Q566.6715 551.59064 565.95276 550.7Q565.109 549.6375 565.109 547.21564ZM566.18713 547.21564Q566.18713 549.325 566.68713 550.02814Q567.18713 550.73126 567.9059 550.73126Q568.64026 550.73126 569.12463 550.02814Q569.62463 549.325 569.62463 547.21564Q569.62463 545.09064 569.12463 544.40314Q568.64026 543.7 567.89026 543.7Q567.1715 543.7 566.734 544.3094Q566.18713 545.09064 566.18713 547.21564ZM572.31213 544.91876Q572.31213 543.9969 572.76526 543.35626Q573.234 542.71564 574.109 542.71564Q574.9215 542.71564 575.45276 543.29376Q575.984 543.8719 575.984 544.98126Q575.984 546.075 575.43713 546.66876Q574.9059 547.2469 574.12463 547.2469Q573.3434 547.2469 572.82776 546.66876Q572.31213 546.09064 572.31213 544.91876ZM574.14026 543.4344Q573.74963 543.4344 573.484 543.77814Q573.234 544.1219 573.234 545.02814Q573.234 545.85626 573.484 546.2Q573.74963 546.52814 574.14026 546.52814Q574.5465 546.52814 574.7965 546.1844Q575.06213 545.84064 575.06213 544.95Q575.06213 544.10626 574.7965 543.77814Q574.5309 543.4344 574.14026 543.4344ZM574.14026 551.7625L578.8434 542.71564L579.70276 542.71564L575.01526 551.7625L574.14026 551.7625ZM577.859 549.4344Q577.859 548.5125 578.31213 547.8719Q578.7809 547.23126 579.6715 547.23126Q580.484 547.23126 581.01526 547.8094Q581.5465 548.3719 581.5465 549.4969Q581.5465 550.59064 580.99963 551.1844Q580.4684 551.7625 579.6715 551.7625Q578.9059 551.7625 578.37463 551.1844Q577.859 550.60626 577.859 549.4344ZM579.70276 547.95Q579.2965 547.95 579.0309 548.29376Q578.7809 548.6375 578.7809 549.54376Q578.7809 550.35626 579.0465 550.7Q579.31213 551.04376 579.70276 551.04376Q580.0934 551.04376 580.359 550.7Q580.62463 550.35626 580.62463 549.45Q580.62463 548.6219 580.359 548.29376Q580.0934 547.95 579.70276 547.95Z" fill-rule="nonzero"/><path fill="#000000" d="M775.95105 543.98126L775.95105 542.96564L781.51355 542.96564L781.51355 543.79376Q780.70105 544.66876 779.88855 546.1219Q779.0917 547.5594 778.6542 549.09064Q778.32605 550.16876 778.2479 551.45L777.1542 551.45Q777.1698 550.4344 777.5448 548.9969Q777.9354 547.5594 778.63855 546.23126Q779.3573 544.90314 780.1698 543.98126L775.95105 543.98126ZM782.88855 549.2L783.9979 549.10626Q784.1229 549.91876 784.5604 550.325Q785.01355 550.73126 785.6542 550.73126Q786.4042 550.73126 786.9354 550.15314Q787.4667 549.575 787.4667 548.6375Q787.4667 547.73126 786.95105 547.21564Q786.45105 546.6844 785.6229 546.6844Q785.1229 546.6844 784.70105 546.91876Q784.2948 547.15314 784.0604 547.5125L783.07605 547.3875L783.9042 542.98126L788.1854 542.98126L788.1854 543.98126L784.7479 543.98126L784.2948 546.29376Q785.0604 545.7469 785.9042 545.7469Q787.0292 545.7469 787.7948 546.52814Q788.57605 547.3094 788.57605 548.54376Q788.57605 549.7 787.9042 550.5594Q787.07605 551.59064 785.6542 551.59064Q784.4823 551.59064 783.7323 550.9344Q782.9979 550.27814 782.88855 549.2ZM790.0917 544.91876Q790.0917 543.9969 790.5448 543.35626Q791.01355 542.71564 791.88855 542.71564Q792.70105 542.71564 793.2323 543.29376Q793.76355 543.8719 793.76355 544.98126Q793.76355 546.075 793.2167 546.66876Q792.6854 547.2469 791.9042 547.2469Q791.1229 547.2469 790.6073 546.66876Q790.0917 546.09064 790.0917 544.91876ZM791.9198 543.4344Q791.5292 543.4344 791.26355 543.77814Q791.01355 544.1219 791.01355 545.02814Q791.01355 545.85626 791.26355 546.2Q791.5292 546.52814 791.9198 546.52814Q792.32605 546.52814 792.57605 546.1844Q792.8417 545.84064 792.8417 544.95Q792.8417 544.10626 792.57605 543.77814Q792.3104 543.4344 791.9198 543.4344ZM791.9198 551.7625L796.6229 542.71564L797.4823 542.71564L792.7948 551.7625L791.9198 551.7625ZM795.63855 549.4344Q795.63855 548.5125 796.0917 547.8719Q796.5604 547.23126 797.45105 547.23126Q798.26355 547.23126 798.7948 547.8094Q799.32605 548.3719 799.32605 549.4969Q799.32605 550.59064 798.7792 551.1844Q798.2479 551.7625 797.45105 551.7625Q796.6854 551.7625 796.1542 551.1844Q795.63855 550.60626 795.63855 549.4344ZM797.4823 547.95Q797.07605 547.95 796.8104 548.29376Q796.5604 548.6375 796.5604 549.54376Q796.5604 550.35626 796.82605 550.7Q797.0917 551.04376 797.4823 551.04376Q797.8729 551.04376 798.13855 550.7Q798.4042 550.35626 798.4042 549.45Q798.4042 548.6219 798.13855 548.29376Q797.8729 547.95 797.4823 547.95Z" fill-rule="nonzero"/><path fill="#000000" d="M994.1368 551.45L993.0899 551.45L993.0899 544.73126Q992.6993 545.09064 992.0743 545.46564Q991.4649 545.825 990.9805 545.9969L990.9805 544.98126Q991.8555 544.5594 992.5118 543.98126Q993.18365 543.3875 993.4649 542.825L994.1368 542.825L994.1368 551.45ZM997.168 547.21564Q997.168 545.6844 997.4805 544.7625Q997.793 543.825 998.4024 543.325Q999.0274 542.825 999.9649 542.825Q1000.6524 542.825 1001.168 543.10626Q1001.6993 543.3875 1002.043 543.91876Q1002.3868 544.4344 1002.5743 545.1844Q1002.7618 545.9344 1002.7618 547.21564Q1002.7618 548.73126 1002.4493 549.65314Q1002.1524 550.575 1001.5274 551.09064Q1000.918 551.59064 999.9649 551.59064Q998.7305 551.59064 998.0118 550.7Q997.168 549.6375 997.168 547.21564ZM998.24615 547.21564Q998.24615 549.325 998.74615 550.02814Q999.24615 550.73126 999.9649 550.73126Q1000.6993 550.73126 1001.18365 550.02814Q1001.68365 549.325 1001.68365 547.21564Q1001.68365 545.09064 1001.18365 544.40314Q1000.6993 543.7 999.9493 543.7Q999.2305 543.7 998.793 544.3094Q998.24615 545.09064 998.24615 547.21564ZM1004.168 547.21564Q1004.168 545.6844 1004.4805 544.7625Q1004.793 543.825 1005.4024 543.325Q1006.0274 542.825 1006.9649 542.825Q1007.6524 542.825 1008.168 543.10626Q1008.6993 543.3875 1009.043 543.91876Q1009.3868 544.4344 1009.5743 545.1844Q1009.7618 545.9344 1009.7618 547.21564Q1009.7618 548.73126 1009.4493 549.65314Q1009.1524 550.575 1008.5274 551.09064Q1007.918 551.59064 1006.9649 551.59064Q1005.7305 551.59064 1005.0118 550.7Q1004.168 549.6375 1004.168 547.21564ZM1005.24615 547.21564Q1005.24615 549.325 1005.74615 550.02814Q1006.24615 550.73126 1006.9649 550.73126Q1007.6993 550.73126 1008.18365 550.02814Q1008.68365 549.325 1008.68365 547.21564Q1008.68365 545.09064 1008.18365 544.40314Q1007.6993 543.7 1006.9493 543.7Q1006.2305 543.7 1005.793 544.3094Q1005.24615 545.09064 1005.24615 547.21564ZM1011.37115 544.91876Q1011.37115 543.9969 1011.8243 543.35626Q1012.293 542.71564 1013.168 542.71564Q1013.9805 542.71564 1014.5118 543.29376Q1015.043 543.8719 1015.043 544.98126Q1015.043 546.075 1014.49615 546.66876Q1013.9649 547.2469 1013.18365 547.2469Q1012.4024 547.2469 1011.8868 546.66876Q1011.37115 546.09064 1011.37115 544.91876ZM1013.1993 543.4344Q1012.80865 543.4344 1012.543 543.77814Q1012.293 544.1219 1012.293 545.02814Q1012.293 545.85626 1012.543 546.2Q1012.80865 546.52814 1013.1993 546.52814Q1013.6055 546.52814 1013.8555 546.1844Q1014.12115 545.84064 1014.12115 544.95Q1014.12115 544.10626 1013.8555 543.77814Q1013.5899 543.4344 1013.1993 543.4344ZM1013.1993 551.7625L1017.9024 542.71564L1018.7618 542.71564L1014.0743 551.7625L1013.1993 551.7625ZM1016.918 549.4344Q1016.918 548.5125 1017.37115 547.8719Q1017.8399 547.23126 1018.7305 547.23126Q1019.543 547.23126 1020.0743 547.8094Q1020.6055 548.3719 1020.6055 549.4969Q1020.6055 550.59064 1020.05865 551.1844Q1019.5274 551.7625 1018.7305 551.7625Q1017.9649 551.7625 1017.43365 551.1844Q1016.918 550.60626 1016.918 549.4344ZM1018.7618 547.95Q1018.3555 547.95 1018.0899 548.29376Q1017.8399 548.6375 1017.8399 549.54376Q1017.8399 550.35626 1018.1055 550.7Q1018.37115 551.04376 1018.7618 551.04376Q1019.1524 551.04376 1019.418 550.7Q1019.68365 550.35626 1019.68365 549.45Q1019.68365 548.6219 1019.418 548.29376Q1019.1524 547.95 1018.7618 547.95Z" fill-rule="nonzero"/><path fill="#4285f4" d="M274.5 44.55C274.5 47.86371 271.81372 50.55 268.5 50.55C265.18628 50.55 262.5 47.86371 262.5 44.55C262.5 41.23629 265.18628 38.55 268.5 38.55C271.81372 38.55 274.5 41.23629 274.5 44.55Z" fill-rule="nonzero"/><path fill="#1a1a1a" d="M284.07812 51.55L284.07812 37.2375L294.4375 37.2375L294.4375 38.925L285.98438 38.925L285.98438 43.3L293.89062 43.3L293.89062 44.9875L285.98438 44.9875L285.98438 49.8625L294.76562 49.8625L294.76562 51.55L284.07812 51.55ZM303.54688 51.55L303.54688 50.2375Q302.5625 51.784374 300.64062 51.784374Q299.40625 51.784374 298.35938 51.096874Q297.32812 50.409374 296.75 49.190624Q296.1875 47.971874 296.1875 46.378124Q296.1875 44.815624 296.70312 43.55Q297.21875 42.284374 298.25 41.6125Q299.29688 40.940624 300.5625 40.940624Q301.5 40.940624 302.23438 41.346874Q302.96875 41.7375 303.4375 42.3625L303.4375 37.2375L305.17188 37.2375L305.17188 51.55L303.54688 51.55ZM297.98438 46.378124Q297.98438 48.3625 298.82812 49.346874Q299.67188 50.33125 300.8125 50.33125Q301.96875 50.33125 302.76562 49.39375Q303.57812 48.45625 303.57812 46.51875Q303.57812 44.39375 302.75 43.39375Q301.9375 42.39375 300.73438 42.39375Q299.5625 42.39375 298.76562 43.3625Q297.98438 44.315624 297.98438 46.378124ZM314.60938 51.55L314.60938 50.01875Q313.40625 51.784374 311.32812 51.784374Q310.40625 51.784374 309.60938 51.440624Q308.8125 51.08125 308.42188 50.55Q308.04688 50.01875 307.89062 49.2375Q307.78125 48.721874 307.78125 47.596874L307.78125 41.175L309.53125 41.175L309.53125 46.925Q309.53125 48.3 309.64062 48.784374Q309.8125 49.471874 310.34375 49.878124Q310.89062 50.26875 311.67188 50.26875Q312.46875 50.26875 313.15625 49.8625Q313.85938 49.45625 314.14062 48.76875Q314.4375 48.065624 314.4375 46.7375L314.4375 41.175L316.1875 41.175L316.1875 51.55L314.60938 51.55ZM325.59375 47.753124L327.3125 47.971874Q327.03125 49.76875 325.85938 50.784374Q324.70312 51.784374 323.0 51.784374Q320.875 51.784374 319.57812 50.39375Q318.28125 49.003124 318.28125 46.409374Q318.28125 44.721874 318.82812 43.471874Q319.39062 42.20625 320.53125 41.58125Q321.67188 40.940624 323.01562 40.940624Q324.70312 40.940624 325.76562 41.8Q326.84375 42.659374 327.15625 44.221874L325.4375 44.4875Q325.20312 43.440624 324.57812 42.925Q323.95312 42.39375 323.07812 42.39375Q321.75 42.39375 320.92188 43.346874Q320.09375 44.3 320.09375 46.346874Q320.09375 48.440624 320.89062 49.39375Q321.6875 50.33125 322.98438 50.33125Q324.01562 50.33125 324.70312 49.70625Q325.40625 49.065624 325.59375 47.753124ZM335.59375 50.26875Q334.60938 51.096874 333.70312 51.440624Q332.79688 51.784374 331.76562 51.784374Q330.0625 51.784374 329.14062 50.95625Q328.21875 50.1125 328.21875 48.815624Q328.21875 48.05 328.5625 47.425Q328.92188 46.8 329.48438 46.425Q330.04688 46.034374 330.75 45.83125Q331.26562 45.70625 332.3125 45.565624Q334.4375 45.315624 335.4375 44.971874Q335.45312 44.6125 335.45312 44.503124Q335.45312 43.440624 334.95312 42.9875Q334.28125 42.39375 332.95312 42.39375Q331.70312 42.39375 331.10938 42.83125Q330.53125 43.26875 330.25 44.378124L328.53125 44.14375Q328.76562 43.034374 329.29688 42.3625Q329.82812 41.675 330.84375 41.315624Q331.85938 40.940624 333.20312 40.940624Q334.53125 40.940624 335.35938 41.253124Q336.1875 41.565624 336.57812 42.05Q336.96875 42.51875 337.125 43.2375Q337.21875 43.690624 337.21875 44.8625L337.21875 47.20625Q337.21875 49.659374 337.32812 50.315624Q337.4375 50.95625 337.78125 51.55L335.9375 51.55Q335.67188 51.003124 335.59375 50.26875ZM335.4375 46.346874Q334.48438 46.7375 332.5625 47.003124Q331.48438 47.159374 331.03125 47.3625Q330.59375 47.55 330.34375 47.925Q330.09375 48.3 330.09375 48.76875Q330.09375 49.471874 330.625 49.940624Q331.15625 50.409374 332.1875 50.409374Q333.20312 50.409374 333.98438 49.971874Q334.78125 49.51875 335.15625 48.753124Q335.4375 48.14375 335.4375 46.9875L335.4375 46.346874ZM343.65625 49.971874L343.90625 51.534374Q343.17188 51.690624 342.57812 51.690624Q341.625 51.690624 341.09375 51.39375Q340.57812 51.08125 340.35938 50.596874Q340.14062 50.096874 340.14062 48.51875L340.14062 42.55L338.85938 42.55L338.85938 41.175L340.14062 41.175L340.14062 38.6125L341.89062 37.55L341.89062 41.175L343.65625 41.175L343.65625 42.55L341.89062 42.55L341.89062 48.6125Q341.89062 49.3625 341.98438 49.58125Q342.07812 49.784374 342.28125 49.925Q342.5 50.05 342.89062 50.05Q343.17188 50.05 343.65625 49.971874ZM345.82812 39.253124L345.82812 37.2375L347.59375 37.2375L347.59375 39.253124L345.82812 39.253124ZM345.82812 51.55L345.82812 41.175L347.59375 41.175L347.59375 51.55L345.82812 51.55ZM349.17188 46.3625Q349.17188 43.4875 350.76562 42.096874Q352.10938 40.940624 354.03125 40.940624Q356.17188 40.940624 357.51562 42.346874Q358.875 43.753124 358.875 46.221874Q358.875 48.221874 358.28125 49.378124Q357.6875 50.51875 356.53125 51.159374Q355.39062 51.784374 354.03125 51.784374Q351.84375 51.784374 350.5 50.39375Q349.17188 48.9875 349.17188 46.3625ZM350.96875 46.3625Q350.96875 48.3625 351.82812 49.346874Q352.70312 50.33125 354.03125 50.33125Q355.34375 50.33125 356.20312 49.346874Q357.07812 48.346874 357.07812 46.3Q357.07812 44.378124 356.20312 43.39375Q355.32812 42.39375 354.03125 42.39375Q352.70312 42.39375 351.82812 43.39375Q350.96875 44.378124 350.96875 46.3625ZM360.8125 51.55L360.8125 41.175L362.40625 41.175L362.40625 42.659374Q363.54688 40.940624 365.70312 40.940624Q366.64062 40.940624 367.42188 41.284374Q368.21875 41.6125 368.60938 42.159374Q369.0 42.70625 369.15625 43.45625Q369.25 43.95625 369.25 45.175L369.25 51.55L367.48438 51.55L367.48438 45.2375Q367.48438 44.159374 367.28125 43.628124Q367.07812 43.096874 366.54688 42.784374Q366.03125 42.471874 365.32812 42.471874Q364.20312 42.471874 363.39062 43.190624Q362.57812 43.89375 362.57812 45.878124L362.57812 51.55L360.8125 51.55ZM375.6875 51.55L375.6875 38.925L370.96875 38.925L370.96875 37.2375L382.3125 37.2375L382.3125 38.925L377.57812 38.925L377.57812 51.55L375.6875 51.55ZM390.59375 50.26875Q389.60938 51.096874 388.70312 51.440624Q387.79688 51.784374 386.76562 51.784374Q385.0625 51.784374 384.14062 50.95625Q383.21875 50.1125 383.21875 48.815624Q383.21875 48.05 383.5625 47.425Q383.92188 46.8 384.48438 46.425Q385.04688 46.034374 385.75 45.83125Q386.26562 45.70625 387.3125 45.565624Q389.4375 45.315624 390.4375 44.971874Q390.45312 44.6125 390.45312 44.503124Q390.45312 43.440624 389.95312 42.9875Q389.28125 42.39375 387.95312 42.39375Q386.70312 42.39375 386.10938 42.83125Q385.53125 43.26875 385.25 44.378124L383.53125 44.14375Q383.76562 43.034374 384.29688 42.3625Q384.82812 41.675 385.84375 41.315624Q386.85938 40.940624 388.20312 40.940624Q389.53125 40.940624 390.35938 41.253124Q391.1875 41.565624 391.57812 42.05Q391.96875 42.51875 392.125 43.2375Q392.21875 43.690624 392.21875 44.8625L392.21875 47.20625Q392.21875 49.659374 392.32812 50.315624Q392.4375 50.95625 392.78125 51.55L390.9375 51.55Q390.67188 51.003124 390.59375 50.26875ZM390.4375 46.346874Q389.48438 46.7375 387.5625 47.003124Q386.48438 47.159374 386.03125 47.3625Q385.59375 47.55 385.34375 47.925Q385.09375 48.3 385.09375 48.76875Q385.09375 49.471874 385.625 49.940624Q386.15625 50.409374 387.1875 50.409374Q388.20312 50.409374 388.98438 49.971874Q389.78125 49.51875 390.15625 48.753124Q390.4375 48.14375 390.4375 46.9875L390.4375 46.346874ZM396.4375 51.55L394.8125 51.55L394.8125 37.2375L396.5625 37.2375L396.5625 42.346874Q397.6875 40.940624 399.40625 40.940624Q400.35938 40.940624 401.21875 41.33125Q402.07812 41.721874 402.625 42.425Q403.17188 43.1125 403.48438 44.096874Q403.79688 45.08125 403.79688 46.20625Q403.79688 48.878124 402.48438 50.33125Q401.17188 51.784374 399.32812 51.784374Q397.48438 51.784374 396.4375 50.253124L396.4375 51.55ZM396.42188 46.284374Q396.42188 48.14375 396.92188 48.9875Q397.76562 50.33125 399.17188 50.33125Q400.32812 50.33125 401.15625 49.33125Q402.0 48.33125 402.0 46.346874Q402.0 44.315624 401.1875 43.3625Q400.39062 42.39375 399.25 42.39375Q398.09375 42.39375 397.25 43.39375Q396.42188 44.39375 396.42188 46.284374ZM405.78125 51.55L405.78125 37.2375L407.53125 37.2375L407.53125 51.55L405.78125 51.55ZM416.92188 48.20625L418.73438 48.440624Q418.3125 50.01875 417.14062 50.909374Q415.98438 51.784374 414.17188 51.784374Q411.90625 51.784374 410.5625 50.39375Q409.23438 48.9875 409.23438 46.45625Q409.23438 43.83125 410.57812 42.39375Q411.92188 40.940624 414.07812 40.940624Q416.15625 40.940624 417.46875 42.3625Q418.79688 43.76875 418.79688 46.346874Q418.79688 46.503124 418.78125 46.815624L411.04688 46.815624Q411.14062 48.51875 412.01562 49.425Q412.89062 50.33125 414.1875 50.33125Q415.15625 50.33125 415.82812 49.83125Q416.51562 49.315624 416.92188 48.20625ZM411.14062 45.3625L416.9375 45.3625Q416.82812 44.065624 416.28125 43.409374Q415.4375 42.39375 414.09375 42.39375Q412.89062 42.39375 412.0625 43.20625Q411.23438 44.003124 411.14062 45.3625Z" fill-rule="nonzero"/><path fill="#ea4335" d="M441.5 38.55L446.69617 47.55L436.30383 47.55Z" fill-rule="nonzero"/><path fill="#1a1a1a" d="M457.07812 51.55L457.07812 37.2375L463.42188 37.2375Q465.32812 37.2375 466.32812 37.628124Q467.32812 38.003124 467.92188 38.9875Q468.51562 39.95625 468.51562 41.14375Q468.51562 42.659374 467.53125 43.70625Q466.54688 44.753124 464.48438 45.034374Q465.23438 45.39375 465.625 45.753124Q466.45312 46.503124 467.20312 47.659374L469.6875 51.55L467.3125 51.55L465.40625 48.565624Q464.57812 47.284374 464.04688 46.596874Q463.51562 45.909374 463.07812 45.64375Q462.65625 45.3625 462.21875 45.253124Q461.89062 45.190624 461.17188 45.190624L458.96875 45.190624L458.96875 51.55L457.07812 51.55ZM458.96875 43.55L463.04688 43.55Q464.34375 43.55 465.0625 43.284374Q465.79688 43.01875 466.17188 42.425Q466.5625 41.83125 466.5625 41.14375Q466.5625 40.128124 465.82812 39.471874Q465.09375 38.815624 463.5 38.815624L458.96875 38.815624L458.96875 43.55ZM477.59375 50.26875Q476.60938 51.096874 475.70312 51.440624Q474.79688 51.784374 473.76562 51.784374Q472.0625 51.784374 471.14062 50.95625Q470.21875 50.1125 470.21875 48.815624Q470.21875 48.05 470.5625 47.425Q470.92188 46.8 471.48438 46.425Q472.04688 46.034374 472.75 45.83125Q473.26562 45.70625 474.3125 45.565624Q476.4375 45.315624 477.4375 44.971874Q477.45312 44.6125 477.45312 44.503124Q477.45312 43.440624 476.95312 42.9875Q476.28125 42.39375 474.95312 42.39375Q473.70312 42.39375 473.10938 42.83125Q472.53125 43.26875 472.25 44.378124L470.53125 44.14375Q470.76562 43.034374 471.29688 42.3625Q471.82812 41.675 472.84375 41.315624Q473.85938 40.940624 475.20312 40.940624Q476.53125 40.940624 477.35938 41.253124Q478.1875 41.565624 478.57812 42.05Q478.96875 42.51875 479.125 43.2375Q479.21875 43.690624 479.21875 44.8625L479.21875 47.20625Q479.21875 49.659374 479.32812 50.315624Q479.4375 50.95625 479.78125 51.55L477.9375 51.55Q477.67188 51.003124 477.59375 50.26875ZM477.4375 46.346874Q476.48438 46.7375 474.5625 47.003124Q473.48438 47.159374 473.03125 47.3625Q472.59375 47.55 472.34375 47.925Q472.09375 48.3 472.09375 48.76875Q472.09375 49.471874 472.625 49.940624Q473.15625 50.409374 474.1875 50.409374Q475.20312 50.409374 475.98438 49.971874Q476.78125 49.51875 477.15625 48.753124Q477.4375 48.14375 477.4375 46.9875L477.4375 46.346874ZM488.59375 47.753124L490.3125 47.971874Q490.03125 49.76875 488.85938 50.784374Q487.70312 51.784374 486.0 51.784374Q483.875 51.784374 482.57812 50.39375Q481.28125 49.003124 481.28125 46.409374Q481.28125 44.721874 481.82812 43.471874Q482.39062 42.20625 483.53125 41.58125Q484.67188 40.940624 486.01562 40.940624Q487.70312 40.940624 488.76562 41.8Q489.84375 42.659374 490.15625 44.221874L488.4375 44.4875Q488.20312 43.440624 487.57812 42.925Q486.95312 42.39375 486.07812 42.39375Q484.75 42.39375 483.92188 43.346874Q483.09375 44.3 483.09375 46.346874Q483.09375 48.440624 483.89062 49.39375Q484.6875 50.33125 485.98438 50.33125Q487.01562 50.33125 487.70312 49.70625Q488.40625 49.065624 488.59375 47.753124ZM498.92188 48.20625L500.73438 48.440624Q500.3125 50.01875 499.14062 50.909374Q497.98438 51.784374 496.17188 51.784374Q493.90625 51.784374 492.5625 50.39375Q491.23438 48.9875 491.23438 46.45625Q491.23438 43.83125 492.57812 42.39375Q493.92188 40.940624 496.07812 40.940624Q498.15625 40.940624 499.46875 42.3625Q500.79688 43.76875 500.79688 46.346874Q500.79688 46.503124 500.78125 46.815624L493.04688 46.815624Q493.14062 48.51875 494.01562 49.425Q494.89062 50.33125 496.1875 50.33125Q497.15625 50.33125 497.82812 49.83125Q498.51562 49.315624 498.92188 48.20625ZM493.14062 45.3625L498.9375 45.3625Q498.82812 44.065624 498.28125 43.409374Q497.4375 42.39375 496.09375 42.39375Q494.89062 42.39375 494.0625 43.20625Q493.23438 44.003124 493.14062 45.3625ZM506.6875 51.55L506.6875 38.925L501.96875 38.925L501.96875 37.2375L513.3125 37.2375L513.3125 38.925L508.57812 38.925L508.57812 51.55L506.6875 51.55ZM521.59375 50.26875Q520.6094 51.096874 519.7031 51.440624Q518.7969 51.784374 517.7656 51.784374Q516.0625 51.784374 515.1406 50.95625Q514.21875 50.1125 514.21875 48.815624Q514.21875 48.05 514.5625 47.425Q514.9219 46.8 515.4844 46.425Q516.0469 46.034374 516.75 45.83125Q517.2656 45.70625 518.3125 45.565624Q520.4375 45.315624 521.4375 44.971874Q521.4531 44.6125 521.4531 44.503124Q521.4531 43.440624 520.9531 42.9875Q520.28125 42.39375 518.9531 42.39375Q517.7031 42.39375 517.1094 42.83125Q516.53125 43.26875 516.25 44.378124L514.53125 44.14375Q514.7656 43.034374 515.2969 42.3625Q515.8281 41.675 516.84375 41.315624Q517.8594 40.940624 519.2031 40.940624Q520.53125 40.940624 521.3594 41.253124Q522.1875 41.565624 522.5781 42.05Q522.96875 42.51875 523.125 43.2375Q523.21875 43.690624 523.21875 44.8625L523.21875 47.20625Q523.21875 49.659374 523.3281 50.315624Q523.4375 50.95625 523.78125 51.55L521.9375 51.55Q521.6719 51.003124 521.59375 50.26875ZM521.4375 46.346874Q520.4844 46.7375 518.5625 47.003124Q517.4844 47.159374 517.03125 47.3625Q516.59375 47.55 516.34375 47.925Q516.09375 48.3 516.09375 48.76875Q516.09375 49.471874 516.625 49.940624Q517.15625 50.409374 518.1875 50.409374Q519.2031 50.409374 519.9844 49.971874Q520.78125 49.51875 521.15625 48.753124Q521.4375 48.14375 521.4375 46.9875L521.4375 46.346874ZM527.4375 51.55L525.8125 51.55L525.8125 37.2375L527.5625 37.2375L527.5625 42.346874Q528.6875 40.940624 530.40625 40.940624Q531.3594 40.940624 532.21875 41.33125Q533.0781 41.721874 533.625 42.425Q534.1719 43.1125 534.4844 44.096874Q534.7969 45.08125 534.7969 46.20625Q534.7969 48.878124 533.4844 50.33125Q532.1719 51.784374 530.3281 51.784374Q528.4844 51.784374 527.4375 50.253124L527.4375 51.55ZM527.4219 46.284374Q527.4219 48.14375 527.9219 48.9875Q528.7656 50.33125 530.1719 50.33125Q531.3281 50.33125 532.15625 49.33125Q533.0 48.33125 533.0 46.346874Q533.0 44.315624 532.1875 43.3625Q531.3906 42.39375 530.25 42.39375Q529.09375 42.39375 528.25 43.39375Q527.4219 44.39375 527.4219 46.284374ZM536.78125 51.55L536.78125 37.2375L538.53125 37.2375L538.53125 51.55L536.78125 51.55ZM547.9219 48.20625L549.7344 48.440624Q549.3125 50.01875 548.1406 50.909374Q546.9844 51.784374 545.1719 51.784374Q542.90625 51.784374 541.5625 50.39375Q540.2344 48.9875 540.2344 46.45625Q540.2344 43.83125 541.5781 42.39375Q542.9219 40.940624 545.0781 40.940624Q547.15625 40.940624 548.46875 42.3625Q549.7969 43.76875 549.7969 46.346874Q549.7969 46.503124 549.78125 46.815624L542.0469 46.815624Q542.1406 48.51875 543.0156 49.425Q543.8906 50.33125 545.1875 50.33125Q546.15625 50.33125 546.8281 49.83125Q547.5156 49.315624 547.9219 48.20625ZM542.1406 45.3625L547.9375 45.3625Q547.8281 44.065624 547.28125 43.409374Q546.4375 42.39375 545.09375 42.39375Q543.8906 42.39375 543.0625 43.20625Q542.2344 44.003124 542.1406 45.3625Z" fill-rule="nonzero"/><path fill="#fbbc04" d="M568.2574 40.307358L576.7426 40.307358L576.7426 48.79264L568.2574 48.79264Z" fill-rule="nonzero"/><path fill="#1a1a1a" d="M586.46875 51.55L591.96875 37.2375L594.0156 37.2375L599.875 51.55L597.71875 51.55L596.0469 47.20625L590.0625 47.20625L588.4844 51.55L586.46875 51.55ZM590.6094 45.675L595.4531 45.675L593.96875 41.70625Q593.28125 39.89375 592.9531 38.7375Q592.6719 40.1125 592.1719 41.471874L590.6094 45.675ZM600.5 52.409374L602.2031 52.659374Q602.3125 53.45625 602.7969 53.815624Q603.4531 54.3 604.59375 54.3Q605.8125 54.3 606.46875 53.815624Q607.1406 53.33125 607.375 52.45625Q607.5156 51.909374 607.5 50.190624Q606.34375 51.55 604.625 51.55Q602.4844 51.55 601.3125 50.003124Q600.1406 48.45625 600.1406 46.3Q600.1406 44.815624 600.6719 43.565624Q601.21875 42.315624 602.2344 41.628124Q603.2656 40.940624 604.6406 40.940624Q606.46875 40.940624 607.6719 42.425L607.6719 41.175L609.28125 41.175L609.28125 50.14375Q609.28125 52.565624 608.78125 53.565624Q608.2969 54.58125 607.21875 55.159374Q606.15625 55.753124 604.59375 55.753124Q602.75 55.753124 601.59375 54.925Q600.4531 54.096874 600.5 52.409374ZM601.9531 46.175Q601.9531 48.221874 602.7656 49.159374Q603.5781 50.096874 604.7969 50.096874Q606.0 50.096874 606.8125 49.159374Q607.6406 48.221874 607.6406 46.2375Q607.6406 44.33125 606.7969 43.3625Q605.9531 42.39375 604.7656 42.39375Q603.59375 42.39375 602.7656 43.346874Q601.9531 44.3 601.9531 46.175ZM618.9219 48.20625L620.7344 48.440624Q620.3125 50.01875 619.1406 50.909374Q617.9844 51.784374 616.1719 51.784374Q613.90625 51.784374 612.5625 50.39375Q611.2344 48.9875 611.2344 46.45625Q611.2344 43.83125 612.5781 42.39375Q613.9219 40.940624 616.0781 40.940624Q618.15625 40.940624 619.46875 42.3625Q620.7969 43.76875 620.7969 46.346874Q620.7969 46.503124 620.78125 46.815624L613.0469 46.815624Q613.1406 48.51875 614.0156 49.425Q614.8906 50.33125 616.1875 50.33125Q617.15625 50.33125 617.8281 49.83125Q618.5156 49.315624 618.9219 48.20625ZM613.1406 45.3625L618.9375 45.3625Q618.8281 44.065624 618.28125 43.409374Q617.4375 42.39375 616.09375 42.39375Q614.8906 42.39375 614.0625 43.20625Q613.2344 44.003124 613.1406 45.3625ZM626.6875 51.55L626.6875 38.925L621.96875 38.925L621.96875 37.2375L633.3125 37.2375L633.3125 38.925L628.5781 38.925L628.5781 51.55L626.6875 51.55ZM641.59375 50.26875Q640.6094 51.096874 639.7031 51.440624Q638.7969 51.784374 637.7656 51.784374Q636.0625 51.784374 635.1406 50.95625Q634.21875 50.1125 634.21875 48.815624Q634.21875 48.05 634.5625 47.425Q634.9219 46.8 635.4844 46.425Q636.0469 46.034374 636.75 45.83125Q637.2656 45.70625 638.3125 45.565624Q640.4375 45.315624 641.4375 44.971874Q641.4531 44.6125 641.4531 44.503124Q641.4531 43.440624 640.9531 42.9875Q640.28125 42.39375 638.9531 42.39375Q637.7031 42.39375 637.1094 42.83125Q636.53125 43.26875 636.25 44.378124L634.53125 44.14375Q634.7656 43.034374 635.2969 42.3625Q635.8281 41.675 636.84375 41.315624Q637.8594 40.940624 639.2031 40.940624Q640.53125 40.940624 641.3594 41.253124Q642.1875 41.565624 642.5781 42.05Q642.96875 42.51875 643.125 43.2375Q643.21875 43.690624 643.21875 44.8625L643.21875 47.20625Q643.21875 49.659374 643.3281 50.315624Q643.4375 50.95625 643.78125 51.55L641.9375 51.55Q641.6719 51.003124 641.59375 50.26875ZM641.4375 46.346874Q640.4844 46.7375 638.5625 47.003124Q637.4844 47.159374 637.03125 47.3625Q636.59375 47.55 636.34375 47.925Q636.09375 48.3 636.09375 48.76875Q636.09375 49.471874 636.625 49.940624Q637.15625 50.409374 638.1875 50.409374Q639.2031 50.409374 639.9844 49.971874Q640.78125 49.51875 641.15625 48.753124Q641.4375 48.14375 641.4375 46.9875L641.4375 46.346874ZM647.4375 51.55L645.8125 51.55L645.8125 37.2375L647.5625 37.2375L647.5625 42.346874Q648.6875 40.940624 650.40625 40.940624Q651.3594 40.940624 652.21875 41.33125Q653.0781 41.721874 653.625 42.425Q654.1719 43.1125 654.4844 44.096874Q654.7969 45.08125 654.7969 46.20625Q654.7969 48.878124 653.4844 50.33125Q652.1719 51.784374 650.3281 51.784374Q648.4844 51.784374 647.4375 50.253124L647.4375 51.55ZM647.4219 46.284374Q647.4219 48.14375 647.9219 48.9875Q648.7656 50.33125 650.1719 50.33125Q651.3281 50.33125 652.15625 49.33125Q653.0 48.33125 653.0 46.346874Q653.0 44.315624 652.1875 43.3625Q651.3906 42.39375 650.25 42.39375Q649.09375 42.39375 648.25 43.39375Q647.4219 44.39375 647.4219 46.284374ZM656.78125 51.55L656.78125 37.2375L658.53125 37.2375L658.53125 51.55L656.78125 51.55ZM667.9219 48.20625L669.7344 48.440624Q669.3125 50.01875 668.1406 50.909374Q666.9844 51.784374 665.1719 51.784374Q662.90625 51.784374 661.5625 50.39375Q660.2344 48.9875 660.2344 46.45625Q660.2344 43.83125 661.5781 42.39375Q662.9219 40.940624 665.0781 40.940624Q667.15625 40.940624 668.46875 42.3625Q669.7969 43.76875 669.7969 46.346874Q669.7969 46.503124 669.78125 46.815624L662.0469 46.815624Q662.1406 48.51875 663.0156 49.425Q663.8906 50.33125 665.1875 50.33125Q666.15625 50.33125 666.8281 49.83125Q667.5156 49.315624 667.9219 48.20625ZM662.1406 45.3625L667.9375 45.3625Q667.8281 44.065624 667.28125 43.409374Q666.4375 42.39375 665.09375 42.39375Q663.8906 42.39375 663.0625 43.20625Q662.2344 44.003124 662.1406 45.3625Z" fill-rule="nonzero"/><path fill="#34a853" d="M692.5 38.55L693.8471 42.695896L698.20636 42.695896L694.6796 45.258205L696.02673 49.404102L692.5 46.841797L688.97327 49.404102L690.3204 45.258205L686.79364 42.695896L691.1529 42.695896Z" fill-rule="nonzero"/><path fill="#1a1a1a" d="M707.40625 46.95625L709.1875 46.8Q709.3125 47.8625 709.7656 48.55Q710.2344 49.2375 711.2031 49.675Q712.1875 50.096874 713.4219 50.096874Q714.5 50.096874 715.3281 49.784374Q716.15625 49.45625 716.5625 48.89375Q716.96875 48.33125 716.96875 47.659374Q716.96875 46.9875 716.5781 46.4875Q716.1875 45.9875 715.2969 45.64375Q714.71875 45.409374 712.7344 44.940624Q710.7656 44.471874 709.9844 44.05Q708.9531 43.51875 708.4531 42.721874Q707.9531 41.925 707.9531 40.940624Q707.9531 39.846874 708.5625 38.909374Q709.1719 37.971874 710.3594 37.4875Q711.5469 36.9875 712.9844 36.9875Q714.5781 36.9875 715.7969 37.503124Q717.0156 38.01875 717.65625 39.01875Q718.3125 40.003124 718.3594 41.26875L716.5469 41.409374Q716.40625 40.05 715.5625 39.3625Q714.71875 38.659374 713.0625 38.659374Q711.34375 38.659374 710.5469 39.3Q709.7656 39.925 709.7656 40.8Q709.7656 41.58125 710.3281 42.08125Q710.875 42.58125 713.1875 43.096874Q715.5 43.6125 716.3594 44.003124Q717.6094 44.58125 718.2031 45.471874Q718.7969 46.346874 718.7969 47.503124Q718.7969 48.64375 718.1406 49.659374Q717.4844 50.675 716.25 51.2375Q715.03125 51.8 713.5 51.8Q711.5625 51.8 710.25 51.2375Q708.9375 50.659374 708.1875 49.51875Q707.4375 48.378124 707.40625 46.95625ZM727.9219 48.20625L729.7344 48.440624Q729.3125 50.01875 728.1406 50.909374Q726.9844 51.784374 725.1719 51.784374Q722.90625 51.784374 721.5625 50.39375Q720.2344 48.9875 720.2344 46.45625Q720.2344 43.83125 721.5781 42.39375Q722.9219 40.940624 725.0781 40.940624Q727.15625 40.940624 728.46875 42.3625Q729.7969 43.76875 729.7969 46.346874Q729.7969 46.503124 729.78125 46.815624L722.0469 46.815624Q722.1406 48.51875 723.0156 49.425Q723.8906 50.33125 725.1875 50.33125Q726.15625 50.33125 726.8281 49.83125Q727.5156 49.315624 727.9219 48.20625ZM722.1406 45.3625L727.9375 45.3625Q727.8281 44.065624 727.28125 43.409374Q726.4375 42.39375 725.09375 42.39375Q723.8906 42.39375 723.0625 43.20625Q722.2344 44.003124 722.1406 45.3625ZM730.6406 51.55L734.4375 46.159374L730.9375 41.175L733.125 41.175L734.71875 43.6125Q735.1719 44.3 735.4375 44.76875Q735.875 44.128124 736.2344 43.628124L737.9844 41.175L740.0781 41.175L736.5 46.065624L740.3594 51.55L738.2031 51.55L736.0625 48.33125L735.5 47.45625L732.78125 51.55L730.6406 51.55ZM745.6875 51.55L745.6875 38.925L740.96875 38.925L740.96875 37.2375L752.3125 37.2375L752.3125 38.925L747.5781 38.925L747.5781 51.55L745.6875 51.55ZM760.59375 50.26875Q759.6094 51.096874 758.7031 51.440624Q757.7969 51.784374 756.7656 51.784374Q755.0625 51.784374 754.1406 50.95625Q753.21875 50.1125 753.21875 48.815624Q753.21875 48.05 753.5625 47.425Q753.9219 46.8 754.4844 46.425Q755.0469 46.034374 755.75 45.83125Q756.2656 45.70625 757.3125 45.565624Q759.4375 45.315624 760.4375 44.971874Q760.4531 44.6125 760.4531 44.503124Q760.4531 43.440624 759.9531 42.9875Q759.28125 42.39375 757.9531 42.39375Q756.7031 42.39375 756.1094 42.83125Q755.53125 43.26875 755.25 44.378124L753.53125 44.14375Q753.7656 43.034374 754.2969 42.3625Q754.8281 41.675 755.84375 41.315624Q756.8594 40.940624 758.2031 40.940624Q759.53125 40.940624 760.3594 41.253124Q761.1875 41.565624 761.5781 42.05Q761.96875 42.51875 762.125 43.2375Q762.21875 43.690624 762.21875 44.8625L762.21875 47.20625Q762.21875 49.659374 762.3281 50.315624Q762.4375 50.95625 762.78125 51.55L760.9375 51.55Q760.6719 51.003124 760.59375 50.26875ZM760.4375 46.346874Q759.4844 46.7375 757.5625 47.003124Q756.4844 47.159374 756.03125 47.3625Q755.59375 47.55 755.34375 47.925Q755.09375 48.3 755.09375 48.76875Q755.09375 49.471874 755.625 49.940624Q756.15625 50.409374 757.1875 50.409374Q758.2031 50.409374 758.9844 49.971874Q759.78125 49.51875 760.15625 48.753124Q760.4375 48.14375 760.4375 46.9875L760.4375 46.346874ZM766.4375 51.55L764.8125 51.55L764.8125 37.2375L766.5625 37.2375L766.5625 42.346874Q767.6875 40.940624 769.40625 40.940624Q770.3594 40.940624 771.21875 41.33125Q772.0781 41.721874 772.625 42.425Q773.1719 43.1125 773.4844 44.096874Q773.7969 45.08125 773.7969 46.20625Q773.7969 48.878124 772.4844 50.33125Q771.1719 51.784374 769.3281 51.784374Q767.4844 51.784374 766.4375 50.253124L766.4375 51.55ZM766.4219 46.284374Q766.4219 48.14375 766.9219 48.9875Q767.7656 50.33125 769.1719 50.33125Q770.3281 50.33125 771.15625 49.33125Q772.0 48.33125 772.0 46.346874Q772.0 44.315624 771.1875 43.3625Q770.3906 42.39375 769.25 42.39375Q768.09375 42.39375 767.25 43.39375Q766.4219 44.39375 766.4219 46.284374ZM775.78125 51.55L775.78125 37.2375L777.53125 37.2375L777.53125 51.55L775.78125 51.55ZM786.9219 48.20625L788.7344 48.440624Q788.3125 50.01875 787.1406 50.909374Q785.9844 51.784374 784.1719 51.784374Q781.90625 51.784374 780.5625 50.39375Q779.2344 48.9875 779.2344 46.45625Q779.2344 43.83125 780.5781 42.39375Q781.9219 40.940624 784.0781 40.940624Q786.15625 40.940624 787.46875 42.3625Q788.7969 43.76875 788.7969 46.346874Q788.7969 46.503124 788.78125 46.815624L781.0469 46.815624Q781.1406 48.51875 782.0156 49.425Q782.8906 50.33125 784.1875 50.33125Q785.15625 50.33125 785.8281 49.83125Q786.5156 49.315624 786.9219 48.20625ZM781.1406 45.3625L786.9375 45.3625Q786.8281 44.065624 786.28125 43.409374Q785.4375 42.39375 784.09375 42.39375Q782.8906 42.39375 782.0625 43.20625Q781.2344 44.003124 781.1406 45.3625Z" fill-rule="nonzero"/></svg>