<svg version="1.1" viewBox="0.0 0.0 1052.0 651.0" fill="none" stroke="none" stroke-linecap="square" stroke-miterlimit="10" width="1052" height="651" xmlns:xlink="http://www.w3.org/1999/xlink" xmlns="http://www.w3.org/2000/svg"><path fill="#ffffff" d="M0 0L1052.0 0L1052.0 651.0L0 651.0L0 0Z" fill-rule="nonzero"/><path stroke="#333333" stroke-width="1.0" stroke-linecap="butt" d="M126.5 85.5L126.5 534.5" fill-rule="nonzero"/><path stroke="#cccccc" stroke-width="1.0" stroke-linecap="butt" d="M346.5 85.5L346.5 534.5" fill-rule="nonzero"/><path stroke="#cccccc" stroke-width="1.0" stroke-linecap="butt" d="M566.5 85.5L566.5 534.5" fill-rule="nonzero"/><path stroke="#cccccc" stroke-width="1.0" stroke-linecap="butt" d="M785.5 85.5L785.5 534.5" fill-rule="nonzero"/><path stroke="#cccccc" stroke-width="1.0" stroke-linecap="butt" d="M1005.5 85.5L1005.5 534.5" fill-rule="nonzero"/><path stroke="#cccccc" stroke-width="1.0" stroke-linecap="butt" d="M126.5 534.5L1019.5 534.5" fill-rule="nonzero"/><path stroke="#cccccc" stroke-width="1.0" stroke-linecap="butt" d="M126.5 422.5L1019.5 422.5" fill-rule="nonzero"/><path stroke="#cccccc" stroke-width="1.0" stroke-linecap="butt" d="M126.5 309.5L1019.5 309.5" fill-rule="nonzero"/><path stroke="#cccccc" stroke-width="1.0" stroke-linecap="butt" d="M126.5 197.5L1019.5 197.5" fill-rule="nonzero"/><path stroke="#cccccc" stroke-width="1.0" stroke-linecap="butt" d="M126.5 85.5L1019.5 85.5" fill-rule="nonzero"/><path stroke="#000000" stroke-width="1.0" stroke-linecap="butt" stroke-opacity="0.0" d="M126.5 497.5L1019.5 497.5" fill-rule="nonzero"/><path stroke="#000000" stroke-width="1.0" stroke-linecap="butt" stroke-opacity="0.0" d="M126.5 459.5L1019.5 459.5" fill-rule="nonzero"/><path stroke="#000000" stroke-width="1.0" stroke-linecap="butt" stroke-opacity="0.0" d="M126.5 384.5L1019.5 384.5" fill-rule="nonzero"/><path stroke="#000000" stroke-width="1.0" stroke-linecap="butt" stroke-opacity="0.0" d="M126.5 347.5L1019.5 347.5" fill-rule="nonzero"/><path stroke="#000000" stroke-width="1.0" stroke-linecap="butt" stroke-opacity="0.0" d="M126.5 272.5L1019.5 272.5" fill-rule="nonzero"/><path stroke="#000000" stroke-width="1.0" stroke-linecap="butt" stroke-opacity="0.0" d="M126.5 234.5L1019.5 234.5" fill-rule="nonzero"/><path stroke="#000000" stroke-width="1.0" stroke-linecap="butt" stroke-opacity="0.0" d="M126.5 160.5L1019.5 160.5" fill-rule="nonzero"/><path stroke="#000000" stroke-width="1.0" stroke-linecap="butt" stroke-opacity="0.0" d="M126.5 122.5L1019.5 122.5" fill-rule="nonzero"/><clipPath id="id_0"><path d="M126.55 85.25L1019.45 85.25L1019.45 534.45L126.55 534.45L126.55 85.25Z" clip-rule="nonzero"/></clipPath><path stroke="#4285f4" stroke-width="2.0" stroke-linecap="butt" clip-path="url(#id_0)" d="M302.37323 223.04224L478.19644 277.09946L654.01965 302.86908L829.8429 341.41324L1005.66614 373.4076" fill-rule="nonzero"/><path stroke="#ea4335" stroke-width="4.0" stroke-linecap="butt" clip-path="url(#id_0)" d="M302.37323 354.70114L478.19644 353.5029L654.01965 351.49402L829.8429 343.69092L1005.66614 351.04657" fill-rule="nonzero"/><path stroke="#fbbc04" stroke-width="2.0" stroke-linecap="butt" clip-path="url(#id_0)" d="M302.37323 343.8537L478.19644 357.15634L654.01965 351.51703L829.8429 357.15884L1005.66614 352.01312" fill-rule="nonzero"/><path stroke="#34a853" stroke-width="2.0" stroke-linecap="butt" clip-path="url(#id_0)" d="M302.37323 126.42678L478.19644 142.21188L654.01965 126.72439L829.8429 140.47441L1005.66614 163.10619" fill-rule="nonzero"/><path fill="#4285f4" clip-path="url(#id_0)" d="M308.37323 223.04224C308.37323 226.35594 305.68692 229.04224 302.37323 229.04224C299.0595 229.04224 296.37323 226.35594 296.37323 223.04224C296.37323 219.72852 299.0595 217.04224 302.37323 217.04224C305.68692 217.04224 308.37323 219.72852 308.37323 223.04224Z" fill-rule="nonzero"/><path fill="#4285f4" clip-path="url(#id_0)" d="M484.19644 277.09946C484.19644 280.41318 481.51016 283.09946 478.19644 283.09946C474.88275 283.09946 472.19644 280.41318 472.19644 277.09946C472.19644 273.78574 474.88275 271.09946 478.19644 271.09946C481.51016 271.09946 484.19644 273.78574 484.19644 277.09946Z" fill-rule="nonzero"/><path fill="#4285f4" clip-path="url(#id_0)" d="M660.01965 302.86908C660.01965 306.18277 657.3334 308.86908 654.01965 308.86908C650.706 308.86908 648.01965 306.18277 648.01965 302.86908C648.01965 299.55536 650.706 296.86908 654.01965 296.86908C657.3334 296.86908 660.01965 299.55536 660.01965 302.86908Z" fill-rule="nonzero"/><path fill="#4285f4" clip-path="url(#id_0)" d="M835.8429 341.41324C835.8429 344.72696 833.1566 347.41324 829.8429 347.41324C826.5292 347.41324 823.8429 344.72696 823.8429 341.41324C823.8429 338.09952 826.5292 335.41324 829.8429 335.41324C833.1566 335.41324 835.8429 338.09952 835.8429 341.41324Z" fill-rule="nonzero"/><path fill="#4285f4" clip-path="url(#id_0)" d="M1011.66614 373.4076C1011.66614 376.7213 1008.97986 379.4076 1005.66614 379.4076C1002.3524 379.4076 999.66614 376.7213 999.66614 373.4076C999.66614 370.09387 1002.3524 367.4076 1005.66614 367.4076C1008.97986 367.4076 1011.66614 370.09387 1011.66614 373.4076Z" fill-rule="nonzero"/><path fill="#ea4335" clip-path="url(#id_0)" d="M302.37323 346.70114L309.30142 358.70114L295.445 358.70114Z" fill-rule="nonzero"/><path fill="#ea4335" clip-path="url(#id_0)" d="M478.19644 345.5029L485.12466 357.5029L471.26825 357.5029Z" fill-rule="nonzero"/><path fill="#ea4335" clip-path="url(#id_0)" d="M654.01965 343.49402L660.9479 355.49402L647.0915 355.49402Z" fill-rule="nonzero"/><path fill="#ea4335" clip-path="url(#id_0)" d="M829.8429 335.69092L836.7711 347.69092L822.9147 347.69092Z" fill-rule="nonzero"/><path fill="#ea4335" clip-path="url(#id_0)" d="M1005.66614 343.04657L1012.5943 355.04657L998.7379 355.04657Z" fill-rule="nonzero"/><path fill="#fbbc04" clip-path="url(#id_0)" d="M298.13058 339.61105L306.61588 339.61105L306.61588 348.09634L298.13058 348.09634Z" fill-rule="nonzero"/><path fill="#fbbc04" clip-path="url(#id_0)" d="M473.9538 352.9137L482.4391 352.9137L482.4391 361.399L473.9538 361.399Z" fill-rule="nonzero"/><path fill="#fbbc04" clip-path="url(#id_0)" d="M649.77704 347.27438L658.2623 347.27438L658.2623 355.75967L649.77704 355.75967Z" fill-rule="nonzero"/><path fill="#fbbc04" clip-path="url(#id_0)" d="M825.6003 352.9162L834.0855 352.9162L834.0855 361.4015L825.6003 361.4015Z" fill-rule="nonzero"/><path fill="#fbbc04" clip-path="url(#id_0)" d="M1001.42346 347.77048L1009.90875 347.77048L1009.90875 356.25577L1001.42346 356.25577Z" fill-rule="nonzero"/><path fill="#34a853" clip-path="url(#id_0)" d="M302.37323 120.42678L303.7203 124.572685L308.07956 124.572685L304.55286 127.13499L305.89993 131.28088L302.37323 128.71858L298.84653 131.28088L300.1936 127.13499L296.66687 124.572685L301.02615 124.572685Z" fill-rule="nonzero"/><path fill="#34a853" clip-path="url(#id_0)" d="M478.19644 136.21188L479.54352 140.35777L483.9028 140.35777L480.37607 142.92007L481.72318 147.06598L478.19644 144.50368L474.66974 147.06598L476.0168 142.92007L472.4901 140.35777L476.84937 140.35777Z" fill-rule="nonzero"/><path fill="#34a853" clip-path="url(#id_0)" d="M654.01965 120.72439L655.36676 124.87029L659.726 124.87029L656.1993 127.432594L657.5464 131.57849L654.01965 129.01619L650.493 131.57849L651.84 127.432594L648.31335 124.87029L652.6726 124.87029Z" fill-rule="nonzero"/><path fill="#34a853" clip-path="url(#id_0)" d="M829.8429 134.47441L831.19 138.62032L835.54926 138.62032L832.0225 141.18262L833.3696 145.32852L829.8429 142.76622L826.31616 145.32852L827.66327 141.18262L824.13654 138.62032L828.4958 138.62032Z" fill-rule="nonzero"/><path fill="#34a853" clip-path="url(#id_0)" d="M1005.66614 157.10619L1007.0132 161.25209L1011.37244 161.25209L1007.84576 163.81439L1009.1928 167.9603L1005.66614 165.39798L1002.1394 167.9603L1003.4865 163.81439L999.9598 161.25209L1004.31903 161.25209Z" fill-rule="nonzero"/><path fill="#000000" d="M490.39062 612.45L490.39062 595.2625L498.0 595.2625Q500.29688 595.2625 501.48438 595.73126Q502.6875 596.2 503.40625 597.3719Q504.125 598.54376 504.125 599.95Q504.125 601.77814 502.9375 603.04376Q501.75 604.29376 499.28125 604.6375Q500.1875 605.0594 500.65625 605.48126Q501.65625 606.40314 502.54688 607.77814L505.53125 612.45L502.67188 612.45L500.39062 608.8719Q499.40625 607.325 498.75 606.5125Q498.10938 605.6844 497.59375 605.35626Q497.09375 605.02814 496.5625 604.90314Q496.17188 604.825 495.29688 604.825L492.65625 604.825L492.65625 612.45L490.39062 612.45ZM492.65625 602.85626L497.54688 602.85626Q499.10938 602.85626 499.98438 602.52814Q500.85938 602.2 501.3125 601.4969Q501.78125 600.79376 501.78125 599.95Q501.78125 598.73126 500.89062 597.95Q500.01562 597.16876 498.09375 597.16876L492.65625 597.16876L492.65625 602.85626ZM515.2031 610.91876Q514.03125 611.90314 512.9375 612.325Q511.85938 612.73126 510.625 612.73126Q508.57812 612.73126 507.46875 611.73126Q506.375 610.73126 506.375 609.16876Q506.375 608.2469 506.78125 607.4969Q507.20312 606.7469 507.875 606.29376Q508.54688 605.825 509.39062 605.59064Q510.01562 605.4344 511.26562 605.27814Q513.8281 604.96564 515.03125 604.54376Q515.0469 604.1219 515.0469 603.9969Q515.0469 602.71564 514.4375 602.1844Q513.6406 601.46564 512.0469 601.46564Q510.54688 601.46564 509.84375 601.9969Q509.14062 602.5125 508.79688 603.84064L506.73438 603.5594Q507.01562 602.23126 507.65625 601.41876Q508.29688 600.60626 509.51562 600.16876Q510.73438 599.71564 512.34375 599.71564Q513.9375 599.71564 514.9375 600.09064Q515.9375 600.46564 516.40625 601.04376Q516.875 601.60626 517.0625 602.48126Q517.15625 603.0125 517.15625 604.41876L517.15625 607.23126Q517.15625 610.16876 517.2969 610.95Q517.4375 611.73126 517.8281 612.45L515.625 612.45Q515.2969 611.79376 515.2031 610.91876ZM515.03125 606.2Q513.875 606.66876 511.57812 606.9969Q510.28125 607.1844 509.73438 607.41876Q509.20312 607.65314 508.90625 608.10626Q508.625 608.5594 508.625 609.10626Q508.625 609.95 509.25 610.5125Q509.89062 611.075 511.125 611.075Q512.34375 611.075 513.2969 610.54376Q514.25 610.0125 514.6875 609.09064Q515.03125 608.3719 515.03125 606.98126L515.03125 606.2ZM528.2031 607.8875L530.28125 608.15314Q529.9375 610.3094 528.53125 611.52814Q527.1406 612.73126 525.09375 612.73126Q522.5469 612.73126 520.9844 611.0594Q519.4375 609.3875 519.4375 606.27814Q519.4375 604.2625 520.1094 602.7469Q520.78125 601.23126 522.1406 600.48126Q523.5 599.71564 525.1094 599.71564Q527.1406 599.71564 528.4219 600.7469Q529.71875 601.77814 530.0781 603.65314L528.03125 603.98126Q527.7344 602.71564 526.9844 602.09064Q526.25 601.45 525.1875 601.45Q523.59375 601.45 522.59375 602.60626Q521.6094 603.7469 521.6094 606.21564Q521.6094 608.71564 522.5625 609.85626Q523.53125 610.9969 525.0781 610.9969Q526.3125 610.9969 527.1406 610.23126Q527.9844 609.46564 528.2031 607.8875ZM540.6094 608.4344L542.78125 608.71564Q542.2656 610.6219 540.875 611.6844Q539.4844 612.73126 537.3125 612.73126Q534.5781 612.73126 532.96875 611.0594Q531.375 609.3719 531.375 606.325Q531.375 603.1844 532.9844 601.45Q534.6094 599.71564 537.1875 599.71564Q539.6875 599.71564 541.2656 601.41876Q542.8594 603.1219 542.8594 606.2Q542.8594 606.3875 542.84375 606.7625L533.5625 606.7625Q533.6719 608.8094 534.71875 609.90314Q535.7656 610.9969 537.3281 610.9969Q538.4844 610.9969 539.2969 610.3875Q540.125 609.77814 540.6094 608.4344ZM533.6719 605.02814L540.625 605.02814Q540.4844 603.46564 539.8281 602.66876Q538.8281 601.45 537.21875 601.45Q535.7656 601.45 534.7656 602.4344Q533.78125 603.40314 533.6719 605.02814ZM551.5781 606.9344L553.71875 606.7469Q553.875 608.02814 554.4219 608.85626Q554.9844 609.6844 556.15625 610.2Q557.3281 610.7 558.7969 610.7Q560.09375 610.7 561.09375 610.325Q562.09375 609.9344 562.5781 609.2625Q563.0625 608.575 563.0625 607.77814Q563.0625 606.98126 562.59375 606.3719Q562.125 605.7625 561.0469 605.35626Q560.3594 605.09064 557.9844 604.52814Q555.625 603.95 554.6719 603.45Q553.4375 602.8094 552.8281 601.85626Q552.2344 600.8875 552.2344 599.71564Q552.2344 598.40314 552.96875 597.27814Q553.71875 596.15314 555.125 595.575Q556.5469 594.98126 558.28125 594.98126Q560.1875 594.98126 561.6406 595.59064Q563.1094 596.2 563.8906 597.40314Q564.6875 598.59064 564.7344 600.10626L562.5625 600.27814Q562.3906 598.6375 561.375 597.8094Q560.3594 596.98126 558.375 596.98126Q556.3125 596.98126 555.3594 597.7469Q554.4219 598.4969 554.4219 599.5594Q554.4219 600.48126 555.09375 601.075Q555.75 601.6844 558.5156 602.3094Q561.2969 602.9344 562.3281 603.40314Q563.8281 604.09064 564.53125 605.15314Q565.25 606.21564 565.25 607.59064Q565.25 608.96564 564.46875 610.1844Q563.6875 611.3875 562.21875 612.075Q560.75 612.7469 558.90625 612.7469Q556.5781 612.7469 555.0 612.075Q553.4219 611.3875 552.5156 610.02814Q551.625 608.65314 551.5781 606.9344ZM576.6094 608.4344L578.78125 608.71564Q578.2656 610.6219 576.875 611.6844Q575.4844 612.73126 573.3125 612.73126Q570.5781 612.73126 568.96875 611.0594Q567.375 609.3719 567.375 606.325Q567.375 603.1844 568.9844 601.45Q570.6094 599.71564 573.1875 599.71564Q575.6875 599.71564 577.2656 601.41876Q578.8594 603.1219 578.8594 606.2Q578.8594 606.3875 578.84375 606.7625L569.5625 606.7625Q569.6719 608.8094 570.71875 609.90314Q571.7656 610.9969 573.3281 610.9969Q574.4844 610.9969 575.2969 610.3875Q576.125 609.77814 576.6094 608.4344ZM569.6719 605.02814L576.625 605.02814Q576.4844 603.46564 575.8281 602.66876Q574.8281 601.45 573.21875 601.45Q571.7656 601.45 570.7656 602.4344Q569.78125 603.40314 569.6719 605.02814ZM581.03125 612.45L581.03125 595.2625L583.1406 595.2625L583.1406 612.45L581.03125 612.45ZM594.6094 608.4344L596.78125 608.71564Q596.2656 610.6219 594.875 611.6844Q593.4844 612.73126 591.3125 612.73126Q588.5781 612.73126 586.96875 611.0594Q585.375 609.3719 585.375 606.325Q585.375 603.1844 586.9844 601.45Q588.6094 599.71564 591.1875 599.71564Q593.6875 599.71564 595.2656 601.41876Q596.8594 603.1219 596.8594 606.2Q596.8594 606.3875 596.84375 606.7625L587.5625 606.7625Q587.6719 608.8094 588.71875 609.90314Q589.7656 610.9969 591.3281 610.9969Q592.4844 610.9969 593.2969 610.3875Q594.125 609.77814 594.6094 608.4344ZM587.6719 605.02814L594.625 605.02814Q594.4844 603.46564 593.8281 602.66876Q592.8281 601.45 591.21875 601.45Q589.7656 601.45 588.7656 602.4344Q587.78125 603.40314 587.6719 605.02814ZM607.2031 607.8875L609.28125 608.15314Q608.9375 610.3094 607.53125 611.52814Q606.1406 612.73126 604.09375 612.73126Q601.5469 612.73126 599.9844 611.0594Q598.4375 609.3875 598.4375 606.27814Q598.4375 604.2625 599.1094 602.7469Q599.78125 601.23126 601.1406 600.48126Q602.5 599.71564 604.1094 599.71564Q606.1406 599.71564 607.4219 600.7469Q608.71875 601.77814 609.0781 603.65314L607.03125 603.98126Q606.7344 602.71564 605.9844 602.09064Q605.25 601.45 604.1875 601.45Q602.59375 601.45 601.59375 602.60626Q600.6094 603.7469 600.6094 606.21564Q600.6094 608.71564 601.5625 609.85626Q602.53125 610.9969 604.0781 610.9969Q605.3125 610.9969 606.1406 610.23126Q606.9844 609.46564 607.2031 607.8875ZM615.6875 610.5594L616.0 612.41876Q615.1094 612.6219 614.40625 612.6219Q613.25 612.6219 612.6094 612.2625Q611.9844 611.8875 611.71875 611.29376Q611.46875 610.7 611.46875 608.8094L611.46875 601.6375L609.9219 601.6375L609.9219 599.9969L611.46875 599.9969L611.46875 596.91876L613.5625 595.65314L613.5625 599.9969L615.6875 599.9969L615.6875 601.6375L613.5625 601.6375L613.5625 608.91876Q613.5625 609.825 613.6719 610.09064Q613.7969 610.34064 614.0469 610.4969Q614.2969 610.6375 614.7656 610.6375Q615.1094 610.6375 615.6875 610.5594ZM618.09375 597.7L618.09375 595.2625L620.2031 595.2625L620.2031 597.7L618.09375 597.7ZM618.09375 612.45L618.09375 599.9969L620.2031 599.9969L620.2031 612.45L618.09375 612.45ZM626.5469 612.45L621.8125 599.9969L624.03125 599.9969L626.7031 607.45Q627.1406 608.66876 627.5 609.96564Q627.78125 608.98126 628.28125 607.59064L631.0469 599.9969L633.21875 599.9969L628.5156 612.45L626.5469 612.45ZM635.09375 597.7L635.09375 595.2625L637.2031 595.2625L637.2031 597.7L635.09375 597.7ZM635.09375 612.45L635.09375 599.9969L637.2031 599.9969L637.2031 612.45L635.09375 612.45ZM644.6875 610.5594L645.0 612.41876Q644.1094 612.6219 643.40625 612.6219Q642.25 612.6219 641.6094 612.2625Q640.9844 611.8875 640.71875 611.29376Q640.46875 610.7 640.46875 608.8094L640.46875 601.6375L638.9219 601.6375L638.9219 599.9969L640.46875 599.9969L640.46875 596.91876L642.5625 595.65314L642.5625 599.9969L644.6875 599.9969L644.6875 601.6375L642.5625 601.6375L642.5625 608.91876Q642.5625 609.825 642.6719 610.09064Q642.7969 610.34064 643.0469 610.4969Q643.2969 610.6375 643.7656 610.6375Q644.1094 610.6375 644.6875 610.5594ZM646.9844 617.2469L646.75 615.2625Q647.4531 615.45 647.96875 615.45Q648.6719 615.45 649.09375 615.21564Q649.5156 614.98126 649.78125 614.5594Q649.9844 614.2469 650.4219 612.9969Q650.4844 612.8094 650.6094 612.48126L645.8906 599.9969L648.15625 599.9969L650.75 607.21564Q651.25 608.575 651.65625 610.09064Q652.0156 608.6375 652.5156 607.2625L655.1875 599.9969L657.2969 599.9969L652.5625 612.66876Q651.7969 614.71564 651.375 615.48126Q650.8125 616.52814 650.0781 617.0125Q649.3594 617.4969 648.34375 617.4969Q647.7344 617.4969 646.9844 617.2469Z" fill-rule="nonzero"/><path fill="#000000" d="M54.55001 386.95938L37.36251 386.95938L37.36251 379.35Q37.36251 377.05313 37.83126 375.86563Q38.30001 374.6625 39.471886 373.94376Q40.64376 373.225 42.05001 373.225Q43.878136 373.225 45.14376 374.4125Q46.39376 375.6 46.73751 378.06876Q47.159386 377.1625 47.58126 376.69376Q48.503136 375.69376 49.878136 374.80313L54.55001 371.81876L54.55001 374.67813L50.971886 376.95938Q49.42501 377.94376 48.61251 378.6Q47.784386 379.24063 47.45626 379.75626Q47.128136 380.25626 47.003136 380.7875Q46.92501 381.17813 46.92501 382.05313L46.92501 384.69376L54.55001 384.69376L54.55001 386.95938ZM44.95626 384.69376L44.95626 379.80313Q44.95626 378.24063 44.628136 377.36563Q44.30001 376.49063 43.596886 376.0375Q42.89376 375.56876 42.05001 375.56876Q40.83126 375.56876 40.05001 376.45938Q39.26876 377.33438 39.26876 379.25626L39.26876 384.69376L44.95626 384.69376ZM50.534386 361.74063L50.815636 359.56876Q52.721886 360.08438 53.784386 361.475Q54.83126 362.86563 54.83126 365.0375Q54.83126 367.77188 53.159386 369.38126Q51.471886 370.975 48.42501 370.975Q45.284386 370.975 43.55001 369.36563Q41.815636 367.74063 41.815636 365.1625Q41.815636 362.6625 43.51876 361.08438Q45.221886 359.49063 48.30001 359.49063Q48.48751 359.49063 48.86251 359.50626L48.86251 368.7875Q50.909386 368.67813 52.003136 367.63126Q53.096886 366.58438 53.096886 365.02188Q53.096886 363.86563 52.48751 363.05313Q51.878136 362.225 50.534386 361.74063ZM47.128136 368.67813L47.128136 361.725Q45.565636 361.86563 44.76876 362.52188Q43.55001 363.52188 43.55001 365.13126Q43.55001 366.58438 44.534386 367.58438Q45.503136 368.56876 47.128136 368.67813ZM54.55001 357.31876L37.36251 357.31876L37.36251 355.20938L54.55001 355.20938L54.55001 357.31876ZM53.01876 344.14688Q54.003136 345.31876 54.42501 346.4125Q54.83126 347.49063 54.83126 348.725Q54.83126 350.77188 53.83126 351.88126Q52.83126 352.975 51.26876 352.975Q50.346886 352.975 49.596886 352.56876Q48.846886 352.14688 48.39376 351.475Q47.92501 350.80313 47.690636 349.95938Q47.534386 349.33438 47.378136 348.08438Q47.065636 345.52188 46.64376 344.31876Q46.221886 344.30313 46.096886 344.30313Q44.815636 344.30313 44.284386 344.9125Q43.565636 345.70938 43.565636 347.30313Q43.565636 348.80313 44.096886 349.50626Q44.61251 350.20938 45.940636 350.55313L45.659386 352.61563Q44.33126 352.33438 43.51876 351.69376Q42.70626 351.05313 42.26876 349.83438Q41.815636 348.61563 41.815636 347.00626Q41.815636 345.4125 42.190636 344.4125Q42.565636 343.4125 43.14376 342.94376Q43.70626 342.475 44.58126 342.2875Q45.11251 342.19376 46.51876 342.19376L49.33126 342.19376Q52.26876 342.19376 53.05001 342.05313Q53.83126 341.9125 54.55001 341.52188L54.55001 343.725Q53.89376 344.05313 53.01876 344.14688ZM48.30001 344.31876Q48.76876 345.475 49.096886 347.77188Q49.284386 349.06876 49.51876 349.61563Q49.753136 350.14688 50.20626 350.44376Q50.659386 350.725 51.20626 350.725Q52.05001 350.725 52.61251 350.1Q53.17501 349.45938 53.17501 348.225Q53.17501 347.00626 52.64376 346.05313Q52.11251 345.1 51.190636 344.6625Q50.471886 344.31876 49.08126 344.31876L48.30001 344.31876ZM52.659386 334.6625L54.51876 334.35Q54.721886 335.24063 54.721886 335.94376Q54.721886 337.1 54.36251 337.74063Q53.98751 338.36563 53.39376 338.63126Q52.80001 338.88126 50.909386 338.88126L43.73751 338.88126L43.73751 340.42813L42.096886 340.42813L42.096886 338.88126L39.01876 338.88126L37.753136 336.7875L42.096886 336.7875L42.096886 334.6625L43.73751 334.6625L43.73751 336.7875L51.01876 336.7875Q51.92501 336.7875 52.190636 336.67813Q52.440636 336.55313 52.596886 336.30313Q52.73751 336.05313 52.73751 335.58438Q52.73751 335.24063 52.659386 334.6625ZM39.80001 332.25626L37.36251 332.25626L37.36251 330.14688L39.80001 330.14688L39.80001 332.25626ZM54.55001 332.25626L42.096886 332.25626L42.096886 330.14688L54.55001 330.14688L54.55001 332.25626ZM54.55001 323.80313L42.096886 328.5375L42.096886 326.31876L49.55001 323.64688Q50.76876 323.20938 52.065636 322.85Q51.08126 322.56876 49.690636 322.06876L42.096886 319.30313L42.096886 317.13126L54.55001 321.83438L54.55001 323.80313ZM50.534386 306.74063L50.815636 304.56876Q52.721886 305.08438 53.784386 306.475Q54.83126 307.86563 54.83126 310.0375Q54.83126 312.77188 53.159386 314.38126Q51.471886 315.975 48.42501 315.975Q45.284386 315.975 43.55001 314.36563Q41.815636 312.74063 41.815636 310.1625Q41.815636 307.6625 43.51876 306.08438Q45.221886 304.49063 48.30001 304.49063Q48.48751 304.49063 48.86251 304.50626L48.86251 313.7875Q50.909386 313.67813 52.003136 312.63126Q53.096886 311.58438 53.096886 310.02188Q53.096886 308.86563 52.48751 308.05313Q51.878136 307.225 50.534386 306.74063ZM47.128136 313.67813L47.128136 306.725Q45.565636 306.86563 44.76876 307.52188Q43.55001 308.52188 43.55001 310.13126Q43.55001 311.58438 44.534386 312.58438Q45.503136 313.56876 47.128136 313.67813ZM54.55001 294.94376L37.36251 294.94376L37.36251 282.52188L39.39376 282.52188L39.39376 292.67813L44.659386 292.67813L44.659386 283.17813L46.67501 283.17813L46.67501 292.67813L52.51876 292.67813L52.51876 282.13126L54.55001 282.13126L54.55001 294.94376ZM54.55001 279.2875L42.096886 279.2875L42.096886 277.39688L43.98751 277.39688Q42.659386 276.6625 42.23751 276.05313Q41.815636 275.42813 41.815636 274.69376Q41.815636 273.63126 42.503136 272.52188L44.45626 273.25626Q44.003136 274.02188 44.003136 274.80313Q44.003136 275.49063 44.42501 276.05313Q44.83126 276.6 45.565636 276.83438Q46.690636 277.17813 48.034386 277.17813L54.55001 277.17813L54.55001 279.2875ZM54.55001 271.2875L42.096886 271.2875L42.096886 269.39688L43.98751 269.39688Q42.659386 268.6625 42.23751 268.05313Q41.815636 267.42813 41.815636 266.69376Q41.815636 265.63126 42.503136 264.52188L44.45626 265.25626Q44.003136 266.02188 44.003136 266.80313Q44.003136 267.49063 44.42501 268.05313Q44.83126 268.6 45.565636 268.83438Q46.690636 269.17813 48.034386 269.17813L54.55001 269.17813L54.55001 271.2875ZM48.33126 264.05313Q44.86251 264.05313 43.20626 262.13126Q41.815636 260.52188 41.815636 258.20938Q41.815636 255.64688 43.503136 254.02188Q45.190636 252.39688 48.14376 252.39688Q50.55001 252.39688 51.92501 253.11563Q53.30001 253.83438 54.065636 255.20938Q54.83126 256.58438 54.83126 258.20938Q54.83126 260.83438 53.159386 262.44376Q51.471886 264.05313 48.33126 264.05313ZM48.33126 261.88126Q50.721886 261.88126 51.909386 260.85Q53.096886 259.80313 53.096886 258.20938Q53.096886 256.64688 51.909386 255.6Q50.70626 254.55313 48.253136 254.55313Q45.940636 254.55313 44.753136 255.61563Q43.565636 256.6625 43.565636 258.20938Q43.565636 259.80313 44.753136 260.85Q45.940636 261.88126 48.33126 261.88126ZM54.55001 250.2875L42.096886 250.2875L42.096886 248.39688L43.98751 248.39688Q42.659386 247.6625 42.23751 247.05313Q41.815636 246.42813 41.815636 245.69376Q41.815636 244.63126 42.503136 243.52188L44.45626 244.25626Q44.003136 245.02188 44.003136 245.80313Q44.003136 246.49063 44.42501 247.05313Q44.83126 247.6 45.565636 247.83438Q46.690636 248.17813 48.034386 248.17813L54.55001 248.17813L54.55001 250.2875Z" fill-rule="nonzero"/><path fill="#000000" d="M97.05 534.21564Q97.05 532.6844 97.3625 531.7625Q97.675 530.825 98.28438 530.325Q98.90938 529.825 99.84688 529.825Q100.53438 529.825 101.05 530.10626Q101.58125 530.3875 101.925 530.91876Q102.26875 531.4344 102.45625 532.1844Q102.64375 532.9344 102.64375 534.21564Q102.64375 535.73126 102.33125 536.65314Q102.03438 537.575 101.40938 538.09064Q100.8 538.59064 99.84688 538.59064Q98.6125 538.59064 97.89375 537.7Q97.05 536.6375 97.05 534.21564ZM98.12813 534.21564Q98.12813 536.325 98.62813 537.02814Q99.12813 537.73126 99.84688 537.73126Q100.58125 537.73126 101.06563 537.02814Q101.56563 536.325 101.56563 534.21564Q101.56563 532.09064 101.06563 531.40314Q100.58125 530.7 99.83125 530.7Q99.1125 530.7 98.675 531.3094Q98.12813 532.09064 98.12813 534.21564ZM104.64375 538.45L104.64375 537.2469L105.84688 537.2469L105.84688 538.45L104.64375 538.45ZM107.1125 530.98126L107.1125 529.96564L112.675 529.96564L112.675 530.79376Q111.8625 531.66876 111.05 533.1219Q110.25313 534.5594 109.81563 536.09064Q109.4875 537.16876 109.40938 538.45L108.31563 538.45Q108.33125 537.4344 108.70625 535.9969Q109.09688 534.5594 109.8 533.23126Q110.51875 531.90314 111.33125 530.98126L107.1125 530.98126ZM114.05 536.2L115.15938 536.10626Q115.28438 536.91876 115.72188 537.325Q116.175 537.73126 116.81563 537.73126Q117.56563 537.73126 118.09688 537.15314Q118.62813 536.575 118.62813 535.6375Q118.62813 534.73126 118.1125 534.21564Q117.6125 533.6844 116.78438 533.6844Q116.28438 533.6844 115.8625 533.91876Q115.45625 534.15314 115.22188 534.5125L114.2375 534.3875L115.06563 529.98126L119.34688 529.98126L119.34688 530.98126L115.90938 530.98126L115.45625 533.29376Q116.22188 532.7469 117.06563 532.7469Q118.19063 532.7469 118.95625 533.52814Q119.7375 534.3094 119.7375 535.54376Q119.7375 536.7 119.06563 537.5594Q118.2375 538.59064 116.81563 538.59064Q115.64375 538.59064 114.89375 537.9344Q114.15938 537.27814 114.05 536.2Z" fill-rule="nonzero"/><path fill="#000000" d="M97.05 421.91562Q97.05 420.38437 97.3625 419.4625Q97.675 418.525 98.28438 418.025Q98.90938 417.525 99.84688 417.525Q100.53438 417.525 101.05 417.80624Q101.58125 418.0875 101.925 418.61874Q102.26875 419.13437 102.45625 419.88437Q102.64375 420.63437 102.64375 421.91562Q102.64375 423.43124 102.33125 424.35312Q102.03438 425.275 101.40938 425.79062Q100.8 426.29062 99.84688 426.29062Q98.6125 426.29062 97.89375 425.4Q97.05 424.3375 97.05 421.91562ZM98.12813 421.91562Q98.12813 424.025 98.62813 424.72812Q99.12813 425.43124 99.84688 425.43124Q100.58125 425.43124 101.06563 424.72812Q101.56563 424.025 101.56563 421.91562Q101.56563 419.79062 101.06563 419.10312Q100.58125 418.4 99.83125 418.4Q99.1125 418.4 98.675 419.00937Q98.12813 419.79062 98.12813 421.91562ZM104.64375 426.15L104.64375 424.94687L105.84688 424.94687L105.84688 426.15L104.64375 426.15ZM108.675 421.49374Q108.01875 421.24374 107.69063 420.80624Q107.37813 420.35312 107.37813 419.74374Q107.37813 418.80624 108.05 418.16562Q108.7375 417.525 109.84688 417.525Q110.97188 417.525 111.65938 418.18124Q112.34688 418.8375 112.34688 419.775Q112.34688 420.36874 112.03438 420.80624Q111.72188 421.24374 111.08125 421.49374Q111.87813 421.74374 112.28438 422.32187Q112.69063 422.9 112.69063 423.69687Q112.69063 424.79062 111.90938 425.54062Q111.14375 426.29062 109.8625 426.29062Q108.59688 426.29062 107.81563 425.54062Q107.03438 424.79062 107.03438 423.66562Q107.03438 422.82187 107.45625 422.25937Q107.89375 421.69687 108.675 421.49374ZM108.45625 419.69687Q108.45625 420.30624 108.84688 420.69687Q109.25313 421.0875 109.87813 421.0875Q110.4875 421.0875 110.87813 420.7125Q111.26875 420.32187 111.26875 419.75937Q111.26875 419.18124 110.8625 418.79062Q110.45625 418.38437 109.8625 418.38437Q109.25313 418.38437 108.84688 418.775Q108.45625 419.16562 108.45625 419.69687ZM108.12813 423.66562Q108.12813 424.11874 108.33125 424.54062Q108.55 424.9625 108.97188 425.19687Q109.39375 425.43124 109.87813 425.43124Q110.62813 425.43124 111.1125 424.94687Q111.6125 424.4625 111.6125 423.7125Q111.6125 422.94687 111.1125 422.44687Q110.6125 421.94687 109.84688 421.94687Q109.09688 421.94687 108.6125 422.44687Q108.12813 422.93124 108.12813 423.66562ZM115.675 421.49374Q115.01875 421.24374 114.69063 420.80624Q114.37813 420.35312 114.37813 419.74374Q114.37813 418.80624 115.05 418.16562Q115.7375 417.525 116.84688 417.525Q117.97188 417.525 118.65938 418.18124Q119.34688 418.8375 119.34688 419.775Q119.34688 420.36874 119.03438 420.80624Q118.72188 421.24374 118.08125 421.49374Q118.87813 421.74374 119.28438 422.32187Q119.69063 422.9 119.69063 423.69687Q119.69063 424.79062 118.90938 425.54062Q118.14375 426.29062 116.8625 426.29062Q115.59688 426.29062 114.81563 425.54062Q114.03438 424.79062 114.03438 423.66562Q114.03438 422.82187 114.45625 422.25937Q114.89375 421.69687 115.675 421.49374ZM115.45625 419.69687Q115.45625 420.30624 115.84688 420.69687Q116.25313 421.0875 116.87813 421.0875Q117.4875 421.0875 117.87813 420.7125Q118.26875 420.32187 118.26875 419.75937Q118.26875 419.18124 117.8625 418.79062Q117.45625 418.38437 116.8625 418.38437Q116.25313 418.38437 115.84688 418.775Q115.45625 419.16562 115.45625 419.69687ZM115.12813 423.66562Q115.12813 424.11874 115.33125 424.54062Q115.55 424.9625 115.97188 425.19687Q116.39375 425.43124 116.87813 425.43124Q117.62813 425.43124 118.1125 424.94687Q118.6125 424.4625 118.6125 423.7125Q118.6125 422.94687 118.1125 422.44687Q117.6125 421.94687 116.84688 421.94687Q116.09688 421.94687 115.6125 422.44687Q115.12813 422.93124 115.12813 423.66562Z" fill-rule="nonzero"/><path fill="#000000" d="M101.01875 313.85L99.97188 313.85L99.97188 307.13126Q99.58125 307.49063 98.95625 307.86563Q98.34688 308.225 97.8625 308.39688L97.8625 307.38126Q98.7375 306.95938 99.39375 306.38126Q100.06563 305.7875 100.34688 305.225L101.01875 305.225L101.01875 313.85ZM104.64375 313.85L104.64375 312.64688L105.84688 312.64688L105.84688 313.85L104.64375 313.85ZM107.05 309.61563Q107.05 308.08438 107.3625 307.1625Q107.675 306.225 108.28438 305.725Q108.90938 305.225 109.84688 305.225Q110.53438 305.225 111.05 305.50626Q111.58125 305.7875 111.925 306.31876Q112.26875 306.83438 112.45625 307.58438Q112.64375 308.33438 112.64375 309.61563Q112.64375 311.13126 112.33125 312.05313Q112.03438 312.975 111.40938 313.49063Q110.8 313.99063 109.84688 313.99063Q108.6125 313.99063 107.89375 313.1Q107.05 312.0375 107.05 309.61563ZM108.12813 309.61563Q108.12813 311.725 108.62813 312.42813Q109.12813 313.13126 109.84688 313.13126Q110.58125 313.13126 111.06563 312.42813Q111.56563 311.725 111.56563 309.61563Q111.56563 307.49063 111.06563 306.80313Q110.58125 306.1 109.83125 306.1Q109.1125 306.1 108.675 306.70938Q108.12813 307.49063 108.12813 309.61563ZM114.05 309.61563Q114.05 308.08438 114.3625 307.1625Q114.675 306.225 115.28438 305.725Q115.90938 305.225 116.84688 305.225Q117.53438 305.225 118.05 305.50626Q118.58125 305.7875 118.925 306.31876Q119.26875 306.83438 119.45625 307.58438Q119.64375 308.33438 119.64375 309.61563Q119.64375 311.13126 119.33125 312.05313Q119.03438 312.975 118.40938 313.49063Q117.8 313.99063 116.84688 313.99063Q115.6125 313.99063 114.89375 313.1Q114.05 312.0375 114.05 309.61563ZM115.12813 309.61563Q115.12813 311.725 115.62813 312.42813Q116.12813 313.13126 116.84688 313.13126Q117.58125 313.13126 118.06563 312.42813Q118.56563 311.725 118.56563 309.61563Q118.56563 307.49063 118.06563 306.80313Q117.58125 306.1 116.83125 306.1Q116.1125 306.1 115.675 306.70938Q115.12813 307.49063 115.12813 309.61563Z" fill-rule="nonzero"/><path fill="#000000" d="M101.01875 201.55L99.97188 201.55L99.97188 194.83125Q99.58125 195.19063 98.95625 195.56563Q98.34688 195.925 97.8625 196.09688L97.8625 195.08125Q98.7375 194.65938 99.39375 194.08125Q100.06563 193.4875 100.34688 192.925L101.01875 192.925L101.01875 201.55ZM104.64375 201.55L104.64375 200.34688L105.84688 200.34688L105.84688 201.55L104.64375 201.55ZM111.01875 201.55L109.97188 201.55L109.97188 194.83125Q109.58125 195.19063 108.95625 195.56563Q108.34688 195.925 107.8625 196.09688L107.8625 195.08125Q108.7375 194.65938 109.39375 194.08125Q110.06563 193.4875 110.34688 192.925L111.01875 192.925L111.01875 201.55ZM114.05 199.28438L115.1125 199.14375Q115.28438 200.03438 115.72188 200.44063Q116.15938 200.83125 116.78438 200.83125Q117.53438 200.83125 118.05 200.31563Q118.56563 199.8 118.56563 199.03438Q118.56563 198.31563 118.08125 197.84688Q117.6125 197.3625 116.87813 197.3625Q116.58125 197.3625 116.12813 197.4875L116.25313 196.55Q116.3625 196.56563 116.425 196.56563Q117.09688 196.56563 117.62813 196.22188Q118.175 195.8625 118.175 195.12813Q118.175 194.55 117.78438 194.175Q117.39375 193.78438 116.76875 193.78438Q116.15938 193.78438 115.7375 194.175Q115.33125 194.56563 115.22188 195.33125L114.15938 195.14375Q114.34688 194.09688 115.03438 193.51875Q115.72188 192.925 116.7375 192.925Q117.44063 192.925 118.03438 193.2375Q118.62813 193.53438 118.94063 194.05Q119.25313 194.56563 119.25313 195.15938Q119.25313 195.70625 118.95625 196.175Q118.65938 196.62813 118.08125 196.89375Q118.83125 197.06563 119.25313 197.62813Q119.675 198.175 119.675 199.01875Q119.675 200.14375 118.84688 200.925Q118.03438 201.70625 116.78438 201.70625Q115.65938 201.70625 114.90938 201.03438Q114.15938 200.34688 114.05 199.28438Z" fill-rule="nonzero"/><path fill="#000000" d="M101.01875 89.25L99.97188 89.25L99.97188 82.53125Q99.58125 82.890625 98.95625 83.265625Q98.34688 83.625 97.8625 83.796875L97.8625 82.78125Q98.7375 82.359375 99.39375 81.78125Q100.06563 81.1875 100.34688 80.625L101.01875 80.625L101.01875 89.25ZM104.64375 89.25L104.64375 88.046875L105.84688 88.046875L105.84688 89.25L104.64375 89.25ZM112.59688 88.234375L112.59688 89.25L106.90938 89.25Q106.90938 88.875 107.03438 88.515625Q107.25313 87.9375 107.72188 87.375Q108.20625 86.8125 109.1125 86.078125Q110.51875 84.921875 111.00313 84.25Q111.50313 83.578125 111.50313 82.984375Q111.50313 82.359375 111.05 81.9375Q110.59688 81.5 109.87813 81.5Q109.1125 81.5 108.65938 81.953125Q108.20625 82.40625 108.19063 83.21875L107.1125 83.109375Q107.22188 81.890625 107.94063 81.265625Q108.675 80.625 109.90938 80.625Q111.14375 80.625 111.8625 81.3125Q112.58125 82.0 112.58125 83.015625Q112.58125 83.53125 112.3625 84.03125Q112.15938 84.515625 111.65938 85.078125Q111.175 85.625 110.05 86.578125Q109.09688 87.375 108.81563 87.671875Q108.55 87.953125 108.37813 88.234375L112.59688 88.234375ZM114.05 87.0L115.15938 86.90625Q115.28438 87.71875 115.72188 88.125Q116.175 88.53125 116.81563 88.53125Q117.56563 88.53125 118.09688 87.953125Q118.62813 87.375 118.62813 86.4375Q118.62813 85.53125 118.1125 85.015625Q117.6125 84.484375 116.78438 84.484375Q116.28438 84.484375 115.8625 84.71875Q115.45625 84.953125 115.22188 85.3125L114.2375 85.1875L115.06563 80.78125L119.34688 80.78125L119.34688 81.78125L115.90938 81.78125L115.45625 84.09375Q116.22188 83.546875 117.06563 83.546875Q118.19063 83.546875 118.95625 84.328125Q119.7375 85.109375 119.7375 86.34375Q119.7375 87.5 119.06563 88.359375Q118.2375 89.390625 116.81563 89.390625Q115.64375 89.390625 114.89375 88.734375Q114.15938 88.078125 114.05 87.0Z" fill-rule="nonzero"/><path fill="#000000" d="M115.05 547.21564Q115.05 545.6844 115.3625 544.7625Q115.675 543.825 116.28438 543.325Q116.90938 542.825 117.84688 542.825Q118.53438 542.825 119.05 543.10626Q119.58125 543.3875 119.925 543.91876Q120.26875 544.4344 120.45625 545.1844Q120.64375 545.9344 120.64375 547.21564Q120.64375 548.73126 120.33125 549.65314Q120.03438 550.575 119.40938 551.09064Q118.8 551.59064 117.84688 551.59064Q116.6125 551.59064 115.89375 550.7Q115.05 549.6375 115.05 547.21564ZM116.12813 547.21564Q116.12813 549.325 116.62813 550.02814Q117.12813 550.73126 117.84688 550.73126Q118.58125 550.73126 119.06563 550.02814Q119.56563 549.325 119.56563 547.21564Q119.56563 545.09064 119.06563 544.40314Q118.58125 543.7 117.83125 543.7Q117.1125 543.7 116.675 544.3094Q116.12813 545.09064 116.12813 547.21564ZM122.64375 551.45L122.64375 550.2469L123.84688 550.2469L123.84688 551.45L122.64375 551.45ZM125.05 547.21564Q125.05 545.6844 125.3625 544.7625Q125.675 543.825 126.28438 543.325Q126.90938 542.825 127.84688 542.825Q128.53438 542.825 129.05 543.10626Q129.58125 543.3875 129.925 543.91876Q130.26875 544.4344 130.45625 545.1844Q130.64375 545.9344 130.64375 547.21564Q130.64375 548.73126 130.33125 549.65314Q130.03438 550.575 129.40938 551.09064Q128.8 551.59064 127.84688 551.59064Q126.6125 551.59064 125.89375 550.7Q125.05 549.6375 125.05 547.21564ZM126.12813 547.21564Q126.12813 549.325 126.62813 550.02814Q127.12813 550.73126 127.84688 550.73126Q128.58125 550.73126 129.06563 550.02814Q129.56563 549.325 129.56563 547.21564Q129.56563 545.09064 129.06563 544.40314Q128.58125 543.7 127.83125 543.7Q127.1125 543.7 126.675 544.3094Q126.12813 545.09064 126.12813 547.21564ZM132.05 547.21564Q132.05 545.6844 132.3625 544.7625Q132.675 543.825 133.28438 543.325Q133.90938 542.825 134.84688 542.825Q135.53438 542.825 136.05 543.10626Q136.58125 543.3875 136.925 543.91876Q137.26875 544.4344 137.45625 545.1844Q137.64375 545.9344 137.64375 547.21564Q137.64375 548.73126 137.33125 549.65314Q137.03438 550.575 136.40938 551.09064Q135.8 551.59064 134.84688 551.59064Q133.6125 551.59064 132.89375 550.7Q132.05 549.6375 132.05 547.21564ZM133.12813 547.21564Q133.12813 549.325 133.62813 550.02814Q134.12813 550.73126 134.84688 550.73126Q135.58125 550.73126 136.06563 550.02814Q136.56563 549.325 136.56563 547.21564Q136.56563 545.09064 136.06563 544.40314Q135.58125 543.7 134.83125 543.7Q134.1125 543.7 133.675 544.3094Q133.12813 545.09064 133.12813 547.21564Z" fill-rule="nonzero"/><path fill="#000000" d="M334.82904 547.21564Q334.82904 545.6844 335.14154 544.7625Q335.45404 543.825 336.06342 543.325Q336.68842 542.825 337.62592 542.825Q338.31342 542.825 338.82904 543.10626Q339.3603 543.3875 339.70404 543.91876Q340.0478 544.4344 340.2353 545.1844Q340.4228 545.9344 340.4228 547.21564Q340.4228 548.73126 340.1103 549.65314Q339.81342 550.575 339.18842 551.09064Q338.57904 551.59064 337.62592 551.59064Q336.39154 551.59064 335.6728 550.7Q334.82904 549.6375 334.82904 547.21564ZM335.90717 547.21564Q335.90717 549.325 336.40717 550.02814Q336.90717 550.73126 337.62592 550.73126Q338.3603 550.73126 338.84467 550.02814Q339.34467 549.325 339.34467 547.21564Q339.34467 545.09064 338.84467 544.40314Q338.3603 543.7 337.6103 543.7Q336.89154 543.7 336.45404 544.3094Q335.90717 545.09064 335.90717 547.21564ZM342.4228 551.45L342.4228 550.2469L343.62592 550.2469L343.62592 551.45L342.4228 551.45ZM350.37592 550.4344L350.37592 551.45L344.68842 551.45Q344.68842 551.075 344.81342 550.71564Q345.03217 550.1375 345.50092 549.575Q345.9853 549.0125 346.89154 548.27814Q348.2978 547.1219 348.78217 546.45Q349.28217 545.77814 349.28217 545.1844Q349.28217 544.5594 348.82904 544.1375Q348.37592 543.7 347.65717 543.7Q346.89154 543.7 346.43842 544.15314Q345.9853 544.60626 345.96967 545.41876L344.89154 545.3094Q345.00092 544.09064 345.71967 543.46564Q346.45404 542.825 347.68842 542.825Q348.9228 542.825 349.64154 543.5125Q350.3603 544.2 350.3603 545.21564Q350.3603 545.73126 350.14154 546.23126Q349.93842 546.71564 349.43842 547.27814Q348.95404 547.825 347.82904 548.77814Q346.87592 549.575 346.59467 549.8719Q346.32904 550.15314 346.15717 550.4344L350.37592 550.4344ZM351.82904 549.2L352.93842 549.10626Q353.06342 549.91876 353.50092 550.325Q353.95404 550.73126 354.59467 550.73126Q355.34467 550.73126 355.87592 550.15314Q356.40717 549.575 356.40717 548.6375Q356.40717 547.73126 355.89154 547.21564Q355.39154 546.6844 354.56342 546.6844Q354.06342 546.6844 353.64154 546.91876Q353.2353 547.15314 353.00092 547.5125L352.01654 547.3875L352.84467 542.98126L357.12592 542.98126L357.12592 543.98126L353.68842 543.98126L353.2353 546.29376Q354.00092 545.7469 354.84467 545.7469Q355.96967 545.7469 356.7353 546.52814Q357.51654 547.3094 357.51654 548.54376Q357.51654 549.7 356.84467 550.5594Q356.01654 551.59064 354.59467 551.59064Q353.4228 551.59064 352.6728 550.9344Q351.93842 550.27814 351.82904 549.2Z" fill-rule="nonzero"/><path fill="#000000" d="M554.60803 547.21564Q554.60803 545.6844 554.92053 544.7625Q555.23303 543.825 555.8424 543.325Q556.4674 542.825 557.4049 542.825Q558.0924 542.825 558.60803 543.10626Q559.1393 543.3875 559.48303 543.91876Q559.8268 544.4344 560.0143 545.1844Q560.2018 545.9344 560.2018 547.21564Q560.2018 548.73126 559.8893 549.65314Q559.5924 550.575 558.9674 551.09064Q558.35803 551.59064 557.4049 551.59064Q556.17053 551.59064 555.4518 550.7Q554.60803 549.6375 554.60803 547.21564ZM555.68616 547.21564Q555.68616 549.325 556.18616 550.02814Q556.68616 550.73126 557.4049 550.73126Q558.1393 550.73126 558.62366 550.02814Q559.12366 549.325 559.12366 547.21564Q559.12366 545.09064 558.62366 544.40314Q558.1393 543.7 557.3893 543.7Q556.67053 543.7 556.23303 544.3094Q555.68616 545.09064 555.68616 547.21564ZM562.2018 551.45L562.2018 550.2469L563.4049 550.2469L563.4049 551.45L562.2018 551.45ZM564.60803 549.2L565.7174 549.10626Q565.8424 549.91876 566.2799 550.325Q566.73303 550.73126 567.37366 550.73126Q568.12366 550.73126 568.6549 550.15314Q569.18616 549.575 569.18616 548.6375Q569.18616 547.73126 568.67053 547.21564Q568.17053 546.6844 567.3424 546.6844Q566.8424 546.6844 566.42053 546.91876Q566.0143 547.15314 565.7799 547.5125L564.79553 547.3875L565.62366 542.98126L569.9049 542.98126L569.9049 543.98126L566.4674 543.98126L566.0143 546.29376Q566.7799 545.7469 567.62366 545.7469Q568.74866 545.7469 569.5143 546.52814Q570.29553 547.3094 570.29553 548.54376Q570.29553 549.7 569.62366 550.5594Q568.79553 551.59064 567.37366 551.59064Q566.2018 551.59064 565.4518 550.9344Q564.7174 550.27814 564.60803 549.2ZM571.60803 547.21564Q571.60803 545.6844 571.92053 544.7625Q572.23303 543.825 572.8424 543.325Q573.4674 542.825 574.4049 542.825Q575.0924 542.825 575.60803 543.10626Q576.1393 543.3875 576.48303 543.91876Q576.8268 544.4344 577.0143 545.1844Q577.2018 545.9344 577.2018 547.21564Q577.2018 548.73126 576.8893 549.65314Q576.5924 550.575 575.9674 551.09064Q575.35803 551.59064 574.4049 551.59064Q573.17053 551.59064 572.4518 550.7Q571.60803 549.6375 571.60803 547.21564ZM572.68616 547.21564Q572.68616 549.325 573.18616 550.02814Q573.68616 550.73126 574.4049 550.73126Q575.1393 550.73126 575.62366 550.02814Q576.12366 549.325 576.12366 547.21564Q576.12366 545.09064 575.62366 544.40314Q575.1393 543.7 574.3893 543.7Q573.67053 543.7 573.23303 544.3094Q572.68616 545.09064 572.68616 547.21564Z" fill-rule="nonzero"/><path fill="#000000" d="M774.3871 547.21564Q774.3871 545.6844 774.6996 544.7625Q775.0121 543.825 775.62146 543.325Q776.24646 542.825 777.18396 542.825Q777.87146 542.825 778.3871 543.10626Q778.91833 543.3875 779.2621 543.91876Q779.60583 544.4344 779.79333 545.1844Q779.98083 545.9344 779.98083 547.21564Q779.98083 548.73126 779.66833 549.65314Q779.37146 550.575 778.74646 551.09064Q778.1371 551.59064 777.18396 551.59064Q775.9496 551.59064 775.23083 550.7Q774.3871 549.6375 774.3871 547.21564ZM775.4652 547.21564Q775.4652 549.325 775.9652 550.02814Q776.4652 550.73126 777.18396 550.73126Q777.91833 550.73126 778.4027 550.02814Q778.9027 549.325 778.9027 547.21564Q778.9027 545.09064 778.4027 544.40314Q777.91833 543.7 777.16833 543.7Q776.4496 543.7 776.0121 544.3094Q775.4652 545.09064 775.4652 547.21564ZM781.98083 551.45L781.98083 550.2469L783.18396 550.2469L783.18396 551.45L781.98083 551.45ZM784.4496 543.98126L784.4496 542.96564L790.0121 542.96564L790.0121 543.79376Q789.1996 544.66876 788.3871 546.1219Q787.5902 547.5594 787.1527 549.09064Q786.8246 550.16876 786.74646 551.45L785.6527 551.45Q785.66833 550.4344 786.04333 548.9969Q786.43396 547.5594 787.1371 546.23126Q787.85583 544.90314 788.66833 543.98126L784.4496 543.98126ZM791.3871 549.2L792.49646 549.10626Q792.62146 549.91876 793.05896 550.325Q793.5121 550.73126 794.1527 550.73126Q794.9027 550.73126 795.43396 550.15314Q795.9652 549.575 795.9652 548.6375Q795.9652 547.73126 795.4496 547.21564Q794.9496 546.6844 794.12146 546.6844Q793.62146 546.6844 793.1996 546.91876Q792.79333 547.15314 792.55896 547.5125L791.5746 547.3875L792.4027 542.98126L796.68396 542.98126L796.68396 543.98126L793.24646 543.98126L792.79333 546.29376Q793.55896 545.7469 794.4027 545.7469Q795.5277 545.7469 796.29333 546.52814Q797.0746 547.3094 797.0746 548.54376Q797.0746 549.7 796.4027 550.5594Q795.5746 551.59064 794.1527 551.59064Q792.98083 551.59064 792.23083 550.9344Q791.49646 550.27814 791.3871 549.2Z" fill-rule="nonzero"/><path fill="#000000" d="M998.1349 551.45L997.088 551.45L997.088 544.73126Q996.6974 545.09064 996.0724 545.46564Q995.463 545.825 994.97864 545.9969L994.97864 544.98126Q995.85364 544.5594 996.5099 543.98126Q997.18176 543.3875 997.463 542.825L998.1349 542.825L998.1349 551.45ZM1001.7599 551.45L1001.7599 550.2469L1002.963 550.2469L1002.963 551.45L1001.7599 551.45ZM1004.16614 547.21564Q1004.16614 545.6844 1004.47864 544.7625Q1004.79114 543.825 1005.4005 543.325Q1006.0255 542.825 1006.963 542.825Q1007.6505 542.825 1008.16614 543.10626Q1008.6974 543.3875 1009.04114 543.91876Q1009.3849 544.4344 1009.5724 545.1844Q1009.7599 545.9344 1009.7599 547.21564Q1009.7599 548.73126 1009.4474 549.65314Q1009.1505 550.575 1008.5255 551.09064Q1007.91614 551.59064 1006.963 551.59064Q1005.72864 551.59064 1005.0099 550.7Q1004.16614 549.6375 1004.16614 547.21564ZM1005.24426 547.21564Q1005.24426 549.325 1005.74426 550.02814Q1006.24426 550.73126 1006.963 550.73126Q1007.6974 550.73126 1008.18176 550.02814Q1008.68176 549.325 1008.68176 547.21564Q1008.68176 545.09064 1008.18176 544.40314Q1007.6974 543.7 1006.9474 543.7Q1006.22864 543.7 1005.79114 544.3094Q1005.24426 545.09064 1005.24426 547.21564ZM1011.16614 547.21564Q1011.16614 545.6844 1011.47864 544.7625Q1011.79114 543.825 1012.4005 543.325Q1013.0255 542.825 1013.963 542.825Q1014.6505 542.825 1015.16614 543.10626Q1015.6974 543.3875 1016.04114 543.91876Q1016.3849 544.4344 1016.5724 545.1844Q1016.7599 545.9344 1016.7599 547.21564Q1016.7599 548.73126 1016.4474 549.65314Q1016.1505 550.575 1015.5255 551.09064Q1014.91614 551.59064 1013.963 551.59064Q1012.72864 551.59064 1012.0099 550.7Q1011.16614 549.6375 1011.16614 547.21564ZM1012.24426 547.21564Q1012.24426 549.325 1012.74426 550.02814Q1013.24426 550.73126 1013.963 550.73126Q1014.6974 550.73126 1015.18176 550.02814Q1015.68176 549.325 1015.68176 547.21564Q1015.68176 545.09064 1015.18176 544.40314Q1014.6974 543.7 1013.9474 543.7Q1013.22864 543.7 1012.79114 544.3094Q1012.24426 545.09064 1012.24426 547.21564Z" fill-rule="nonzero"/><path fill="#4285f4" d="M274.5 44.55C274.5 47.86371 271.81372 50.55 268.5 50.55C265.18628 50.55 262.5 47.86371 262.5 44.55C262.5 41.23629 265.18628 38.55 268.5 38.55C271.81372 38.55 274.5 41.23629 274.5 44.55Z" fill-rule="nonzero"/><path fill="#1a1a1a" d="M284.07812 51.55L284.07812 37.2375L294.4375 37.2375L294.4375 38.925L285.98438 38.925L285.98438 43.3L293.89062 43.3L293.89062 44.9875L285.98438 44.9875L285.98438 49.8625L294.76562 49.8625L294.76562 51.55L284.07812 51.55ZM303.54688 51.55L303.54688 50.2375Q302.5625 51.784374 300.64062 51.784374Q299.40625 51.784374 298.35938 51.096874Q297.32812 50.409374 296.75 49.190624Q296.1875 47.971874 296.1875 46.378124Q296.1875 44.815624 296.70312 43.55Q297.21875 42.284374 298.25 41.6125Q299.29688 40.940624 300.5625 40.940624Q301.5 40.940624 302.23438 41.346874Q302.96875 41.7375 303.4375 42.3625L303.4375 37.2375L305.17188 37.2375L305.17188 51.55L303.54688 51.55ZM297.98438 46.378124Q297.98438 48.3625 298.82812 49.346874Q299.67188 50.33125 300.8125 50.33125Q301.96875 50.33125 302.76562 49.39375Q303.57812 48.45625 303.57812 46.51875Q303.57812 44.39375 302.75 43.39375Q301.9375 42.39375 300.73438 42.39375Q299.5625 42.39375 298.76562 43.3625Q297.98438 44.315624 297.98438 46.378124ZM314.60938 51.55L314.60938 50.01875Q313.40625 51.784374 311.32812 51.784374Q310.40625 51.784374 309.60938 51.440624Q308.8125 51.08125 308.42188 50.55Q308.04688 50.01875 307.89062 49.2375Q307.78125 48.721874 307.78125 47.596874L307.78125 41.175L309.53125 41.175L309.53125 46.925Q309.53125 48.3 309.64062 48.784374Q309.8125 49.471874 310.34375 49.878124Q310.89062 50.26875 311.67188 50.26875Q312.46875 50.26875 313.15625 49.8625Q313.85938 49.45625 314.14062 48.76875Q314.4375 48.065624 314.4375 46.7375L314.4375 41.175L316.1875 41.175L316.1875 51.55L314.60938 51.55ZM325.59375 47.753124L327.3125 47.971874Q327.03125 49.76875 325.85938 50.784374Q324.70312 51.784374 323.0 51.784374Q320.875 51.784374 319.57812 50.39375Q318.28125 49.003124 318.28125 46.409374Q318.28125 44.721874 318.82812 43.471874Q319.39062 42.20625 320.53125 41.58125Q321.67188 40.940624 323.01562 40.940624Q324.70312 40.940624 325.76562 41.8Q326.84375 42.659374 327.15625 44.221874L325.4375 44.4875Q325.20312 43.440624 324.57812 42.925Q323.95312 42.39375 323.07812 42.39375Q321.75 42.39375 320.92188 43.346874Q320.09375 44.3 320.09375 46.346874Q320.09375 48.440624 320.89062 49.39375Q321.6875 50.33125 322.98438 50.33125Q324.01562 50.33125 324.70312 49.70625Q325.40625 49.065624 325.59375 47.753124ZM335.59375 50.26875Q334.60938 51.096874 333.70312 51.440624Q332.79688 51.784374 331.76562 51.784374Q330.0625 51.784374 329.14062 50.95625Q328.21875 50.1125 328.21875 48.815624Q328.21875 48.05 328.5625 47.425Q328.92188 46.8 329.48438 46.425Q330.04688 46.034374 330.75 45.83125Q331.26562 45.70625 332.3125 45.565624Q334.4375 45.315624 335.4375 44.971874Q335.45312 44.6125 335.45312 44.503124Q335.45312 43.440624 334.95312 42.9875Q334.28125 42.39375 332.95312 42.39375Q331.70312 42.39375 331.10938 42.83125Q330.53125 43.26875 330.25 44.378124L328.53125 44.14375Q328.76562 43.034374 329.29688 42.3625Q329.82812 41.675 330.84375 41.315624Q331.85938 40.940624 333.20312 40.940624Q334.53125 40.940624 335.35938 41.253124Q336.1875 41.565624 336.57812 42.05Q336.96875 42.51875 337.125 43.2375Q337.21875 43.690624 337.21875 44.8625L337.21875 47.20625Q337.21875 49.659374 337.32812 50.315624Q337.4375 50.95625 337.78125 51.55L335.9375 51.55Q335.67188 51.003124 335.59375 50.26875ZM335.4375 46.346874Q334.48438 46.7375 332.5625 47.003124Q331.48438 47.159374 331.03125 47.3625Q330.59375 47.55 330.34375 47.925Q330.09375 48.3 330.09375 48.76875Q330.09375 49.471874 330.625 49.940624Q331.15625 50.409374 332.1875 50.409374Q333.20312 50.409374 333.98438 49.971874Q334.78125 49.51875 335.15625 48.753124Q335.4375 48.14375 335.4375 46.9875L335.4375 46.346874ZM343.65625 49.971874L343.90625 51.534374Q343.17188 51.690624 342.57812 51.690624Q341.625 51.690624 341.09375 51.39375Q340.57812 51.08125 340.35938 50.596874Q340.14062 50.096874 340.14062 48.51875L340.14062 42.55L338.85938 42.55L338.85938 41.175L340.14062 41.175L340.14062 38.6125L341.89062 37.55L341.89062 41.175L343.65625 41.175L343.65625 42.55L341.89062 42.55L341.89062 48.6125Q341.89062 49.3625 341.98438 49.58125Q342.07812 49.784374 342.28125 49.925Q342.5 50.05 342.89062 50.05Q343.17188 50.05 343.65625 49.971874ZM345.82812 39.253124L345.82812 37.2375L347.59375 37.2375L347.59375 39.253124L345.82812 39.253124ZM345.82812 51.55L345.82812 41.175L347.59375 41.175L347.59375 51.55L345.82812 51.55ZM349.17188 46.3625Q349.17188 43.4875 350.76562 42.096874Q352.10938 40.940624 354.03125 40.940624Q356.17188 40.940624 357.51562 42.346874Q358.875 43.753124 358.875 46.221874Q358.875 48.221874 358.28125 49.378124Q357.6875 50.51875 356.53125 51.159374Q355.39062 51.784374 354.03125 51.784374Q351.84375 51.784374 350.5 50.39375Q349.17188 48.9875 349.17188 46.3625ZM350.96875 46.3625Q350.96875 48.3625 351.82812 49.346874Q352.70312 50.33125 354.03125 50.33125Q355.34375 50.33125 356.20312 49.346874Q357.07812 48.346874 357.07812 46.3Q357.07812 44.378124 356.20312 43.39375Q355.32812 42.39375 354.03125 42.39375Q352.70312 42.39375 351.82812 43.39375Q350.96875 44.378124 350.96875 46.3625ZM360.8125 51.55L360.8125 41.175L362.40625 41.175L362.40625 42.659374Q363.54688 40.940624 365.70312 40.940624Q366.64062 40.940624 367.42188 41.284374Q368.21875 41.6125 368.60938 42.159374Q369.0 42.70625 369.15625 43.45625Q369.25 43.95625 369.25 45.175L369.25 51.55L367.48438 51.55L367.48438 45.2375Q367.48438 44.159374 367.28125 43.628124Q367.07812 43.096874 366.54688 42.784374Q366.03125 42.471874 365.32812 42.471874Q364.20312 42.471874 363.39062 43.190624Q362.57812 43.89375 362.57812 45.878124L362.57812 51.55L360.8125 51.55ZM375.6875 51.55L375.6875 38.925L370.96875 38.925L370.96875 37.2375L382.3125 37.2375L382.3125 38.925L377.57812 38.925L377.57812 51.55L375.6875 51.55ZM390.59375 50.26875Q389.60938 51.096874 388.70312 51.440624Q387.79688 51.784374 386.76562 51.784374Q385.0625 51.784374 384.14062 50.95625Q383.21875 50.1125 383.21875 48.815624Q383.21875 48.05 383.5625 47.425Q383.92188 46.8 384.48438 46.425Q385.04688 46.034374 385.75 45.83125Q386.26562 45.70625 387.3125 45.565624Q389.4375 45.315624 390.4375 44.971874Q390.45312 44.6125 390.45312 44.503124Q390.45312 43.440624 389.95312 42.9875Q389.28125 42.39375 387.95312 42.39375Q386.70312 42.39375 386.10938 42.83125Q385.53125 43.26875 385.25 44.378124L383.53125 44.14375Q383.76562 43.034374 384.29688 42.3625Q384.82812 41.675 385.84375 41.315624Q386.85938 40.940624 388.20312 40.940624Q389.53125 40.940624 390.35938 41.253124Q391.1875 41.565624 391.57812 42.05Q391.96875 42.51875 392.125 43.2375Q392.21875 43.690624 392.21875 44.8625L392.21875 47.20625Q392.21875 49.659374 392.32812 50.315624Q392.4375 50.95625 392.78125 51.55L390.9375 51.55Q390.67188 51.003124 390.59375 50.26875ZM390.4375 46.346874Q389.48438 46.7375 387.5625 47.003124Q386.48438 47.159374 386.03125 47.3625Q385.59375 47.55 385.34375 47.925Q385.09375 48.3 385.09375 48.76875Q385.09375 49.471874 385.625 49.940624Q386.15625 50.409374 387.1875 50.409374Q388.20312 50.409374 388.98438 49.971874Q389.78125 49.51875 390.15625 48.753124Q390.4375 48.14375 390.4375 46.9875L390.4375 46.346874ZM396.4375 51.55L394.8125 51.55L394.8125 37.2375L396.5625 37.2375L396.5625 42.346874Q397.6875 40.940624 399.40625 40.940624Q400.35938 40.940624 401.21875 41.33125Q402.07812 41.721874 402.625 42.425Q403.17188 43.1125 403.48438 44.096874Q403.79688 45.08125 403.79688 46.20625Q403.79688 48.878124 402.48438 50.33125Q401.17188 51.784374 399.32812 51.784374Q397.48438 51.784374 396.4375 50.253124L396.4375 51.55ZM396.42188 46.284374Q396.42188 48.14375 396.92188 48.9875Q397.76562 50.33125 399.17188 50.33125Q400.32812 50.33125 401.15625 49.33125Q402.0 48.33125 402.0 46.346874Q402.0 44.315624 401.1875 43.3625Q400.39062 42.39375 399.25 42.39375Q398.09375 42.39375 397.25 43.39375Q396.42188 44.39375 396.42188 46.284374ZM405.78125 51.55L405.78125 37.2375L407.53125 37.2375L407.53125 51.55L405.78125 51.55ZM416.92188 48.20625L418.73438 48.440624Q418.3125 50.01875 417.14062 50.909374Q415.98438 51.784374 414.17188 51.784374Q411.90625 51.784374 410.5625 50.39375Q409.23438 48.9875 409.23438 46.45625Q409.23438 43.83125 410.57812 42.39375Q411.92188 40.940624 414.07812 40.940624Q416.15625 40.940624 417.46875 42.3625Q418.79688 43.76875 418.79688 46.346874Q418.79688 46.503124 418.78125 46.815624L411.04688 46.815624Q411.14062 48.51875 412.01562 49.425Q412.89062 50.33125 414.1875 50.33125Q415.15625 50.33125 415.82812 49.83125Q416.51562 49.315624 416.92188 48.20625ZM411.14062 45.3625L416.9375 45.3625Q416.82812 44.065624 416.28125 43.409374Q415.4375 42.39375 414.09375 42.39375Q412.89062 42.39375 412.0625 43.20625Q411.23438 44.003124 411.14062 45.3625Z" fill-rule="nonzero"/><path fill="#ea4335" d="M441.5 38.55L446.69617 47.55L436.30383 47.55Z" fill-rule="nonzero"/><path fill="#1a1a1a" d="M457.07812 51.55L457.07812 37.2375L463.42188 37.2375Q465.32812 37.2375 466.32812 37.628124Q467.32812 38.003124 467.92188 38.9875Q468.51562 39.95625 468.51562 41.14375Q468.51562 42.659374 467.53125 43.70625Q466.54688 44.753124 464.48438 45.034374Q465.23438 45.39375 465.625 45.753124Q466.45312 46.503124 467.20312 47.659374L469.6875 51.55L467.3125 51.55L465.40625 48.565624Q464.57812 47.284374 464.04688 46.596874Q463.51562 45.909374 463.07812 45.64375Q462.65625 45.3625 462.21875 45.253124Q461.89062 45.190624 461.17188 45.190624L458.96875 45.190624L458.96875 51.55L457.07812 51.55ZM458.96875 43.55L463.04688 43.55Q464.34375 43.55 465.0625 43.284374Q465.79688 43.01875 466.17188 42.425Q466.5625 41.83125 466.5625 41.14375Q466.5625 40.128124 465.82812 39.471874Q465.09375 38.815624 463.5 38.815624L458.96875 38.815624L458.96875 43.55ZM477.59375 50.26875Q476.60938 51.096874 475.70312 51.440624Q474.79688 51.784374 473.76562 51.784374Q472.0625 51.784374 471.14062 50.95625Q470.21875 50.1125 470.21875 48.815624Q470.21875 48.05 470.5625 47.425Q470.92188 46.8 471.48438 46.425Q472.04688 46.034374 472.75 45.83125Q473.26562 45.70625 474.3125 45.565624Q476.4375 45.315624 477.4375 44.971874Q477.45312 44.6125 477.45312 44.503124Q477.45312 43.440624 476.95312 42.9875Q476.28125 42.39375 474.95312 42.39375Q473.70312 42.39375 473.10938 42.83125Q472.53125 43.26875 472.25 44.378124L470.53125 44.14375Q470.76562 43.034374 471.29688 42.3625Q471.82812 41.675 472.84375 41.315624Q473.85938 40.940624 475.20312 40.940624Q476.53125 40.940624 477.35938 41.253124Q478.1875 41.565624 478.57812 42.05Q478.96875 42.51875 479.125 43.2375Q479.21875 43.690624 479.21875 44.8625L479.21875 47.20625Q479.21875 49.659374 479.32812 50.315624Q479.4375 50.95625 479.78125 51.55L477.9375 51.55Q477.67188 51.003124 477.59375 50.26875ZM477.4375 46.346874Q476.48438 46.7375 474.5625 47.003124Q473.48438 47.159374 473.03125 47.3625Q472.59375 47.55 472.34375 47.925Q472.09375 48.3 472.09375 48.76875Q472.09375 49.471874 472.625 49.940624Q473.15625 50.409374 474.1875 50.409374Q475.20312 50.409374 475.98438 49.971874Q476.78125 49.51875 477.15625 48.753124Q477.4375 48.14375 477.4375 46.9875L477.4375 46.346874ZM488.59375 47.753124L490.3125 47.971874Q490.03125 49.76875 488.85938 50.784374Q487.70312 51.784374 486.0 51.784374Q483.875 51.784374 482.57812 50.39375Q481.28125 49.003124 481.28125 46.409374Q481.28125 44.721874 481.82812 43.471874Q482.39062 42.20625 483.53125 41.58125Q484.67188 40.940624 486.01562 40.940624Q487.70312 40.940624 488.76562 41.8Q489.84375 42.659374 490.15625 44.221874L488.4375 44.4875Q488.20312 43.440624 487.57812 42.925Q486.95312 42.39375 486.07812 42.39375Q484.75 42.39375 483.92188 43.346874Q483.09375 44.3 483.09375 46.346874Q483.09375 48.440624 483.89062 49.39375Q484.6875 50.33125 485.98438 50.33125Q487.01562 50.33125 487.70312 49.70625Q488.40625 49.065624 488.59375 47.753124ZM498.92188 48.20625L500.73438 48.440624Q500.3125 50.01875 499.14062 50.909374Q497.98438 51.784374 496.17188 51.784374Q493.90625 51.784374 492.5625 50.39375Q491.23438 48.9875 491.23438 46.45625Q491.23438 43.83125 492.57812 42.39375Q493.92188 40.940624 496.07812 40.940624Q498.15625 40.940624 499.46875 42.3625Q500.79688 43.76875 500.79688 46.346874Q500.79688 46.503124 500.78125 46.815624L493.04688 46.815624Q493.14062 48.51875 494.01562 49.425Q494.89062 50.33125 496.1875 50.33125Q497.15625 50.33125 497.82812 49.83125Q498.51562 49.315624 498.92188 48.20625ZM493.14062 45.3625L498.9375 45.3625Q498.82812 44.065624 498.28125 43.409374Q497.4375 42.39375 496.09375 42.39375Q494.89062 42.39375 494.0625 43.20625Q493.23438 44.003124 493.14062 45.3625ZM506.6875 51.55L506.6875 38.925L501.96875 38.925L501.96875 37.2375L513.3125 37.2375L513.3125 38.925L508.57812 38.925L508.57812 51.55L506.6875 51.55ZM521.59375 50.26875Q520.6094 51.096874 519.7031 51.440624Q518.7969 51.784374 517.7656 51.784374Q516.0625 51.784374 515.1406 50.95625Q514.21875 50.1125 514.21875 48.815624Q514.21875 48.05 514.5625 47.425Q514.9219 46.8 515.4844 46.425Q516.0469 46.034374 516.75 45.83125Q517.2656 45.70625 518.3125 45.565624Q520.4375 45.315624 521.4375 44.971874Q521.4531 44.6125 521.4531 44.503124Q521.4531 43.440624 520.9531 42.9875Q520.28125 42.39375 518.9531 42.39375Q517.7031 42.39375 517.1094 42.83125Q516.53125 43.26875 516.25 44.378124L514.53125 44.14375Q514.7656 43.034374 515.2969 42.3625Q515.8281 41.675 516.84375 41.315624Q517.8594 40.940624 519.2031 40.940624Q520.53125 40.940624 521.3594 41.253124Q522.1875 41.565624 522.5781 42.05Q522.96875 42.51875 523.125 43.2375Q523.21875 43.690624 523.21875 44.8625L523.21875 47.20625Q523.21875 49.659374 523.3281 50.315624Q523.4375 50.95625 523.78125 51.55L521.9375 51.55Q521.6719 51.003124 521.59375 50.26875ZM521.4375 46.346874Q520.4844 46.7375 518.5625 47.003124Q517.4844 47.159374 517.03125 47.3625Q516.59375 47.55 516.34375 47.925Q516.09375 48.3 516.09375 48.76875Q516.09375 49.471874 516.625 49.940624Q517.15625 50.409374 518.1875 50.409374Q519.2031 50.409374 519.9844 49.971874Q520.78125 49.51875 521.15625 48.753124Q521.4375 48.14375 521.4375 46.9875L521.4375 46.346874ZM527.4375 51.55L525.8125 51.55L525.8125 37.2375L527.5625 37.2375L527.5625 42.346874Q528.6875 40.940624 530.40625 40.940624Q531.3594 40.940624 532.21875 41.33125Q533.0781 41.721874 533.625 42.425Q534.1719 43.1125 534.4844 44.096874Q534.7969 45.08125 534.7969 46.20625Q534.7969 48.878124 533.4844 50.33125Q532.1719 51.784374 530.3281 51.784374Q528.4844 51.784374 527.4375 50.253124L527.4375 51.55ZM527.4219 46.284374Q527.4219 48.14375 527.9219 48.9875Q528.7656 50.33125 530.1719 50.33125Q531.3281 50.33125 532.15625 49.33125Q533.0 48.33125 533.0 46.346874Q533.0 44.315624 532.1875 43.3625Q531.3906 42.39375 530.25 42.39375Q529.09375 42.39375 528.25 43.39375Q527.4219 44.39375 527.4219 46.284374ZM536.78125 51.55L536.78125 37.2375L538.53125 37.2375L538.53125 51.55L536.78125 51.55ZM547.9219 48.20625L549.7344 48.440624Q549.3125 50.01875 548.1406 50.909374Q546.9844 51.784374 545.1719 51.784374Q542.90625 51.784374 541.5625 50.39375Q540.2344 48.9875 540.2344 46.45625Q540.2344 43.83125 541.5781 42.39375Q542.9219 40.940624 545.0781 40.940624Q547.15625 40.940624 548.46875 42.3625Q549.7969 43.76875 549.7969 46.346874Q549.7969 46.503124 549.78125 46.815624L542.0469 46.815624Q542.1406 48.51875 543.0156 49.425Q543.8906 50.33125 545.1875 50.33125Q546.15625 50.33125 546.8281 49.83125Q547.5156 49.315624 547.9219 48.20625ZM542.1406 45.3625L547.9375 45.3625Q547.8281 44.065624 547.28125 43.409374Q546.4375 42.39375 545.09375 42.39375Q543.8906 42.39375 543.0625 43.20625Q542.2344 44.003124 542.1406 45.3625Z" fill-rule="nonzero"/><path fill="#fbbc04" d="M568.2574 40.307358L576.7426 40.307358L576.7426 48.79264L568.2574 48.79264Z" fill-rule="nonzero"/><path fill="#1a1a1a" d="M586.46875 51.55L591.96875 37.2375L594.0156 37.2375L599.875 51.55L597.71875 51.55L596.0469 47.20625L590.0625 47.20625L588.4844 51.55L586.46875 51.55ZM590.6094 45.675L595.4531 45.675L593.96875 41.70625Q593.28125 39.89375 592.9531 38.7375Q592.6719 40.1125 592.1719 41.471874L590.6094 45.675ZM600.5 52.409374L602.2031 52.659374Q602.3125 53.45625 602.7969 53.815624Q603.4531 54.3 604.59375 54.3Q605.8125 54.3 606.46875 53.815624Q607.1406 53.33125 607.375 52.45625Q607.5156 51.909374 607.5 50.190624Q606.34375 51.55 604.625 51.55Q602.4844 51.55 601.3125 50.003124Q600.1406 48.45625 600.1406 46.3Q600.1406 44.815624 600.6719 43.565624Q601.21875 42.315624 602.2344 41.628124Q603.2656 40.940624 604.6406 40.940624Q606.46875 40.940624 607.6719 42.425L607.6719 41.175L609.28125 41.175L609.28125 50.14375Q609.28125 52.565624 608.78125 53.565624Q608.2969 54.58125 607.21875 55.159374Q606.15625 55.753124 604.59375 55.753124Q602.75 55.753124 601.59375 54.925Q600.4531 54.096874 600.5 52.409374ZM601.9531 46.175Q601.9531 48.221874 602.7656 49.159374Q603.5781 50.096874 604.7969 50.096874Q606.0 50.096874 606.8125 49.159374Q607.6406 48.221874 607.6406 46.2375Q607.6406 44.33125 606.7969 43.3625Q605.9531 42.39375 604.7656 42.39375Q603.59375 42.39375 602.7656 43.346874Q601.9531 44.3 601.9531 46.175ZM618.9219 48.20625L620.7344 48.440624Q620.3125 50.01875 619.1406 50.909374Q617.9844 51.784374 616.1719 51.784374Q613.90625 51.784374 612.5625 50.39375Q611.2344 48.9875 611.2344 46.45625Q611.2344 43.83125 612.5781 42.39375Q613.9219 40.940624 616.0781 40.940624Q618.15625 40.940624 619.46875 42.3625Q620.7969 43.76875 620.7969 46.346874Q620.7969 46.503124 620.78125 46.815624L613.0469 46.815624Q613.1406 48.51875 614.0156 49.425Q614.8906 50.33125 616.1875 50.33125Q617.15625 50.33125 617.8281 49.83125Q618.5156 49.315624 618.9219 48.20625ZM613.1406 45.3625L618.9375 45.3625Q618.8281 44.065624 618.28125 43.409374Q617.4375 42.39375 616.09375 42.39375Q614.8906 42.39375 614.0625 43.20625Q613.2344 44.003124 613.1406 45.3625ZM626.6875 51.55L626.6875 38.925L621.96875 38.925L621.96875 37.2375L633.3125 37.2375L633.3125 38.925L628.5781 38.925L628.5781 51.55L626.6875 51.55ZM641.59375 50.26875Q640.6094 51.096874 639.7031 51.440624Q638.7969 51.784374 637.7656 51.784374Q636.0625 51.784374 635.1406 50.95625Q634.21875 50.1125 634.21875 48.815624Q634.21875 48.05 634.5625 47.425Q634.9219 46.8 635.4844 46.425Q636.0469 46.034374 636.75 45.83125Q637.2656 45.70625 638.3125 45.565624Q640.4375 45.315624 641.4375 44.971874Q641.4531 44.6125 641.4531 44.503124Q641.4531 43.440624 640.9531 42.9875Q640.28125 42.39375 638.9531 42.39375Q637.7031 42.39375 637.1094 42.83125Q636.53125 43.26875 636.25 44.378124L634.53125 44.14375Q634.7656 43.034374 635.2969 42.3625Q635.8281 41.675 636.84375 41.315624Q637.8594 40.940624 639.2031 40.940624Q640.53125 40.940624 641.3594 41.253124Q642.1875 41.565624 642.5781 42.05Q642.96875 42.51875 643.125 43.2375Q643.21875 43.690624 643.21875 44.8625L643.21875 47.20625Q643.21875 49.659374 643.3281 50.315624Q643.4375 50.95625 643.78125 51.55L641.9375 51.55Q641.6719 51.003124 641.59375 50.26875ZM641.4375 46.346874Q640.4844 46.7375 638.5625 47.003124Q637.4844 47.159374 637.03125 47.3625Q636.59375 47.55 636.34375 47.925Q636.09375 48.3 636.09375 48.76875Q636.09375 49.471874 636.625 49.940624Q637.15625 50.409374 638.1875 50.409374Q639.2031 50.409374 639.9844 49.971874Q640.78125 49.51875 641.15625 48.753124Q641.4375 48.14375 641.4375 46.9875L641.4375 46.346874ZM647.4375 51.55L645.8125 51.55L645.8125 37.2375L647.5625 37.2375L647.5625 42.346874Q648.6875 40.940624 650.40625 40.940624Q651.3594 40.940624 652.21875 41.33125Q653.0781 41.721874 653.625 42.425Q654.1719 43.1125 654.4844 44.096874Q654.7969 45.08125 654.7969 46.20625Q654.7969 48.878124 653.4844 50.33125Q652.1719 51.784374 650.3281 51.784374Q648.4844 51.784374 647.4375 50.253124L647.4375 51.55ZM647.4219 46.284374Q647.4219 48.14375 647.9219 48.9875Q648.7656 50.33125 650.1719 50.33125Q651.3281 50.33125 652.15625 49.33125Q653.0 48.33125 653.0 46.346874Q653.0 44.315624 652.1875 43.3625Q651.3906 42.39375 650.25 42.39375Q649.09375 42.39375 648.25 43.39375Q647.4219 44.39375 647.4219 46.284374ZM656.78125 51.55L656.78125 37.2375L658.53125 37.2375L658.53125 51.55L656.78125 51.55ZM667.9219 48.20625L669.7344 48.440624Q669.3125 50.01875 668.1406 50.909374Q666.9844 51.784374 665.1719 51.784374Q662.90625 51.784374 661.5625 50.39375Q660.2344 48.9875 660.2344 46.45625Q660.2344 43.83125 661.5781 42.39375Q662.9219 40.940624 665.0781 40.940624Q667.15625 40.940624 668.46875 42.3625Q669.7969 43.76875 669.7969 46.346874Q669.7969 46.503124 669.78125 46.815624L662.0469 46.815624Q662.1406 48.51875 663.0156 49.425Q663.8906 50.33125 665.1875 50.33125Q666.15625 50.33125 666.8281 49.83125Q667.5156 49.315624 667.9219 48.20625ZM662.1406 45.3625L667.9375 45.3625Q667.8281 44.065624 667.28125 43.409374Q666.4375 42.39375 665.09375 42.39375Q663.8906 42.39375 663.0625 43.20625Q662.2344 44.003124 662.1406 45.3625Z" fill-rule="nonzero"/><path fill="#34a853" d="M692.5 38.55L693.8471 42.695896L698.20636 42.695896L694.6796 45.258205L696.02673 49.404102L692.5 46.841797L688.97327 49.404102L690.3204 45.258205L686.79364 42.695896L691.1529 42.695896Z" fill-rule="nonzero"/><path fill="#1a1a1a" d="M707.40625 46.95625L709.1875 46.8Q709.3125 47.8625 709.7656 48.55Q710.2344 49.2375 711.2031 49.675Q712.1875 50.096874 713.4219 50.096874Q714.5 50.096874 715.3281 49.784374Q716.15625 49.45625 716.5625 48.89375Q716.96875 48.33125 716.96875 47.659374Q716.96875 46.9875 716.5781 46.4875Q716.1875 45.9875 715.2969 45.64375Q714.71875 45.409374 712.7344 44.940624Q710.7656 44.471874 709.9844 44.05Q708.9531 43.51875 708.4531 42.721874Q707.9531 41.925 707.9531 40.940624Q707.9531 39.846874 708.5625 38.909374Q709.1719 37.971874 710.3594 37.4875Q711.5469 36.9875 712.9844 36.9875Q714.5781 36.9875 715.7969 37.503124Q717.0156 38.01875 717.65625 39.01875Q718.3125 40.003124 718.3594 41.26875L716.5469 41.409374Q716.40625 40.05 715.5625 39.3625Q714.71875 38.659374 713.0625 38.659374Q711.34375 38.659374 710.5469 39.3Q709.7656 39.925 709.7656 40.8Q709.7656 41.58125 710.3281 42.08125Q710.875 42.58125 713.1875 43.096874Q715.5 43.6125 716.3594 44.003124Q717.6094 44.58125 718.2031 45.471874Q718.7969 46.346874 718.7969 47.503124Q718.7969 48.64375 718.1406 49.659374Q717.4844 50.675 716.25 51.2375Q715.03125 51.8 713.5 51.8Q711.5625 51.8 710.25 51.2375Q708.9375 50.659374 708.1875 49.51875Q707.4375 48.378124 707.40625 46.95625ZM727.9219 48.20625L729.7344 48.440624Q729.3125 50.01875 728.1406 50.909374Q726.9844 51.784374 725.1719 51.784374Q722.90625 51.784374 721.5625 50.39375Q720.2344 48.9875 720.2344 46.45625Q720.2344 43.83125 721.5781 42.39375Q722.9219 40.940624 725.0781 40.940624Q727.15625 40.940624 728.46875 42.3625Q729.7969 43.76875 729.7969 46.346874Q729.7969 46.503124 729.78125 46.815624L722.0469 46.815624Q722.1406 48.51875 723.0156 49.425Q723.8906 50.33125 725.1875 50.33125Q726.15625 50.33125 726.8281 49.83125Q727.5156 49.315624 727.9219 48.20625ZM722.1406 45.3625L727.9375 45.3625Q727.8281 44.065624 727.28125 43.409374Q726.4375 42.39375 725.09375 42.39375Q723.8906 42.39375 723.0625 43.20625Q722.2344 44.003124 722.1406 45.3625ZM730.6406 51.55L734.4375 46.159374L730.9375 41.175L733.125 41.175L734.71875 43.6125Q735.1719 44.3 735.4375 44.76875Q735.875 44.128124 736.2344 43.628124L737.9844 41.175L740.0781 41.175L736.5 46.065624L740.3594 51.55L738.2031 51.55L736.0625 48.33125L735.5 47.45625L732.78125 51.55L730.6406 51.55ZM745.6875 51.55L745.6875 38.925L740.96875 38.925L740.96875 37.2375L752.3125 37.2375L752.3125 38.925L747.5781 38.925L747.5781 51.55L745.6875 51.55ZM760.59375 50.26875Q759.6094 51.096874 758.7031 51.440624Q757.7969 51.784374 756.7656 51.784374Q755.0625 51.784374 754.1406 50.95625Q753.21875 50.1125 753.21875 48.815624Q753.21875 48.05 753.5625 47.425Q753.9219 46.8 754.4844 46.425Q755.0469 46.034374 755.75 45.83125Q756.2656 45.70625 757.3125 45.565624Q759.4375 45.315624 760.4375 44.971874Q760.4531 44.6125 760.4531 44.503124Q760.4531 43.440624 759.9531 42.9875Q759.28125 42.39375 757.9531 42.39375Q756.7031 42.39375 756.1094 42.83125Q755.53125 43.26875 755.25 44.378124L753.53125 44.14375Q753.7656 43.034374 754.2969 42.3625Q754.8281 41.675 755.84375 41.315624Q756.8594 40.940624 758.2031 40.940624Q759.53125 40.940624 760.3594 41.253124Q761.1875 41.565624 761.5781 42.05Q761.96875 42.51875 762.125 43.2375Q762.21875 43.690624 762.21875 44.8625L762.21875 47.20625Q762.21875 49.659374 762.3281 50.315624Q762.4375 50.95625 762.78125 51.55L760.9375 51.55Q760.6719 51.003124 760.59375 50.26875ZM760.4375 46.346874Q759.4844 46.7375 757.5625 47.003124Q756.4844 47.159374 756.03125 47.3625Q755.59375 47.55 755.34375 47.925Q755.09375 48.3 755.09375 48.76875Q755.09375 49.471874 755.625 49.940624Q756.15625 50.409374 757.1875 50.409374Q758.2031 50.409374 758.9844 49.971874Q759.78125 49.51875 760.15625 48.753124Q760.4375 48.14375 760.4375 46.9875L760.4375 46.346874ZM766.4375 51.55L764.8125 51.55L764.8125 37.2375L766.5625 37.2375L766.5625 42.346874Q767.6875 40.940624 769.40625 40.940624Q770.3594 40.940624 771.21875 41.33125Q772.0781 41.721874 772.625 42.425Q773.1719 43.1125 773.4844 44.096874Q773.7969 45.08125 773.7969 46.20625Q773.7969 48.878124 772.4844 50.33125Q771.1719 51.784374 769.3281 51.784374Q767.4844 51.784374 766.4375 50.253124L766.4375 51.55ZM766.4219 46.284374Q766.4219 48.14375 766.9219 48.9875Q767.7656 50.33125 769.1719 50.33125Q770.3281 50.33125 771.15625 49.33125Q772.0 48.33125 772.0 46.346874Q772.0 44.315624 771.1875 43.3625Q770.3906 42.39375 769.25 42.39375Q768.09375 42.39375 767.25 43.39375Q766.4219 44.39375 766.4219 46.284374ZM775.78125 51.55L775.78125 37.2375L777.53125 37.2375L777.53125 51.55L775.78125 51.55ZM786.9219 48.20625L788.7344 48.440624Q788.3125 50.01875 787.1406 50.909374Q785.9844 51.784374 784.1719 51.784374Q781.90625 51.784374 780.5625 50.39375Q779.2344 48.9875 779.2344 46.45625Q779.2344 43.83125 780.5781 42.39375Q781.9219 40.940624 784.0781 40.940624Q786.15625 40.940624 787.46875 42.3625Q788.7969 43.76875 788.7969 46.346874Q788.7969 46.503124 788.78125 46.815624L781.0469 46.815624Q781.1406 48.51875 782.0156 49.425Q782.8906 50.33125 784.1875 50.33125Q785.15625 50.33125 785.8281 49.83125Q786.5156 49.315624 786.9219 48.20625ZM781.1406 45.3625L786.9375 45.3625Q786.8281 44.065624 786.28125 43.409374Q785.4375 42.39375 784.09375 42.39375Q782.8906 42.39375 782.0625 43.20625Q781.2344 44.003124 781.1406 45.3625Z" fill-rule="nonzero"/></svg>