<svg version="1.1" viewBox="0.0 0.0 1052.0 651.0" fill="none" stroke="none" stroke-linecap="square" stroke-miterlimit="10" width="1052" height="651" xmlns:xlink="http://www.w3.org/1999/xlink" xmlns="http://www.w3.org/2000/svg"><path fill="#ffffff" d="M0 0L1052.0 0L1052.0 651.0L0 651.0L0 0Z" fill-rule="nonzero"/><path stroke="#cccccc" stroke-width="1.0" stroke-linecap="butt" d="M134.5 85.5L134.5 534.5" fill-rule="nonzero"/><path stroke="#cccccc" stroke-width="1.0" stroke-linecap="butt" d="M424.5 85.5L424.5 534.5" fill-rule="nonzero"/><path stroke="#cccccc" stroke-width="1.0" stroke-linecap="butt" d="M715.5 85.5L715.5 534.5" fill-rule="nonzero"/><path stroke="#cccccc" stroke-width="1.0" stroke-linecap="butt" d="M1005.5 85.5L1005.5 534.5" fill-rule="nonzero"/><path stroke="#cccccc" stroke-width="1.0" stroke-linecap="butt" d="M134.5 534.5L1019.5 534.5" fill-rule="nonzero"/><path stroke="#cccccc" stroke-width="1.0" stroke-linecap="butt" d="M134.5 384.5L1019.5 384.5" fill-rule="nonzero"/><path stroke="#cccccc" stroke-width="1.0" stroke-linecap="butt" d="M134.5 234.5L1019.5 234.5" fill-rule="nonzero"/><path stroke="#cccccc" stroke-width="1.0" stroke-linecap="butt" d="M134.5 85.5L1019.5 85.5" fill-rule="nonzero"/><path stroke="#000000" stroke-width="1.0" stroke-linecap="butt" stroke-opacity="0.0" d="M134.5 484.5L1019.5 484.5" fill-rule="nonzero"/><path stroke="#000000" stroke-width="1.0" stroke-linecap="butt" stroke-opacity="0.0" d="M134.5 434.5L1019.5 434.5" fill-rule="nonzero"/><path stroke="#000000" stroke-width="1.0" stroke-linecap="butt" stroke-opacity="0.0" d="M134.5 334.5L1019.5 334.5" fill-rule="nonzero"/><path stroke="#000000" stroke-width="1.0" stroke-linecap="butt" stroke-opacity="0.0" d="M134.5 284.5L1019.5 284.5" fill-rule="nonzero"/><path stroke="#000000" stroke-width="1.0" stroke-linecap="butt" stroke-opacity="0.0" d="M134.5 185.5L1019.5 185.5" fill-rule="nonzero"/><path stroke="#000000" stroke-width="1.0" stroke-linecap="butt" stroke-opacity="0.0" d="M134.5 135.5L1019.5 135.5" fill-rule="nonzero"/><path stroke="#000000" stroke-width="1.0" stroke-linecap="butt" d="M134.5 534.5L134.5 85.5" fill-rule="nonzero"/><clipPath id="id_0"><path d="M134.55 85.25L1019.45 85.25L1019.45 534.45L134.55 534.45L134.55 85.25Z" clip-rule="nonzero"/></clipPath><path stroke="#4285f4" stroke-width="2.0" stroke-linecap="butt" clip-path="url(#id_0)" d="M424.92267 159.27853L1005.668 235.53185" fill-rule="nonzero"/><path stroke="#ea4335" stroke-width="2.0" stroke-linecap="butt" clip-path="url(#id_0)" d="M424.92267 250.1315L1005.668 261.99405" fill-rule="nonzero"/><path stroke="#fbbc04" stroke-width="2.0" stroke-linecap="butt" clip-path="url(#id_0)" d="M424.92267 259.9063L1005.668 264.42017" fill-rule="nonzero"/><path stroke="#34a853" stroke-width="4.0" stroke-linecap="butt" clip-path="url(#id_0)" d="M424.92267 471.4098L1005.668 118.115036" fill-rule="nonzero"/><path fill="#4285f4" clip-path="url(#id_0)" d="M430.92267 159.27853C430.92267 162.59224 428.2364 165.27853 424.92267 165.27853C421.60898 165.27853 418.92267 162.59224 418.92267 159.27853C418.92267 155.96483 421.60898 153.27853 424.92267 153.27853C428.2364 153.27853 430.92267 155.96483 430.92267 159.27853Z" fill-rule="nonzero"/><path fill="#4285f4" clip-path="url(#id_0)" d="M1011.668 235.53185C1011.668 238.84555 1008.98175 241.53185 1005.668 241.53185C1002.3543 241.53185 999.668 238.84555 999.668 235.53185C999.668 232.21814 1002.3543 229.53185 1005.668 229.53185C1008.98175 229.53185 1011.668 232.21814 1011.668 235.53185Z" fill-rule="nonzero"/><path fill="#ea4335" clip-path="url(#id_0)" d="M424.92267 244.1315L430.11884 253.1315L419.72653 253.1315Z" fill-rule="nonzero"/><path fill="#ea4335" clip-path="url(#id_0)" d="M1005.668 255.99405L1010.8642 264.99405L1000.47186 264.99405Z" fill-rule="nonzero"/><path fill="#fbbc04" clip-path="url(#id_0)" d="M420.68005 255.66368L429.1653 255.66368L429.1653 264.14896L420.68005 264.14896Z" fill-rule="nonzero"/><path fill="#fbbc04" clip-path="url(#id_0)" d="M1001.4254 260.17752L1009.9107 260.17752L1009.9107 268.6628L1001.4254 268.6628Z" fill-rule="nonzero"/><path fill="#34a853" clip-path="url(#id_0)" d="M424.92267 463.4098L426.71878 468.93765L432.53113 468.93765L427.82886 472.35406L429.62497 477.88193L424.92267 474.4655L420.2204 477.88193L422.0165 472.35406L417.31424 468.93765L423.12656 468.93765Z" fill-rule="nonzero"/><path fill="#34a853" clip-path="url(#id_0)" d="M1005.668 110.115036L1007.4642 115.6429L1013.2765 115.6429L1008.5742 119.0593L1010.3703 124.58717L1005.668 121.17076L1000.96576 124.58717L1002.7619 119.0593L998.0596 115.6429L1003.87195 115.6429Z" fill-rule="nonzero"/><path fill="#000000" d="M500.57812 606.9344L502.71875 606.7469Q502.875 608.02814 503.42188 608.85626Q503.98438 609.6844 505.15625 610.2Q506.32812 610.7 507.79688 610.7Q509.09375 610.7 510.09375 610.325Q511.09375 609.9344 511.57812 609.2625Q512.0625 608.575 512.0625 607.77814Q512.0625 606.98126 511.59375 606.3719Q511.125 605.7625 510.04688 605.35626Q509.35938 605.09064 506.98438 604.52814Q504.625 603.95 503.67188 603.45Q502.4375 602.8094 501.82812 601.85626Q501.23438 600.8875 501.23438 599.71564Q501.23438 598.40314 501.96875 597.27814Q502.71875 596.15314 504.125 595.575Q505.54688 594.98126 507.28125 594.98126Q509.1875 594.98126 510.64062 595.59064Q512.1094 596.2 512.8906 597.40314Q513.6875 598.59064 513.7344 600.10626L511.5625 600.27814Q511.39062 598.6375 510.375 597.8094Q509.35938 596.98126 507.375 596.98126Q505.3125 596.98126 504.35938 597.7469Q503.42188 598.4969 503.42188 599.5594Q503.42188 600.48126 504.09375 601.075Q504.75 601.6844 507.51562 602.3094Q510.29688 602.9344 511.32812 603.40314Q512.8281 604.09064 513.53125 605.15314Q514.25 606.21564 514.25 607.59064Q514.25 608.96564 513.46875 610.1844Q512.6875 611.3875 511.21875 612.075Q509.75 612.7469 507.90625 612.7469Q505.57812 612.7469 504.0 612.075Q502.42188 611.3875 501.51562 610.02814Q500.625 608.65314 500.57812 606.9344ZM525.6094 608.4344L527.78125 608.71564Q527.2656 610.6219 525.875 611.6844Q524.4844 612.73126 522.3125 612.73126Q519.5781 612.73126 517.96875 611.0594Q516.375 609.3719 516.375 606.325Q516.375 603.1844 517.9844 601.45Q519.6094 599.71564 522.1875 599.71564Q524.6875 599.71564 526.2656 601.41876Q527.8594 603.1219 527.8594 606.2Q527.8594 606.3875 527.84375 606.7625L518.5625 606.7625Q518.6719 608.8094 519.71875 609.90314Q520.7656 610.9969 522.3281 610.9969Q523.4844 610.9969 524.2969 610.3875Q525.125 609.77814 525.6094 608.4344ZM518.6719 605.02814L525.625 605.02814Q525.4844 603.46564 524.8281 602.66876Q523.8281 601.45 522.21875 601.45Q520.7656 601.45 519.7656 602.4344Q518.78125 603.40314 518.6719 605.02814ZM528.6719 612.45L533.21875 605.98126L529.0156 599.9969L531.65625 599.9969L533.5625 602.91876Q534.1094 603.7469 534.4375 604.3094Q534.9531 603.54376 535.375 602.95L537.4844 599.9969L540.0 599.9969L535.7031 605.85626L540.3281 612.45L537.7344 612.45L535.1875 608.575L534.5 607.54376L531.2344 612.45L528.6719 612.45ZM548.5781 606.9344L550.71875 606.7469Q550.875 608.02814 551.4219 608.85626Q551.9844 609.6844 553.15625 610.2Q554.3281 610.7 555.7969 610.7Q557.09375 610.7 558.09375 610.325Q559.09375 609.9344 559.5781 609.2625Q560.0625 608.575 560.0625 607.77814Q560.0625 606.98126 559.59375 606.3719Q559.125 605.7625 558.0469 605.35626Q557.3594 605.09064 554.9844 604.52814Q552.625 603.95 551.6719 603.45Q550.4375 602.8094 549.8281 601.85626Q549.2344 600.8875 549.2344 599.71564Q549.2344 598.40314 549.96875 597.27814Q550.71875 596.15314 552.125 595.575Q553.5469 594.98126 555.28125 594.98126Q557.1875 594.98126 558.6406 595.59064Q560.1094 596.2 560.8906 597.40314Q561.6875 598.59064 561.7344 600.10626L559.5625 600.27814Q559.3906 598.6375 558.375 597.8094Q557.3594 596.98126 555.375 596.98126Q553.3125 596.98126 552.3594 597.7469Q551.4219 598.4969 551.4219 599.5594Q551.4219 600.48126 552.09375 601.075Q552.75 601.6844 555.5156 602.3094Q558.2969 602.9344 559.3281 603.40314Q560.8281 604.09064 561.53125 605.15314Q562.25 606.21564 562.25 607.59064Q562.25 608.96564 561.46875 610.1844Q560.6875 611.3875 559.21875 612.075Q557.75 612.7469 555.90625 612.7469Q553.5781 612.7469 552.0 612.075Q550.4219 611.3875 549.5156 610.02814Q548.625 608.65314 548.5781 606.9344ZM573.6094 608.4344L575.78125 608.71564Q575.2656 610.6219 573.875 611.6844Q572.4844 612.73126 570.3125 612.73126Q567.5781 612.73126 565.96875 611.0594Q564.375 609.3719 564.375 606.325Q564.375 603.1844 565.9844 601.45Q567.6094 599.71564 570.1875 599.71564Q572.6875 599.71564 574.2656 601.41876Q575.8594 603.1219 575.8594 606.2Q575.8594 606.3875 575.84375 606.7625L566.5625 606.7625Q566.6719 608.8094 567.71875 609.90314Q568.7656 610.9969 570.3281 610.9969Q571.4844 610.9969 572.2969 610.3875Q573.125 609.77814 573.6094 608.4344ZM566.6719 605.02814L573.625 605.02814Q573.4844 603.46564 572.8281 602.66876Q571.8281 601.45 570.21875 601.45Q568.7656 601.45 567.7656 602.4344Q566.78125 603.40314 566.6719 605.02814ZM578.03125 612.45L578.03125 595.2625L580.1406 595.2625L580.1406 612.45L578.03125 612.45ZM591.6094 608.4344L593.78125 608.71564Q593.2656 610.6219 591.875 611.6844Q590.4844 612.73126 588.3125 612.73126Q585.5781 612.73126 583.96875 611.0594Q582.375 609.3719 582.375 606.325Q582.375 603.1844 583.9844 601.45Q585.6094 599.71564 588.1875 599.71564Q590.6875 599.71564 592.2656 601.41876Q593.8594 603.1219 593.8594 606.2Q593.8594 606.3875 593.84375 606.7625L584.5625 606.7625Q584.6719 608.8094 585.71875 609.90314Q586.7656 610.9969 588.3281 610.9969Q589.4844 610.9969 590.2969 610.3875Q591.125 609.77814 591.6094 608.4344ZM584.6719 605.02814L591.625 605.02814Q591.4844 603.46564 590.8281 602.66876Q589.8281 601.45 588.21875 601.45Q586.7656 601.45 585.7656 602.4344Q584.78125 603.40314 584.6719 605.02814ZM604.2031 607.8875L606.28125 608.15314Q605.9375 610.3094 604.53125 611.52814Q603.1406 612.73126 601.09375 612.73126Q598.5469 612.73126 596.9844 611.0594Q595.4375 609.3875 595.4375 606.27814Q595.4375 604.2625 596.1094 602.7469Q596.78125 601.23126 598.1406 600.48126Q599.5 599.71564 601.1094 599.71564Q603.1406 599.71564 604.4219 600.7469Q605.71875 601.77814 606.0781 603.65314L604.03125 603.98126Q603.7344 602.71564 602.9844 602.09064Q602.25 601.45 601.1875 601.45Q599.59375 601.45 598.59375 602.60626Q597.6094 603.7469 597.6094 606.21564Q597.6094 608.71564 598.5625 609.85626Q599.53125 610.9969 601.0781 610.9969Q602.3125 610.9969 603.1406 610.23126Q603.9844 609.46564 604.2031 607.8875ZM612.6875 610.5594L613.0 612.41876Q612.1094 612.6219 611.40625 612.6219Q610.25 612.6219 609.6094 612.2625Q608.9844 611.8875 608.71875 611.29376Q608.46875 610.7 608.46875 608.8094L608.46875 601.6375L606.9219 601.6375L606.9219 599.9969L608.46875 599.9969L608.46875 596.91876L610.5625 595.65314L610.5625 599.9969L612.6875 599.9969L612.6875 601.6375L610.5625 601.6375L610.5625 608.91876Q610.5625 609.825 610.6719 610.09064Q610.7969 610.34064 611.0469 610.4969Q611.2969 610.6375 611.7656 610.6375Q612.1094 610.6375 612.6875 610.5594ZM615.09375 597.7L615.09375 595.2625L617.2031 595.2625L617.2031 597.7L615.09375 597.7ZM615.09375 612.45L615.09375 599.9969L617.2031 599.9969L617.2031 612.45L615.09375 612.45ZM623.5469 612.45L618.8125 599.9969L621.03125 599.9969L623.7031 607.45Q624.1406 608.66876 624.5 609.96564Q624.78125 608.98126 625.28125 607.59064L628.0469 599.9969L630.21875 599.9969L625.5156 612.45L623.5469 612.45ZM632.09375 597.7L632.09375 595.2625L634.2031 595.2625L634.2031 597.7L632.09375 597.7ZM632.09375 612.45L632.09375 599.9969L634.2031 599.9969L634.2031 612.45L632.09375 612.45ZM641.6875 610.5594L642.0 612.41876Q641.1094 612.6219 640.40625 612.6219Q639.25 612.6219 638.6094 612.2625Q637.9844 611.8875 637.71875 611.29376Q637.46875 610.7 637.46875 608.8094L637.46875 601.6375L635.9219 601.6375L635.9219 599.9969L637.46875 599.9969L637.46875 596.91876L639.5625 595.65314L639.5625 599.9969L641.6875 599.9969L641.6875 601.6375L639.5625 601.6375L639.5625 608.91876Q639.5625 609.825 639.6719 610.09064Q639.7969 610.34064 640.0469 610.4969Q640.2969 610.6375 640.7656 610.6375Q641.1094 610.6375 641.6875 610.5594ZM643.9844 617.2469L643.75 615.2625Q644.4531 615.45 644.96875 615.45Q645.6719 615.45 646.09375 615.21564Q646.5156 614.98126 646.78125 614.5594Q646.9844 614.2469 647.4219 612.9969Q647.4844 612.8094 647.6094 612.48126L642.8906 599.9969L645.15625 599.9969L647.75 607.21564Q648.25 608.575 648.65625 610.09064Q649.0156 608.6375 649.5156 607.2625L652.1875 599.9969L654.2969 599.9969L649.5625 612.66876Q648.7969 614.71564 648.375 615.48126Q647.8125 616.52814 647.0781 617.0125Q646.3594 617.4969 645.34375 617.4969Q644.7344 617.4969 643.9844 617.2469Z" fill-rule="nonzero"/><path fill="#000000" d="M54.55001 386.95938L37.36251 386.95938L37.36251 379.35Q37.36251 377.05313 37.83126 375.86563Q38.30001 374.6625 39.471886 373.94376Q40.64376 373.225 42.05001 373.225Q43.878136 373.225 45.14376 374.4125Q46.39376 375.6 46.73751 378.06876Q47.159386 377.1625 47.58126 376.69376Q48.503136 375.69376 49.878136 374.80313L54.55001 371.81876L54.55001 374.67813L50.971886 376.95938Q49.42501 377.94376 48.61251 378.6Q47.784386 379.24063 47.45626 379.75626Q47.128136 380.25626 47.003136 380.7875Q46.92501 381.17813 46.92501 382.05313L46.92501 384.69376L54.55001 384.69376L54.55001 386.95938ZM44.95626 384.69376L44.95626 379.80313Q44.95626 378.24063 44.628136 377.36563Q44.30001 376.49063 43.596886 376.0375Q42.89376 375.56876 42.05001 375.56876Q40.83126 375.56876 40.05001 376.45938Q39.26876 377.33438 39.26876 379.25626L39.26876 384.69376L44.95626 384.69376ZM50.534386 361.74063L50.815636 359.56876Q52.721886 360.08438 53.784386 361.475Q54.83126 362.86563 54.83126 365.0375Q54.83126 367.77188 53.159386 369.38126Q51.471886 370.975 48.42501 370.975Q45.284386 370.975 43.55001 369.36563Q41.815636 367.74063 41.815636 365.1625Q41.815636 362.6625 43.51876 361.08438Q45.221886 359.49063 48.30001 359.49063Q48.48751 359.49063 48.86251 359.50626L48.86251 368.7875Q50.909386 368.67813 52.003136 367.63126Q53.096886 366.58438 53.096886 365.02188Q53.096886 363.86563 52.48751 363.05313Q51.878136 362.225 50.534386 361.74063ZM47.128136 368.67813L47.128136 361.725Q45.565636 361.86563 44.76876 362.52188Q43.55001 363.52188 43.55001 365.13126Q43.55001 366.58438 44.534386 367.58438Q45.503136 368.56876 47.128136 368.67813ZM54.55001 357.31876L37.36251 357.31876L37.36251 355.20938L54.55001 355.20938L54.55001 357.31876ZM53.01876 344.14688Q54.003136 345.31876 54.42501 346.4125Q54.83126 347.49063 54.83126 348.725Q54.83126 350.77188 53.83126 351.88126Q52.83126 352.975 51.26876 352.975Q50.346886 352.975 49.596886 352.56876Q48.846886 352.14688 48.39376 351.475Q47.92501 350.80313 47.690636 349.95938Q47.534386 349.33438 47.378136 348.08438Q47.065636 345.52188 46.64376 344.31876Q46.221886 344.30313 46.096886 344.30313Q44.815636 344.30313 44.284386 344.9125Q43.565636 345.70938 43.565636 347.30313Q43.565636 348.80313 44.096886 349.50626Q44.61251 350.20938 45.940636 350.55313L45.659386 352.61563Q44.33126 352.33438 43.51876 351.69376Q42.70626 351.05313 42.26876 349.83438Q41.815636 348.61563 41.815636 347.00626Q41.815636 345.4125 42.190636 344.4125Q42.565636 343.4125 43.14376 342.94376Q43.70626 342.475 44.58126 342.2875Q45.11251 342.19376 46.51876 342.19376L49.33126 342.19376Q52.26876 342.19376 53.05001 342.05313Q53.83126 341.9125 54.55001 341.52188L54.55001 343.725Q53.89376 344.05313 53.01876 344.14688ZM48.30001 344.31876Q48.76876 345.475 49.096886 347.77188Q49.284386 349.06876 49.51876 349.61563Q49.753136 350.14688 50.20626 350.44376Q50.659386 350.725 51.20626 350.725Q52.05001 350.725 52.61251 350.1Q53.17501 349.45938 53.17501 348.225Q53.17501 347.00626 52.64376 346.05313Q52.11251 345.1 51.190636 344.6625Q50.471886 344.31876 49.08126 344.31876L48.30001 344.31876ZM52.659386 334.6625L54.51876 334.35Q54.721886 335.24063 54.721886 335.94376Q54.721886 337.1 54.36251 337.74063Q53.98751 338.36563 53.39376 338.63126Q52.80001 338.88126 50.909386 338.88126L43.73751 338.88126L43.73751 340.42813L42.096886 340.42813L42.096886 338.88126L39.01876 338.88126L37.753136 336.7875L42.096886 336.7875L42.096886 334.6625L43.73751 334.6625L43.73751 336.7875L51.01876 336.7875Q51.92501 336.7875 52.190636 336.67813Q52.440636 336.55313 52.596886 336.30313Q52.73751 336.05313 52.73751 335.58438Q52.73751 335.24063 52.659386 334.6625ZM39.80001 332.25626L37.36251 332.25626L37.36251 330.14688L39.80001 330.14688L39.80001 332.25626ZM54.55001 332.25626L42.096886 332.25626L42.096886 330.14688L54.55001 330.14688L54.55001 332.25626ZM54.55001 323.80313L42.096886 328.5375L42.096886 326.31876L49.55001 323.64688Q50.76876 323.20938 52.065636 322.85Q51.08126 322.56876 49.690636 322.06876L42.096886 319.30313L42.096886 317.13126L54.55001 321.83438L54.55001 323.80313ZM50.534386 306.74063L50.815636 304.56876Q52.721886 305.08438 53.784386 306.475Q54.83126 307.86563 54.83126 310.0375Q54.83126 312.77188 53.159386 314.38126Q51.471886 315.975 48.42501 315.975Q45.284386 315.975 43.55001 314.36563Q41.815636 312.74063 41.815636 310.1625Q41.815636 307.6625 43.51876 306.08438Q45.221886 304.49063 48.30001 304.49063Q48.48751 304.49063 48.86251 304.50626L48.86251 313.7875Q50.909386 313.67813 52.003136 312.63126Q53.096886 311.58438 53.096886 310.02188Q53.096886 308.86563 52.48751 308.05313Q51.878136 307.225 50.534386 306.74063ZM47.128136 313.67813L47.128136 306.725Q45.565636 306.86563 44.76876 307.52188Q43.55001 308.52188 43.55001 310.13126Q43.55001 311.58438 44.534386 312.58438Q45.503136 313.56876 47.128136 313.67813ZM54.55001 294.94376L37.36251 294.94376L37.36251 282.52188L39.39376 282.52188L39.39376 292.67813L44.659386 292.67813L44.659386 283.17813L46.67501 283.17813L46.67501 292.67813L52.51876 292.67813L52.51876 282.13126L54.55001 282.13126L54.55001 294.94376ZM54.55001 279.2875L42.096886 279.2875L42.096886 277.39688L43.98751 277.39688Q42.659386 276.6625 42.23751 276.05313Q41.815636 275.42813 41.815636 274.69376Q41.815636 273.63126 42.503136 272.52188L44.45626 273.25626Q44.003136 274.02188 44.003136 274.80313Q44.003136 275.49063 44.42501 276.05313Q44.83126 276.6 45.565636 276.83438Q46.690636 277.17813 48.034386 277.17813L54.55001 277.17813L54.55001 279.2875ZM54.55001 271.2875L42.096886 271.2875L42.096886 269.39688L43.98751 269.39688Q42.659386 268.6625 42.23751 268.05313Q41.815636 267.42813 41.815636 266.69376Q41.815636 265.63126 42.503136 264.52188L44.45626 265.25626Q44.003136 266.02188 44.003136 266.80313Q44.003136 267.49063 44.42501 268.05313Q44.83126 268.6 45.565636 268.83438Q46.690636 269.17813 48.034386 269.17813L54.55001 269.17813L54.55001 271.2875ZM48.33126 264.05313Q44.86251 264.05313 43.20626 262.13126Q41.815636 260.52188 41.815636 258.20938Q41.815636 255.64688 43.503136 254.02188Q45.190636 252.39688 48.14376 252.39688Q50.55001 252.39688 51.92501 253.11563Q53.30001 253.83438 54.065636 255.20938Q54.83126 256.58438 54.83126 258.20938Q54.83126 260.83438 53.159386 262.44376Q51.471886 264.05313 48.33126 264.05313ZM48.33126 261.88126Q50.721886 261.88126 51.909386 260.85Q53.096886 259.80313 53.096886 258.20938Q53.096886 256.64688 51.909386 255.6Q50.70626 254.55313 48.253136 254.55313Q45.940636 254.55313 44.753136 255.61563Q43.565636 256.6625 43.565636 258.20938Q43.565636 259.80313 44.753136 260.85Q45.940636 261.88126 48.33126 261.88126ZM54.55001 250.2875L42.096886 250.2875L42.096886 248.39688L43.98751 248.39688Q42.659386 247.6625 42.23751 247.05313Q41.815636 246.42813 41.815636 245.69376Q41.815636 244.63126 42.503136 243.52188L44.45626 244.25626Q44.003136 245.02188 44.003136 245.80313Q44.003136 246.49063 44.42501 247.05313Q44.83126 247.6 45.565636 247.83438Q46.690636 248.17813 48.034386 248.17813L54.55001 248.17813L54.55001 250.2875Z" fill-rule="nonzero"/><path fill="#000000" d="M104.05 536.2L105.15938 536.10626Q105.28438 536.91876 105.72188 537.325Q106.175 537.73126 106.81563 537.73126Q107.56563 537.73126 108.09688 537.15314Q108.62813 536.575 108.62813 535.6375Q108.62813 534.73126 108.1125 534.21564Q107.6125 533.6844 106.78438 533.6844Q106.28438 533.6844 105.8625 533.91876Q105.45625 534.15314 105.22188 534.5125L104.2375 534.3875L105.06563 529.98126L109.34688 529.98126L109.34688 530.98126L105.90938 530.98126L105.45625 533.29376Q106.22188 532.7469 107.06563 532.7469Q108.19063 532.7469 108.95625 533.52814Q109.7375 534.3094 109.7375 535.54376Q109.7375 536.7 109.06563 537.5594Q108.2375 538.59064 106.81563 538.59064Q105.64375 538.59064 104.89375 537.9344Q104.15938 537.27814 104.05 536.2ZM111.05 534.21564Q111.05 532.6844 111.3625 531.7625Q111.675 530.825 112.28438 530.325Q112.90938 529.825 113.84688 529.825Q114.53438 529.825 115.05 530.10626Q115.58125 530.3875 115.925 530.91876Q116.26875 531.4344 116.45625 532.1844Q116.64375 532.9344 116.64375 534.21564Q116.64375 535.73126 116.33125 536.65314Q116.03438 537.575 115.40938 538.09064Q114.8 538.59064 113.84688 538.59064Q112.6125 538.59064 111.89375 537.7Q111.05 536.6375 111.05 534.21564ZM112.12813 534.21564Q112.12813 536.325 112.62813 537.02814Q113.12813 537.73126 113.84688 537.73126Q114.58125 537.73126 115.06563 537.02814Q115.56563 536.325 115.56563 534.21564Q115.56563 532.09064 115.06563 531.40314Q114.58125 530.7 113.83125 530.7Q113.1125 530.7 112.675 531.3094Q112.12813 532.09064 112.12813 534.21564ZM118.25313 531.91876Q118.25313 530.9969 118.70625 530.35626Q119.175 529.71564 120.05 529.71564Q120.8625 529.71564 121.39375 530.29376Q121.925 530.8719 121.925 531.98126Q121.925 533.075 121.37813 533.66876Q120.84688 534.2469 120.06563 534.2469Q119.28438 534.2469 118.76875 533.66876Q118.25313 533.09064 118.25313 531.91876ZM120.08125 530.4344Q119.69063 530.4344 119.425 530.77814Q119.175 531.1219 119.175 532.02814Q119.175 532.85626 119.425 533.2Q119.69063 533.52814 120.08125 533.52814Q120.4875 533.52814 120.7375 533.1844Q121.00313 532.84064 121.00313 531.95Q121.00313 531.10626 120.7375 530.77814Q120.47188 530.4344 120.08125 530.4344ZM120.08125 538.7625L124.78438 529.71564L125.64375 529.71564L120.95625 538.7625L120.08125 538.7625ZM123.8 536.4344Q123.8 535.5125 124.25313 534.8719Q124.72188 534.23126 125.6125 534.23126Q126.425 534.23126 126.95625 534.8094Q127.4875 535.3719 127.4875 536.4969Q127.4875 537.59064 126.94063 538.1844Q126.40938 538.7625 125.6125 538.7625Q124.84688 538.7625 124.31563 538.1844Q123.8 537.60626 123.8 536.4344ZM125.64375 534.95Q125.2375 534.95 124.97188 535.29376Q124.72188 535.6375 124.72188 536.54376Q124.72188 537.35626 124.9875 537.7Q125.25313 538.04376 125.64375 538.04376Q126.03438 538.04376 126.3 537.7Q126.56563 537.35626 126.56563 536.45Q126.56563 535.6219 126.3 535.29376Q126.03438 534.95 125.64375 534.95Z" fill-rule="nonzero"/><path fill="#000000" d="M104.1125 381.24792L104.1125 380.2323L109.675 380.2323L109.675 381.06042Q108.8625 381.93542 108.05 383.38855Q107.25313 384.82605 106.81563 386.3573Q106.4875 387.43542 106.40938 388.71667L105.31563 388.71667Q105.33125 387.70105 105.70625 386.26355Q106.09688 384.82605 106.8 383.49792Q107.51875 382.1698 108.33125 381.24792L104.1125 381.24792ZM111.05 386.46667L112.15938 386.37292Q112.28438 387.18542 112.72188 387.59167Q113.175 387.99792 113.81563 387.99792Q114.56563 387.99792 115.09688 387.4198Q115.62813 386.84167 115.62813 385.90417Q115.62813 384.99792 115.1125 384.4823Q114.6125 383.95105 113.78438 383.95105Q113.28438 383.95105 112.8625 384.18542Q112.45625 384.4198 112.22188 384.77917L111.2375 384.65417L112.06563 380.24792L116.34688 380.24792L116.34688 381.24792L112.90938 381.24792L112.45625 383.56042Q113.22188 383.01355 114.06563 383.01355Q115.19063 383.01355 115.95625 383.7948Q116.7375 384.57605 116.7375 385.81042Q116.7375 386.96667 116.06563 387.82605Q115.2375 388.8573 113.81563 388.8573Q112.64375 388.8573 111.89375 388.20105Q111.15938 387.5448 111.05 386.46667ZM118.25313 382.18542Q118.25313 381.26355 118.70625 380.62292Q119.175 379.9823 120.05 379.9823Q120.8625 379.9823 121.39375 380.56042Q121.925 381.13855 121.925 382.24792Q121.925 383.34167 121.37813 383.93542Q120.84688 384.51355 120.06563 384.51355Q119.28438 384.51355 118.76875 383.93542Q118.25313 383.3573 118.25313 382.18542ZM120.08125 380.70105Q119.69063 380.70105 119.425 381.0448Q119.175 381.38855 119.175 382.2948Q119.175 383.12292 119.425 383.46667Q119.69063 383.7948 120.08125 383.7948Q120.4875 383.7948 120.7375 383.45105Q121.00313 383.1073 121.00313 382.21667Q121.00313 381.37292 120.7375 381.0448Q120.47188 380.70105 120.08125 380.70105ZM120.08125 389.02917L124.78438 379.9823L125.64375 379.9823L120.95625 389.02917L120.08125 389.02917ZM123.8 386.70105Q123.8 385.77917 124.25313 385.13855Q124.72188 384.49792 125.6125 384.49792Q126.425 384.49792 126.95625 385.07605Q127.4875 385.63855 127.4875 386.76355Q127.4875 387.8573 126.94063 388.45105Q126.40938 389.02917 125.6125 389.02917Q124.84688 389.02917 124.31563 388.45105Q123.8 387.87292 123.8 386.70105ZM125.64375 385.21667Q125.2375 385.21667 124.97188 385.56042Q124.72188 385.90417 124.72188 386.81042Q124.72188 387.62292 124.9875 387.96667Q125.25313 388.31042 125.64375 388.31042Q126.03438 388.31042 126.3 387.96667Q126.56563 387.62292 126.56563 386.71667Q126.56563 385.88855 126.3 385.56042Q126.03438 385.21667 125.64375 385.21667Z" fill-rule="nonzero"/><path fill="#000000" d="M101.01875 238.98334L99.97188 238.98334L99.97188 232.26459Q99.58125 232.62396 98.95625 232.99896Q98.34688 233.35834 97.8625 233.53021L97.8625 232.51459Q98.7375 232.09271 99.39375 231.51459Q100.06563 230.92084 100.34688 230.35834L101.01875 230.35834L101.01875 238.98334ZM104.05 234.74896Q104.05 233.21771 104.3625 232.29584Q104.675 231.35834 105.28438 230.85834Q105.90938 230.35834 106.84688 230.35834Q107.53438 230.35834 108.05 230.63959Q108.58125 230.92084 108.925 231.45209Q109.26875 231.96771 109.45625 232.71771Q109.64375 233.46771 109.64375 234.74896Q109.64375 236.26459 109.33125 237.18646Q109.03438 238.10834 108.40938 238.62396Q107.8 239.12396 106.84688 239.12396Q105.6125 239.12396 104.89375 238.23334Q104.05 237.17084 104.05 234.74896ZM105.12813 234.74896Q105.12813 236.85834 105.62813 237.56146Q106.12813 238.26459 106.84688 238.26459Q107.58125 238.26459 108.06563 237.56146Q108.56563 236.85834 108.56563 234.74896Q108.56563 232.62396 108.06563 231.93646Q107.58125 231.23334 106.83125 231.23334Q106.1125 231.23334 105.675 231.84271Q105.12813 232.62396 105.12813 234.74896ZM111.05 234.74896Q111.05 233.21771 111.3625 232.29584Q111.675 231.35834 112.28438 230.85834Q112.90938 230.35834 113.84688 230.35834Q114.53438 230.35834 115.05 230.63959Q115.58125 230.92084 115.925 231.45209Q116.26875 231.96771 116.45625 232.71771Q116.64375 233.46771 116.64375 234.74896Q116.64375 236.26459 116.33125 237.18646Q116.03438 238.10834 115.40938 238.62396Q114.8 239.12396 113.84688 239.12396Q112.6125 239.12396 111.89375 238.23334Q111.05 237.17084 111.05 234.74896ZM112.12813 234.74896Q112.12813 236.85834 112.62813 237.56146Q113.12813 238.26459 113.84688 238.26459Q114.58125 238.26459 115.06563 237.56146Q115.56563 236.85834 115.56563 234.74896Q115.56563 232.62396 115.06563 231.93646Q114.58125 231.23334 113.83125 231.23334Q113.1125 231.23334 112.675 231.84271Q112.12813 232.62396 112.12813 234.74896ZM118.25313 232.45209Q118.25313 231.53021 118.70625 230.88959Q119.175 230.24896 120.05 230.24896Q120.8625 230.24896 121.39375 230.82709Q121.925 231.40521 121.925 232.51459Q121.925 233.60834 121.37813 234.20209Q120.84688 234.78021 120.06563 234.78021Q119.28438 234.78021 118.76875 234.20209Q118.25313 233.62396 118.25313 232.45209ZM120.08125 230.96771Q119.69063 230.96771 119.425 231.31146Q119.175 231.65521 119.175 232.56146Q119.175 233.38959 119.425 233.73334Q119.69063 234.06146 120.08125 234.06146Q120.4875 234.06146 120.7375 233.71771Q121.00313 233.37396 121.00313 232.48334Q121.00313 231.63959 120.7375 231.31146Q120.47188 230.96771 120.08125 230.96771ZM120.08125 239.29584L124.78438 230.24896L125.64375 230.24896L120.95625 239.29584L120.08125 239.29584ZM123.8 236.96771Q123.8 236.04584 124.25313 235.40521Q124.72188 234.76459 125.6125 234.76459Q126.425 234.76459 126.95625 235.34271Q127.4875 235.90521 127.4875 237.03021Q127.4875 238.12396 126.94063 238.71771Q126.40938 239.29584 125.6125 239.29584Q124.84688 239.29584 124.31563 238.71771Q123.8 238.13959 123.8 236.96771ZM125.64375 235.48334Q125.2375 235.48334 124.97188 235.82709Q124.72188 236.17084 124.72188 237.07709Q124.72188 237.88959 124.9875 238.23334Q125.25313 238.57709 125.64375 238.57709Q126.03438 238.57709 126.3 238.23334Q126.56563 237.88959 126.56563 236.98334Q126.56563 236.15521 126.3 235.82709Q126.03438 235.48334 125.64375 235.48334Z" fill-rule="nonzero"/><path fill="#000000" d="M101.01875 89.25L99.97188 89.25L99.97188 82.53125Q99.58125 82.890625 98.95625 83.265625Q98.34688 83.625 97.8625 83.796875L97.8625 82.78125Q98.7375 82.359375 99.39375 81.78125Q100.06563 81.1875 100.34688 80.625L101.01875 80.625L101.01875 89.25ZM109.59688 88.234375L109.59688 89.25L103.90938 89.25Q103.90938 88.875 104.03438 88.515625Q104.25313 87.9375 104.72188 87.375Q105.20625 86.8125 106.1125 86.078125Q107.51875 84.921875 108.00313 84.25Q108.50313 83.578125 108.50313 82.984375Q108.50313 82.359375 108.05 81.9375Q107.59688 81.5 106.87813 81.5Q106.1125 81.5 105.65938 81.953125Q105.20625 82.40625 105.19063 83.21875L104.1125 83.109375Q104.22188 81.890625 104.94063 81.265625Q105.675 80.625 106.90938 80.625Q108.14375 80.625 108.8625 81.3125Q109.58125 82.0 109.58125 83.015625Q109.58125 83.53125 109.3625 84.03125Q109.15938 84.515625 108.65938 85.078125Q108.175 85.625 107.05 86.578125Q106.09688 87.375 105.81563 87.671875Q105.55 87.953125 105.37813 88.234375L109.59688 88.234375ZM111.05 87.0L112.15938 86.90625Q112.28438 87.71875 112.72188 88.125Q113.175 88.53125 113.81563 88.53125Q114.56563 88.53125 115.09688 87.953125Q115.62813 87.375 115.62813 86.4375Q115.62813 85.53125 115.1125 85.015625Q114.6125 84.484375 113.78438 84.484375Q113.28438 84.484375 112.8625 84.71875Q112.45625 84.953125 112.22188 85.3125L111.2375 85.1875L112.06563 80.78125L116.34688 80.78125L116.34688 81.78125L112.90938 81.78125L112.45625 84.09375Q113.22188 83.546875 114.06563 83.546875Q115.19063 83.546875 115.95625 84.328125Q116.7375 85.109375 116.7375 86.34375Q116.7375 87.5 116.06563 88.359375Q115.2375 89.390625 113.81563 89.390625Q112.64375 89.390625 111.89375 88.734375Q111.15938 88.078125 111.05 87.0ZM118.25313 82.71875Q118.25313 81.796875 118.70625 81.15625Q119.175 80.515625 120.05 80.515625Q120.8625 80.515625 121.39375 81.09375Q121.925 81.671875 121.925 82.78125Q121.925 83.875 121.37813 84.46875Q120.84688 85.046875 120.06563 85.046875Q119.28438 85.046875 118.76875 84.46875Q118.25313 83.890625 118.25313 82.71875ZM120.08125 81.234375Q119.69063 81.234375 119.425 81.578125Q119.175 81.921875 119.175 82.828125Q119.175 83.65625 119.425 84.0Q119.69063 84.328125 120.08125 84.328125Q120.4875 84.328125 120.7375 83.984375Q121.00313 83.640625 121.00313 82.75Q121.00313 81.90625 120.7375 81.578125Q120.47188 81.234375 120.08125 81.234375ZM120.08125 89.5625L124.78438 80.515625L125.64375 80.515625L120.95625 89.5625L120.08125 89.5625ZM123.8 87.234375Q123.8 86.3125 124.25313 85.671875Q124.72188 85.03125 125.6125 85.03125Q126.425 85.03125 126.95625 85.609375Q127.4875 86.171875 127.4875 87.296875Q127.4875 88.390625 126.94063 88.984375Q126.40938 89.5625 125.6125 89.5625Q124.84688 89.5625 124.31563 88.984375Q123.8 88.40625 123.8 87.234375ZM125.64375 85.75Q125.2375 85.75 124.97188 86.09375Q124.72188 86.4375 124.72188 87.34375Q124.72188 88.15625 124.9875 88.5Q125.25313 88.84375 125.64375 88.84375Q126.03438 88.84375 126.3 88.5Q126.56563 88.15625 126.56563 87.25Q126.56563 86.421875 126.3 86.09375Q126.03438 85.75 125.64375 85.75Z" fill-rule="nonzero"/><path fill="#000000" d="M128.09688 550.4344L128.09688 551.45L122.40938 551.45Q122.40938 551.075 122.53438 550.71564Q122.75313 550.1375 123.22188 549.575Q123.70625 549.0125 124.6125 548.27814Q126.01875 547.1219 126.50313 546.45Q127.00313 545.77814 127.00313 545.1844Q127.00313 544.5594 126.55 544.1375Q126.09688 543.7 125.37813 543.7Q124.6125 543.7 124.15938 544.15314Q123.70625 544.60626 123.69063 545.41876L122.6125 545.3094Q122.72188 544.09064 123.44063 543.46564Q124.175 542.825 125.40938 542.825Q126.64375 542.825 127.3625 543.5125Q128.08125 544.2 128.08125 545.21564Q128.08125 545.73126 127.8625 546.23126Q127.65938 546.71564 127.15938 547.27814Q126.675 547.825 125.55 548.77814Q124.59688 549.575 124.31563 549.8719Q124.05 550.15314 123.87813 550.4344L128.09688 550.4344ZM129.55 549.2L130.65938 549.10626Q130.78438 549.91876 131.22188 550.325Q131.675 550.73126 132.31563 550.73126Q133.06563 550.73126 133.59688 550.15314Q134.12813 549.575 134.12813 548.6375Q134.12813 547.73126 133.6125 547.21564Q133.1125 546.6844 132.28438 546.6844Q131.78438 546.6844 131.3625 546.91876Q130.95625 547.15314 130.72188 547.5125L129.7375 547.3875L130.56563 542.98126L134.84688 542.98126L134.84688 543.98126L131.40938 543.98126L130.95625 546.29376Q131.72188 545.7469 132.56563 545.7469Q133.69063 545.7469 134.45625 546.52814Q135.2375 547.3094 135.2375 548.54376Q135.2375 549.7 134.56563 550.5594Q133.7375 551.59064 132.31563 551.59064Q131.14375 551.59064 130.39375 550.9344Q129.65938 550.27814 129.55 549.2ZM136.75313 544.91876Q136.75313 543.9969 137.20625 543.35626Q137.675 542.71564 138.55 542.71564Q139.3625 542.71564 139.89375 543.29376Q140.425 543.8719 140.425 544.98126Q140.425 546.075 139.87813 546.66876Q139.34688 547.2469 138.56563 547.2469Q137.78438 547.2469 137.26875 546.66876Q136.75313 546.09064 136.75313 544.91876ZM138.58125 543.4344Q138.19063 543.4344 137.925 543.77814Q137.675 544.1219 137.675 545.02814Q137.675 545.85626 137.925 546.2Q138.19063 546.52814 138.58125 546.52814Q138.9875 546.52814 139.2375 546.1844Q139.50313 545.84064 139.50313 544.95Q139.50313 544.10626 139.2375 543.77814Q138.97188 543.4344 138.58125 543.4344ZM138.58125 551.7625L143.28438 542.71564L144.14375 542.71564L139.45625 551.7625L138.58125 551.7625ZM142.3 549.4344Q142.3 548.5125 142.75313 547.8719Q143.22188 547.23126 144.1125 547.23126Q144.925 547.23126 145.45625 547.8094Q145.9875 548.3719 145.9875 549.4969Q145.9875 550.59064 145.44063 551.1844Q144.90938 551.7625 144.1125 551.7625Q143.34688 551.7625 142.81563 551.1844Q142.3 550.60626 142.3 549.4344ZM144.14375 547.95Q143.7375 547.95 143.47188 548.29376Q143.22188 548.6375 143.22188 549.54376Q143.22188 550.35626 143.4875 550.7Q143.75313 551.04376 144.14375 551.04376Q144.53438 551.04376 144.8 550.7Q145.06563 550.35626 145.06563 549.45Q145.06563 548.6219 144.8 548.29376Q144.53438 547.95 144.14375 547.95Z" fill-rule="nonzero"/><path fill="#000000" d="M412.92267 549.2L414.03204 549.10626Q414.15704 549.91876 414.59454 550.325Q415.04767 550.73126 415.6883 550.73126Q416.4383 550.73126 416.96954 550.15314Q417.5008 549.575 417.5008 548.6375Q417.5008 547.73126 416.98517 547.21564Q416.48517 546.6844 415.65704 546.6844Q415.15704 546.6844 414.73517 546.91876Q414.32892 547.15314 414.09454 547.5125L413.11017 547.3875L413.9383 542.98126L418.21954 542.98126L418.21954 543.98126L414.78204 543.98126L414.32892 546.29376Q415.09454 545.7469 415.9383 545.7469Q417.0633 545.7469 417.82892 546.52814Q418.61017 547.3094 418.61017 548.54376Q418.61017 549.7 417.9383 550.5594Q417.11017 551.59064 415.6883 551.59064Q414.51642 551.59064 413.76642 550.9344Q413.03204 550.27814 412.92267 549.2ZM419.92267 547.21564Q419.92267 545.6844 420.23517 544.7625Q420.54767 543.825 421.15704 543.325Q421.78204 542.825 422.71954 542.825Q423.40704 542.825 423.92267 543.10626Q424.45392 543.3875 424.79767 543.91876Q425.14142 544.4344 425.32892 545.1844Q425.51642 545.9344 425.51642 547.21564Q425.51642 548.73126 425.20392 549.65314Q424.90704 550.575 424.28204 551.09064Q423.67267 551.59064 422.71954 551.59064Q421.48517 551.59064 420.76642 550.7Q419.92267 549.6375 419.92267 547.21564ZM421.0008 547.21564Q421.0008 549.325 421.5008 550.02814Q422.0008 550.73126 422.71954 550.73126Q423.45392 550.73126 423.9383 550.02814Q424.4383 549.325 424.4383 547.21564Q424.4383 545.09064 423.9383 544.40314Q423.45392 543.7 422.70392 543.7Q421.98517 543.7 421.54767 544.3094Q421.0008 545.09064 421.0008 547.21564ZM427.1258 544.91876Q427.1258 543.9969 427.57892 543.35626Q428.04767 542.71564 428.92267 542.71564Q429.73517 542.71564 430.26642 543.29376Q430.79767 543.8719 430.79767 544.98126Q430.79767 546.075 430.2508 546.66876Q429.71954 547.2469 428.9383 547.2469Q428.15704 547.2469 427.64142 546.66876Q427.1258 546.09064 427.1258 544.91876ZM428.95392 543.4344Q428.5633 543.4344 428.29767 543.77814Q428.04767 544.1219 428.04767 545.02814Q428.04767 545.85626 428.29767 546.2Q428.5633 546.52814 428.95392 546.52814Q429.36017 546.52814 429.61017 546.1844Q429.8758 545.84064 429.8758 544.95Q429.8758 544.10626 429.61017 543.77814Q429.34454 543.4344 428.95392 543.4344ZM428.95392 551.7625L433.65704 542.71564L434.51642 542.71564L429.82892 551.7625L428.95392 551.7625ZM432.67267 549.4344Q432.67267 548.5125 433.1258 547.8719Q433.59454 547.23126 434.48517 547.23126Q435.29767 547.23126 435.82892 547.8094Q436.36017 548.3719 436.36017 549.4969Q436.36017 550.59064 435.8133 551.1844Q435.28204 551.7625 434.48517 551.7625Q433.71954 551.7625 433.1883 551.1844Q432.67267 550.60626 432.67267 549.4344ZM434.51642 547.95Q434.11017 547.95 433.84454 548.29376Q433.59454 548.6375 433.59454 549.54376Q433.59454 550.35626 433.86017 550.7Q434.1258 551.04376 434.51642 551.04376Q434.90704 551.04376 435.17267 550.7Q435.4383 550.35626 435.4383 549.45Q435.4383 548.6219 435.17267 548.29376Q434.90704 547.95 434.51642 547.95Z" fill-rule="nonzero"/><path fill="#000000" d="M703.35785 543.98126L703.35785 542.96564L708.92035 542.96564L708.92035 543.79376Q708.10785 544.66876 707.29535 546.1219Q706.4985 547.5594 706.061 549.09064Q705.73285 550.16876 705.6547 551.45L704.561 551.45Q704.5766 550.4344 704.9516 548.9969Q705.3422 547.5594 706.04535 546.23126Q706.7641 544.90314 707.5766 543.98126L703.35785 543.98126ZM710.29535 549.2L711.4047 549.10626Q711.5297 549.91876 711.9672 550.325Q712.42035 550.73126 713.061 550.73126Q713.811 550.73126 714.3422 550.15314Q714.8735 549.575 714.8735 548.6375Q714.8735 547.73126 714.35785 547.21564Q713.85785 546.6844 713.0297 546.6844Q712.5297 546.6844 712.10785 546.91876Q711.7016 547.15314 711.4672 547.5125L710.48285 547.3875L711.311 542.98126L715.5922 542.98126L715.5922 543.98126L712.1547 543.98126L711.7016 546.29376Q712.4672 545.7469 713.311 545.7469Q714.436 545.7469 715.2016 546.52814Q715.98285 547.3094 715.98285 548.54376Q715.98285 549.7 715.311 550.5594Q714.48285 551.59064 713.061 551.59064Q711.8891 551.59064 711.1391 550.9344Q710.4047 550.27814 710.29535 549.2ZM717.4985 544.91876Q717.4985 543.9969 717.9516 543.35626Q718.42035 542.71564 719.29535 542.71564Q720.10785 542.71564 720.6391 543.29376Q721.17035 543.8719 721.17035 544.98126Q721.17035 546.075 720.6235 546.66876Q720.0922 547.2469 719.311 547.2469Q718.5297 547.2469 718.0141 546.66876Q717.4985 546.09064 717.4985 544.91876ZM719.3266 543.4344Q718.936 543.4344 718.67035 543.77814Q718.42035 544.1219 718.42035 545.02814Q718.42035 545.85626 718.67035 546.2Q718.936 546.52814 719.3266 546.52814Q719.73285 546.52814 719.98285 546.1844Q720.2485 545.84064 720.2485 544.95Q720.2485 544.10626 719.98285 543.77814Q719.7172 543.4344 719.3266 543.4344ZM719.3266 551.7625L724.0297 542.71564L724.8891 542.71564L720.2016 551.7625L719.3266 551.7625ZM723.04535 549.4344Q723.04535 548.5125 723.4985 547.8719Q723.9672 547.23126 724.85785 547.23126Q725.67035 547.23126 726.2016 547.8094Q726.73285 548.3719 726.73285 549.4969Q726.73285 550.59064 726.186 551.1844Q725.6547 551.7625 724.85785 551.7625Q724.0922 551.7625 723.561 551.1844Q723.04535 550.60626 723.04535 549.4344ZM724.8891 547.95Q724.48285 547.95 724.2172 548.29376Q723.9672 548.6375 723.9672 549.54376Q723.9672 550.35626 724.23285 550.7Q724.4985 551.04376 724.8891 551.04376Q725.2797 551.04376 725.54535 550.7Q725.811 550.35626 725.811 549.45Q725.811 548.6219 725.54535 548.29376Q725.2797 547.95 724.8891 547.95Z" fill-rule="nonzero"/><path fill="#000000" d="M994.1368 551.45L993.0899 551.45L993.0899 544.73126Q992.6993 545.09064 992.0743 545.46564Q991.4649 545.825 990.9805 545.9969L990.9805 544.98126Q991.8555 544.5594 992.5118 543.98126Q993.18365 543.3875 993.4649 542.825L994.1368 542.825L994.1368 551.45ZM997.168 547.21564Q997.168 545.6844 997.4805 544.7625Q997.793 543.825 998.4024 543.325Q999.0274 542.825 999.9649 542.825Q1000.6524 542.825 1001.168 543.10626Q1001.6993 543.3875 1002.043 543.91876Q1002.3868 544.4344 1002.5743 545.1844Q1002.7618 545.9344 1002.7618 547.21564Q1002.7618 548.73126 1002.4493 549.65314Q1002.1524 550.575 1001.5274 551.09064Q1000.918 551.59064 999.9649 551.59064Q998.7305 551.59064 998.0118 550.7Q997.168 549.6375 997.168 547.21564ZM998.24615 547.21564Q998.24615 549.325 998.74615 550.02814Q999.24615 550.73126 999.9649 550.73126Q1000.6993 550.73126 1001.18365 550.02814Q1001.68365 549.325 1001.68365 547.21564Q1001.68365 545.09064 1001.18365 544.40314Q1000.6993 543.7 999.9493 543.7Q999.2305 543.7 998.793 544.3094Q998.24615 545.09064 998.24615 547.21564ZM1004.168 547.21564Q1004.168 545.6844 1004.4805 544.7625Q1004.793 543.825 1005.4024 543.325Q1006.0274 542.825 1006.9649 542.825Q1007.6524 542.825 1008.168 543.10626Q1008.6993 543.3875 1009.043 543.91876Q1009.3868 544.4344 1009.5743 545.1844Q1009.7618 545.9344 1009.7618 547.21564Q1009.7618 548.73126 1009.4493 549.65314Q1009.1524 550.575 1008.5274 551.09064Q1007.918 551.59064 1006.9649 551.59064Q1005.7305 551.59064 1005.0118 550.7Q1004.168 549.6375 1004.168 547.21564ZM1005.24615 547.21564Q1005.24615 549.325 1005.74615 550.02814Q1006.24615 550.73126 1006.9649 550.73126Q1007.6993 550.73126 1008.18365 550.02814Q1008.68365 549.325 1008.68365 547.21564Q1008.68365 545.09064 1008.18365 544.40314Q1007.6993 543.7 1006.9493 543.7Q1006.2305 543.7 1005.793 544.3094Q1005.24615 545.09064 1005.24615 547.21564ZM1011.37115 544.91876Q1011.37115 543.9969 1011.8243 543.35626Q1012.293 542.71564 1013.168 542.71564Q1013.9805 542.71564 1014.5118 543.29376Q1015.043 543.8719 1015.043 544.98126Q1015.043 546.075 1014.49615 546.66876Q1013.9649 547.2469 1013.18365 547.2469Q1012.4024 547.2469 1011.8868 546.66876Q1011.37115 546.09064 1011.37115 544.91876ZM1013.1993 543.4344Q1012.80865 543.4344 1012.543 543.77814Q1012.293 544.1219 1012.293 545.02814Q1012.293 545.85626 1012.543 546.2Q1012.80865 546.52814 1013.1993 546.52814Q1013.6055 546.52814 1013.8555 546.1844Q1014.12115 545.84064 1014.12115 544.95Q1014.12115 544.10626 1013.8555 543.77814Q1013.5899 543.4344 1013.1993 543.4344ZM1013.1993 551.7625L1017.9024 542.71564L1018.7618 542.71564L1014.0743 551.7625L1013.1993 551.7625ZM1016.918 549.4344Q1016.918 548.5125 1017.37115 547.8719Q1017.8399 547.23126 1018.7305 547.23126Q1019.543 547.23126 1020.0743 547.8094Q1020.6055 548.3719 1020.6055 549.4969Q1020.6055 550.59064 1020.05865 551.1844Q1019.5274 551.7625 1018.7305 551.7625Q1017.9649 551.7625 1017.43365 551.1844Q1016.918 550.60626 1016.918 549.4344ZM1018.7618 547.95Q1018.3555 547.95 1018.0899 548.29376Q1017.8399 548.6375 1017.8399 549.54376Q1017.8399 550.35626 1018.1055 550.7Q1018.37115 551.04376 1018.7618 551.04376Q1019.1524 551.04376 1019.418 550.7Q1019.68365 550.35626 1019.68365 549.45Q1019.68365 548.6219 1019.418 548.29376Q1019.1524 547.95 1018.7618 547.95Z" fill-rule="nonzero"/><path fill="#4285f4" d="M274.5 44.55C274.5 47.86371 271.81372 50.55 268.5 50.55C265.18628 50.55 262.5 47.86371 262.5 44.55C262.5 41.23629 265.18628 38.55 268.5 38.55C271.81372 38.55 274.5 41.23629 274.5 44.55Z" fill-rule="nonzero"/><path fill="#1a1a1a" d="M284.07812 51.55L284.07812 37.2375L294.4375 37.2375L294.4375 38.925L285.98438 38.925L285.98438 43.3L293.89062 43.3L293.89062 44.9875L285.98438 44.9875L285.98438 49.8625L294.76562 49.8625L294.76562 51.55L284.07812 51.55ZM303.54688 51.55L303.54688 50.2375Q302.5625 51.784374 300.64062 51.784374Q299.40625 51.784374 298.35938 51.096874Q297.32812 50.409374 296.75 49.190624Q296.1875 47.971874 296.1875 46.378124Q296.1875 44.815624 296.70312 43.55Q297.21875 42.284374 298.25 41.6125Q299.29688 40.940624 300.5625 40.940624Q301.5 40.940624 302.23438 41.346874Q302.96875 41.7375 303.4375 42.3625L303.4375 37.2375L305.17188 37.2375L305.17188 51.55L303.54688 51.55ZM297.98438 46.378124Q297.98438 48.3625 298.82812 49.346874Q299.67188 50.33125 300.8125 50.33125Q301.96875 50.33125 302.76562 49.39375Q303.57812 48.45625 303.57812 46.51875Q303.57812 44.39375 302.75 43.39375Q301.9375 42.39375 300.73438 42.39375Q299.5625 42.39375 298.76562 43.3625Q297.98438 44.315624 297.98438 46.378124ZM314.60938 51.55L314.60938 50.01875Q313.40625 51.784374 311.32812 51.784374Q310.40625 51.784374 309.60938 51.440624Q308.8125 51.08125 308.42188 50.55Q308.04688 50.01875 307.89062 49.2375Q307.78125 48.721874 307.78125 47.596874L307.78125 41.175L309.53125 41.175L309.53125 46.925Q309.53125 48.3 309.64062 48.784374Q309.8125 49.471874 310.34375 49.878124Q310.89062 50.26875 311.67188 50.26875Q312.46875 50.26875 313.15625 49.8625Q313.85938 49.45625 314.14062 48.76875Q314.4375 48.065624 314.4375 46.7375L314.4375 41.175L316.1875 41.175L316.1875 51.55L314.60938 51.55ZM325.59375 47.753124L327.3125 47.971874Q327.03125 49.76875 325.85938 50.784374Q324.70312 51.784374 323.0 51.784374Q320.875 51.784374 319.57812 50.39375Q318.28125 49.003124 318.28125 46.409374Q318.28125 44.721874 318.82812 43.471874Q319.39062 42.20625 320.53125 41.58125Q321.67188 40.940624 323.01562 40.940624Q324.70312 40.940624 325.76562 41.8Q326.84375 42.659374 327.15625 44.221874L325.4375 44.4875Q325.20312 43.440624 324.57812 42.925Q323.95312 42.39375 323.07812 42.39375Q321.75 42.39375 320.92188 43.346874Q320.09375 44.3 320.09375 46.346874Q320.09375 48.440624 320.89062 49.39375Q321.6875 50.33125 322.98438 50.33125Q324.01562 50.33125 324.70312 49.70625Q325.40625 49.065624 325.59375 47.753124ZM335.59375 50.26875Q334.60938 51.096874 333.70312 51.440624Q332.79688 51.784374 331.76562 51.784374Q330.0625 51.784374 329.14062 50.95625Q328.21875 50.1125 328.21875 48.815624Q328.21875 48.05 328.5625 47.425Q328.92188 46.8 329.48438 46.425Q330.04688 46.034374 330.75 45.83125Q331.26562 45.70625 332.3125 45.565624Q334.4375 45.315624 335.4375 44.971874Q335.45312 44.6125 335.45312 44.503124Q335.45312 43.440624 334.95312 42.9875Q334.28125 42.39375 332.95312 42.39375Q331.70312 42.39375 331.10938 42.83125Q330.53125 43.26875 330.25 44.378124L328.53125 44.14375Q328.76562 43.034374 329.29688 42.3625Q329.82812 41.675 330.84375 41.315624Q331.85938 40.940624 333.20312 40.940624Q334.53125 40.940624 335.35938 41.253124Q336.1875 41.565624 336.57812 42.05Q336.96875 42.51875 337.125 43.2375Q337.21875 43.690624 337.21875 44.8625L337.21875 47.20625Q337.21875 49.659374 337.32812 50.315624Q337.4375 50.95625 337.78125 51.55L335.9375 51.55Q335.67188 51.003124 335.59375 50.26875ZM335.4375 46.346874Q334.48438 46.7375 332.5625 47.003124Q331.48438 47.159374 331.03125 47.3625Q330.59375 47.55 330.34375 47.925Q330.09375 48.3 330.09375 48.76875Q330.09375 49.471874 330.625 49.940624Q331.15625 50.409374 332.1875 50.409374Q333.20312 50.409374 333.98438 49.971874Q334.78125 49.51875 335.15625 48.753124Q335.4375 48.14375 335.4375 46.9875L335.4375 46.346874ZM343.65625 49.971874L343.90625 51.534374Q343.17188 51.690624 342.57812 51.690624Q341.625 51.690624 341.09375 51.39375Q340.57812 51.08125 340.35938 50.596874Q340.14062 50.096874 340.14062 48.51875L340.14062 42.55L338.85938 42.55L338.85938 41.175L340.14062 41.175L340.14062 38.6125L341.89062 37.55L341.89062 41.175L343.65625 41.175L343.65625 42.55L341.89062 42.55L341.89062 48.6125Q341.89062 49.3625 341.98438 49.58125Q342.07812 49.784374 342.28125 49.925Q342.5 50.05 342.89062 50.05Q343.17188 50.05 343.65625 49.971874ZM345.82812 39.253124L345.82812 37.2375L347.59375 37.2375L347.59375 39.253124L345.82812 39.253124ZM345.82812 51.55L345.82812 41.175L347.59375 41.175L347.59375 51.55L345.82812 51.55ZM349.17188 46.3625Q349.17188 43.4875 350.76562 42.096874Q352.10938 40.940624 354.03125 40.940624Q356.17188 40.940624 357.51562 42.346874Q358.875 43.753124 358.875 46.221874Q358.875 48.221874 358.28125 49.378124Q357.6875 50.51875 356.53125 51.159374Q355.39062 51.784374 354.03125 51.784374Q351.84375 51.784374 350.5 50.39375Q349.17188 48.9875 349.17188 46.3625ZM350.96875 46.3625Q350.96875 48.3625 351.82812 49.346874Q352.70312 50.33125 354.03125 50.33125Q355.34375 50.33125 356.20312 49.346874Q357.07812 48.346874 357.07812 46.3Q357.07812 44.378124 356.20312 43.39375Q355.32812 42.39375 354.03125 42.39375Q352.70312 42.39375 351.82812 43.39375Q350.96875 44.378124 350.96875 46.3625ZM360.8125 51.55L360.8125 41.175L362.40625 41.175L362.40625 42.659374Q363.54688 40.940624 365.70312 40.940624Q366.64062 40.940624 367.42188 41.284374Q368.21875 41.6125 368.60938 42.159374Q369.0 42.70625 369.15625 43.45625Q369.25 43.95625 369.25 45.175L369.25 51.55L367.48438 51.55L367.48438 45.2375Q367.48438 44.159374 367.28125 43.628124Q367.07812 43.096874 366.54688 42.784374Q366.03125 42.471874 365.32812 42.471874Q364.20312 42.471874 363.39062 43.190624Q362.57812 43.89375 362.57812 45.878124L362.57812 51.55L360.8125 51.55ZM375.6875 51.55L375.6875 38.925L370.96875 38.925L370.96875 37.2375L382.3125 37.2375L382.3125 38.925L377.57812 38.925L377.57812 51.55L375.6875 51.55ZM390.59375 50.26875Q389.60938 51.096874 388.70312 51.440624Q387.79688 51.784374 386.76562 51.784374Q385.0625 51.784374 384.14062 50.95625Q383.21875 50.1125 383.21875 48.815624Q383.21875 48.05 383.5625 47.425Q383.92188 46.8 384.48438 46.425Q385.04688 46.034374 385.75 45.83125Q386.26562 45.70625 387.3125 45.565624Q389.4375 45.315624 390.4375 44.971874Q390.45312 44.6125 390.45312 44.503124Q390.45312 43.440624 389.95312 42.9875Q389.28125 42.39375 387.95312 42.39375Q386.70312 42.39375 386.10938 42.83125Q385.53125 43.26875 385.25 44.378124L383.53125 44.14375Q383.76562 43.034374 384.29688 42.3625Q384.82812 41.675 385.84375 41.315624Q386.85938 40.940624 388.20312 40.940624Q389.53125 40.940624 390.35938 41.253124Q391.1875 41.565624 391.57812 42.05Q391.96875 42.51875 392.125 43.2375Q392.21875 43.690624 392.21875 44.8625L392.21875 47.20625Q392.21875 49.659374 392.32812 50.315624Q392.4375 50.95625 392.78125 51.55L390.9375 51.55Q390.67188 51.003124 390.59375 50.26875ZM390.4375 46.346874Q389.48438 46.7375 387.5625 47.003124Q386.48438 47.159374 386.03125 47.3625Q385.59375 47.55 385.34375 47.925Q385.09375 48.3 385.09375 48.76875Q385.09375 49.471874 385.625 49.940624Q386.15625 50.409374 387.1875 50.409374Q388.20312 50.409374 388.98438 49.971874Q389.78125 49.51875 390.15625 48.753124Q390.4375 48.14375 390.4375 46.9875L390.4375 46.346874ZM396.4375 51.55L394.8125 51.55L394.8125 37.2375L396.5625 37.2375L396.5625 42.346874Q397.6875 40.940624 399.40625 40.940624Q400.35938 40.940624 401.21875 41.33125Q402.07812 41.721874 402.625 42.425Q403.17188 43.1125 403.48438 44.096874Q403.79688 45.08125 403.79688 46.20625Q403.79688 48.878124 402.48438 50.33125Q401.17188 51.784374 399.32812 51.784374Q397.48438 51.784374 396.4375 50.253124L396.4375 51.55ZM396.42188 46.284374Q396.42188 48.14375 396.92188 48.9875Q397.76562 50.33125 399.17188 50.33125Q400.32812 50.33125 401.15625 49.33125Q402.0 48.33125 402.0 46.346874Q402.0 44.315624 401.1875 43.3625Q400.39062 42.39375 399.25 42.39375Q398.09375 42.39375 397.25 43.39375Q396.42188 44.39375 396.42188 46.284374ZM405.78125 51.55L405.78125 37.2375L407.53125 37.2375L407.53125 51.55L405.78125 51.55ZM416.92188 48.20625L418.73438 48.440624Q418.3125 50.01875 417.14062 50.909374Q415.98438 51.784374 414.17188 51.784374Q411.90625 51.784374 410.5625 50.39375Q409.23438 48.9875 409.23438 46.45625Q409.23438 43.83125 410.57812 42.39375Q411.92188 40.940624 414.07812 40.940624Q416.15625 40.940624 417.46875 42.3625Q418.79688 43.76875 418.79688 46.346874Q418.79688 46.503124 418.78125 46.815624L411.04688 46.815624Q411.14062 48.51875 412.01562 49.425Q412.89062 50.33125 414.1875 50.33125Q415.15625 50.33125 415.82812 49.83125Q416.51562 49.315624 416.92188 48.20625ZM411.14062 45.3625L416.9375 45.3625Q416.82812 44.065624 416.28125 43.409374Q415.4375 42.39375 414.09375 42.39375Q412.89062 42.39375 412.0625 43.20625Q411.23438 44.003124 411.14062 45.3625Z" fill-rule="nonzero"/><path fill="#ea4335" d="M441.5 38.55L446.69617 47.55L436.30383 47.55Z" fill-rule="nonzero"/><path fill="#1a1a1a" d="M457.07812 51.55L457.07812 37.2375L463.42188 37.2375Q465.32812 37.2375 466.32812 37.628124Q467.32812 38.003124 467.92188 38.9875Q468.51562 39.95625 468.51562 41.14375Q468.51562 42.659374 467.53125 43.70625Q466.54688 44.753124 464.48438 45.034374Q465.23438 45.39375 465.625 45.753124Q466.45312 46.503124 467.20312 47.659374L469.6875 51.55L467.3125 51.55L465.40625 48.565624Q464.57812 47.284374 464.04688 46.596874Q463.51562 45.909374 463.07812 45.64375Q462.65625 45.3625 462.21875 45.253124Q461.89062 45.190624 461.17188 45.190624L458.96875 45.190624L458.96875 51.55L457.07812 51.55ZM458.96875 43.55L463.04688 43.55Q464.34375 43.55 465.0625 43.284374Q465.79688 43.01875 466.17188 42.425Q466.5625 41.83125 466.5625 41.14375Q466.5625 40.128124 465.82812 39.471874Q465.09375 38.815624 463.5 38.815624L458.96875 38.815624L458.96875 43.55ZM477.59375 50.26875Q476.60938 51.096874 475.70312 51.440624Q474.79688 51.784374 473.76562 51.784374Q472.0625 51.784374 471.14062 50.95625Q470.21875 50.1125 470.21875 48.815624Q470.21875 48.05 470.5625 47.425Q470.92188 46.8 471.48438 46.425Q472.04688 46.034374 472.75 45.83125Q473.26562 45.70625 474.3125 45.565624Q476.4375 45.315624 477.4375 44.971874Q477.45312 44.6125 477.45312 44.503124Q477.45312 43.440624 476.95312 42.9875Q476.28125 42.39375 474.95312 42.39375Q473.70312 42.39375 473.10938 42.83125Q472.53125 43.26875 472.25 44.378124L470.53125 44.14375Q470.76562 43.034374 471.29688 42.3625Q471.82812 41.675 472.84375 41.315624Q473.85938 40.940624 475.20312 40.940624Q476.53125 40.940624 477.35938 41.253124Q478.1875 41.565624 478.57812 42.05Q478.96875 42.51875 479.125 43.2375Q479.21875 43.690624 479.21875 44.8625L479.21875 47.20625Q479.21875 49.659374 479.32812 50.315624Q479.4375 50.95625 479.78125 51.55L477.9375 51.55Q477.67188 51.003124 477.59375 50.26875ZM477.4375 46.346874Q476.48438 46.7375 474.5625 47.003124Q473.48438 47.159374 473.03125 47.3625Q472.59375 47.55 472.34375 47.925Q472.09375 48.3 472.09375 48.76875Q472.09375 49.471874 472.625 49.940624Q473.15625 50.409374 474.1875 50.409374Q475.20312 50.409374 475.98438 49.971874Q476.78125 49.51875 477.15625 48.753124Q477.4375 48.14375 477.4375 46.9875L477.4375 46.346874ZM488.59375 47.753124L490.3125 47.971874Q490.03125 49.76875 488.85938 50.784374Q487.70312 51.784374 486.0 51.784374Q483.875 51.784374 482.57812 50.39375Q481.28125 49.003124 481.28125 46.409374Q481.28125 44.721874 481.82812 43.471874Q482.39062 42.20625 483.53125 41.58125Q484.67188 40.940624 486.01562 40.940624Q487.70312 40.940624 488.76562 41.8Q489.84375 42.659374 490.15625 44.221874L488.4375 44.4875Q488.20312 43.440624 487.57812 42.925Q486.95312 42.39375 486.07812 42.39375Q484.75 42.39375 483.92188 43.346874Q483.09375 44.3 483.09375 46.346874Q483.09375 48.440624 483.89062 49.39375Q484.6875 50.33125 485.98438 50.33125Q487.01562 50.33125 487.70312 49.70625Q488.40625 49.065624 488.59375 47.753124ZM498.92188 48.20625L500.73438 48.440624Q500.3125 50.01875 499.14062 50.909374Q497.98438 51.784374 496.17188 51.784374Q493.90625 51.784374 492.5625 50.39375Q491.23438 48.9875 491.23438 46.45625Q491.23438 43.83125 492.57812 42.39375Q493.92188 40.940624 496.07812 40.940624Q498.15625 40.940624 499.46875 42.3625Q500.79688 43.76875 500.79688 46.346874Q500.79688 46.503124 500.78125 46.815624L493.04688 46.815624Q493.14062 48.51875 494.01562 49.425Q494.89062 50.33125 496.1875 50.33125Q497.15625 50.33125 497.82812 49.83125Q498.51562 49.315624 498.92188 48.20625ZM493.14062 45.3625L498.9375 45.3625Q498.82812 44.065624 498.28125 43.409374Q497.4375 42.39375 496.09375 42.39375Q494.89062 42.39375 494.0625 43.20625Q493.23438 44.003124 493.14062 45.3625ZM506.6875 51.55L506.6875 38.925L501.96875 38.925L501.96875 37.2375L513.3125 37.2375L513.3125 38.925L508.57812 38.925L508.57812 51.55L506.6875 51.55ZM521.59375 50.26875Q520.6094 51.096874 519.7031 51.440624Q518.7969 51.784374 517.7656 51.784374Q516.0625 51.784374 515.1406 50.95625Q514.21875 50.1125 514.21875 48.815624Q514.21875 48.05 514.5625 47.425Q514.9219 46.8 515.4844 46.425Q516.0469 46.034374 516.75 45.83125Q517.2656 45.70625 518.3125 45.565624Q520.4375 45.315624 521.4375 44.971874Q521.4531 44.6125 521.4531 44.503124Q521.4531 43.440624 520.9531 42.9875Q520.28125 42.39375 518.9531 42.39375Q517.7031 42.39375 517.1094 42.83125Q516.53125 43.26875 516.25 44.378124L514.53125 44.14375Q514.7656 43.034374 515.2969 42.3625Q515.8281 41.675 516.84375 41.315624Q517.8594 40.940624 519.2031 40.940624Q520.53125 40.940624 521.3594 41.253124Q522.1875 41.565624 522.5781 42.05Q522.96875 42.51875 523.125 43.2375Q523.21875 43.690624 523.21875 44.8625L523.21875 47.20625Q523.21875 49.659374 523.3281 50.315624Q523.4375 50.95625 523.78125 51.55L521.9375 51.55Q521.6719 51.003124 521.59375 50.26875ZM521.4375 46.346874Q520.4844 46.7375 518.5625 47.003124Q517.4844 47.159374 517.03125 47.3625Q516.59375 47.55 516.34375 47.925Q516.09375 48.3 516.09375 48.76875Q516.09375 49.471874 516.625 49.940624Q517.15625 50.409374 518.1875 50.409374Q519.2031 50.409374 519.9844 49.971874Q520.78125 49.51875 521.15625 48.753124Q521.4375 48.14375 521.4375 46.9875L521.4375 46.346874ZM527.4375 51.55L525.8125 51.55L525.8125 37.2375L527.5625 37.2375L527.5625 42.346874Q528.6875 40.940624 530.40625 40.940624Q531.3594 40.940624 532.21875 41.33125Q533.0781 41.721874 533.625 42.425Q534.1719 43.1125 534.4844 44.096874Q534.7969 45.08125 534.7969 46.20625Q534.7969 48.878124 533.4844 50.33125Q532.1719 51.784374 530.3281 51.784374Q528.4844 51.784374 527.4375 50.253124L527.4375 51.55ZM527.4219 46.284374Q527.4219 48.14375 527.9219 48.9875Q528.7656 50.33125 530.1719 50.33125Q531.3281 50.33125 532.15625 49.33125Q533.0 48.33125 533.0 46.346874Q533.0 44.315624 532.1875 43.3625Q531.3906 42.39375 530.25 42.39375Q529.09375 42.39375 528.25 43.39375Q527.4219 44.39375 527.4219 46.284374ZM536.78125 51.55L536.78125 37.2375L538.53125 37.2375L538.53125 51.55L536.78125 51.55ZM547.9219 48.20625L549.7344 48.440624Q549.3125 50.01875 548.1406 50.909374Q546.9844 51.784374 545.1719 51.784374Q542.90625 51.784374 541.5625 50.39375Q540.2344 48.9875 540.2344 46.45625Q540.2344 43.83125 541.5781 42.39375Q542.9219 40.940624 545.0781 40.940624Q547.15625 40.940624 548.46875 42.3625Q549.7969 43.76875 549.7969 46.346874Q549.7969 46.503124 549.78125 46.815624L542.0469 46.815624Q542.1406 48.51875 543.0156 49.425Q543.8906 50.33125 545.1875 50.33125Q546.15625 50.33125 546.8281 49.83125Q547.5156 49.315624 547.9219 48.20625ZM542.1406 45.3625L547.9375 45.3625Q547.8281 44.065624 547.28125 43.409374Q546.4375 42.39375 545.09375 42.39375Q543.8906 42.39375 543.0625 43.20625Q542.2344 44.003124 542.1406 45.3625Z" fill-rule="nonzero"/><path fill="#fbbc04" d="M568.2574 40.307358L576.7426 40.307358L576.7426 48.79264L568.2574 48.79264Z" fill-rule="nonzero"/><path fill="#1a1a1a" d="M586.46875 51.55L591.96875 37.2375L594.0156 37.2375L599.875 51.55L597.71875 51.55L596.0469 47.20625L590.0625 47.20625L588.4844 51.55L586.46875 51.55ZM590.6094 45.675L595.4531 45.675L593.96875 41.70625Q593.28125 39.89375 592.9531 38.7375Q592.6719 40.1125 592.1719 41.471874L590.6094 45.675ZM600.5 52.409374L602.2031 52.659374Q602.3125 53.45625 602.7969 53.815624Q603.4531 54.3 604.59375 54.3Q605.8125 54.3 606.46875 53.815624Q607.1406 53.33125 607.375 52.45625Q607.5156 51.909374 607.5 50.190624Q606.34375 51.55 604.625 51.55Q602.4844 51.55 601.3125 50.003124Q600.1406 48.45625 600.1406 46.3Q600.1406 44.815624 600.6719 43.565624Q601.21875 42.315624 602.2344 41.628124Q603.2656 40.940624 604.6406 40.940624Q606.46875 40.940624 607.6719 42.425L607.6719 41.175L609.28125 41.175L609.28125 50.14375Q609.28125 52.565624 608.78125 53.565624Q608.2969 54.58125 607.21875 55.159374Q606.15625 55.753124 604.59375 55.753124Q602.75 55.753124 601.59375 54.925Q600.4531 54.096874 600.5 52.409374ZM601.9531 46.175Q601.9531 48.221874 602.7656 49.159374Q603.5781 50.096874 604.7969 50.096874Q606.0 50.096874 606.8125 49.159374Q607.6406 48.221874 607.6406 46.2375Q607.6406 44.33125 606.7969 43.3625Q605.9531 42.39375 604.7656 42.39375Q603.59375 42.39375 602.7656 43.346874Q601.9531 44.3 601.9531 46.175ZM618.9219 48.20625L620.7344 48.440624Q620.3125 50.01875 619.1406 50.909374Q617.9844 51.784374 616.1719 51.784374Q613.90625 51.784374 612.5625 50.39375Q611.2344 48.9875 611.2344 46.45625Q611.2344 43.83125 612.5781 42.39375Q613.9219 40.940624 616.0781 40.940624Q618.15625 40.940624 619.46875 42.3625Q620.7969 43.76875 620.7969 46.346874Q620.7969 46.503124 620.78125 46.815624L613.0469 46.815624Q613.1406 48.51875 614.0156 49.425Q614.8906 50.33125 616.1875 50.33125Q617.15625 50.33125 617.8281 49.83125Q618.5156 49.315624 618.9219 48.20625ZM613.1406 45.3625L618.9375 45.3625Q618.8281 44.065624 618.28125 43.409374Q617.4375 42.39375 616.09375 42.39375Q614.8906 42.39375 614.0625 43.20625Q613.2344 44.003124 613.1406 45.3625ZM626.6875 51.55L626.6875 38.925L621.96875 38.925L621.96875 37.2375L633.3125 37.2375L633.3125 38.925L628.5781 38.925L628.5781 51.55L626.6875 51.55ZM641.59375 50.26875Q640.6094 51.096874 639.7031 51.440624Q638.7969 51.784374 637.7656 51.784374Q636.0625 51.784374 635.1406 50.95625Q634.21875 50.1125 634.21875 48.815624Q634.21875 48.05 634.5625 47.425Q634.9219 46.8 635.4844 46.425Q636.0469 46.034374 636.75 45.83125Q637.2656 45.70625 638.3125 45.565624Q640.4375 45.315624 641.4375 44.971874Q641.4531 44.6125 641.4531 44.503124Q641.4531 43.440624 640.9531 42.9875Q640.28125 42.39375 638.9531 42.39375Q637.7031 42.39375 637.1094 42.83125Q636.53125 43.26875 636.25 44.378124L634.53125 44.14375Q634.7656 43.034374 635.2969 42.3625Q635.8281 41.675 636.84375 41.315624Q637.8594 40.940624 639.2031 40.940624Q640.53125 40.940624 641.3594 41.253124Q642.1875 41.565624 642.5781 42.05Q642.96875 42.51875 643.125 43.2375Q643.21875 43.690624 643.21875 44.8625L643.21875 47.20625Q643.21875 49.659374 643.3281 50.315624Q643.4375 50.95625 643.78125 51.55L641.9375 51.55Q641.6719 51.003124 641.59375 50.26875ZM641.4375 46.346874Q640.4844 46.7375 638.5625 47.003124Q637.4844 47.159374 637.03125 47.3625Q636.59375 47.55 636.34375 47.925Q636.09375 48.3 636.09375 48.76875Q636.09375 49.471874 636.625 49.940624Q637.15625 50.409374 638.1875 50.409374Q639.2031 50.409374 639.9844 49.971874Q640.78125 49.51875 641.15625 48.753124Q641.4375 48.14375 641.4375 46.9875L641.4375 46.346874ZM647.4375 51.55L645.8125 51.55L645.8125 37.2375L647.5625 37.2375L647.5625 42.346874Q648.6875 40.940624 650.40625 40.940624Q651.3594 40.940624 652.21875 41.33125Q653.0781 41.721874 653.625 42.425Q654.1719 43.1125 654.4844 44.096874Q654.7969 45.08125 654.7969 46.20625Q654.7969 48.878124 653.4844 50.33125Q652.1719 51.784374 650.3281 51.784374Q648.4844 51.784374 647.4375 50.253124L647.4375 51.55ZM647.4219 46.284374Q647.4219 48.14375 647.9219 48.9875Q648.7656 50.33125 650.1719 50.33125Q651.3281 50.33125 652.15625 49.33125Q653.0 48.33125 653.0 46.346874Q653.0 44.315624 652.1875 43.3625Q651.3906 42.39375 650.25 42.39375Q649.09375 42.39375 648.25 43.39375Q647.4219 44.39375 647.4219 46.284374ZM656.78125 51.55L656.78125 37.2375L658.53125 37.2375L658.53125 51.55L656.78125 51.55ZM667.9219 48.20625L669.7344 48.440624Q669.3125 50.01875 668.1406 50.909374Q666.9844 51.784374 665.1719 51.784374Q662.90625 51.784374 661.5625 50.39375Q660.2344 48.9875 660.2344 46.45625Q660.2344 43.83125 661.5781 42.39375Q662.9219 40.940624 665.0781 40.940624Q667.15625 40.940624 668.46875 42.3625Q669.7969 43.76875 669.7969 46.346874Q669.7969 46.503124 669.78125 46.815624L662.0469 46.815624Q662.1406 48.51875 663.0156 49.425Q663.8906 50.33125 665.1875 50.33125Q666.15625 50.33125 666.8281 49.83125Q667.5156 49.315624 667.9219 48.20625ZM662.1406 45.3625L667.9375 45.3625Q667.8281 44.065624 667.28125 43.409374Q666.4375 42.39375 665.09375 42.39375Q663.8906 42.39375 663.0625 43.20625Q662.2344 44.003124 662.1406 45.3625Z" fill-rule="nonzero"/><path fill="#34a853" d="M692.5 38.55L693.8471 42.695896L698.20636 42.695896L694.6796 45.258205L696.02673 49.404102L692.5 46.841797L688.97327 49.404102L690.3204 45.258205L686.79364 42.695896L691.1529 42.695896Z" fill-rule="nonzero"/><path fill="#1a1a1a" d="M707.40625 46.95625L709.1875 46.8Q709.3125 47.8625 709.7656 48.55Q710.2344 49.2375 711.2031 49.675Q712.1875 50.096874 713.4219 50.096874Q714.5 50.096874 715.3281 49.784374Q716.15625 49.45625 716.5625 48.89375Q716.96875 48.33125 716.96875 47.659374Q716.96875 46.9875 716.5781 46.4875Q716.1875 45.9875 715.2969 45.64375Q714.71875 45.409374 712.7344 44.940624Q710.7656 44.471874 709.9844 44.05Q708.9531 43.51875 708.4531 42.721874Q707.9531 41.925 707.9531 40.940624Q707.9531 39.846874 708.5625 38.909374Q709.1719 37.971874 710.3594 37.4875Q711.5469 36.9875 712.9844 36.9875Q714.5781 36.9875 715.7969 37.503124Q717.0156 38.01875 717.65625 39.01875Q718.3125 40.003124 718.3594 41.26875L716.5469 41.409374Q716.40625 40.05 715.5625 39.3625Q714.71875 38.659374 713.0625 38.659374Q711.34375 38.659374 710.5469 39.3Q709.7656 39.925 709.7656 40.8Q709.7656 41.58125 710.3281 42.08125Q710.875 42.58125 713.1875 43.096874Q715.5 43.6125 716.3594 44.003124Q717.6094 44.58125 718.2031 45.471874Q718.7969 46.346874 718.7969 47.503124Q718.7969 48.64375 718.1406 49.659374Q717.4844 50.675 716.25 51.2375Q715.03125 51.8 713.5 51.8Q711.5625 51.8 710.25 51.2375Q708.9375 50.659374 708.1875 49.51875Q707.4375 48.378124 707.40625 46.95625ZM727.9219 48.20625L729.7344 48.440624Q729.3125 50.01875 728.1406 50.909374Q726.9844 51.784374 725.1719 51.784374Q722.90625 51.784374 721.5625 50.39375Q720.2344 48.9875 720.2344 46.45625Q720.2344 43.83125 721.5781 42.39375Q722.9219 40.940624 725.0781 40.940624Q727.15625 40.940624 728.46875 42.3625Q729.7969 43.76875 729.7969 46.346874Q729.7969 46.503124 729.78125 46.815624L722.0469 46.815624Q722.1406 48.51875 723.0156 49.425Q723.8906 50.33125 725.1875 50.33125Q726.15625 50.33125 726.8281 49.83125Q727.5156 49.315624 727.9219 48.20625ZM722.1406 45.3625L727.9375 45.3625Q727.8281 44.065624 727.28125 43.409374Q726.4375 42.39375 725.09375 42.39375Q723.8906 42.39375 723.0625 43.20625Q722.2344 44.003124 722.1406 45.3625ZM730.6406 51.55L734.4375 46.159374L730.9375 41.175L733.125 41.175L734.71875 43.6125Q735.1719 44.3 735.4375 44.76875Q735.875 44.128124 736.2344 43.628124L737.9844 41.175L740.0781 41.175L736.5 46.065624L740.3594 51.55L738.2031 51.55L736.0625 48.33125L735.5 47.45625L732.78125 51.55L730.6406 51.55ZM745.6875 51.55L745.6875 38.925L740.96875 38.925L740.96875 37.2375L752.3125 37.2375L752.3125 38.925L747.5781 38.925L747.5781 51.55L745.6875 51.55ZM760.59375 50.26875Q759.6094 51.096874 758.7031 51.440624Q757.7969 51.784374 756.7656 51.784374Q755.0625 51.784374 754.1406 50.95625Q753.21875 50.1125 753.21875 48.815624Q753.21875 48.05 753.5625 47.425Q753.9219 46.8 754.4844 46.425Q755.0469 46.034374 755.75 45.83125Q756.2656 45.70625 757.3125 45.565624Q759.4375 45.315624 760.4375 44.971874Q760.4531 44.6125 760.4531 44.503124Q760.4531 43.440624 759.9531 42.9875Q759.28125 42.39375 757.9531 42.39375Q756.7031 42.39375 756.1094 42.83125Q755.53125 43.26875 755.25 44.378124L753.53125 44.14375Q753.7656 43.034374 754.2969 42.3625Q754.8281 41.675 755.84375 41.315624Q756.8594 40.940624 758.2031 40.940624Q759.53125 40.940624 760.3594 41.253124Q761.1875 41.565624 761.5781 42.05Q761.96875 42.51875 762.125 43.2375Q762.21875 43.690624 762.21875 44.8625L762.21875 47.20625Q762.21875 49.659374 762.3281 50.315624Q762.4375 50.95625 762.78125 51.55L760.9375 51.55Q760.6719 51.003124 760.59375 50.26875ZM760.4375 46.346874Q759.4844 46.7375 757.5625 47.003124Q756.4844 47.159374 756.03125 47.3625Q755.59375 47.55 755.34375 47.925Q755.09375 48.3 755.09375 48.76875Q755.09375 49.471874 755.625 49.940624Q756.15625 50.409374 757.1875 50.409374Q758.2031 50.409374 758.9844 49.971874Q759.78125 49.51875 760.15625 48.753124Q760.4375 48.14375 760.4375 46.9875L760.4375 46.346874ZM766.4375 51.55L764.8125 51.55L764.8125 37.2375L766.5625 37.2375L766.5625 42.346874Q767.6875 40.940624 769.40625 40.940624Q770.3594 40.940624 771.21875 41.33125Q772.0781 41.721874 772.625 42.425Q773.1719 43.1125 773.4844 44.096874Q773.7969 45.08125 773.7969 46.20625Q773.7969 48.878124 772.4844 50.33125Q771.1719 51.784374 769.3281 51.784374Q767.4844 51.784374 766.4375 50.253124L766.4375 51.55ZM766.4219 46.284374Q766.4219 48.14375 766.9219 48.9875Q767.7656 50.33125 769.1719 50.33125Q770.3281 50.33125 771.15625 49.33125Q772.0 48.33125 772.0 46.346874Q772.0 44.315624 771.1875 43.3625Q770.3906 42.39375 769.25 42.39375Q768.09375 42.39375 767.25 43.39375Q766.4219 44.39375 766.4219 46.284374ZM775.78125 51.55L775.78125 37.2375L777.53125 37.2375L777.53125 51.55L775.78125 51.55ZM786.9219 48.20625L788.7344 48.440624Q788.3125 50.01875 787.1406 50.909374Q785.9844 51.784374 784.1719 51.784374Q781.90625 51.784374 780.5625 50.39375Q779.2344 48.9875 779.2344 46.45625Q779.2344 43.83125 780.5781 42.39375Q781.9219 40.940624 784.0781 40.940624Q786.15625 40.940624 787.46875 42.3625Q788.7969 43.76875 788.7969 46.346874Q788.7969 46.503124 788.78125 46.815624L781.0469 46.815624Q781.1406 48.51875 782.0156 49.425Q782.8906 50.33125 784.1875 50.33125Q785.15625 50.33125 785.8281 49.83125Q786.5156 49.315624 786.9219 48.20625ZM781.1406 45.3625L786.9375 45.3625Q786.8281 44.065624 786.28125 43.409374Q785.4375 42.39375 784.09375 42.39375Q782.8906 42.39375 782.0625 43.20625Q781.2344 44.003124 781.1406 45.3625Z" fill-rule="nonzero"/></svg>