<svg version="1.1" viewBox="0.0 0.0 1052.0 651.0" fill="none" stroke="none" stroke-linecap="square" stroke-miterlimit="10" width="1052" height="651" xmlns:xlink="http://www.w3.org/1999/xlink" xmlns="http://www.w3.org/2000/svg"><path fill="#ffffff" d="M0 0L1052.0 0L1052.0 651.0L0 651.0L0 0Z" fill-rule="nonzero"/><path stroke="#cccccc" stroke-width="1.0" stroke-linecap="butt" d="M126.5 85.5L126.5 534.5" fill-rule="nonzero"/><path stroke="#cccccc" stroke-width="1.0" stroke-linecap="butt" d="M419.5 85.5L419.5 534.5" fill-rule="nonzero"/><path stroke="#cccccc" stroke-width="1.0" stroke-linecap="butt" d="M712.5 85.5L712.5 534.5" fill-rule="nonzero"/><path stroke="#cccccc" stroke-width="1.0" stroke-linecap="butt" d="M1005.5 85.5L1005.5 534.5" fill-rule="nonzero"/><path stroke="#cccccc" stroke-width="1.0" stroke-linecap="butt" d="M126.5 534.5L1019.5 534.5" fill-rule="nonzero"/><path stroke="#cccccc" stroke-width="1.0" stroke-linecap="butt" d="M126.5 384.5L1019.5 384.5" fill-rule="nonzero"/><path stroke="#cccccc" stroke-width="1.0" stroke-linecap="butt" d="M126.5 234.5L1019.5 234.5" fill-rule="nonzero"/><path stroke="#cccccc" stroke-width="1.0" stroke-linecap="butt" d="M126.5 85.5L1019.5 85.5" fill-rule="nonzero"/><path stroke="#000000" stroke-width="1.0" stroke-linecap="butt" stroke-opacity="0.0" d="M126.5 484.5L1019.5 484.5" fill-rule="nonzero"/><path stroke="#000000" stroke-width="1.0" stroke-linecap="butt" stroke-opacity="0.0" d="M126.5 434.5L1019.5 434.5" fill-rule="nonzero"/><path stroke="#000000" stroke-width="1.0" stroke-linecap="butt" stroke-opacity="0.0" d="M126.5 334.5L1019.5 334.5" fill-rule="nonzero"/><path stroke="#000000" stroke-width="1.0" stroke-linecap="butt" stroke-opacity="0.0" d="M126.5 284.5L1019.5 284.5" fill-rule="nonzero"/><path stroke="#000000" stroke-width="1.0" stroke-linecap="butt" stroke-opacity="0.0" d="M126.5 185.5L1019.5 185.5" fill-rule="nonzero"/><path stroke="#000000" stroke-width="1.0" stroke-linecap="butt" stroke-opacity="0.0" d="M126.5 135.5L1019.5 135.5" fill-rule="nonzero"/><path stroke="#000000" stroke-width="1.0" stroke-linecap="butt" d="M126.5 534.5L126.5 85.5" fill-rule="nonzero"/><clipPath id="id_0"><path d="M126.55 85.25L1019.45 85.25L1019.45 534.45L126.55 534.45L126.55 85.25Z" clip-rule="nonzero"/></clipPath><path stroke="#4285f4" stroke-width="2.0" stroke-linecap="butt" clip-path="url(#id_0)" d="M419.5887 159.27853L1005.66614 235.53185" fill-rule="nonzero"/><path stroke="#ea4335" stroke-width="2.0" stroke-linecap="butt" clip-path="url(#id_0)" d="M419.5887 250.1315L1005.66614 261.99405" fill-rule="nonzero"/><path stroke="#fbbc04" stroke-width="2.0" stroke-linecap="butt" clip-path="url(#id_0)" d="M419.5887 259.9063L1005.66614 264.42017" fill-rule="nonzero"/><path stroke="#34a853" stroke-width="4.0" stroke-linecap="butt" clip-path="url(#id_0)" d="M419.5887 471.4098L1005.66614 118.115036" fill-rule="nonzero"/><path fill="#4285f4" clip-path="url(#id_0)" d="M425.5887 159.27853C425.5887 162.59224 422.9024 165.27853 419.5887 165.27853C416.275 165.27853 413.5887 162.59224 413.5887 159.27853C413.5887 155.96483 416.275 153.27853 419.5887 153.27853C422.9024 153.27853 425.5887 155.96483 425.5887 159.27853Z" fill-rule="nonzero"/><path fill="#4285f4" clip-path="url(#id_0)" d="M1011.66614 235.53185C1011.66614 238.84555 1008.97986 241.53185 1005.66614 241.53185C1002.3524 241.53185 999.66614 238.84555 999.66614 235.53185C999.66614 232.21814 1002.3524 229.53185 1005.66614 229.53185C1008.97986 229.53185 1011.66614 232.21814 1011.66614 235.53185Z" fill-rule="nonzero"/><path fill="#ea4335" clip-path="url(#id_0)" d="M419.5887 244.1315L424.78485 253.1315L414.39255 253.1315Z" fill-rule="nonzero"/><path fill="#ea4335" clip-path="url(#id_0)" d="M1005.66614 255.99405L1010.86224 264.99405L1000.47 264.99405Z" fill-rule="nonzero"/><path fill="#fbbc04" clip-path="url(#id_0)" d="M415.34607 255.66368L423.83136 255.66368L423.83136 264.14896L415.34607 264.14896Z" fill-rule="nonzero"/><path fill="#fbbc04" clip-path="url(#id_0)" d="M1001.42346 260.17752L1009.90875 260.17752L1009.90875 268.6628L1001.42346 268.6628Z" fill-rule="nonzero"/><path fill="#34a853" clip-path="url(#id_0)" d="M419.5887 463.4098L421.38483 468.93765L427.19717 468.93765L422.49487 472.35406L424.291 477.88193L419.5887 474.4655L414.8864 477.88193L416.68253 472.35406L411.98026 468.93765L417.7926 468.93765Z" fill-rule="nonzero"/><path fill="#34a853" clip-path="url(#id_0)" d="M1005.66614 110.115036L1007.4622 115.6429L1013.2746 115.6429L1008.57227 119.0593L1010.3684 124.58717L1005.66614 121.17076L1000.96387 124.58717L1002.75995 119.0593L998.0577 115.6429L1003.87 115.6429Z" fill-rule="nonzero"/><path fill="#000000" d="M496.57812 606.9344L498.71875 606.7469Q498.875 608.02814 499.42188 608.85626Q499.98438 609.6844 501.15625 610.2Q502.32812 610.7 503.79688 610.7Q505.09375 610.7 506.09375 610.325Q507.09375 609.9344 507.57812 609.2625Q508.0625 608.575 508.0625 607.77814Q508.0625 606.98126 507.59375 606.3719Q507.125 605.7625 506.04688 605.35626Q505.35938 605.09064 502.98438 604.52814Q500.625 603.95 499.67188 603.45Q498.4375 602.8094 497.82812 601.85626Q497.23438 600.8875 497.23438 599.71564Q497.23438 598.40314 497.96875 597.27814Q498.71875 596.15314 500.125 595.575Q501.54688 594.98126 503.28125 594.98126Q505.1875 594.98126 506.64062 595.59064Q508.10938 596.2 508.89062 597.40314Q509.6875 598.59064 509.73438 600.10626L507.5625 600.27814Q507.39062 598.6375 506.375 597.8094Q505.35938 596.98126 503.375 596.98126Q501.3125 596.98126 500.35938 597.7469Q499.42188 598.4969 499.42188 599.5594Q499.42188 600.48126 500.09375 601.075Q500.75 601.6844 503.51562 602.3094Q506.29688 602.9344 507.32812 603.40314Q508.82812 604.09064 509.53125 605.15314Q510.25 606.21564 510.25 607.59064Q510.25 608.96564 509.46875 610.1844Q508.6875 611.3875 507.21875 612.075Q505.75 612.7469 503.90625 612.7469Q501.57812 612.7469 500.0 612.075Q498.42188 611.3875 497.51562 610.02814Q496.625 608.65314 496.57812 606.9344ZM521.6094 608.4344L523.78125 608.71564Q523.2656 610.6219 521.875 611.6844Q520.4844 612.73126 518.3125 612.73126Q515.5781 612.73126 513.96875 611.0594Q512.375 609.3719 512.375 606.325Q512.375 603.1844 513.9844 601.45Q515.6094 599.71564 518.1875 599.71564Q520.6875 599.71564 522.2656 601.41876Q523.8594 603.1219 523.8594 606.2Q523.8594 606.3875 523.84375 606.7625L514.5625 606.7625Q514.6719 608.8094 515.71875 609.90314Q516.7656 610.9969 518.3281 610.9969Q519.4844 610.9969 520.2969 610.3875Q521.125 609.77814 521.6094 608.4344ZM514.6719 605.02814L521.625 605.02814Q521.4844 603.46564 520.8281 602.66876Q519.8281 601.45 518.21875 601.45Q516.7656 601.45 515.7656 602.4344Q514.78125 603.40314 514.6719 605.02814ZM524.6719 612.45L529.21875 605.98126L525.0156 599.9969L527.65625 599.9969L529.5625 602.91876Q530.1094 603.7469 530.4375 604.3094Q530.9531 603.54376 531.375 602.95L533.4844 599.9969L536.0 599.9969L531.7031 605.85626L536.3281 612.45L533.7344 612.45L531.1875 608.575L530.5 607.54376L527.2344 612.45L524.6719 612.45ZM544.5781 606.9344L546.71875 606.7469Q546.875 608.02814 547.4219 608.85626Q547.9844 609.6844 549.15625 610.2Q550.3281 610.7 551.7969 610.7Q553.09375 610.7 554.09375 610.325Q555.09375 609.9344 555.5781 609.2625Q556.0625 608.575 556.0625 607.77814Q556.0625 606.98126 555.59375 606.3719Q555.125 605.7625 554.0469 605.35626Q553.3594 605.09064 550.9844 604.52814Q548.625 603.95 547.6719 603.45Q546.4375 602.8094 545.8281 601.85626Q545.2344 600.8875 545.2344 599.71564Q545.2344 598.40314 545.96875 597.27814Q546.71875 596.15314 548.125 595.575Q549.5469 594.98126 551.28125 594.98126Q553.1875 594.98126 554.6406 595.59064Q556.1094 596.2 556.8906 597.40314Q557.6875 598.59064 557.7344 600.10626L555.5625 600.27814Q555.3906 598.6375 554.375 597.8094Q553.3594 596.98126 551.375 596.98126Q549.3125 596.98126 548.3594 597.7469Q547.4219 598.4969 547.4219 599.5594Q547.4219 600.48126 548.09375 601.075Q548.75 601.6844 551.5156 602.3094Q554.2969 602.9344 555.3281 603.40314Q556.8281 604.09064 557.53125 605.15314Q558.25 606.21564 558.25 607.59064Q558.25 608.96564 557.46875 610.1844Q556.6875 611.3875 555.21875 612.075Q553.75 612.7469 551.90625 612.7469Q549.5781 612.7469 548.0 612.075Q546.4219 611.3875 545.5156 610.02814Q544.625 608.65314 544.5781 606.9344ZM569.6094 608.4344L571.78125 608.71564Q571.2656 610.6219 569.875 611.6844Q568.4844 612.73126 566.3125 612.73126Q563.5781 612.73126 561.96875 611.0594Q560.375 609.3719 560.375 606.325Q560.375 603.1844 561.9844 601.45Q563.6094 599.71564 566.1875 599.71564Q568.6875 599.71564 570.2656 601.41876Q571.8594 603.1219 571.8594 606.2Q571.8594 606.3875 571.84375 606.7625L562.5625 606.7625Q562.6719 608.8094 563.71875 609.90314Q564.7656 610.9969 566.3281 610.9969Q567.4844 610.9969 568.2969 610.3875Q569.125 609.77814 569.6094 608.4344ZM562.6719 605.02814L569.625 605.02814Q569.4844 603.46564 568.8281 602.66876Q567.8281 601.45 566.21875 601.45Q564.7656 601.45 563.7656 602.4344Q562.78125 603.40314 562.6719 605.02814ZM574.03125 612.45L574.03125 595.2625L576.1406 595.2625L576.1406 612.45L574.03125 612.45ZM587.6094 608.4344L589.78125 608.71564Q589.2656 610.6219 587.875 611.6844Q586.4844 612.73126 584.3125 612.73126Q581.5781 612.73126 579.96875 611.0594Q578.375 609.3719 578.375 606.325Q578.375 603.1844 579.9844 601.45Q581.6094 599.71564 584.1875 599.71564Q586.6875 599.71564 588.2656 601.41876Q589.8594 603.1219 589.8594 606.2Q589.8594 606.3875 589.84375 606.7625L580.5625 606.7625Q580.6719 608.8094 581.71875 609.90314Q582.7656 610.9969 584.3281 610.9969Q585.4844 610.9969 586.2969 610.3875Q587.125 609.77814 587.6094 608.4344ZM580.6719 605.02814L587.625 605.02814Q587.4844 603.46564 586.8281 602.66876Q585.8281 601.45 584.21875 601.45Q582.7656 601.45 581.7656 602.4344Q580.78125 603.40314 580.6719 605.02814ZM600.2031 607.8875L602.28125 608.15314Q601.9375 610.3094 600.53125 611.52814Q599.1406 612.73126 597.09375 612.73126Q594.5469 612.73126 592.9844 611.0594Q591.4375 609.3875 591.4375 606.27814Q591.4375 604.2625 592.1094 602.7469Q592.78125 601.23126 594.1406 600.48126Q595.5 599.71564 597.1094 599.71564Q599.1406 599.71564 600.4219 600.7469Q601.71875 601.77814 602.0781 603.65314L600.03125 603.98126Q599.7344 602.71564 598.9844 602.09064Q598.25 601.45 597.1875 601.45Q595.59375 601.45 594.59375 602.60626Q593.6094 603.7469 593.6094 606.21564Q593.6094 608.71564 594.5625 609.85626Q595.53125 610.9969 597.0781 610.9969Q598.3125 610.9969 599.1406 610.23126Q599.9844 609.46564 600.2031 607.8875ZM608.6875 610.5594L609.0 612.41876Q608.1094 612.6219 607.40625 612.6219Q606.25 612.6219 605.6094 612.2625Q604.9844 611.8875 604.71875 611.29376Q604.46875 610.7 604.46875 608.8094L604.46875 601.6375L602.9219 601.6375L602.9219 599.9969L604.46875 599.9969L604.46875 596.91876L606.5625 595.65314L606.5625 599.9969L608.6875 599.9969L608.6875 601.6375L606.5625 601.6375L606.5625 608.91876Q606.5625 609.825 606.6719 610.09064Q606.7969 610.34064 607.0469 610.4969Q607.2969 610.6375 607.7656 610.6375Q608.1094 610.6375 608.6875 610.5594ZM611.09375 597.7L611.09375 595.2625L613.2031 595.2625L613.2031 597.7L611.09375 597.7ZM611.09375 612.45L611.09375 599.9969L613.2031 599.9969L613.2031 612.45L611.09375 612.45ZM619.5469 612.45L614.8125 599.9969L617.03125 599.9969L619.7031 607.45Q620.1406 608.66876 620.5 609.96564Q620.78125 608.98126 621.28125 607.59064L624.0469 599.9969L626.21875 599.9969L621.5156 612.45L619.5469 612.45ZM628.09375 597.7L628.09375 595.2625L630.2031 595.2625L630.2031 597.7L628.09375 597.7ZM628.09375 612.45L628.09375 599.9969L630.2031 599.9969L630.2031 612.45L628.09375 612.45ZM637.6875 610.5594L638.0 612.41876Q637.1094 612.6219 636.40625 612.6219Q635.25 612.6219 634.6094 612.2625Q633.9844 611.8875 633.71875 611.29376Q633.46875 610.7 633.46875 608.8094L633.46875 601.6375L631.9219 601.6375L631.9219 599.9969L633.46875 599.9969L633.46875 596.91876L635.5625 595.65314L635.5625 599.9969L637.6875 599.9969L637.6875 601.6375L635.5625 601.6375L635.5625 608.91876Q635.5625 609.825 635.6719 610.09064Q635.7969 610.34064 636.0469 610.4969Q636.2969 610.6375 636.7656 610.6375Q637.1094 610.6375 637.6875 610.5594ZM639.9844 617.2469L639.75 615.2625Q640.4531 615.45 640.96875 615.45Q641.6719 615.45 642.09375 615.21564Q642.5156 614.98126 642.78125 614.5594Q642.9844 614.2469 643.4219 612.9969Q643.4844 612.8094 643.6094 612.48126L638.8906 599.9969L641.15625 599.9969L643.75 607.21564Q644.25 608.575 644.65625 610.09064Q645.0156 608.6375 645.5156 607.2625L648.1875 599.9969L650.2969 599.9969L645.5625 612.66876Q644.7969 614.71564 644.375 615.48126Q643.8125 616.52814 643.0781 617.0125Q642.3594 617.4969 641.34375 617.4969Q640.7344 617.4969 639.9844 617.2469Z" fill-rule="nonzero"/><path fill="#000000" d="M54.55001 386.95938L37.36251 386.95938L37.36251 379.35Q37.36251 377.05313 37.83126 375.86563Q38.30001 374.6625 39.471886 373.94376Q40.64376 373.225 42.05001 373.225Q43.878136 373.225 45.14376 374.4125Q46.39376 375.6 46.73751 378.06876Q47.159386 377.1625 47.58126 376.69376Q48.503136 375.69376 49.878136 374.80313L54.55001 371.81876L54.55001 374.67813L50.971886 376.95938Q49.42501 377.94376 48.61251 378.6Q47.784386 379.24063 47.45626 379.75626Q47.128136 380.25626 47.003136 380.7875Q46.92501 381.17813 46.92501 382.05313L46.92501 384.69376L54.55001 384.69376L54.55001 386.95938ZM44.95626 384.69376L44.95626 379.80313Q44.95626 378.24063 44.628136 377.36563Q44.30001 376.49063 43.596886 376.0375Q42.89376 375.56876 42.05001 375.56876Q40.83126 375.56876 40.05001 376.45938Q39.26876 377.33438 39.26876 379.25626L39.26876 384.69376L44.95626 384.69376ZM50.534386 361.74063L50.815636 359.56876Q52.721886 360.08438 53.784386 361.475Q54.83126 362.86563 54.83126 365.0375Q54.83126 367.77188 53.159386 369.38126Q51.471886 370.975 48.42501 370.975Q45.284386 370.975 43.55001 369.36563Q41.815636 367.74063 41.815636 365.1625Q41.815636 362.6625 43.51876 361.08438Q45.221886 359.49063 48.30001 359.49063Q48.48751 359.49063 48.86251 359.50626L48.86251 368.7875Q50.909386 368.67813 52.003136 367.63126Q53.096886 366.58438 53.096886 365.02188Q53.096886 363.86563 52.48751 363.05313Q51.878136 362.225 50.534386 361.74063ZM47.128136 368.67813L47.128136 361.725Q45.565636 361.86563 44.76876 362.52188Q43.55001 363.52188 43.55001 365.13126Q43.55001 366.58438 44.534386 367.58438Q45.503136 368.56876 47.128136 368.67813ZM54.55001 357.31876L37.36251 357.31876L37.36251 355.20938L54.55001 355.20938L54.55001 357.31876ZM53.01876 344.14688Q54.003136 345.31876 54.42501 346.4125Q54.83126 347.49063 54.83126 348.725Q54.83126 350.77188 53.83126 351.88126Q52.83126 352.975 51.26876 352.975Q50.346886 352.975 49.596886 352.56876Q48.846886 352.14688 48.39376 351.475Q47.92501 350.80313 47.690636 349.95938Q47.534386 349.33438 47.378136 348.08438Q47.065636 345.52188 46.64376 344.31876Q46.221886 344.30313 46.096886 344.30313Q44.815636 344.30313 44.284386 344.9125Q43.565636 345.70938 43.565636 347.30313Q43.565636 348.80313 44.096886 349.50626Q44.61251 350.20938 45.940636 350.55313L45.659386 352.61563Q44.33126 352.33438 43.51876 351.69376Q42.70626 351.05313 42.26876 349.83438Q41.815636 348.61563 41.815636 347.00626Q41.815636 345.4125 42.190636 344.4125Q42.565636 343.4125 43.14376 342.94376Q43.70626 342.475 44.58126 342.2875Q45.11251 342.19376 46.51876 342.19376L49.33126 342.19376Q52.26876 342.19376 53.05001 342.05313Q53.83126 341.9125 54.55001 341.52188L54.55001 343.725Q53.89376 344.05313 53.01876 344.14688ZM48.30001 344.31876Q48.76876 345.475 49.096886 347.77188Q49.284386 349.06876 49.51876 349.61563Q49.753136 350.14688 50.20626 350.44376Q50.659386 350.725 51.20626 350.725Q52.05001 350.725 52.61251 350.1Q53.17501 349.45938 53.17501 348.225Q53.17501 347.00626 52.64376 346.05313Q52.11251 345.1 51.190636 344.6625Q50.471886 344.31876 49.08126 344.31876L48.30001 344.31876ZM52.659386 334.6625L54.51876 334.35Q54.721886 335.24063 54.721886 335.94376Q54.721886 337.1 54.36251 337.74063Q53.98751 338.36563 53.39376 338.63126Q52.80001 338.88126 50.909386 338.88126L43.73751 338.88126L43.73751 340.42813L42.096886 340.42813L42.096886 338.88126L39.01876 338.88126L37.753136 336.7875L42.096886 336.7875L42.096886 334.6625L43.73751 334.6625L43.73751 336.7875L51.01876 336.7875Q51.92501 336.7875 52.190636 336.67813Q52.440636 336.55313 52.596886 336.30313Q52.73751 336.05313 52.73751 335.58438Q52.73751 335.24063 52.659386 334.6625ZM39.80001 332.25626L37.36251 332.25626L37.36251 330.14688L39.80001 330.14688L39.80001 332.25626ZM54.55001 332.25626L42.096886 332.25626L42.096886 330.14688L54.55001 330.14688L54.55001 332.25626ZM54.55001 323.80313L42.096886 328.5375L42.096886 326.31876L49.55001 323.64688Q50.76876 323.20938 52.065636 322.85Q51.08126 322.56876 49.690636 322.06876L42.096886 319.30313L42.096886 317.13126L54.55001 321.83438L54.55001 323.80313ZM50.534386 306.74063L50.815636 304.56876Q52.721886 305.08438 53.784386 306.475Q54.83126 307.86563 54.83126 310.0375Q54.83126 312.77188 53.159386 314.38126Q51.471886 315.975 48.42501 315.975Q45.284386 315.975 43.55001 314.36563Q41.815636 312.74063 41.815636 310.1625Q41.815636 307.6625 43.51876 306.08438Q45.221886 304.49063 48.30001 304.49063Q48.48751 304.49063 48.86251 304.50626L48.86251 313.7875Q50.909386 313.67813 52.003136 312.63126Q53.096886 311.58438 53.096886 310.02188Q53.096886 308.86563 52.48751 308.05313Q51.878136 307.225 50.534386 306.74063ZM47.128136 313.67813L47.128136 306.725Q45.565636 306.86563 44.76876 307.52188Q43.55001 308.52188 43.55001 310.13126Q43.55001 311.58438 44.534386 312.58438Q45.503136 313.56876 47.128136 313.67813ZM54.55001 294.94376L37.36251 294.94376L37.36251 282.52188L39.39376 282.52188L39.39376 292.67813L44.659386 292.67813L44.659386 283.17813L46.67501 283.17813L46.67501 292.67813L52.51876 292.67813L52.51876 282.13126L54.55001 282.13126L54.55001 294.94376ZM54.55001 279.2875L42.096886 279.2875L42.096886 277.39688L43.98751 277.39688Q42.659386 276.6625 42.23751 276.05313Q41.815636 275.42813 41.815636 274.69376Q41.815636 273.63126 42.503136 272.52188L44.45626 273.25626Q44.003136 274.02188 44.003136 274.80313Q44.003136 275.49063 44.42501 276.05313Q44.83126 276.6 45.565636 276.83438Q46.690636 277.17813 48.034386 277.17813L54.55001 277.17813L54.55001 279.2875ZM54.55001 271.2875L42.096886 271.2875L42.096886 269.39688L43.98751 269.39688Q42.659386 268.6625 42.23751 268.05313Q41.815636 267.42813 41.815636 266.69376Q41.815636 265.63126 42.503136 264.52188L44.45626 265.25626Q44.003136 266.02188 44.003136 266.80313Q44.003136 267.49063 44.42501 268.05313Q44.83126 268.6 45.565636 268.83438Q46.690636 269.17813 48.034386 269.17813L54.55001 269.17813L54.55001 271.2875ZM48.33126 264.05313Q44.86251 264.05313 43.20626 262.13126Q41.815636 260.52188 41.815636 258.20938Q41.815636 255.64688 43.503136 254.02188Q45.190636 252.39688 48.14376 252.39688Q50.55001 252.39688 51.92501 253.11563Q53.30001 253.83438 54.065636 255.20938Q54.83126 256.58438 54.83126 258.20938Q54.83126 260.83438 53.159386 262.44376Q51.471886 264.05313 48.33126 264.05313ZM48.33126 261.88126Q50.721886 261.88126 51.909386 260.85Q53.096886 259.80313 53.096886 258.20938Q53.096886 256.64688 51.909386 255.6Q50.70626 254.55313 48.253136 254.55313Q45.940636 254.55313 44.753136 255.61563Q43.565636 256.6625 43.565636 258.20938Q43.565636 259.80313 44.753136 260.85Q45.940636 261.88126 48.33126 261.88126ZM54.55001 250.2875L42.096886 250.2875L42.096886 248.39688L43.98751 248.39688Q42.659386 247.6625 42.23751 247.05313Q41.815636 246.42813 41.815636 245.69376Q41.815636 244.63126 42.503136 243.52188L44.45626 244.25626Q44.003136 245.02188 44.003136 245.80313Q44.003136 246.49063 44.42501 247.05313Q44.83126 247.6 45.565636 247.83438Q46.690636 248.17813 48.034386 248.17813L54.55001 248.17813L54.55001 250.2875Z" fill-rule="nonzero"/><path fill="#000000" d="M97.05 534.21564Q97.05 532.6844 97.3625 531.7625Q97.675 530.825 98.28438 530.325Q98.90938 529.825 99.84688 529.825Q100.53438 529.825 101.05 530.10626Q101.58125 530.3875 101.925 530.91876Q102.26875 531.4344 102.45625 532.1844Q102.64375 532.9344 102.64375 534.21564Q102.64375 535.73126 102.33125 536.65314Q102.03438 537.575 101.40938 538.09064Q100.8 538.59064 99.84688 538.59064Q98.6125 538.59064 97.89375 537.7Q97.05 536.6375 97.05 534.21564ZM98.12813 534.21564Q98.12813 536.325 98.62813 537.02814Q99.12813 537.73126 99.84688 537.73126Q100.58125 537.73126 101.06563 537.02814Q101.56563 536.325 101.56563 534.21564Q101.56563 532.09064 101.06563 531.40314Q100.58125 530.7 99.83125 530.7Q99.1125 530.7 98.675 531.3094Q98.12813 532.09064 98.12813 534.21564ZM104.64375 538.45L104.64375 537.2469L105.84688 537.2469L105.84688 538.45L104.64375 538.45ZM107.05 536.2L108.15938 536.10626Q108.28438 536.91876 108.72188 537.325Q109.175 537.73126 109.81563 537.73126Q110.56563 537.73126 111.09688 537.15314Q111.62813 536.575 111.62813 535.6375Q111.62813 534.73126 111.1125 534.21564Q110.6125 533.6844 109.78438 533.6844Q109.28438 533.6844 108.8625 533.91876Q108.45625 534.15314 108.22188 534.5125L107.2375 534.3875L108.06563 529.98126L112.34688 529.98126L112.34688 530.98126L108.90938 530.98126L108.45625 533.29376Q109.22188 532.7469 110.06563 532.7469Q111.19063 532.7469 111.95625 533.52814Q112.7375 534.3094 112.7375 535.54376Q112.7375 536.7 112.06563 537.5594Q111.2375 538.59064 109.81563 538.59064Q108.64375 538.59064 107.89375 537.9344Q107.15938 537.27814 107.05 536.2ZM114.05 534.21564Q114.05 532.6844 114.3625 531.7625Q114.675 530.825 115.28438 530.325Q115.90938 529.825 116.84688 529.825Q117.53438 529.825 118.05 530.10626Q118.58125 530.3875 118.925 530.91876Q119.26875 531.4344 119.45625 532.1844Q119.64375 532.9344 119.64375 534.21564Q119.64375 535.73126 119.33125 536.65314Q119.03438 537.575 118.40938 538.09064Q117.8 538.59064 116.84688 538.59064Q115.6125 538.59064 114.89375 537.7Q114.05 536.6375 114.05 534.21564ZM115.12813 534.21564Q115.12813 536.325 115.62813 537.02814Q116.12813 537.73126 116.84688 537.73126Q117.58125 537.73126 118.06563 537.02814Q118.56563 536.325 118.56563 534.21564Q118.56563 532.09064 118.06563 531.40314Q117.58125 530.7 116.83125 530.7Q116.1125 530.7 115.675 531.3094Q115.12813 532.09064 115.12813 534.21564Z" fill-rule="nonzero"/><path fill="#000000" d="M97.05 384.4823Q97.05 382.95105 97.3625 382.02917Q97.675 381.09167 98.28438 380.59167Q98.90938 380.09167 99.84688 380.09167Q100.53438 380.09167 101.05 380.37292Q101.58125 380.65417 101.925 381.18542Q102.26875 381.70105 102.45625 382.45105Q102.64375 383.20105 102.64375 384.4823Q102.64375 385.99792 102.33125 386.9198Q102.03438 387.84167 101.40938 388.3573Q100.8 388.8573 99.84688 388.8573Q98.6125 388.8573 97.89375 387.96667Q97.05 386.90417 97.05 384.4823ZM98.12813 384.4823Q98.12813 386.59167 98.62813 387.2948Q99.12813 387.99792 99.84688 387.99792Q100.58125 387.99792 101.06563 387.2948Q101.56563 386.59167 101.56563 384.4823Q101.56563 382.3573 101.06563 381.6698Q100.58125 380.96667 99.83125 380.96667Q99.1125 380.96667 98.675 381.57605Q98.12813 382.3573 98.12813 384.4823ZM104.64375 388.71667L104.64375 387.51355L105.84688 387.51355L105.84688 388.71667L104.64375 388.71667ZM107.1125 381.24792L107.1125 380.2323L112.675 380.2323L112.675 381.06042Q111.8625 381.93542 111.05 383.38855Q110.25313 384.82605 109.81563 386.3573Q109.4875 387.43542 109.40938 388.71667L108.31563 388.71667Q108.33125 387.70105 108.70625 386.26355Q109.09688 384.82605 109.8 383.49792Q110.51875 382.1698 111.33125 381.24792L107.1125 381.24792ZM114.05 386.46667L115.15938 386.37292Q115.28438 387.18542 115.72188 387.59167Q116.175 387.99792 116.81563 387.99792Q117.56563 387.99792 118.09688 387.4198Q118.62813 386.84167 118.62813 385.90417Q118.62813 384.99792 118.1125 384.4823Q117.6125 383.95105 116.78438 383.95105Q116.28438 383.95105 115.8625 384.18542Q115.45625 384.4198 115.22188 384.77917L114.2375 384.65417L115.06563 380.24792L119.34688 380.24792L119.34688 381.24792L115.90938 381.24792L115.45625 383.56042Q116.22188 383.01355 117.06563 383.01355Q118.19063 383.01355 118.95625 383.7948Q119.7375 384.57605 119.7375 385.81042Q119.7375 386.96667 119.06563 387.82605Q118.2375 388.8573 116.81563 388.8573Q115.64375 388.8573 114.89375 388.20105Q114.15938 387.5448 114.05 386.46667Z" fill-rule="nonzero"/><path fill="#000000" d="M101.01875 238.98334L99.97188 238.98334L99.97188 232.26459Q99.58125 232.62396 98.95625 232.99896Q98.34688 233.35834 97.8625 233.53021L97.8625 232.51459Q98.7375 232.09271 99.39375 231.51459Q100.06563 230.92084 100.34688 230.35834L101.01875 230.35834L101.01875 238.98334ZM104.64375 238.98334L104.64375 237.78021L105.84688 237.78021L105.84688 238.98334L104.64375 238.98334ZM107.05 234.74896Q107.05 233.21771 107.3625 232.29584Q107.675 231.35834 108.28438 230.85834Q108.90938 230.35834 109.84688 230.35834Q110.53438 230.35834 111.05 230.63959Q111.58125 230.92084 111.925 231.45209Q112.26875 231.96771 112.45625 232.71771Q112.64375 233.46771 112.64375 234.74896Q112.64375 236.26459 112.33125 237.18646Q112.03438 238.10834 111.40938 238.62396Q110.8 239.12396 109.84688 239.12396Q108.6125 239.12396 107.89375 238.23334Q107.05 237.17084 107.05 234.74896ZM108.12813 234.74896Q108.12813 236.85834 108.62813 237.56146Q109.12813 238.26459 109.84688 238.26459Q110.58125 238.26459 111.06563 237.56146Q111.56563 236.85834 111.56563 234.74896Q111.56563 232.62396 111.06563 231.93646Q110.58125 231.23334 109.83125 231.23334Q109.1125 231.23334 108.675 231.84271Q108.12813 232.62396 108.12813 234.74896ZM114.05 234.74896Q114.05 233.21771 114.3625 232.29584Q114.675 231.35834 115.28438 230.85834Q115.90938 230.35834 116.84688 230.35834Q117.53438 230.35834 118.05 230.63959Q118.58125 230.92084 118.925 231.45209Q119.26875 231.96771 119.45625 232.71771Q119.64375 233.46771 119.64375 234.74896Q119.64375 236.26459 119.33125 237.18646Q119.03438 238.10834 118.40938 238.62396Q117.8 239.12396 116.84688 239.12396Q115.6125 239.12396 114.89375 238.23334Q114.05 237.17084 114.05 234.74896ZM115.12813 234.74896Q115.12813 236.85834 115.62813 237.56146Q116.12813 238.26459 116.84688 238.26459Q117.58125 238.26459 118.06563 237.56146Q118.56563 236.85834 118.56563 234.74896Q118.56563 232.62396 118.06563 231.93646Q117.58125 231.23334 116.83125 231.23334Q116.1125 231.23334 115.675 231.84271Q115.12813 232.62396 115.12813 234.74896Z" fill-rule="nonzero"/><path fill="#000000" d="M101.01875 89.25L99.97188 89.25L99.97188 82.53125Q99.58125 82.890625 98.95625 83.265625Q98.34688 83.625 97.8625 83.796875L97.8625 82.78125Q98.7375 82.359375 99.39375 81.78125Q100.06563 81.1875 100.34688 80.625L101.01875 80.625L101.01875 89.25ZM104.64375 89.25L104.64375 88.046875L105.84688 88.046875L105.84688 89.25L104.64375 89.25ZM112.59688 88.234375L112.59688 89.25L106.90938 89.25Q106.90938 88.875 107.03438 88.515625Q107.25313 87.9375 107.72188 87.375Q108.20625 86.8125 109.1125 86.078125Q110.51875 84.921875 111.00313 84.25Q111.50313 83.578125 111.50313 82.984375Q111.50313 82.359375 111.05 81.9375Q110.59688 81.5 109.87813 81.5Q109.1125 81.5 108.65938 81.953125Q108.20625 82.40625 108.19063 83.21875L107.1125 83.109375Q107.22188 81.890625 107.94063 81.265625Q108.675 80.625 109.90938 80.625Q111.14375 80.625 111.8625 81.3125Q112.58125 82.0 112.58125 83.015625Q112.58125 83.53125 112.3625 84.03125Q112.15938 84.515625 111.65938 85.078125Q111.175 85.625 110.05 86.578125Q109.09688 87.375 108.81563 87.671875Q108.55 87.953125 108.37813 88.234375L112.59688 88.234375ZM114.05 87.0L115.15938 86.90625Q115.28438 87.71875 115.72188 88.125Q116.175 88.53125 116.81563 88.53125Q117.56563 88.53125 118.09688 87.953125Q118.62813 87.375 118.62813 86.4375Q118.62813 85.53125 118.1125 85.015625Q117.6125 84.484375 116.78438 84.484375Q116.28438 84.484375 115.8625 84.71875Q115.45625 84.953125 115.22188 85.3125L114.2375 85.1875L115.06563 80.78125L119.34688 80.78125L119.34688 81.78125L115.90938 81.78125L115.45625 84.09375Q116.22188 83.546875 117.06563 83.546875Q118.19063 83.546875 118.95625 84.328125Q119.7375 85.109375 119.7375 86.34375Q119.7375 87.5 119.06563 88.359375Q118.2375 89.390625 116.81563 89.390625Q115.64375 89.390625 114.89375 88.734375Q114.15938 88.078125 114.05 87.0Z" fill-rule="nonzero"/><path fill="#000000" d="M115.05 547.21564Q115.05 545.6844 115.3625 544.7625Q115.675 543.825 116.28438 543.325Q116.90938 542.825 117.84688 542.825Q118.53438 542.825 119.05 543.10626Q119.58125 543.3875 119.925 543.91876Q120.26875 544.4344 120.45625 545.1844Q120.64375 545.9344 120.64375 547.21564Q120.64375 548.73126 120.33125 549.65314Q120.03438 550.575 119.40938 551.09064Q118.8 551.59064 117.84688 551.59064Q116.6125 551.59064 115.89375 550.7Q115.05 549.6375 115.05 547.21564ZM116.12813 547.21564Q116.12813 549.325 116.62813 550.02814Q117.12813 550.73126 117.84688 550.73126Q118.58125 550.73126 119.06563 550.02814Q119.56563 549.325 119.56563 547.21564Q119.56563 545.09064 119.06563 544.40314Q118.58125 543.7 117.83125 543.7Q117.1125 543.7 116.675 544.3094Q116.12813 545.09064 116.12813 547.21564ZM122.64375 551.45L122.64375 550.2469L123.84688 550.2469L123.84688 551.45L122.64375 551.45ZM130.59688 550.4344L130.59688 551.45L124.90938 551.45Q124.90938 551.075 125.03438 550.71564Q125.25313 550.1375 125.72188 549.575Q126.20625 549.0125 127.1125 548.27814Q128.51875 547.1219 129.00313 546.45Q129.50313 545.77814 129.50313 545.1844Q129.50313 544.5594 129.05 544.1375Q128.59688 543.7 127.87813 543.7Q127.1125 543.7 126.65938 544.15314Q126.20625 544.60626 126.19063 545.41876L125.1125 545.3094Q125.22188 544.09064 125.94063 543.46564Q126.675 542.825 127.90938 542.825Q129.14375 542.825 129.8625 543.5125Q130.58125 544.2 130.58125 545.21564Q130.58125 545.73126 130.3625 546.23126Q130.15938 546.71564 129.65938 547.27814Q129.175 547.825 128.05 548.77814Q127.09688 549.575 126.81563 549.8719Q126.55 550.15314 126.37813 550.4344L130.59688 550.4344ZM132.05 549.2L133.15938 549.10626Q133.28438 549.91876 133.72188 550.325Q134.175 550.73126 134.81563 550.73126Q135.56563 550.73126 136.09688 550.15314Q136.62813 549.575 136.62813 548.6375Q136.62813 547.73126 136.1125 547.21564Q135.6125 546.6844 134.78438 546.6844Q134.28438 546.6844 133.8625 546.91876Q133.45625 547.15314 133.22188 547.5125L132.2375 547.3875L133.06563 542.98126L137.34688 542.98126L137.34688 543.98126L133.90938 543.98126L133.45625 546.29376Q134.22188 545.7469 135.06563 545.7469Q136.19063 545.7469 136.95625 546.52814Q137.7375 547.3094 137.7375 548.54376Q137.7375 549.7 137.06563 550.5594Q136.2375 551.59064 134.81563 551.59064Q133.64375 551.59064 132.89375 550.9344Q132.15938 550.27814 132.05 549.2Z" fill-rule="nonzero"/><path fill="#000000" d="M408.0887 547.21564Q408.0887 545.6844 408.4012 544.7625Q408.7137 543.825 409.3231 543.325Q409.9481 542.825 410.8856 542.825Q411.5731 542.825 412.0887 543.10626Q412.61996 543.3875 412.9637 543.91876Q413.30746 544.4344 413.49496 545.1844Q413.68246 545.9344 413.68246 547.21564Q413.68246 548.73126 413.36996 549.65314Q413.0731 550.575 412.4481 551.09064Q411.8387 551.59064 410.8856 551.59064Q409.6512 551.59064 408.93246 550.7Q408.0887 549.6375 408.0887 547.21564ZM409.16684 547.21564Q409.16684 549.325 409.66684 550.02814Q410.16684 550.73126 410.8856 550.73126Q411.61996 550.73126 412.10434 550.02814Q412.60434 549.325 412.60434 547.21564Q412.60434 545.09064 412.10434 544.40314Q411.61996 543.7 410.86996 543.7Q410.1512 543.7 409.7137 544.3094Q409.16684 545.09064 409.16684 547.21564ZM415.68246 551.45L415.68246 550.2469L416.8856 550.2469L416.8856 551.45L415.68246 551.45ZM418.0887 549.2L419.1981 549.10626Q419.3231 549.91876 419.7606 550.325Q420.2137 550.73126 420.85434 550.73126Q421.60434 550.73126 422.1356 550.15314Q422.66684 549.575 422.66684 548.6375Q422.66684 547.73126 422.1512 547.21564Q421.6512 546.6844 420.8231 546.6844Q420.3231 546.6844 419.9012 546.91876Q419.49496 547.15314 419.2606 547.5125L418.2762 547.3875L419.10434 542.98126L423.3856 542.98126L423.3856 543.98126L419.9481 543.98126L419.49496 546.29376Q420.2606 545.7469 421.10434 545.7469Q422.22934 545.7469 422.99496 546.52814Q423.7762 547.3094 423.7762 548.54376Q423.7762 549.7 423.10434 550.5594Q422.2762 551.59064 420.85434 551.59064Q419.68246 551.59064 418.93246 550.9344Q418.1981 550.27814 418.0887 549.2ZM425.0887 547.21564Q425.0887 545.6844 425.4012 544.7625Q425.7137 543.825 426.3231 543.325Q426.9481 542.825 427.8856 542.825Q428.5731 542.825 429.0887 543.10626Q429.61996 543.3875 429.9637 543.91876Q430.30746 544.4344 430.49496 545.1844Q430.68246 545.9344 430.68246 547.21564Q430.68246 548.73126 430.36996 549.65314Q430.0731 550.575 429.4481 551.09064Q428.8387 551.59064 427.8856 551.59064Q426.6512 551.59064 425.93246 550.7Q425.0887 549.6375 425.0887 547.21564ZM426.16684 547.21564Q426.16684 549.325 426.66684 550.02814Q427.16684 550.73126 427.8856 550.73126Q428.61996 550.73126 429.10434 550.02814Q429.60434 549.325 429.60434 547.21564Q429.60434 545.09064 429.10434 544.40314Q428.61996 543.7 427.86996 543.7Q427.1512 543.7 426.7137 544.3094Q426.16684 545.09064 426.16684 547.21564Z" fill-rule="nonzero"/><path fill="#000000" d="M701.12744 547.21564Q701.12744 545.6844 701.43994 544.7625Q701.75244 543.825 702.3618 543.325Q702.9868 542.825 703.9243 542.825Q704.6118 542.825 705.12744 543.10626Q705.6587 543.3875 706.00244 543.91876Q706.3462 544.4344 706.5337 545.1844Q706.7212 545.9344 706.7212 547.21564Q706.7212 548.73126 706.4087 549.65314Q706.1118 550.575 705.4868 551.09064Q704.87744 551.59064 703.9243 551.59064Q702.68994 551.59064 701.9712 550.7Q701.12744 549.6375 701.12744 547.21564ZM702.20557 547.21564Q702.20557 549.325 702.70557 550.02814Q703.20557 550.73126 703.9243 550.73126Q704.6587 550.73126 705.14307 550.02814Q705.64307 549.325 705.64307 547.21564Q705.64307 545.09064 705.14307 544.40314Q704.6587 543.7 703.9087 543.7Q703.18994 543.7 702.75244 544.3094Q702.20557 545.09064 702.20557 547.21564ZM708.7212 551.45L708.7212 550.2469L709.9243 550.2469L709.9243 551.45L708.7212 551.45ZM711.18994 543.98126L711.18994 542.96564L716.75244 542.96564L716.75244 543.79376Q715.93994 544.66876 715.12744 546.1219Q714.33057 547.5594 713.89307 549.09064Q713.56494 550.16876 713.4868 551.45L712.39307 551.45Q712.4087 550.4344 712.7837 548.9969Q713.1743 547.5594 713.87744 546.23126Q714.5962 544.90314 715.4087 543.98126L711.18994 543.98126ZM718.12744 549.2L719.2368 549.10626Q719.3618 549.91876 719.7993 550.325Q720.25244 550.73126 720.89307 550.73126Q721.64307 550.73126 722.1743 550.15314Q722.70557 549.575 722.70557 548.6375Q722.70557 547.73126 722.18994 547.21564Q721.68994 546.6844 720.8618 546.6844Q720.3618 546.6844 719.93994 546.91876Q719.5337 547.15314 719.2993 547.5125L718.31494 547.3875L719.14307 542.98126L723.4243 542.98126L723.4243 543.98126L719.9868 543.98126L719.5337 546.29376Q720.2993 545.7469 721.14307 545.7469Q722.26807 545.7469 723.0337 546.52814Q723.81494 547.3094 723.81494 548.54376Q723.81494 549.7 723.14307 550.5594Q722.31494 551.59064 720.89307 551.59064Q719.7212 551.59064 718.9712 550.9344Q718.2368 550.27814 718.12744 549.2Z" fill-rule="nonzero"/><path fill="#000000" d="M998.1349 551.45L997.088 551.45L997.088 544.73126Q996.6974 545.09064 996.0724 545.46564Q995.463 545.825 994.97864 545.9969L994.97864 544.98126Q995.85364 544.5594 996.5099 543.98126Q997.18176 543.3875 997.463 542.825L998.1349 542.825L998.1349 551.45ZM1001.7599 551.45L1001.7599 550.2469L1002.963 550.2469L1002.963 551.45L1001.7599 551.45ZM1004.16614 547.21564Q1004.16614 545.6844 1004.47864 544.7625Q1004.79114 543.825 1005.4005 543.325Q1006.0255 542.825 1006.963 542.825Q1007.6505 542.825 1008.16614 543.10626Q1008.6974 543.3875 1009.04114 543.91876Q1009.3849 544.4344 1009.5724 545.1844Q1009.7599 545.9344 1009.7599 547.21564Q1009.7599 548.73126 1009.4474 549.65314Q1009.1505 550.575 1008.5255 551.09064Q1007.91614 551.59064 1006.963 551.59064Q1005.72864 551.59064 1005.0099 550.7Q1004.16614 549.6375 1004.16614 547.21564ZM1005.24426 547.21564Q1005.24426 549.325 1005.74426 550.02814Q1006.24426 550.73126 1006.963 550.73126Q1007.6974 550.73126 1008.18176 550.02814Q1008.68176 549.325 1008.68176 547.21564Q1008.68176 545.09064 1008.18176 544.40314Q1007.6974 543.7 1006.9474 543.7Q1006.22864 543.7 1005.79114 544.3094Q1005.24426 545.09064 1005.24426 547.21564ZM1011.16614 547.21564Q1011.16614 545.6844 1011.47864 544.7625Q1011.79114 543.825 1012.4005 543.325Q1013.0255 542.825 1013.963 542.825Q1014.6505 542.825 1015.16614 543.10626Q1015.6974 543.3875 1016.04114 543.91876Q1016.3849 544.4344 1016.5724 545.1844Q1016.7599 545.9344 1016.7599 547.21564Q1016.7599 548.73126 1016.4474 549.65314Q1016.1505 550.575 1015.5255 551.09064Q1014.91614 551.59064 1013.963 551.59064Q1012.72864 551.59064 1012.0099 550.7Q1011.16614 549.6375 1011.16614 547.21564ZM1012.24426 547.21564Q1012.24426 549.325 1012.74426 550.02814Q1013.24426 550.73126 1013.963 550.73126Q1014.6974 550.73126 1015.18176 550.02814Q1015.68176 549.325 1015.68176 547.21564Q1015.68176 545.09064 1015.18176 544.40314Q1014.6974 543.7 1013.9474 543.7Q1013.22864 543.7 1012.79114 544.3094Q1012.24426 545.09064 1012.24426 547.21564Z" fill-rule="nonzero"/><path fill="#4285f4" d="M274.5 44.55C274.5 47.86371 271.81372 50.55 268.5 50.55C265.18628 50.55 262.5 47.86371 262.5 44.55C262.5 41.23629 265.18628 38.55 268.5 38.55C271.81372 38.55 274.5 41.23629 274.5 44.55Z" fill-rule="nonzero"/><path fill="#1a1a1a" d="M284.07812 51.55L284.07812 37.2375L294.4375 37.2375L294.4375 38.925L285.98438 38.925L285.98438 43.3L293.89062 43.3L293.89062 44.9875L285.98438 44.9875L285.98438 49.8625L294.76562 49.8625L294.76562 51.55L284.07812 51.55ZM303.54688 51.55L303.54688 50.2375Q302.5625 51.784374 300.64062 51.784374Q299.40625 51.784374 298.35938 51.096874Q297.32812 50.409374 296.75 49.190624Q296.1875 47.971874 296.1875 46.378124Q296.1875 44.815624 296.70312 43.55Q297.21875 42.284374 298.25 41.6125Q299.29688 40.940624 300.5625 40.940624Q301.5 40.940624 302.23438 41.346874Q302.96875 41.7375 303.4375 42.3625L303.4375 37.2375L305.17188 37.2375L305.17188 51.55L303.54688 51.55ZM297.98438 46.378124Q297.98438 48.3625 298.82812 49.346874Q299.67188 50.33125 300.8125 50.33125Q301.96875 50.33125 302.76562 49.39375Q303.57812 48.45625 303.57812 46.51875Q303.57812 44.39375 302.75 43.39375Q301.9375 42.39375 300.73438 42.39375Q299.5625 42.39375 298.76562 43.3625Q297.98438 44.315624 297.98438 46.378124ZM314.60938 51.55L314.60938 50.01875Q313.40625 51.784374 311.32812 51.784374Q310.40625 51.784374 309.60938 51.440624Q308.8125 51.08125 308.42188 50.55Q308.04688 50.01875 307.89062 49.2375Q307.78125 48.721874 307.78125 47.596874L307.78125 41.175L309.53125 41.175L309.53125 46.925Q309.53125 48.3 309.64062 48.784374Q309.8125 49.471874 310.34375 49.878124Q310.89062 50.26875 311.67188 50.26875Q312.46875 50.26875 313.15625 49.8625Q313.85938 49.45625 314.14062 48.76875Q314.4375 48.065624 314.4375 46.7375L314.4375 41.175L316.1875 41.175L316.1875 51.55L314.60938 51.55ZM325.59375 47.753124L327.3125 47.971874Q327.03125 49.76875 325.85938 50.784374Q324.70312 51.784374 323.0 51.784374Q320.875 51.784374 319.57812 50.39375Q318.28125 49.003124 318.28125 46.409374Q318.28125 44.721874 318.82812 43.471874Q319.39062 42.20625 320.53125 41.58125Q321.67188 40.940624 323.01562 40.940624Q324.70312 40.940624 325.76562 41.8Q326.84375 42.659374 327.15625 44.221874L325.4375 44.4875Q325.20312 43.440624 324.57812 42.925Q323.95312 42.39375 323.07812 42.39375Q321.75 42.39375 320.92188 43.346874Q320.09375 44.3 320.09375 46.346874Q320.09375 48.440624 320.89062 49.39375Q321.6875 50.33125 322.98438 50.33125Q324.01562 50.33125 324.70312 49.70625Q325.40625 49.065624 325.59375 47.753124ZM335.59375 50.26875Q334.60938 51.096874 333.70312 51.440624Q332.79688 51.784374 331.76562 51.784374Q330.0625 51.784374 329.14062 50.95625Q328.21875 50.1125 328.21875 48.815624Q328.21875 48.05 328.5625 47.425Q328.92188 46.8 329.48438 46.425Q330.04688 46.034374 330.75 45.83125Q331.26562 45.70625 332.3125 45.565624Q334.4375 45.315624 335.4375 44.971874Q335.45312 44.6125 335.45312 44.503124Q335.45312 43.440624 334.95312 42.9875Q334.28125 42.39375 332.95312 42.39375Q331.70312 42.39375 331.10938 42.83125Q330.53125 43.26875 330.25 44.378124L328.53125 44.14375Q328.76562 43.034374 329.29688 42.3625Q329.82812 41.675 330.84375 41.315624Q331.85938 40.940624 333.20312 40.940624Q334.53125 40.940624 335.35938 41.253124Q336.1875 41.565624 336.57812 42.05Q336.96875 42.51875 337.125 43.2375Q337.21875 43.690624 337.21875 44.8625L337.21875 47.20625Q337.21875 49.659374 337.32812 50.315624Q337.4375 50.95625 337.78125 51.55L335.9375 51.55Q335.67188 51.003124 335.59375 50.26875ZM335.4375 46.346874Q334.48438 46.7375 332.5625 47.003124Q331.48438 47.159374 331.03125 47.3625Q330.59375 47.55 330.34375 47.925Q330.09375 48.3 330.09375 48.76875Q330.09375 49.471874 330.625 49.940624Q331.15625 50.409374 332.1875 50.409374Q333.20312 50.409374 333.98438 49.971874Q334.78125 49.51875 335.15625 48.753124Q335.4375 48.14375 335.4375 46.9875L335.4375 46.346874ZM343.65625 49.971874L343.90625 51.534374Q343.17188 51.690624 342.57812 51.690624Q341.625 51.690624 341.09375 51.39375Q340.57812 51.08125 340.35938 50.596874Q340.14062 50.096874 340.14062 48.51875L340.14062 42.55L338.85938 42.55L338.85938 41.175L340.14062 41.175L340.14062 38.6125L341.89062 37.55L341.89062 41.175L343.65625 41.175L343.65625 42.55L341.89062 42.55L341.89062 48.6125Q341.89062 49.3625 341.98438 49.58125Q342.07812 49.784374 342.28125 49.925Q342.5 50.05 342.89062 50.05Q343.17188 50.05 343.65625 49.971874ZM345.82812 39.253124L345.82812 37.2375L347.59375 37.2375L347.59375 39.253124L345.82812 39.253124ZM345.82812 51.55L345.82812 41.175L347.59375 41.175L347.59375 51.55L345.82812 51.55ZM349.17188 46.3625Q349.17188 43.4875 350.76562 42.096874Q352.10938 40.940624 354.03125 40.940624Q356.17188 40.940624 357.51562 42.346874Q358.875 43.753124 358.875 46.221874Q358.875 48.221874 358.28125 49.378124Q357.6875 50.51875 356.53125 51.159374Q355.39062 51.784374 354.03125 51.784374Q351.84375 51.784374 350.5 50.39375Q349.17188 48.9875 349.17188 46.3625ZM350.96875 46.3625Q350.96875 48.3625 351.82812 49.346874Q352.70312 50.33125 354.03125 50.33125Q355.34375 50.33125 356.20312 49.346874Q357.07812 48.346874 357.07812 46.3Q357.07812 44.378124 356.20312 43.39375Q355.32812 42.39375 354.03125 42.39375Q352.70312 42.39375 351.82812 43.39375Q350.96875 44.378124 350.96875 46.3625ZM360.8125 51.55L360.8125 41.175L362.40625 41.175L362.40625 42.659374Q363.54688 40.940624 365.70312 40.940624Q366.64062 40.940624 367.42188 41.284374Q368.21875 41.6125 368.60938 42.159374Q369.0 42.70625 369.15625 43.45625Q369.25 43.95625 369.25 45.175L369.25 51.55L367.48438 51.55L367.48438 45.2375Q367.48438 44.159374 367.28125 43.628124Q367.07812 43.096874 366.54688 42.784374Q366.03125 42.471874 365.32812 42.471874Q364.20312 42.471874 363.39062 43.190624Q362.57812 43.89375 362.57812 45.878124L362.57812 51.55L360.8125 51.55ZM375.6875 51.55L375.6875 38.925L370.96875 38.925L370.96875 37.2375L382.3125 37.2375L382.3125 38.925L377.57812 38.925L377.57812 51.55L375.6875 51.55ZM390.59375 50.26875Q389.60938 51.096874 388.70312 51.440624Q387.79688 51.784374 386.76562 51.784374Q385.0625 51.784374 384.14062 50.95625Q383.21875 50.1125 383.21875 48.815624Q383.21875 48.05 383.5625 47.425Q383.92188 46.8 384.48438 46.425Q385.04688 46.034374 385.75 45.83125Q386.26562 45.70625 387.3125 45.565624Q389.4375 45.315624 390.4375 44.971874Q390.45312 44.6125 390.45312 44.503124Q390.45312 43.440624 389.95312 42.9875Q389.28125 42.39375 387.95312 42.39375Q386.70312 42.39375 386.10938 42.83125Q385.53125 43.26875 385.25 44.378124L383.53125 44.14375Q383.76562 43.034374 384.29688 42.3625Q384.82812 41.675 385.84375 41.315624Q386.85938 40.940624 388.20312 40.940624Q389.53125 40.940624 390.35938 41.253124Q391.1875 41.565624 391.57812 42.05Q391.96875 42.51875 392.125 43.2375Q392.21875 43.690624 392.21875 44.8625L392.21875 47.20625Q392.21875 49.659374 392.32812 50.315624Q392.4375 50.95625 392.78125 51.55L390.9375 51.55Q390.67188 51.003124 390.59375 50.26875ZM390.4375 46.346874Q389.48438 46.7375 387.5625 47.003124Q386.48438 47.159374 386.03125 47.3625Q385.59375 47.55 385.34375 47.925Q385.09375 48.3 385.09375 48.76875Q385.09375 49.471874 385.625 49.940624Q386.15625 50.409374 387.1875 50.409374Q388.20312 50.409374 388.98438 49.971874Q389.78125 49.51875 390.15625 48.753124Q390.4375 48.14375 390.4375 46.9875L390.4375 46.346874ZM396.4375 51.55L394.8125 51.55L394.8125 37.2375L396.5625 37.2375L396.5625 42.346874Q397.6875 40.940624 399.40625 40.940624Q400.35938 40.940624 401.21875 41.33125Q402.07812 41.721874 402.625 42.425Q403.17188 43.1125 403.48438 44.096874Q403.79688 45.08125 403.79688 46.20625Q403.79688 48.878124 402.48438 50.33125Q401.17188 51.784374 399.32812 51.784374Q397.48438 51.784374 396.4375 50.253124L396.4375 51.55ZM396.42188 46.284374Q396.42188 48.14375 396.92188 48.9875Q397.76562 50.33125 399.17188 50.33125Q400.32812 50.33125 401.15625 49.33125Q402.0 48.33125 402.0 46.346874Q402.0 44.315624 401.1875 43.3625Q400.39062 42.39375 399.25 42.39375Q398.09375 42.39375 397.25 43.39375Q396.42188 44.39375 396.42188 46.284374ZM405.78125 51.55L405.78125 37.2375L407.53125 37.2375L407.53125 51.55L405.78125 51.55ZM416.92188 48.20625L418.73438 48.440624Q418.3125 50.01875 417.14062 50.909374Q415.98438 51.784374 414.17188 51.784374Q411.90625 51.784374 410.5625 50.39375Q409.23438 48.9875 409.23438 46.45625Q409.23438 43.83125 410.57812 42.39375Q411.92188 40.940624 414.07812 40.940624Q416.15625 40.940624 417.46875 42.3625Q418.79688 43.76875 418.79688 46.346874Q418.79688 46.503124 418.78125 46.815624L411.04688 46.815624Q411.14062 48.51875 412.01562 49.425Q412.89062 50.33125 414.1875 50.33125Q415.15625 50.33125 415.82812 49.83125Q416.51562 49.315624 416.92188 48.20625ZM411.14062 45.3625L416.9375 45.3625Q416.82812 44.065624 416.28125 43.409374Q415.4375 42.39375 414.09375 42.39375Q412.89062 42.39375 412.0625 43.20625Q411.23438 44.003124 411.14062 45.3625Z" fill-rule="nonzero"/><path fill="#ea4335" d="M441.5 38.55L446.69617 47.55L436.30383 47.55Z" fill-rule="nonzero"/><path fill="#1a1a1a" d="M457.07812 51.55L457.07812 37.2375L463.42188 37.2375Q465.32812 37.2375 466.32812 37.628124Q467.32812 38.003124 467.92188 38.9875Q468.51562 39.95625 468.51562 41.14375Q468.51562 42.659374 467.53125 43.70625Q466.54688 44.753124 464.48438 45.034374Q465.23438 45.39375 465.625 45.753124Q466.45312 46.503124 467.20312 47.659374L469.6875 51.55L467.3125 51.55L465.40625 48.565624Q464.57812 47.284374 464.04688 46.596874Q463.51562 45.909374 463.07812 45.64375Q462.65625 45.3625 462.21875 45.253124Q461.89062 45.190624 461.17188 45.190624L458.96875 45.190624L458.96875 51.55L457.07812 51.55ZM458.96875 43.55L463.04688 43.55Q464.34375 43.55 465.0625 43.284374Q465.79688 43.01875 466.17188 42.425Q466.5625 41.83125 466.5625 41.14375Q466.5625 40.128124 465.82812 39.471874Q465.09375 38.815624 463.5 38.815624L458.96875 38.815624L458.96875 43.55ZM477.59375 50.26875Q476.60938 51.096874 475.70312 51.440624Q474.79688 51.784374 473.76562 51.784374Q472.0625 51.784374 471.14062 50.95625Q470.21875 50.1125 470.21875 48.815624Q470.21875 48.05 470.5625 47.425Q470.92188 46.8 471.48438 46.425Q472.04688 46.034374 472.75 45.83125Q473.26562 45.70625 474.3125 45.565624Q476.4375 45.315624 477.4375 44.971874Q477.45312 44.6125 477.45312 44.503124Q477.45312 43.440624 476.95312 42.9875Q476.28125 42.39375 474.95312 42.39375Q473.70312 42.39375 473.10938 42.83125Q472.53125 43.26875 472.25 44.378124L470.53125 44.14375Q470.76562 43.034374 471.29688 42.3625Q471.82812 41.675 472.84375 41.315624Q473.85938 40.940624 475.20312 40.940624Q476.53125 40.940624 477.35938 41.253124Q478.1875 41.565624 478.57812 42.05Q478.96875 42.51875 479.125 43.2375Q479.21875 43.690624 479.21875 44.8625L479.21875 47.20625Q479.21875 49.659374 479.32812 50.315624Q479.4375 50.95625 479.78125 51.55L477.9375 51.55Q477.67188 51.003124 477.59375 50.26875ZM477.4375 46.346874Q476.48438 46.7375 474.5625 47.003124Q473.48438 47.159374 473.03125 47.3625Q472.59375 47.55 472.34375 47.925Q472.09375 48.3 472.09375 48.76875Q472.09375 49.471874 472.625 49.940624Q473.15625 50.409374 474.1875 50.409374Q475.20312 50.409374 475.98438 49.971874Q476.78125 49.51875 477.15625 48.753124Q477.4375 48.14375 477.4375 46.9875L477.4375 46.346874ZM488.59375 47.753124L490.3125 47.971874Q490.03125 49.76875 488.85938 50.784374Q487.70312 51.784374 486.0 51.784374Q483.875 51.784374 482.57812 50.39375Q481.28125 49.003124 481.28125 46.409374Q481.28125 44.721874 481.82812 43.471874Q482.39062 42.20625 483.53125 41.58125Q484.67188 40.940624 486.01562 40.940624Q487.70312 40.940624 488.76562 41.8Q489.84375 42.659374 490.15625 44.221874L488.4375 44.4875Q488.20312 43.440624 487.57812 42.925Q486.95312 42.39375 486.07812 42.39375Q484.75 42.39375 483.92188 43.346874Q483.09375 44.3 483.09375 46.346874Q483.09375 48.440624 483.89062 49.39375Q484.6875 50.33125 485.98438 50.33125Q487.01562 50.33125 487.70312 49.70625Q488.40625 49.065624 488.59375 47.753124ZM498.92188 48.20625L500.73438 48.440624Q500.3125 50.01875 499.14062 50.909374Q497.98438 51.784374 496.17188 51.784374Q493.90625 51.784374 492.5625 50.39375Q491.23438 48.9875 491.23438 46.45625Q491.23438 43.83125 492.57812 42.39375Q493.92188 40.940624 496.07812 40.940624Q498.15625 40.940624 499.46875 42.3625Q500.79688 43.76875 500.79688 46.346874Q500.79688 46.503124 500.78125 46.815624L493.04688 46.815624Q493.14062 48.51875 494.01562 49.425Q494.89062 50.33125 496.1875 50.33125Q497.15625 50.33125 497.82812 49.83125Q498.51562 49.315624 498.92188 48.20625ZM493.14062 45.3625L498.9375 45.3625Q498.82812 44.065624 498.28125 43.409374Q497.4375 42.39375 496.09375 42.39375Q494.89062 42.39375 494.0625 43.20625Q493.23438 44.003124 493.14062 45.3625ZM506.6875 51.55L506.6875 38.925L501.96875 38.925L501.96875 37.2375L513.3125 37.2375L513.3125 38.925L508.57812 38.925L508.57812 51.55L506.6875 51.55ZM521.59375 50.26875Q520.6094 51.096874 519.7031 51.440624Q518.7969 51.784374 517.7656 51.784374Q516.0625 51.784374 515.1406 50.95625Q514.21875 50.1125 514.21875 48.815624Q514.21875 48.05 514.5625 47.425Q514.9219 46.8 515.4844 46.425Q516.0469 46.034374 516.75 45.83125Q517.2656 45.70625 518.3125 45.565624Q520.4375 45.315624 521.4375 44.971874Q521.4531 44.6125 521.4531 44.503124Q521.4531 43.440624 520.9531 42.9875Q520.28125 42.39375 518.9531 42.39375Q517.7031 42.39375 517.1094 42.83125Q516.53125 43.26875 516.25 44.378124L514.53125 44.14375Q514.7656 43.034374 515.2969 42.3625Q515.8281 41.675 516.84375 41.315624Q517.8594 40.940624 519.2031 40.940624Q520.53125 40.940624 521.3594 41.253124Q522.1875 41.565624 522.5781 42.05Q522.96875 42.51875 523.125 43.2375Q523.21875 43.690624 523.21875 44.8625L523.21875 47.20625Q523.21875 49.659374 523.3281 50.315624Q523.4375 50.95625 523.78125 51.55L521.9375 51.55Q521.6719 51.003124 521.59375 50.26875ZM521.4375 46.346874Q520.4844 46.7375 518.5625 47.003124Q517.4844 47.159374 517.03125 47.3625Q516.59375 47.55 516.34375 47.925Q516.09375 48.3 516.09375 48.76875Q516.09375 49.471874 516.625 49.940624Q517.15625 50.409374 518.1875 50.409374Q519.2031 50.409374 519.9844 49.971874Q520.78125 49.51875 521.15625 48.753124Q521.4375 48.14375 521.4375 46.9875L521.4375 46.346874ZM527.4375 51.55L525.8125 51.55L525.8125 37.2375L527.5625 37.2375L527.5625 42.346874Q528.6875 40.940624 530.40625 40.940624Q531.3594 40.940624 532.21875 41.33125Q533.0781 41.721874 533.625 42.425Q534.1719 43.1125 534.4844 44.096874Q534.7969 45.08125 534.7969 46.20625Q534.7969 48.878124 533.4844 50.33125Q532.1719 51.784374 530.3281 51.784374Q528.4844 51.784374 527.4375 50.253124L527.4375 51.55ZM527.4219 46.284374Q527.4219 48.14375 527.9219 48.9875Q528.7656 50.33125 530.1719 50.33125Q531.3281 50.33125 532.15625 49.33125Q533.0 48.33125 533.0 46.346874Q533.0 44.315624 532.1875 43.3625Q531.3906 42.39375 530.25 42.39375Q529.09375 42.39375 528.25 43.39375Q527.4219 44.39375 527.4219 46.284374ZM536.78125 51.55L536.78125 37.2375L538.53125 37.2375L538.53125 51.55L536.78125 51.55ZM547.9219 48.20625L549.7344 48.440624Q549.3125 50.01875 548.1406 50.909374Q546.9844 51.784374 545.1719 51.784374Q542.90625 51.784374 541.5625 50.39375Q540.2344 48.9875 540.2344 46.45625Q540.2344 43.83125 541.5781 42.39375Q542.9219 40.940624 545.0781 40.940624Q547.15625 40.940624 548.46875 42.3625Q549.7969 43.76875 549.7969 46.346874Q549.7969 46.503124 549.78125 46.815624L542.0469 46.815624Q542.1406 48.51875 543.0156 49.425Q543.8906 50.33125 545.1875 50.33125Q546.15625 50.33125 546.8281 49.83125Q547.5156 49.315624 547.9219 48.20625ZM542.1406 45.3625L547.9375 45.3625Q547.8281 44.065624 547.28125 43.409374Q546.4375 42.39375 545.09375 42.39375Q543.8906 42.39375 543.0625 43.20625Q542.2344 44.003124 542.1406 45.3625Z" fill-rule="nonzero"/><path fill="#fbbc04" d="M568.2574 40.307358L576.7426 40.307358L576.7426 48.79264L568.2574 48.79264Z" fill-rule="nonzero"/><path fill="#1a1a1a" d="M586.46875 51.55L591.96875 37.2375L594.0156 37.2375L599.875 51.55L597.71875 51.55L596.0469 47.20625L590.0625 47.20625L588.4844 51.55L586.46875 51.55ZM590.6094 45.675L595.4531 45.675L593.96875 41.70625Q593.28125 39.89375 592.9531 38.7375Q592.6719 40.1125 592.1719 41.471874L590.6094 45.675ZM600.5 52.409374L602.2031 52.659374Q602.3125 53.45625 602.7969 53.815624Q603.4531 54.3 604.59375 54.3Q605.8125 54.3 606.46875 53.815624Q607.1406 53.33125 607.375 52.45625Q607.5156 51.909374 607.5 50.190624Q606.34375 51.55 604.625 51.55Q602.4844 51.55 601.3125 50.003124Q600.1406 48.45625 600.1406 46.3Q600.1406 44.815624 600.6719 43.565624Q601.21875 42.315624 602.2344 41.628124Q603.2656 40.940624 604.6406 40.940624Q606.46875 40.940624 607.6719 42.425L607.6719 41.175L609.28125 41.175L609.28125 50.14375Q609.28125 52.565624 608.78125 53.565624Q608.2969 54.58125 607.21875 55.159374Q606.15625 55.753124 604.59375 55.753124Q602.75 55.753124 601.59375 54.925Q600.4531 54.096874 600.5 52.409374ZM601.9531 46.175Q601.9531 48.221874 602.7656 49.159374Q603.5781 50.096874 604.7969 50.096874Q606.0 50.096874 606.8125 49.159374Q607.6406 48.221874 607.6406 46.2375Q607.6406 44.33125 606.7969 43.3625Q605.9531 42.39375 604.7656 42.39375Q603.59375 42.39375 602.7656 43.346874Q601.9531 44.3 601.9531 46.175ZM618.9219 48.20625L620.7344 48.440624Q620.3125 50.01875 619.1406 50.909374Q617.9844 51.784374 616.1719 51.784374Q613.90625 51.784374 612.5625 50.39375Q611.2344 48.9875 611.2344 46.45625Q611.2344 43.83125 612.5781 42.39375Q613.9219 40.940624 616.0781 40.940624Q618.15625 40.940624 619.46875 42.3625Q620.7969 43.76875 620.7969 46.346874Q620.7969 46.503124 620.78125 46.815624L613.0469 46.815624Q613.1406 48.51875 614.0156 49.425Q614.8906 50.33125 616.1875 50.33125Q617.15625 50.33125 617.8281 49.83125Q618.5156 49.315624 618.9219 48.20625ZM613.1406 45.3625L618.9375 45.3625Q618.8281 44.065624 618.28125 43.409374Q617.4375 42.39375 616.09375 42.39375Q614.8906 42.39375 614.0625 43.20625Q613.2344 44.003124 613.1406 45.3625ZM626.6875 51.55L626.6875 38.925L621.96875 38.925L621.96875 37.2375L633.3125 37.2375L633.3125 38.925L628.5781 38.925L628.5781 51.55L626.6875 51.55ZM641.59375 50.26875Q640.6094 51.096874 639.7031 51.440624Q638.7969 51.784374 637.7656 51.784374Q636.0625 51.784374 635.1406 50.95625Q634.21875 50.1125 634.21875 48.815624Q634.21875 48.05 634.5625 47.425Q634.9219 46.8 635.4844 46.425Q636.0469 46.034374 636.75 45.83125Q637.2656 45.70625 638.3125 45.565624Q640.4375 45.315624 641.4375 44.971874Q641.4531 44.6125 641.4531 44.503124Q641.4531 43.440624 640.9531 42.9875Q640.28125 42.39375 638.9531 42.39375Q637.7031 42.39375 637.1094 42.83125Q636.53125 43.26875 636.25 44.378124L634.53125 44.14375Q634.7656 43.034374 635.2969 42.3625Q635.8281 41.675 636.84375 41.315624Q637.8594 40.940624 639.2031 40.940624Q640.53125 40.940624 641.3594 41.253124Q642.1875 41.565624 642.5781 42.05Q642.96875 42.51875 643.125 43.2375Q643.21875 43.690624 643.21875 44.8625L643.21875 47.20625Q643.21875 49.659374 643.3281 50.315624Q643.4375 50.95625 643.78125 51.55L641.9375 51.55Q641.6719 51.003124 641.59375 50.26875ZM641.4375 46.346874Q640.4844 46.7375 638.5625 47.003124Q637.4844 47.159374 637.03125 47.3625Q636.59375 47.55 636.34375 47.925Q636.09375 48.3 636.09375 48.76875Q636.09375 49.471874 636.625 49.940624Q637.15625 50.409374 638.1875 50.409374Q639.2031 50.409374 639.9844 49.971874Q640.78125 49.51875 641.15625 48.753124Q641.4375 48.14375 641.4375 46.9875L641.4375 46.346874ZM647.4375 51.55L645.8125 51.55L645.8125 37.2375L647.5625 37.2375L647.5625 42.346874Q648.6875 40.940624 650.40625 40.940624Q651.3594 40.940624 652.21875 41.33125Q653.0781 41.721874 653.625 42.425Q654.1719 43.1125 654.4844 44.096874Q654.7969 45.08125 654.7969 46.20625Q654.7969 48.878124 653.4844 50.33125Q652.1719 51.784374 650.3281 51.784374Q648.4844 51.784374 647.4375 50.253124L647.4375 51.55ZM647.4219 46.284374Q647.4219 48.14375 647.9219 48.9875Q648.7656 50.33125 650.1719 50.33125Q651.3281 50.33125 652.15625 49.33125Q653.0 48.33125 653.0 46.346874Q653.0 44.315624 652.1875 43.3625Q651.3906 42.39375 650.25 42.39375Q649.09375 42.39375 648.25 43.39375Q647.4219 44.39375 647.4219 46.284374ZM656.78125 51.55L656.78125 37.2375L658.53125 37.2375L658.53125 51.55L656.78125 51.55ZM667.9219 48.20625L669.7344 48.440624Q669.3125 50.01875 668.1406 50.909374Q666.9844 51.784374 665.1719 51.784374Q662.90625 51.784374 661.5625 50.39375Q660.2344 48.9875 660.2344 46.45625Q660.2344 43.83125 661.5781 42.39375Q662.9219 40.940624 665.0781 40.940624Q667.15625 40.940624 668.46875 42.3625Q669.7969 43.76875 669.7969 46.346874Q669.7969 46.503124 669.78125 46.815624L662.0469 46.815624Q662.1406 48.51875 663.0156 49.425Q663.8906 50.33125 665.1875 50.33125Q666.15625 50.33125 666.8281 49.83125Q667.5156 49.315624 667.9219 48.20625ZM662.1406 45.3625L667.9375 45.3625Q667.8281 44.065624 667.28125 43.409374Q666.4375 42.39375 665.09375 42.39375Q663.8906 42.39375 663.0625 43.20625Q662.2344 44.003124 662.1406 45.3625Z" fill-rule="nonzero"/><path fill="#34a853" d="M692.5 38.55L693.8471 42.695896L698.20636 42.695896L694.6796 45.258205L696.02673 49.404102L692.5 46.841797L688.97327 49.404102L690.3204 45.258205L686.79364 42.695896L691.1529 42.695896Z" fill-rule="nonzero"/><path fill="#1a1a1a" d="M707.40625 46.95625L709.1875 46.8Q709.3125 47.8625 709.7656 48.55Q710.2344 49.2375 711.2031 49.675Q712.1875 50.096874 713.4219 50.096874Q714.5 50.096874 715.3281 49.784374Q716.15625 49.45625 716.5625 48.89375Q716.96875 48.33125 716.96875 47.659374Q716.96875 46.9875 716.5781 46.4875Q716.1875 45.9875 715.2969 45.64375Q714.71875 45.409374 712.7344 44.940624Q710.7656 44.471874 709.9844 44.05Q708.9531 43.51875 708.4531 42.721874Q707.9531 41.925 707.9531 40.940624Q707.9531 39.846874 708.5625 38.909374Q709.1719 37.971874 710.3594 37.4875Q711.5469 36.9875 712.9844 36.9875Q714.5781 36.9875 715.7969 37.503124Q717.0156 38.01875 717.65625 39.01875Q718.3125 40.003124 718.3594 41.26875L716.5469 41.409374Q716.40625 40.05 715.5625 39.3625Q714.71875 38.659374 713.0625 38.659374Q711.34375 38.659374 710.5469 39.3Q709.7656 39.925 709.7656 40.8Q709.7656 41.58125 710.3281 42.08125Q710.875 42.58125 713.1875 43.096874Q715.5 43.6125 716.3594 44.003124Q717.6094 44.58125 718.2031 45.471874Q718.7969 46.346874 718.7969 47.503124Q718.7969 48.64375 718.1406 49.659374Q717.4844 50.675 716.25 51.2375Q715.03125 51.8 713.5 51.8Q711.5625 51.8 710.25 51.2375Q708.9375 50.659374 708.1875 49.51875Q707.4375 48.378124 707.40625 46.95625ZM727.9219 48.20625L729.7344 48.440624Q729.3125 50.01875 728.1406 50.909374Q726.9844 51.784374 725.1719 51.784374Q722.90625 51.784374 721.5625 50.39375Q720.2344 48.9875 720.2344 46.45625Q720.2344 43.83125 721.5781 42.39375Q722.9219 40.940624 725.0781 40.940624Q727.15625 40.940624 728.46875 42.3625Q729.7969 43.76875 729.7969 46.346874Q729.7969 46.503124 729.78125 46.815624L722.0469 46.815624Q722.1406 48.51875 723.0156 49.425Q723.8906 50.33125 725.1875 50.33125Q726.15625 50.33125 726.8281 49.83125Q727.5156 49.315624 727.9219 48.20625ZM722.1406 45.3625L727.9375 45.3625Q727.8281 44.065624 727.28125 43.409374Q726.4375 42.39375 725.09375 42.39375Q723.8906 42.39375 723.0625 43.20625Q722.2344 44.003124 722.1406 45.3625ZM730.6406 51.55L734.4375 46.159374L730.9375 41.175L733.125 41.175L734.71875 43.6125Q735.1719 44.3 735.4375 44.76875Q735.875 44.128124 736.2344 43.628124L737.9844 41.175L740.0781 41.175L736.5 46.065624L740.3594 51.55L738.2031 51.55L736.0625 48.33125L735.5 47.45625L732.78125 51.55L730.6406 51.55ZM745.6875 51.55L745.6875 38.925L740.96875 38.925L740.96875 37.2375L752.3125 37.2375L752.3125 38.925L747.5781 38.925L747.5781 51.55L745.6875 51.55ZM760.59375 50.26875Q759.6094 51.096874 758.7031 51.440624Q757.7969 51.784374 756.7656 51.784374Q755.0625 51.784374 754.1406 50.95625Q753.21875 50.1125 753.21875 48.815624Q753.21875 48.05 753.5625 47.425Q753.9219 46.8 754.4844 46.425Q755.0469 46.034374 755.75 45.83125Q756.2656 45.70625 757.3125 45.565624Q759.4375 45.315624 760.4375 44.971874Q760.4531 44.6125 760.4531 44.503124Q760.4531 43.440624 759.9531 42.9875Q759.28125 42.39375 757.9531 42.39375Q756.7031 42.39375 756.1094 42.83125Q755.53125 43.26875 755.25 44.378124L753.53125 44.14375Q753.7656 43.034374 754.2969 42.3625Q754.8281 41.675 755.84375 41.315624Q756.8594 40.940624 758.2031 40.940624Q759.53125 40.940624 760.3594 41.253124Q761.1875 41.565624 761.5781 42.05Q761.96875 42.51875 762.125 43.2375Q762.21875 43.690624 762.21875 44.8625L762.21875 47.20625Q762.21875 49.659374 762.3281 50.315624Q762.4375 50.95625 762.78125 51.55L760.9375 51.55Q760.6719 51.003124 760.59375 50.26875ZM760.4375 46.346874Q759.4844 46.7375 757.5625 47.003124Q756.4844 47.159374 756.03125 47.3625Q755.59375 47.55 755.34375 47.925Q755.09375 48.3 755.09375 48.76875Q755.09375 49.471874 755.625 49.940624Q756.15625 50.409374 757.1875 50.409374Q758.2031 50.409374 758.9844 49.971874Q759.78125 49.51875 760.15625 48.753124Q760.4375 48.14375 760.4375 46.9875L760.4375 46.346874ZM766.4375 51.55L764.8125 51.55L764.8125 37.2375L766.5625 37.2375L766.5625 42.346874Q767.6875 40.940624 769.40625 40.940624Q770.3594 40.940624 771.21875 41.33125Q772.0781 41.721874 772.625 42.425Q773.1719 43.1125 773.4844 44.096874Q773.7969 45.08125 773.7969 46.20625Q773.7969 48.878124 772.4844 50.33125Q771.1719 51.784374 769.3281 51.784374Q767.4844 51.784374 766.4375 50.253124L766.4375 51.55ZM766.4219 46.284374Q766.4219 48.14375 766.9219 48.9875Q767.7656 50.33125 769.1719 50.33125Q770.3281 50.33125 771.15625 49.33125Q772.0 48.33125 772.0 46.346874Q772.0 44.315624 771.1875 43.3625Q770.3906 42.39375 769.25 42.39375Q768.09375 42.39375 767.25 43.39375Q766.4219 44.39375 766.4219 46.284374ZM775.78125 51.55L775.78125 37.2375L777.53125 37.2375L777.53125 51.55L775.78125 51.55ZM786.9219 48.20625L788.7344 48.440624Q788.3125 50.01875 787.1406 50.909374Q785.9844 51.784374 784.1719 51.784374Q781.90625 51.784374 780.5625 50.39375Q779.2344 48.9875 779.2344 46.45625Q779.2344 43.83125 780.5781 42.39375Q781.9219 40.940624 784.0781 40.940624Q786.15625 40.940624 787.46875 42.3625Q788.7969 43.76875 788.7969 46.346874Q788.7969 46.503124 788.78125 46.815624L781.0469 46.815624Q781.1406 48.51875 782.0156 49.425Q782.8906 50.33125 784.1875 50.33125Q785.15625 50.33125 785.8281 49.83125Q786.5156 49.315624 786.9219 48.20625ZM781.1406 45.3625L786.9375 45.3625Q786.8281 44.065624 786.28125 43.409374Q785.4375 42.39375 784.09375 42.39375Q782.8906 42.39375 782.0625 43.20625Q781.2344 44.003124 781.1406 45.3625Z" fill-rule="nonzero"/></svg>